<svg xmlns="http://www.w3.org/2000/svg" xmlns:xlink="http://www.w3.org/1999/xlink" width="282.634" height="259.504" viewBox="0 0 282.634 259.504">
  <defs>
    <linearGradient id="linear-gradient" x1="-4133.547" y1="-1161.319" x2="-3919.01" y2="-1161.319" gradientUnits="objectBoundingBox">
      <stop offset="0" stop-color="#01253d"/>
      <stop offset="1" stop-color="#185076"/>
    </linearGradient>
  </defs>
  <g id="Grupo_10030" data-name="Grupo 10030" transform="translate(-1504.21 -25.099)">
    <path id="Trazado_1639" data-name="Trazado 1639" d="M1538.426,48.6a8.16,8.16,0,0,0-4.456-.438l84.551-22.717a7.7,7.7,0,0,1,5.171.242,14.3,14.3,0,0,1,6.836,5.413,15.89,15.89,0,0,1,2.523,5.261,2.352,2.352,0,0,1,.412,1.539V112.16l-.617.1v-.089q-.188-.277-1-1.27-1.27-1.548-.725-2.729a8.9,8.9,0,0,0-.188-4.366,6.065,6.065,0,0,0-.626-1.727,3.183,3.183,0,0,0,.358-3.275,6.04,6.04,0,0,0-.644-1.271,5.621,5.621,0,0,0-1.53-1.369,19.726,19.726,0,0,0-9.824-2.908,12.074,12.074,0,0,0-9.359,3.373q-.088.1-.175.206l-54.054,14.485v4.545l51.459-13.792q-.168,1.068-.327,2.277V105.9a17.509,17.509,0,0,0,.975,4.943l-52.117,13.962v4.545l54.148-14.508q.174.26.358.514l.179.358a14.183,14.183,0,0,0,1,1.458,2.992,2.992,0,0,0,.734,2q2.029,2.023,3.163,3.158.746.747,1.105,1.109,1.444,1.335,2.787,2.393.855.676,1.668,1.239a.625.625,0,0,0-.277.277,16.031,16.031,0,0,0-1.091,2.452,12.706,12.706,0,0,0-.9,2.273.921.921,0,0,0,.179.358.3.3,0,0,1-.089.2,1.131,1.131,0,0,0-.268.537,8.615,8.615,0,0,1-3-2.264q-1.553-1.705-3.1-3.221-.363-.355-.725-.7a34.125,34.125,0,0,1-2.662-2.944q-.126-.163-.246-.322a4.3,4.3,0,0,1-.447-4.823.258.258,0,0,1,.089-.179h-.089a5.677,5.677,0,0,0-1.369.993,42.232,42.232,0,0,0-4.992,4.921,4.12,4.12,0,0,0-.546.626q-.416.583-.751,1.02l-44.852,12.016v4.545l41.81-11.2a74.715,74.715,0,0,0-.586,9.095l-41.224,11.045v4.545l41.3-11.063.031,3.449q-.071,2.452.009,4.957.009.258.018.519l-41.354,11.076V169.8l41.6-11.148q.291,3.855.823,7.685.268,1.449.537,2.639a11.005,11.005,0,0,0,.635.913q.125.179.268.358a4.8,4.8,0,0,0,3.283,1.727q-3.552,6.361-2.281,10.262a5.349,5.349,0,0,0,.277.823,16.628,16.628,0,0,0,2.452,4.277q.089,1.816.277,3.543a84.279,84.279,0,0,1,.913,9.359q.179,4.635.447,9.359.179,5.359,0,10.638a21.418,21.418,0,0,1-.913,6.272,16.292,16.292,0,0,0-1.262,3.543,9.33,9.33,0,0,0-1,3.811,58.571,58.571,0,0,0,0,9.269q.358,4.545.814,9.09a32.53,32.53,0,0,1,0,6,25.851,25.851,0,0,0-.34,3.015l-19.567,5.252q-2.541.68-5.4-1.682l-17.349-10.826q-10.871-9.484-11.085-26.412V62.285a13.265,13.265,0,0,0-.882-4.487,18.015,18.015,0,0,0-4.165-6.232A13.1,13.1,0,0,0,1538.426,48.6Z" transform="translate(-24.435 0)" fill="#f0f0ff" fill-rule="evenodd"/>
    <path id="Trazado_1640" data-name="Trazado 1640" d="M1938.783,1316.906a12.29,12.29,0,0,0,0,1.646,12.8,12.8,0,0,0,1.19,4.885,7.735,7.735,0,0,0,4.563,2.076,1.057,1.057,0,0,0,.957-.152,5.542,5.542,0,0,0,.8-.725q.966-.957,1.682-.4a21.222,21.222,0,0,1,4.321,2.8,26.743,26.743,0,0,0,4.161,2.881,23.95,23.95,0,0,0,5.834-.241,25.136,25.136,0,0,0,5.6-1.6,7.451,7.451,0,0,0-.555-1.673,3.189,3.189,0,0,1-.4-1.262v-.107a.562.562,0,0,1-.08-.233,4.479,4.479,0,0,0-2.8-2q-.555-.17-1.763-.564a7.407,7.407,0,0,1-1.593-.725,45.054,45.054,0,0,1-5.149-4.142,30.041,30.041,0,0,1,8.03,3.131q7.274,4.17,7.274,10.039,0,5.887-7.274,10.056t-17.536,4.161q-10.271.018-17.545-4.151t-7.274-10.065a8.925,8.925,0,0,1,.389-2.63l.165.045a6.73,6.73,0,0,0,.161,1.3,13.257,13.257,0,0,0,1.351,3.552,6.946,6.946,0,0,1,3.123,3.472q.349.707,1.056,2.192a8.937,8.937,0,0,0,1.422,2,12.844,12.844,0,0,0,4.527,1.763,19.358,19.358,0,0,0,4.966.081,1.941,1.941,0,0,0,1.208-2.129,10.305,10.305,0,0,0-.143-1.494,8.825,8.825,0,0,0-.206-1.127v-.143a4.38,4.38,0,0,0-.5-1.136q-.985-2.2-1.7-3.543a29.086,29.086,0,0,0-2.693-4.465q-.336-.5-.635-.953a6.85,6.85,0,0,0,.823-1.257,2.611,2.611,0,0,0,.268-.554,39.655,39.655,0,0,1-1.181-5.091q-.165-1.05-.318-2.111A33.658,33.658,0,0,1,1938.783,1316.906Z" transform="translate(-342.389 -1060.647)" fill="#1d1d1b" fill-rule="evenodd" opacity="0.1"/>
    <path id="Trazado_1641" data-name="Trazado 1641" d="M1983.013,1157.974a67.875,67.875,0,0,1-.644-9.359,2.569,2.569,0,0,0,.089-.546v-2a29.209,29.209,0,0,1,2.908-11.551q.367-1.271.734-2.908a24.826,24.826,0,0,1,1.548-5.359v.456a30.382,30.382,0,0,0,.358,10.692,38.055,38.055,0,0,1-.769,19.084,2.748,2.748,0,0,0,1.4,3.48l.376.013c0,.07-.009.14-.014.21l-5.507,1.476Q1983.236,1159.84,1983.013,1157.974Z" transform="translate(-392.596 -904.113)" fill="#f0f0ff" fill-rule="evenodd"/>
    <path id="Trazado_1642" data-name="Trazado 1642" d="M2094.044,1116.98a30.565,30.565,0,0,0,8.392,11.774l17.349,10.826q2.3,1.172-.062,1.807l-.125.036-25.33,6.8a44.3,44.3,0,0,1-1.709-23.978q.732-3.74,1.4-7.489Z" transform="translate(-482.324 -896.313)" fill="#f0f0ff" fill-rule="evenodd"/>
    <path id="Trazado_1643" data-name="Trazado 1643" d="M2147.2,754.913a1.305,1.305,0,0,1-.278-.456.4.4,0,0,0,.278.089,12.767,12.767,0,0,0,1.646.277,3.814,3.814,0,0,0,.9.09,1.684,1.684,0,0,1,.537.089,1.549,1.549,0,0,1,.376.546,9.339,9.339,0,0,1,1.083,4.545,7.646,7.646,0,0,0-.545.814,5.835,5.835,0,0,1-1.271,1.271.257.257,0,0,0,.09-.179,10.413,10.413,0,0,0,.546-4.08q-.457,0-2,.089A17.518,17.518,0,0,0,2147.2,754.913Z" transform="translate(-527.701 -598.845)" fill="#f0f0ff" fill-rule="evenodd"/>
    <path id="Trazado_1644" data-name="Trazado 1644" d="M2305.063,1351.169q0,.072-.072.537a1.363,1.363,0,0,0,.152.931q.617,1.163,3.248,1.163a13.809,13.809,0,0,0,7.265-1.781,13.325,13.325,0,0,0,5.484-7.489,4.923,4.923,0,0,0,1.387.3,1.8,1.8,0,0,0,2.013-1.467,16.294,16.294,0,0,0,.233-3.785,2.342,2.342,0,0,0-.313-1.315l.161-.385v-.465a.071.071,0,0,1-.072-.036q.264-.353.51-.724a9.972,9.972,0,0,0,1.271-4.635c.011-.082.023-.167.036-.255q7.032,4.229,7.032,10.106.009,6.093-7.516,10.406t-18.145,4.3q-10.63,0-18.145-4.312t-7.524-10.4q0-6.084,7.524-10.388.711-.407,1.449-.778a4.868,4.868,0,0,0-1.011,3.239,3.031,3.031,0,0,0,1.172,2.63.747.747,0,0,0-.081.34q-.072.582.85,1.092a6.324,6.324,0,0,0,3.552.081,18.716,18.716,0,0,0,3.632-.752,17.275,17.275,0,0,0,2.541-1.271q5.923-3.131,8.106-3.131a1.515,1.515,0,0,1,0,.76q.179.421,1.36.42.3,0,.6,0c-.023.058-.046.116-.067.175q-.367,1.19-.814,2.371a3.593,3.593,0,0,0,.447,1.36,3.808,3.808,0,0,0,.564.613q-.974,1.492-2.353,3.342a36.558,36.558,0,0,0-4.241,6.344,3.868,3.868,0,0,0-.465,2.076,2.588,2.588,0,0,0,.224.7Z" transform="translate(-638.667 -1071.979)" fill="#1d1d1b" fill-rule="evenodd" opacity="0.1"/>
    <path id="Trazado_1645" data-name="Trazado 1645" d="M2312.336,487.118a11.99,11.99,0,0,0-1.637-4.357l-.179-.376q3-.089,3.355-.179.089.09.286.277a13.517,13.517,0,0,1,1.44,7.086v.188a13.338,13.338,0,0,1-3.176,2.085A13.671,13.671,0,0,0,2312.336,487.118Z" transform="translate(-662.026 -375.311)" fill="#f0f0ff" fill-rule="evenodd"/>
    <path id="Trazado_1646" data-name="Trazado 1646" d="M1725.612,245.856l-73.742,19.755v4.545l73.742-19.755Z" transform="translate(-121.237 -181.254)" fill="#f0f0ff" fill-rule="evenodd"/>
    <path id="Trazado_1647" data-name="Trazado 1647" d="M1725.612,321.206l-73.742,19.755v4.545l73.742-19.755Z" transform="translate(-121.237 -243.121)" fill="#f0f0ff" fill-rule="evenodd"/>
    <path id="Trazado_1648" data-name="Trazado 1648" d="M2044.277,569.184q-.55-2.072-1.105-3.982-.177-.608-.354-1.2h.555a4.932,4.932,0,0,0,.9-.546,5.534,5.534,0,0,1,1.628-.635q.368-.069.7-.125.57-.1,1.029-.152a1.64,1.64,0,0,1,.465-.089q.725,1.271,1.172,2.094,1.08,1.933,1.987,3.248.243.354.474.662-.233.026-.474.036A9.336,9.336,0,0,1,2048.1,568a.693.693,0,0,0-.286-.089v-.089h-.179a4.89,4.89,0,0,1-.626-.268,1.05,1.05,0,0,0,.027.25.068.068,0,0,0,.009.027.317.317,0,0,0,.054.081l-.036.018a6.868,6.868,0,0,0-2.783,2.156Z" transform="translate(-442.229 -441.201)" fill="#f0f0ff" fill-rule="evenodd"/>
    <path id="Trazado_1649" data-name="Trazado 1649" d="M2028.443,619.994q1.774,1.949,2.214,2.5.478.621.863,1.226a12.482,12.482,0,0,1,.953,1.772,7.54,7.54,0,0,0,.094-2.053,14.8,14.8,0,0,0-.452-2.581,7.57,7.57,0,0,0,1.145-.752q.649-.5,1.494-1.253-.465-.725-.286-.993a.856.856,0,0,0,.107.447.266.266,0,0,0,.089.188v.089a.257.257,0,0,0,.089.179v.089l.814,4.1a3.849,3.849,0,0,1,.09.716q.089.376.179.823l.179,4.456-.232,1.754q-.224,1-.59,2.138-.191.541-.407,1.114l0,.013a.046.046,0,0,0,0,.013l-.022.058h-.027a3.831,3.831,0,0,1-1.118-.447,2.481,2.481,0,0,1-.349-.25,7.392,7.392,0,0,1-.872-.913q-.215-.26-.452-.573a32.7,32.7,0,0,1-1.727-3.266q-1.475-2.505-2.313-3.9-.711-1.183-.962-1.561a1.44,1.44,0,0,1-.367-.546q1.215-1.651,1.776-2.559l.049-.081Z" transform="translate(-428.886 -486.687)" fill="#f0f0ff" fill-rule="evenodd"/>
    <path id="Trazado_1650" data-name="Trazado 1650" d="M1688.623,907.707l-36.853,9.877v4.545l36.853-9.878Z" transform="translate(-121.155 -724.671)" fill="#f0f0ff" fill-rule="evenodd"/>
    <path id="Trazado_1651" data-name="Trazado 1651" d="M2032.715,790.091q-1.637.268-3.1.447,3.866-4.447,2.112-9.591a2.717,2.717,0,0,0-.3-.591h1.637q.457.644.913,1.271a8.312,8.312,0,0,1,.993,3.274,6.459,6.459,0,0,1-.9,3.454.265.265,0,0,0-.09.188A10.621,10.621,0,0,1,2032.715,790.091Z" transform="translate(-431.391 -620.109)" fill="#f0f0ff" fill-rule="evenodd"/>
    <path id="Trazado_1652" data-name="Trazado 1652" d="M2058.569,853.272a12.954,12.954,0,0,1,2.4-3.149,12.985,12.985,0,0,0,1.306-1.217l2.478.1-.179,4.813q-.187.274-.385.532a11.717,11.717,0,0,1-4.858,3.744q-.2.1-.4.179Z" transform="translate(-455.16 -676.393)" fill="#f0f0ff" fill-rule="evenodd"/>
    <path id="Trazado_1653" data-name="Trazado 1653" d="M2157.919,1376.239a.315.315,0,0,1,.233-.081,12.26,12.26,0,0,0,1.521-.4A8.363,8.363,0,0,1,2157.919,1376.239Z" transform="translate(-536.732 -1108.966)" fill="#f0f0ff" fill-rule="evenodd"/>
    <path id="Trazado_1654" data-name="Trazado 1654" d="M2402.917,547.9a18.986,18.986,0,0,0,0-2.729q-.089-1.816-.09-3a1.766,1.766,0,0,0,.09-.546v-.179q.277-3.812,2.639-4.545l.089.089a1.456,1.456,0,0,0,.09.358,3.237,3.237,0,0,1,.278.913,3.067,3.067,0,0,1,.089.725q.09.734.179,2.46a5.242,5.242,0,0,0,.734,2.55,38.627,38.627,0,0,1,5.538-4.008q2.818-1.816,5.458-3.176a25.078,25.078,0,0,1,2.541-1.28,18.114,18.114,0,0,1-.814-1.637q2.64-.268,2.639,2.461,0,.268-1.458,1.548-3.087,2.353-3.731,3-5.914,5-8.267,9.726-.268.635-.546,1.271v-.089a4.54,4.54,0,0,0-.367-2l.179-.358a2.358,2.358,0,0,0-.089-1.915,4.372,4.372,0,0,0-1.262-1.906,5.286,5.286,0,0,0-2.013-1,15.183,15.183,0,0,0-.358,4.1,7.784,7.784,0,0,0-2,1.539Q2402.738,549.079,2402.917,547.9Z" transform="translate(-737.522 -417.731)" fill="#f0f0ff" fill-rule="evenodd"/>
    <path id="Trazado_1655" data-name="Trazado 1655" d="M2949.969,1101.256l.013.009-.854.492v18.275l-.009,0v-18.279Z" transform="translate(-1186.353 -883.587)" fill="#f0f0ff" fill-rule="evenodd"/>
    <path id="Trazado_1656" data-name="Trazado 1656" d="M2978.51,1172.525l0,0-2.112-1.221,14.374-8.3v-2.725l4.822,2.769-17.08,9.81v-.3l.027-.014-.027-.013Z" transform="translate(-1208.747 -932.049)" fill="#1d1d1b" fill-rule="evenodd" opacity="0.1"/>
    <path id="Trazado_1657" data-name="Trazado 1657" d="M2683.238,1210.032v-3.212l5.386,3.087-25.258,14.477-21.759-12.477-1.315.756-23.522-13.5,4.8-2.756v2.854l19.263,11.121v.018l3.91-2.259v1.883l19.254,11.121Z" transform="translate(-913.475 -961.71)" fill="#1d1d1b" fill-rule="evenodd" opacity="0.1"/>
    <path id="Trazado_1658" data-name="Trazado 1658" d="M2385.258,907.366l-.349-.573a.258.258,0,0,1-.089-.179,11.936,11.936,0,0,1-1.727-6.361v-.546a.345.345,0,0,1,.269.1,14.46,14.46,0,0,0,1.548.447,5.352,5.352,0,0,0,.9-.268,4.446,4.446,0,0,0,.089.823,1.678,1.678,0,0,0,.09.537,2.025,2.025,0,0,0,.089.635q.188.555.376,1.092a5.122,5.122,0,0,0,.447,1,1.909,1.909,0,0,0,.367.546q.357.823.912,1.816l.358.447a16.243,16.243,0,0,0-2.254.984q-.3.143-.564.3Q2385.509,907.786,2385.258,907.366Z" transform="translate(-721.599 -718.103)" fill="#f0f0ff" fill-rule="evenodd"/>
    <path id="Trazado_1659" data-name="Trazado 1659" d="M2751.219,1139.784v-.009l.465-.268,0,0Z" transform="translate(-1023.866 -914.992)" fill="#f0f0ff" fill-rule="evenodd"/>
    <path id="Trazado_1660" data-name="Trazado 1660" d="M2822.621,939.307v.013l-.009,0,.009,0v4.854l-3.91-2.259V927.917l19.245-11.108v13.658l-15.322,8.849Zm15.317-22.52.018-.009v.022Zm-15.317,30.953v0l-3.91,2.259v0Z" transform="translate(-1079.28 -732.119)" fill="#ed428b" fill-rule="evenodd"/>
    <path id="Trazado_1661" data-name="Trazado 1661" d="M2065.776,594.06v-.322a6.528,6.528,0,0,1-.2-.895q-.009-.081-.018-.179l.036-.018v-.268a4.91,4.91,0,0,1,.626.268h.09a.694.694,0,0,1,.286.089,1.973,1.973,0,0,0,.268.635q.269,1.091.546,2.46a125.222,125.222,0,0,1,1.906,16.534,1.618,1.618,0,0,1,.1.546v.188q.193,2.614.34,5.086.057.96.107,1.9v.089q.089.823.188,1.736l-1.637.993a4.925,4.925,0,0,0-.913.733l-.931-10.361h.027l.018-.027a.116.116,0,0,1,0-.031.046.046,0,0,1,0-.013l0-.014a.322.322,0,0,1,.022-.04q.34-.859.483-1.244a17.78,17.78,0,0,0,.492-1.968l.232-1.754-.179-4.456q-.089-.447-.179-.823a3.854,3.854,0,0,0-.089-.716l-.814-4.1v-.089a.259.259,0,0,1-.09-.179v-.089a.266.266,0,0,1-.089-.188.85.85,0,0,1-.107-.447q-.269-1.459-.448-2.639l-.018-.036A1.13,1.13,0,0,1,2065.776,594.06Zm3.982,40.325q.229.033.474.072h.179v.456q0,.358-.089,3.633l-2.479-.1a11.152,11.152,0,0,0,.394-4.268Q2068.875,634.25,2069.757,634.385Zm58.273-41.56a5.284,5.284,0,0,1,2.013,1,4.371,4.371,0,0,1,1.261,1.906,2.356,2.356,0,0,1,.09,1.915l-.179.358a3.75,3.75,0,0,1-1.637,1.181v-.179a8.872,8.872,0,0,1-1.816-.268q-.089-.913-.09-1.816A15.171,15.171,0,0,1,2128.03,592.825Zm72.127,68.643.166.1v14l-12.267-7.086-6.988,4.031V650.445Zm.166,22.184v0l-1.566.9,0,0Z" transform="translate(-460.901 -465.768)" fill="#cb2069" fill-rule="evenodd"/>
    <path id="Trazado_1662" data-name="Trazado 1662" d="M2009.937,642.226a1.8,1.8,0,0,0-.179-.814v-.179q-.136-.833-.3-1.664-.158-.81-.34-1.62-.26-1.349-.573-2.68-.68-2.881-1.61-5.677-.412-1.372-.881-2.595a24.883,24.883,0,0,0-1.942-4.026,16.9,16.9,0,0,0-1.355-1.915.3.3,0,0,0,.089-.2l.089-.089q.367-.626.546-.993a22.693,22.693,0,0,1,1.727,2.183q.2.3.412.608.568.83,1.226,1.754a1.44,1.44,0,0,0,.367.546q.251.378.962,1.561.838,1.391,2.313,3.9a32.649,32.649,0,0,0,1.727,3.266q.237.313.452.573a7.388,7.388,0,0,0,.872.913,2.535,2.535,0,0,0,.349.25,3.833,3.833,0,0,0,1.119.447l.931,10.361a.079.079,0,0,0-.089.089l-.09.089-.546.546a6.426,6.426,0,0,0-1.092,1.181l-.814.814a3.636,3.636,0,0,1-1.548,1.092q-.456-.626-.913-1.271-.537-3.722-.823-5.807A2.054,2.054,0,0,0,2009.937,642.226Zm5.037,19.934a12.939,12.939,0,0,0-2.4,3.149q-.357-4.366-.814-8.446a.265.265,0,0,1,.089-.188,6.7,6.7,0,0,1,1.083-.089,7.382,7.382,0,0,0,1.19-.089h.913a10.023,10.023,0,0,1,1.172.089,1.081,1.081,0,0,1,.465.089,11.152,11.152,0,0,1-.394,4.268A12.866,12.866,0,0,1,2014.974,662.161Zm55.32-24.211a51.682,51.682,0,0,1,2.729-10.531,36.93,36.93,0,0,1,3.176-6.183,8.871,8.871,0,0,0,1.816.268v.179a31.438,31.438,0,0,1-1.458,5.637,33.773,33.773,0,0,0-1.628,5.637,51.332,51.332,0,0,0-1.548,12.723q-.089,3.91.09,11.542a8.016,8.016,0,0,1,.09,1.279q0,1.083.089,3.812a4.959,4.959,0,0,1-.107.778,2.989,2.989,0,0,1-1.53,2.219,2.324,2.324,0,0,1-.358-.626c-.119-.071-.178-.133-.179-.188v-.009a5.323,5.323,0,0,1-.456-.716.286.286,0,0,1-.09-.188,21.254,21.254,0,0,1-1.181-2.541,8.913,8.913,0,0,1-.457-4.822,135.147,135.147,0,0,1,.9-17.626A1.924,1.924,0,0,1,2070.294,637.95Zm97.73,35-.009,0-19.245,11.108-.175-.1-19.089-11.023,19.255-11.112,19.236,11.1.018.014Z" transform="translate(-409.339 -488.265)" fill="#ff65a7" fill-rule="evenodd"/>
    <path id="Trazado_1663" data-name="Trazado 1663" d="M2967.456,1064.051v-21.173l-18.391,10.62-.855.492v18.275l4.872,2.814,14.374-8.3Z" transform="translate(-1185.607 -835.655)" fill="#ffbd59" fill-rule="evenodd"/>
    <path id="Trazado_1664" data-name="Trazado 1664" d="M2840.561,1042.7l19.254,11.117V1072.1l-12.24-7.068-3.928,2.268v-17.962l-3.087,1.78v0l3.078-1.776-3.078-1.781Zm0-.009v-.013l.013.009Z" transform="translate(-1097.22 -835.49)" fill="#fd9c3c" fill-rule="evenodd"/>
    <path id="Trazado_1665" data-name="Trazado 1665" d="M2855.855,982.933l-15.322,8.849-.013,0-.009,0,.009,0,19.254,11.117.85-.492,18.4-10.62-19.263-11.121Z" transform="translate(-1097.179 -784.585)" fill="#ffdb59" fill-rule="evenodd"/>
    <path id="Trazado_1666" data-name="Trazado 1666" d="M2750.26,1090.99v23.9l3.91-2.259v-5.972l.027.018,15.309-8.835v-17.961l-3.087,1.78-3.91,2.259-.009,0-1.566.9-10.2,5.892Z" transform="translate(-1023.078 -866.034)" fill="#1fbcbf" fill-rule="evenodd"/>
    <path id="Trazado_1667" data-name="Trazado 1667" d="M2661.874,1114.829V1090.94l-.018.009-19.245-11.121v23.88Z" transform="translate(-934.692 -865.992)" fill="#0d8e90" fill-rule="evenodd"/>
    <path id="Trazado_1668" data-name="Trazado 1668" d="M2674.041,1024.769l-.009,0-12.266-7.086-6.988,4.031-12.267,7.082.018.009,19.245,11.121.018-.009.465-.268,10.2-5.892,1.57-.9.009,0,3.91-2.259,3.078-1.776-3.078-1.78Z" transform="translate(-934.609 -814.964)" fill="#4eeef1" fill-rule="evenodd"/>
    <path id="Trazado_1669" data-name="Trazado 1669" d="M2896.863,757.89v0h0Zm-19.227,11.13,19.227-11.1v7.815l-19.245,11.112v-7.838Zm-.474-107.473,11.193-6.469v13.9l-11.193,6.469Z" transform="translate(-1127.271 -517.249)" fill="#60a2f0" fill-rule="evenodd"/>
    <path id="Trazado_1670" data-name="Trazado 1670" d="M2779.708,654.987v-.009l0,0Zm11.184,6.478.009,0v13.89l-11.193-6.469V655Zm-18.78,104.181V757.79l.027.018-.018.009,19.246,11.112v7.838Z" transform="translate(-1041.019 -517.167)" fill="#367dd1" fill-rule="evenodd"/>
    <path id="Trazado_1671" data-name="Trazado 1671" d="M2779.73,625.4l.018-.009,0,0,11.171-6.455,11.2,6.469-11.184,6.464-.009,0-11.184-6.46Zm-7.569,102.821.018-.009,15.309-8.835,3.928-2.268,12.239,7.068.009,0,4.872,2.814,2.112,1.221h0l.027.013-.027.013-19.228,11.1-.018-.009Z" transform="translate(-1041.06 -487.567)" fill="#8ec2ff" fill-rule="evenodd"/>
    <path id="Trazado_1672" data-name="Trazado 1672" d="M1504.21,161.482q0-4.223,2.818-6.227a6.012,6.012,0,0,1,1.62-.823.077.077,0,0,1,.054-.027,6.778,6.778,0,0,1,.662-.179,8.159,8.159,0,0,1,4.456.438,13.1,13.1,0,0,1,4.724,2.97Zm19.38,6.871v165.29q.215,16.928,11.085,26.412l17.349,10.826q2.863,2.362,5.4,1.682l19.567-5.252q-.065,1.165-.026,2.344v.13l-18.977,5.1q-2.532.68-5.4-1.682l-1.423-.895a8.988,8.988,0,0,1-2.29-1.422l-17.349-10.826q-10.862-9.484-11.085-26.412V166.877a2.726,2.726,0,0,1,2.085-2.962l.183-.049A13.262,13.262,0,0,1,1523.59,168.353Zm114.273,183.3q2.291,1.172-.062,1.807l-25.656,6.88q.068-.143.121-.286a3.927,3.927,0,0,0,.134-.429q-.331-.821-.626-1.646l25.329-6.8Zm-41.627,10.495c-.006.061-.01.12-.013.179a33.672,33.672,0,0,0-5.48,1.4c0-.032-.009-.065-.014-.1Z" transform="translate(0 -105.904)" fill="#abb1eb" fill-rule="evenodd"/>
    <path id="Trazado_1673" data-name="Trazado 1673" d="M1904.789,404.063a12.074,12.074,0,0,1,9.359-3.373,19.723,19.723,0,0,1,9.824,2.908,5.615,5.615,0,0,1,1.53,1.369,6.042,6.042,0,0,1,.644,1.271,3.185,3.185,0,0,1-.358,3.275,10.6,10.6,0,0,1-2.192.913q-1.905.725-2.532.9a4.276,4.276,0,0,0-1.19.823,22.4,22.4,0,0,1-14.141-3.637l-.3-.2a10.678,10.678,0,0,1-2.192-1.986,5.792,5.792,0,0,1,.358-.626.079.079,0,0,1,.09-.09,9.16,9.16,0,0,1,.926-1.342Q1904.7,404.164,1904.789,404.063Zm-1.458,64.616q.376-2.9.832-5.811.22-1.387.457-2.778.167-.981.286-1.964a41.751,41.751,0,0,0,.13-8.97q-.044-.447-.094-.895a26.493,26.493,0,0,0-.626-3.463,24.444,24.444,0,0,0-3.5-7.775q-.066-.1-.134-.188a5.093,5.093,0,0,0-3.3-2.031,3.852,3.852,0,0,0-3.319.886,6.728,6.728,0,0,1,1-1.548q.158-.2.34-.438.336-.437.752-1.02a.25.25,0,0,1,.179.1,1.492,1.492,0,0,1,.456.089,5.943,5.943,0,0,1,.68.277,13.942,13.942,0,0,1,4.08,3.454,42.237,42.237,0,0,1,2.961,3.9q.528,1.657,1.3,3.9.289.829.608,1.74.544,1.414.872,2.411.283.854.407,1.4a26,26,0,0,1,.913,7v1.092q0,1.774-.1,3.664-.172,3.148-.631,6.616Zm-7.632,21.813a5.342,5.342,0,0,1-.277-.823q-1.271-3.9,2.281-10.263a29.1,29.1,0,0,0,8.267.063q-.179,4.491-.179,5.386-.09,1.181-.09,2.362v.456a68.186,68.186,0,0,0,1.727,14.36l-9.278-7.265A16.635,16.635,0,0,1,1895.7,490.492Zm45.166,84.211q-.322.072-.635.152h-.161a1.578,1.578,0,0,1-.483.081.328.328,0,0,1-.241.081l-2.156.322a4.806,4.806,0,0,1-2.89-.242,8.442,8.442,0,0,1-2.4-1.6q-1.521-1.351-2.317-2a8.186,8.186,0,0,0-2.559-1.521,45.7,45.7,0,0,0-4.8-1.6,5.137,5.137,0,0,1-.805-.233l-1.109-.4q-.564-.242-1.038-.4a7.358,7.358,0,0,1-1.6-1.047,2.818,2.818,0,0,1-1.132-2.644c0-.022,0-.044,0-.067V563.3l13.054.447q.51-.322,1.011-.653.407-.263.805-.541.829.83,1.659,1.6a45,45,0,0,0,5.149,4.142,7.389,7.389,0,0,0,1.592.725q1.208.394,1.763.564a4.476,4.476,0,0,1,2.8,2,.563.563,0,0,0,.08.233v.483l-.08.805v.563q-.152.081-.313.152l-1.208.4a12.361,12.361,0,0,1-1.521.4.315.315,0,0,0-.233.081Zm31.682-8.849a33.564,33.564,0,0,0,8.7-4.93c-.006.033-.012.066-.018.1a1.977,1.977,0,0,1,.635.268,17.649,17.649,0,0,0,3.731,1,15.386,15.386,0,0,0,1.628.268,12.706,12.706,0,0,0,6-.823,11.66,11.66,0,0,0,2.085-1.539q-.268,1.826-.626,3.552-.079.386-.166.769-1.01.284-2.349.573a18.53,18.53,0,0,0-4.733,1.781q-.519.25-4.563,2.523a1.1,1.1,0,0,0-.429.259,26.8,26.8,0,0,1-4.232,1.95,13.1,13.1,0,0,1-4.312.76h-.76a1.269,1.269,0,0,1-.68-.34,3.032,3.032,0,0,1-1.172-2.63,4.87,4.87,0,0,1,1.011-3.239Q1972.413,566,1972.545,565.854Zm39.994-75.9.018.143q.027.125.045.242l.036.215q.152-.143,1.038,2.389a11.762,11.762,0,0,1,.841,3.919.226.226,0,0,0-.224.134l-.036.125q-1.36.268-2.505.5-3.722.725-5.216.966a45.468,45.468,0,0,1-7.176.644q-1.137,0-2.237-.054-.2-1.029-.5-2.478-.313-1.414-.492-2.344,7.8-1.951,15.541-4.313h.09q.385-.125.751-.25A1.536,1.536,0,0,0,2012.539,489.955ZM1996.4,477.59q.367-.734,1.816-3.821,1.548-3.006,2.729-5.824,3.006-6.9,3.185-17.357a43,43,0,0,1,.179-4.447,16.517,16.517,0,0,1,1.369-4.912,13.607,13.607,0,0,1,6.54-6.182,3.014,3.014,0,0,0,.456.367l1.092,1.091q.277.367.546.725l.635.635.09.179a8.344,8.344,0,0,0-6.272,4.456,32.043,32.043,0,0,0-3,21.366,110.476,110.476,0,0,1,1.915,14.629,124.783,124.783,0,0,1-12.732,6.361A18.929,18.929,0,0,1,1996.4,477.59Zm-8.8-67.524q-.554-.286-2.46-1.011a7.261,7.261,0,0,1-2.174-.913,1.956,1.956,0,0,1-.286-.537,3.336,3.336,0,0,1-.089-2.729,5.639,5.639,0,0,1,2.63-2.765l-.081.036a20.3,20.3,0,0,1,9.448-2.809,12.119,12.119,0,0,1,9.368,3.355,4.05,4.05,0,0,0,.626.814,9.017,9.017,0,0,1,.555.823v.089h.089v.089a8.188,8.188,0,0,1,.9,1.816q.277.734.555,1.637a4.356,4.356,0,0,0-.823.644,26.7,26.7,0,0,1-2.541,1.727,10.2,10.2,0,0,1-3,1.083,6.926,6.926,0,0,1-1.637.179,14.248,14.248,0,0,1-6.093-1.083q-1.181.089-2.272.179a12.016,12.016,0,0,0-1.458.089A4.269,4.269,0,0,0,1987.594,410.066Zm-70.826,174.693a4.753,4.753,0,0,1-.286,1.772,1.679,1.679,0,0,1-1.772,1.279q-.778,0-1.556-.072h-1a3.881,3.881,0,0,0-.778-.072h-.134l-.645-.143q-.635-.072-1.065-.143c-.185-.048-.373-.093-.563-.134a5.016,5.016,0,0,1-3.194-2.63.261.261,0,0,0-.072-.206q-1.208-2.487-1.843-3.758a32.538,32.538,0,0,0-2.129-3.543,16.494,16.494,0,0,1-1.212-2.067,22.377,22.377,0,0,0,9.086.519,7.67,7.67,0,0,0,1.637-1.463q.3.448.635.953a29.082,29.082,0,0,1,2.693,4.465q.716,1.342,1.7,3.543a4.386,4.386,0,0,1,.5,1.136v.564Zm78.091-9.654a.686.686,0,0,1,.268.089,9.848,9.848,0,0,0,2.094.456h.277l1.727.367a5.311,5.311,0,0,1,1,.089,6.266,6.266,0,0,0,4.9-2.452q.349-.4.671-.823a.071.071,0,0,0,.072.036v.465l-.161.385-.233,1.154a10.329,10.329,0,0,1-.7,1.083,21.276,21.276,0,0,0-3.391,4.33q-1.7,2.541-2.55,3.785-.313.465-.466.7a9.746,9.746,0,0,1-5.1,2.935.662.662,0,0,0-.313.081h-.152a1.569,1.569,0,0,0-.465.072l-.85.152h-.77a9.621,9.621,0,0,1-1.7-.152,10.023,10.023,0,0,1-1.7-.465,1.246,1.246,0,0,1-1.011-.85,2.6,2.6,0,0,1-.224-.7,3.866,3.866,0,0,1,.465-2.076,36.543,36.543,0,0,1,4.241-6.344q1.379-1.85,2.353-3.342A6.086,6.086,0,0,0,1994.86,575.105Z" transform="translate(-320.09 -307.265)" fill="#0d2a77" fill-rule="evenodd"/>
    <path id="Trazado_1674" data-name="Trazado 1674" d="M1925.75,445.434v-1.548q.159-1.209.327-2.277.019-.133.04-.264a15.683,15.683,0,0,1,1.181-2.917,10.679,10.679,0,0,0,2.192,1.986l.3.2a22.4,22.4,0,0,0,14.141,3.637,1.026,1.026,0,0,0-.268.179l-.913,2.639v.179a2.3,2.3,0,0,1,0,.9,3.3,3.3,0,0,1-.724,1.727,1.249,1.249,0,0,1-.179.277,6.155,6.155,0,0,1-1.8,1.194q-.187.086-.385.166.269,1.915-.456,2a4.081,4.081,0,0,1-2-.644q-.528-.29-.971-.505a7.224,7.224,0,0,0-1.49-.577,1.89,1.89,0,0,0-2,.993,1.308,1.308,0,0,0-.134.555,1.563,1.563,0,0,0,.134.635l.725,1.092a1.4,1.4,0,0,1,.268.358,1.365,1.365,0,0,1-.268,1.816,4.526,4.526,0,0,1-.546.456,1.642,1.642,0,0,1-2-.367,3.325,3.325,0,0,1-.635-.626,14.253,14.253,0,0,1-1-1.458l-.179-.358q-.184-.255-.358-.514a17.764,17.764,0,0,1-2.031-4A17.5,17.5,0,0,1,1925.75,445.434ZM1940.4,595.4l-.376-.014a2.748,2.748,0,0,1-1.4-3.48,38.059,38.059,0,0,0,.77-19.084,30.367,30.367,0,0,1-.358-10.692q.7-2.13,1.467-4.232a132.043,132.043,0,0,0,6.165-22.851l1.995-.456-.725-10.271,5.368-4.366.089,12.9a2.241,2.241,0,0,0,.349-.206,18.923,18.923,0,0,0,6.639-8.24q-1.632,17.867-4.769,35.565-.664,3.748-1.4,7.489a44.3,44.3,0,0,0,1.709,23.978q.3.825.626,1.646a3.929,3.929,0,0,1-.134.429,3.088,3.088,0,0,1-.121.286c-.015.036-.031.072-.049.107a1.594,1.594,0,0,1-.43.5l-.34.246q-.4.278-.805.541-.5.331-1.011.653l-13.054-.447v.277c0,.023,0,.045,0,.067a2.819,2.819,0,0,0,1.132,2.644,7.372,7.372,0,0,0,1.6,1.047q.475.161,1.038.4l1.109.4a5.124,5.124,0,0,0,.805.233,45.686,45.686,0,0,1,4.8,1.6,8.184,8.184,0,0,1,2.559,1.521q.8.644,2.317,2a8.435,8.435,0,0,0,2.4,1.6,4.806,4.806,0,0,0,2.89.242l2.156-.322a.328.328,0,0,0,.241-.081,1.574,1.574,0,0,0,.483-.081h.161q.313-.08.635-.152h.241a8.375,8.375,0,0,0,1.754-.483l1.208-.4q.161-.072.313-.152V605.2l.08-.805v-.376a3.187,3.187,0,0,0,.4,1.262,7.456,7.456,0,0,1,.555,1.673,25.146,25.146,0,0,1-5.6,1.6,23.95,23.95,0,0,1-5.834.242,26.765,26.765,0,0,1-4.16-2.881,21.217,21.217,0,0,0-4.322-2.8q-.716-.555-1.682.4a5.536,5.536,0,0,1-.8.725,1.057,1.057,0,0,1-.957.152,7.735,7.735,0,0,1-4.563-2.076,12.8,12.8,0,0,1-1.19-4.885,12.173,12.173,0,0,1,0-1.646q.005-.088.013-.179C1940.387,595.541,1940.392,595.471,1940.4,595.4Zm65.341-5.373q.179-2.55.089-5.547-.447-5.807-.447-8.813a93.348,93.348,0,0,0-1.279-13.725,129.865,129.865,0,0,0-3-13.448,43.779,43.779,0,0,1-2.639-10.092l6.639-.268-2-5.458a12.714,12.714,0,0,0,1.1-.814,24.382,24.382,0,0,1,2.532-1.539l.089-.1a1.554,1.554,0,0,1,.555-.358,101.3,101.3,0,0,0,2.568,14.789q3.1,12.4,7.05,24.578a54.8,54.8,0,0,1,2.532,21.339q-.068.862-.161,1.727a11.656,11.656,0,0,1-2.085,1.539,12.705,12.705,0,0,1-6,.823,15.408,15.408,0,0,1-1.628-.268,17.652,17.652,0,0,1-3.731-1,1.978,1.978,0,0,0-.635-.268c.006-.032.012-.065.018-.1Q2005.564,591.612,2005.737,590.029Zm20.176-134.055a1.623,1.623,0,0,1-2.541-.089,1.462,1.462,0,0,1-.277-.367,1.551,1.551,0,0,1,0-1.449l.188-.188a.257.257,0,0,1,.089-.179,6.563,6.563,0,0,0,.626-1.092,1.022,1.022,0,0,0,0-1.181,1.713,1.713,0,0,0-1.906-.993,10.367,10.367,0,0,0-2.443,1.083,4.337,4.337,0,0,1-2.013.734q-.716-.188-.447-2a.686.686,0,0,0-.268-.089,6.913,6.913,0,0,1-2.094-1.539,3.36,3.36,0,0,1-.734-1.637,2.828,2.828,0,0,1,0-1V444.61H2014v-.179a.257.257,0,0,0-.089-.179,2.736,2.736,0,0,0-1-1.369,12.013,12.013,0,0,1,1.458-.089q1.091-.09,2.273-.179a14.246,14.246,0,0,0,6.093,1.083,6.929,6.929,0,0,0,1.638-.179,10.2,10.2,0,0,0,3-1.083,26.682,26.682,0,0,0,2.541-1.727,4.36,4.36,0,0,1,.823-.644v.089q.09.555.179,1.1v.447a.259.259,0,0,0,.089.179v2.192a16.781,16.781,0,0,1-3.275,9.448q-.447.814-.814,1.369-.367.447-.725.805A.572.572,0,0,1,2025.913,455.973Zm-101.34,151.171a16.489,16.489,0,0,0,1.212,2.067,32.523,32.523,0,0,1,2.129,3.543q.635,1.271,1.843,3.758a.261.261,0,0,1,.072.206,5.016,5.016,0,0,0,3.194,2.63q.286.063.564.134.43.072,1.065.143l.644.143h.134a3.879,3.879,0,0,1,.778.072h1q.779.071,1.557.072a1.679,1.679,0,0,0,1.772-1.279,4.751,4.751,0,0,0,.286-1.772v-.42a8.775,8.775,0,0,1,.206,1.127,10.321,10.321,0,0,1,.143,1.494,1.942,1.942,0,0,1-1.208,2.129,19.353,19.353,0,0,1-4.966-.081,12.844,12.844,0,0,1-4.527-1.762,8.935,8.935,0,0,1-1.423-2q-.707-1.485-1.056-2.192a6.944,6.944,0,0,0-3.123-3.471,13.259,13.259,0,0,1-1.351-3.552,6.721,6.721,0,0,1-.161-1.3Q1923.976,607.005,1924.573,607.144Zm81.531-87.369a3.049,3.049,0,0,1,.089-.725.265.265,0,0,0,.089-.188v-3.078a.057.057,0,0,1,.027-.036.248.248,0,0,0,.152.036,2.326,2.326,0,0,0,.358.626,2.99,2.99,0,0,0,1.53-2.219h.072q-.3,1.235-.59,2.13a8.5,8.5,0,0,1-.546,1.816q-.555,1.727-1.092,1.727h-.179A.079.079,0,0,1,2006.1,519.776Zm10.974,81.889q-.3,0-.6,0-1.181,0-1.36-.421a1.521,1.521,0,0,0,0-.76q-2.183,0-8.106,3.131a17.289,17.289,0,0,1-2.541,1.271,18.715,18.715,0,0,1-3.633.752,6.324,6.324,0,0,1-3.552-.081q-.922-.51-.85-1.092a.748.748,0,0,1,.08-.34,1.269,1.269,0,0,0,.68.34h.76a13.1,13.1,0,0,0,4.313-.76,26.792,26.792,0,0,0,4.232-1.95,1.105,1.105,0,0,1,.43-.26q4.044-2.273,4.563-2.523a18.52,18.52,0,0,1,4.733-1.781q1.339-.288,2.349-.573A39.794,39.794,0,0,1,2017.078,601.664Zm-5.695,17.827a10.014,10.014,0,0,0,1.7.465,9.627,9.627,0,0,0,1.7.152h.769l.85-.152a1.57,1.57,0,0,1,.465-.072h.152a.662.662,0,0,1,.313-.081,9.749,9.749,0,0,0,5.1-2.935q.152-.233.465-.7.85-1.244,2.55-3.785a21.288,21.288,0,0,1,3.391-4.33,10.344,10.344,0,0,0,.7-1.083l.233-1.154a2.345,2.345,0,0,1,.313,1.315,16.263,16.263,0,0,1-.233,3.785,1.8,1.8,0,0,1-2.013,1.467,4.918,4.918,0,0,1-1.387-.3,13.322,13.322,0,0,1-5.484,7.489,13.807,13.807,0,0,1-7.265,1.781q-2.63,0-3.248-1.163a1.365,1.365,0,0,1-.152-.93q.072-.466.072-.537v-.081A1.246,1.246,0,0,0,2011.383,619.492Z" transform="translate(-344.147 -339.367)" fill="#061e5d" fill-rule="evenodd"/>
    <path id="Trazado_1675" data-name="Trazado 1675" d="M1702.338,283.989q-.021.131-.04.264l-51.46,13.792V293.5l54.054-14.485a9.158,9.158,0,0,0-.926,1.342.079.079,0,0,0-.089.089,5.848,5.848,0,0,0-.358.626A15.688,15.688,0,0,0,1702.338,283.989Zm-51.509,27.539v-4.545l52.117-13.962a17.759,17.759,0,0,0,2.031,4Zm41.846,2c-.012.093-.024.185-.036.277l-41.81,11.2v-4.545l44.852-12.016q-.181.242-.34.438a6.727,6.727,0,0,0-1,1.548A4.815,4.815,0,0,0,1692.675,313.533ZM1650.829,338.5V333.95l41.224-11.045q-.006,1.619.058,3.243l.013,1.284Zm0,13.484v-4.545l41.354-11.077q.086,2.242.25,4.474Zm0-67.417v-4.545l73.742-19.755v4.545Zm0-13.483v-4.545l73.742-19.755v4.545Zm-.018,108.556v-4.545l36.853-9.877v4.545Zm133.778-61.744q.277-1.637.555-3.185a7.775,7.775,0,0,1,2-1.539q0,.9.089,1.816a36.925,36.925,0,0,0-3.176,6.182Q1784.231,319.8,1784.589,317.89Zm4.456,4.357q-.725,2.729-1.458,7.1-.626,3.722-2,14.172-.09,1-.179,2h-.089q-.358,2.917-.823,5.458-.179-7.632-.089-11.542a51.3,51.3,0,0,1,1.548-12.723,33.758,33.758,0,0,1,1.628-5.637,31.459,31.459,0,0,0,1.458-5.637,3.749,3.749,0,0,0,1.637-1.181,4.534,4.534,0,0,1,.367,2v.089A35.634,35.634,0,0,0,1789.044,322.247Z" transform="translate(-120.368 -182.011)" fill="#c3caff" fill-rule="evenodd"/>
    <path id="Trazado_1676" data-name="Trazado 1676" d="M1975.969,469.685l-.725-1.092a1.56,1.56,0,0,1-.134-.635,1.306,1.306,0,0,1,.134-.555,1.89,1.89,0,0,1,2-.993,7.22,7.22,0,0,1,1.49.577q.443.216.971.505a4.081,4.081,0,0,0,2,.644q.725-.089.456-2,.2-.079.385-.166a6.156,6.156,0,0,0,1.8-1.194,1.241,1.241,0,0,0,.179-.277,3.3,3.3,0,0,0,.725-1.727q1.459-.814,3.731-2.264,1.033-.643,1.87-1.172,1.294-.824,2.12-1.378a8.9,8.9,0,0,1,.188,4.366q-.546,1.181.724,2.729.814.993,1,1.271v.089a1.728,1.728,0,0,1,.367,1.271.277.277,0,0,0-.188.1,4.18,4.18,0,0,0-1.816,2.532q-.456,1.458-.546,1.637a4.811,4.811,0,0,1-.644,1,1,1,0,0,1-.358.367,2.7,2.7,0,0,1-.358.268,3.735,3.735,0,0,1-.492.206,7.3,7.3,0,0,1-1.968.349q-2,.179-2.63.179h-.734q-.42,0-.93.04-.248.02-.519.049a9.534,9.534,0,0,1-1.459-.09,1.772,1.772,0,0,1-.546-.089h-.089l-1.36-.465-.412-.3-.134-.134a2.589,2.589,0,0,1-.635-1.208h-.1q-1.172-.09-3.087-2.085A1.4,1.4,0,0,0,1975.969,469.685Zm20,52.985q-.245-.039-.474-.072-.882-.135-1.521-.206a1.078,1.078,0,0,0-.465-.089,10.017,10.017,0,0,0-1.172-.09h-.913a7.378,7.378,0,0,1-1.19.09,6.678,6.678,0,0,0-1.083.089,6.461,6.461,0,0,0,.9-3.454,8.311,8.311,0,0,0-.993-3.275,3.636,3.636,0,0,0,1.548-1.092l.814-.814a6.449,6.449,0,0,1,1.092-1.181l.546-.546.089-.09a.079.079,0,0,1,.089-.089,4.921,4.921,0,0,1,.913-.733l1.637-.993a1.95,1.95,0,0,1,.716-.367,10.028,10.028,0,0,1,2.639-.725,7.23,7.23,0,0,1,2.282-.179,1.517,1.517,0,0,1-.089,1.36l-.1.089a3.942,3.942,0,0,1-1.459.814q-1.449.555-1.816.733a6.585,6.585,0,0,0-1.637,1.727q-.179.179-.179.268a2.134,2.134,0,0,0-.268,1.1v.716a.709.709,0,0,0,.448.09,7.342,7.342,0,0,0,2.281-.805q1.539-.734,3-1.369h1.458q2.72-.179,4.259-.268t2-.089a10.4,10.4,0,0,1-.546,4.08.258.258,0,0,1-.089.179,3.609,3.609,0,0,1-2.729,2.639q.1.277.367.913a9.119,9.119,0,0,1-.734.814,2.25,2.25,0,0,0-.537.268l-.089.1a9.626,9.626,0,0,1-4.187,1,6.726,6.726,0,0,1-1.092-.089,20.7,20.7,0,0,1-3.543-.456Zm49.988-58.264a3.84,3.84,0,0,1,1.092-1.727,12.118,12.118,0,0,0,1.458-1.906,1.8,1.8,0,0,0,.269-1.181,1.738,1.738,0,0,0-.269-.9,10.505,10.505,0,0,1,.09-2.46q1.449,1,3.9,2.639a10.012,10.012,0,0,1,1.27.9q1.637,1.091,2.818,1.825a3.361,3.361,0,0,0,.734,1.637,6.915,6.915,0,0,0,2.094,1.539.684.684,0,0,1,.268.089q-.268,1.816.448,2a4.338,4.338,0,0,0,2.013-.734,10.372,10.372,0,0,1,2.442-1.083,1.713,1.713,0,0,1,1.906.993,1.022,1.022,0,0,1,0,1.181,6.536,6.536,0,0,1-.626,1.092.335.335,0,0,1-.277.277q-.627.268-1.271.537a2.508,2.508,0,0,1-1.906,0,.556.556,0,0,1-.367-.089h-.09v.358a3.987,3.987,0,0,1-2.451,2.917,6.452,6.452,0,0,1-1.548.546l-1.637.367h-1.271a6.038,6.038,0,0,1-.635-.188q-.913-.09-2.819-.268h-.733a3.8,3.8,0,0,1-2.631-1.36,1.013,1.013,0,0,0-.179-.277q-.09-.277-.179-.635a8.232,8.232,0,0,1-.376-1.906,8.47,8.47,0,0,0-.358-2.273.536.536,0,0,0-.089-.367,4.174,4.174,0,0,1-.734-.546A1.111,1.111,0,0,1,2045.954,464.406Zm-69.358,3.731q0,.089-.179.268-.268.188-.268.277a5.929,5.929,0,0,0,1.36,1.092,8.709,8.709,0,0,0,1.458.725,5.246,5.246,0,0,1-.913-1.19A3.2,3.2,0,0,0,1976.6,468.137Zm25.186,47.984v.367a28.955,28.955,0,0,0,2.908-.456,18.933,18.933,0,0,0,2.72-.635,20.785,20.785,0,0,0-2.81.358A14.284,14.284,0,0,1,2001.782,516.12Zm.993,4.724q-1.083.188-1.816.367a9.423,9.423,0,0,0,3.641-.456Q2004.054,520.755,2002.775,520.844Zm1.825-2.451a10.327,10.327,0,0,0,1.181-.179,5.95,5.95,0,0,0,1.271-.456A14.289,14.289,0,0,0,2004.6,518.393Zm60.447-52.529a2.961,2.961,0,0,0-1.458.814,3.915,3.915,0,0,0-.734,1l.555.277,1.906-1.915Zm-19.46,81.339-.358.358a7.148,7.148,0,0,1-3.731.465,6.648,6.648,0,0,1-2.183-.644.683.683,0,0,0-.268-.089,24.906,24.906,0,0,1-3.266-2.085q-.823-.635-1.816-1.459a1.852,1.852,0,0,1-.913-1.727q0-1.27,1.181-1a2.433,2.433,0,0,0,.537.089,3.474,3.474,0,0,0,1.369-.089q.725-.179,1.637-.447a2.008,2.008,0,0,1,.734-.456q2.443-1.727,3.633-2.55a.282.282,0,0,0-.166-.089h.166l-1.1-2.818a8.086,8.086,0,0,1,2-.447,7.325,7.325,0,0,1,3.454.912.744.744,0,0,1,.277.09q.627.268,1.181.537v.546a11.939,11.939,0,0,0,1.727,6.361.258.258,0,0,0,.089.179q.179.295.349.573.25.42.465.8a.364.364,0,0,0-.268.089c-.125.06-.277.122-.456.188a1.558,1.558,0,0,0-.555.358l-.089.1a24.37,24.37,0,0,0-2.532,1.539,12.747,12.747,0,0,1-1.1.814Z" transform="translate(-386.636 -353.982)" fill="#ffaa83" fill-rule="evenodd"/>
    <path id="Trazado_1677" data-name="Trazado 1677" d="M1976.936,449.3q.627-.179,2.532-.9a10.591,10.591,0,0,0,2.192-.913,6.065,6.065,0,0,1,.626,1.727q-.826.554-2.121,1.378-.837.529-1.87,1.172-2.273,1.449-3.731,2.264a2.307,2.307,0,0,0,0-.9v-.179l.913-2.639a1.036,1.036,0,0,1,.268-.179A4.274,4.274,0,0,1,1976.936,449.3Zm-7.037,21.934q-1.343-1.059-2.787-2.393-.359-.362-1.105-1.109-1.134-1.135-3.163-3.158a2.993,2.993,0,0,1-.733-2,3.331,3.331,0,0,0,.635.626,1.642,1.642,0,0,0,2,.367,1.982,1.982,0,0,0,.268.635,7.881,7.881,0,0,0,2.389,3.149,6.879,6.879,0,0,0,4.25,1.306,14.462,14.462,0,0,0,3.355-.367q.108-1.083.108-2.72h.447q.358,1.262.814,2.63.177.591.353,1.2.555,1.91,1.105,3.981v.9a6.345,6.345,0,0,0,.268,1.816,11.238,11.238,0,0,0,.443,1.749q.127.406.291.89v.09q.089.367.179.644v.089a14.811,14.811,0,0,1,.452,2.581,7.541,7.541,0,0,1-.094,2.053,12.548,12.548,0,0,0-.953-1.772q-.386-.6-.864-1.226-.441-.547-2.214-2.5l-.049-.054a.079.079,0,0,0-.089-.089q-3.006-3.364-3.463-5.995a.25.25,0,0,1-.179-.1Q1970.754,471.91,1969.9,471.234Zm68.647-25.656a1.955,1.955,0,0,0,.287.537,7.258,7.258,0,0,0,2.174.913q1.906.725,2.46,1.011a4.26,4.26,0,0,1,1.262.716,2.733,2.733,0,0,1,1,1.369.257.257,0,0,1,.09.179v.179h.089v1.369a2.84,2.84,0,0,0,0,1q-1.181-.734-2.818-1.825a10.019,10.019,0,0,0-1.271-.9q-2.452-1.637-3.9-2.639A7.208,7.208,0,0,1,2038.546,445.578Zm-45.165,55.07a9.9,9.9,0,0,0,1.628.367,1.305,1.305,0,0,0,.278.456,17.5,17.5,0,0,1,1.36,3.1q-1.539.089-4.259.268h-1.458q-1.458.635-3,1.369a7.343,7.343,0,0,1-2.282.805.708.708,0,0,1-.447-.089V506.2a2.134,2.134,0,0,1,.268-1.1q0-.089.179-.268a6.586,6.586,0,0,1,1.637-1.727q.367-.179,1.816-.734a3.942,3.942,0,0,0,1.458-.814l.1-.089A28.358,28.358,0,0,1,1993.381,500.648Zm1.727,8.822a10.336,10.336,0,0,1-1.181.179,14.3,14.3,0,0,1,2.452-.635A5.951,5.951,0,0,1,1995.108,509.47Zm-4.823,3q.734-.179,1.816-.367,1.28-.089,1.825-.089A9.426,9.426,0,0,1,1990.286,512.467Zm6.451-5.816a18.922,18.922,0,0,1-2.72.635,28.958,28.958,0,0,1-2.908.456v-.367a14.282,14.282,0,0,0,2.818-.367A20.788,20.788,0,0,1,1996.736,506.651Zm56-47.438-.555-.277a3.907,3.907,0,0,1,.733-1,2.961,2.961,0,0,1,1.458-.814l.269.179Zm-7.829,5.9h1.736a12.453,12.453,0,0,0,6.093-1.539,5.245,5.245,0,0,0,2.174-2.183,1.436,1.436,0,0,0,.277.367,1.623,1.623,0,0,0,2.541.09.571.571,0,0,0,.277-.277,18.243,18.243,0,0,0,.814,1.637,25.074,25.074,0,0,0-2.541,1.279q-2.64,1.36-5.458,3.176a38.608,38.608,0,0,0-5.538,4.008,5.246,5.246,0,0,1-.734-2.55q-.09-1.727-.179-2.461a3.049,3.049,0,0,0-.09-.725,3.228,3.228,0,0,0-.277-.913A4.7,4.7,0,0,0,2044.908,465.11Z" transform="translate(-375.963 -345.237)" fill="#ed9870" fill-rule="evenodd"/>
    <path id="Trazado_1678" data-name="Trazado 1678" d="M1959.737,493.041a37.9,37.9,0,0,0-5.816,1.906,34.475,34.475,0,0,1-11.64,2.541,36.909,36.909,0,0,0-11.533,2.183,10.658,10.658,0,0,0-7.274,8.276,2.736,2.736,0,0,1-.09-.635q-.089-.734-.188-1.458-.358-2.362-.725-4.268a49.325,49.325,0,0,0-1.637-6.182.379.379,0,0,1-.089-.277,5.972,5.972,0,0,0-.277-.814,3.444,3.444,0,0,0-.268-.725.079.079,0,0,1-.09-.089l-1.816-3.275a1.6,1.6,0,0,1-.277-.358.276.276,0,0,1,.188-.1,1.728,1.728,0,0,0-.367-1.271l.617-.1q1.259-.192,2.29-.264a43.615,43.615,0,0,1,6.272-.277,55.987,55.987,0,0,0,15.9-1.539q2.281-.635,4.545-1.083a4.417,4.417,0,0,1,1-.286q4.635-.993,9.27-1.816.1.089.188.179l.179.376a11.99,11.99,0,0,1,1.638,4.357,13.665,13.665,0,0,1,.089,4.724A.687.687,0,0,0,1959.737,493.041Zm-67.166,1.906h.089a.257.257,0,0,0-.089.179,4.3,4.3,0,0,0,.447,4.823q.12.159.246.322a34.134,34.134,0,0,0,2.662,2.944q.361.343.725.7,1.551,1.515,3.1,3.221a8.619,8.619,0,0,0,3,2.264,1.132,1.132,0,0,1,.269-.537,16.921,16.921,0,0,1,1.355,1.915,24.9,24.9,0,0,1,1.942,4.026q.469,1.223.881,2.595.93,2.8,1.611,5.677.312,1.331.573,2.68.181.81.34,1.62.16.832.3,1.664v.179a1.8,1.8,0,0,1,.179.814,2.056,2.056,0,0,1,.089.644q-.814-.912-1.906-2.192l-.47-.626q-1.879-2.493-2.908-3.762-.682-.847-.988-1.15a19.911,19.911,0,0,1-2.532-3.373,16.225,16.225,0,0,1-1.279-1.906q-.361-.558-.671-1.042a23.782,23.782,0,0,1-1.968-3.324,2.847,2.847,0,0,1,.224-.756q.229-.592.689-1.6a1.038,1.038,0,0,0,.179-.268q.546-1.1,1.1-2.1l.179-.179q-.09,0-2.094.268a1.845,1.845,0,0,0-.635.1q-1.458.188-1.816.188-.268,0-1.369-3.731-.088-.268-.183-.555-.289-.892-.64-1.986-.374-1.206-.68-2.205-1.1-3.6-1.315-4.532A5.668,5.668,0,0,1,1892.57,494.947ZM1881.342,520.2q-.064-1.624-.058-3.243a74.662,74.662,0,0,1,.586-9.095q.017-.138.036-.277a4.814,4.814,0,0,1,1.664-3.1,3.852,3.852,0,0,1,3.319-.886,5.092,5.092,0,0,1,3.3,2.031c.046.062.09.124.134.188a24.447,24.447,0,0,1,3.5,7.775,26.449,26.449,0,0,1,.626,3.463q.051.448.094.895a41.751,41.751,0,0,1-.13,8.97q-.119.983-.286,1.964-.236,1.391-.456,2.778-.456,2.914-.832,5.811l4.545-.358a51.208,51.208,0,0,1,10.191-.931l1.718.018.179.268a2.723,2.723,0,0,1,.3.59q1.754,5.145-2.111,9.592l-.179.268-10.638,1.19-.3.009a9.609,9.609,0,0,0-1.056.08v.063a29.1,29.1,0,0,1-8.267-.063,4.8,4.8,0,0,1-3.284-1.727q-.143-.179-.269-.358l-1.172-3.552q-.532-3.831-.823-7.685-.165-2.232-.25-4.474-.01-.261-.018-.519-.081-2.505-.009-4.957l-.031-3.449Zm22.225,52.171a28.076,28.076,0,0,0,7.363-.447q.636-.09,1.181-.179a132.042,132.042,0,0,1-6.165,22.851q-.77,2.1-1.467,4.232v-.456a24.8,24.8,0,0,0-1.548,5.359q-.367,1.637-.734,2.908a29.209,29.209,0,0,0-2.908,11.551v.993a12.785,12.785,0,0,0-.089,1.548,67.9,67.9,0,0,0,.644,9.359q.222,1.866.483,3.7c0,.034.009.066.014.1q.153,1.062.318,2.112a39.651,39.651,0,0,0,1.181,5.091,2.614,2.614,0,0,1-.268.555,6.88,6.88,0,0,1-.823,1.257,7.677,7.677,0,0,1-1.638,1.463,22.376,22.376,0,0,1-9.086-.519q-.6-.139-1.212-.3l-.166-.045q-.841-.226-1.714-.5-.1-.537-.188-1.172-.09-.465-.179-.913V639.82q-.039-1.179.027-2.344a25.832,25.832,0,0,1,.34-3.015,32.549,32.549,0,0,0,0-6q-.456-4.545-.814-9.09a58.658,58.658,0,0,1,0-9.269,9.333,9.333,0,0,1,1-3.811,16.286,16.286,0,0,1,1.261-3.543,21.408,21.408,0,0,0,.913-6.272q.179-5.279,0-10.638-.268-4.724-.447-9.359a84.246,84.246,0,0,0-.913-9.359q-.188-1.727-.277-3.543l9.278,7.265A18.63,18.63,0,0,0,1903.566,572.376Zm60.805-52.43a53.868,53.868,0,0,1-10.173,7.542q-7.095,3.9-14.271,7.623-3.463,1.825-6.916,3.552a.813.813,0,0,1-.09-.367,7.727,7.727,0,0,1,.546-.814,9.335,9.335,0,0,0-1.083-4.545,1.549,1.549,0,0,0-.376-.546,1.684,1.684,0,0,0-.537-.09,3.821,3.821,0,0,1-.9-.089,1.408,1.408,0,0,1-.375-.546,44,44,0,0,0,4.921-3.275q3.177-2.451,6.165-5.18,3.462-3.176,7.095-6.084a48.04,48.04,0,0,0,4.1-3.633,69.846,69.846,0,0,0,6.174-7.1q2.72-3.543,5.18-7.363a72.417,72.417,0,0,0,4.545-8.267,6.558,6.558,0,0,1,1.727-2.362,8.481,8.481,0,0,1,.358,2.273,8.219,8.219,0,0,0,.376,1.906q.09.358.179.635a1.023,1.023,0,0,1,.179.277,44.43,44.43,0,0,0-4.456,8.088q-3.087,7.176-2.183,18.27A.256.256,0,0,0,1964.371,519.945ZM1982.1,642.271a3.584,3.584,0,0,1-.447-1.36q.447-1.181.814-2.371c.022-.059.044-.116.067-.174a39.736,39.736,0,0,0,1.494-5.042q.086-.383.166-.769.358-1.727.626-3.552.093-.864.161-1.727a54.8,54.8,0,0,0-2.532-21.339q-3.955-12.177-7.051-24.578a101.343,101.343,0,0,1-2.568-14.789q.268-.1.456-.188a.364.364,0,0,1,.268-.09q.269-.152.564-.3l.394.188q2.264.358,6.424,1.2a46.26,46.26,0,0,0,5.7.6q1.1.054,2.237.054a45.482,45.482,0,0,0,7.175-.644q1.494-.242,5.216-.966a75.885,75.885,0,0,1-.993,7.874q-.9,5.35-1.262,9.35a63.684,63.684,0,0,0,.537,18.825q2,7.078.546,16.982-.447,2.818-1.548,8.464-1.034,5.372-1.414,8.1c-.013.087-.025.172-.036.255a9.964,9.964,0,0,1-1.27,4.635q-.246.372-.51.725-.323.425-.671.823a6.267,6.267,0,0,1-4.9,2.451,5.32,5.32,0,0,0-1-.089l-1.727-.367h-.277a9.846,9.846,0,0,1-2.094-.456.685.685,0,0,0-.268-.089,6.093,6.093,0,0,1-1.709-1.024A3.814,3.814,0,0,1,1982.1,642.271Zm15.094-94.974a110.5,110.5,0,0,0-1.915-14.629,32.043,32.043,0,0,1,3-21.366,8.345,8.345,0,0,1,6.272-4.456.256.256,0,0,1,.179-.089,8.193,8.193,0,0,1,3,5.547,14.922,14.922,0,0,1,.734,3.82q.089,1.816.179,3,.636,12.633,1.915,25.356.957,10.683-8.527,14.119-.367.125-.751.25h-.09q-7.739,2.362-15.541,4.313l-9.269,1.852-.358-.447q-.555-.993-.912-1.816a1.91,1.91,0,0,1-.367-.546,5.112,5.112,0,0,1-.447-1q-.188-.537-.376-1.092a2.016,2.016,0,0,1-.09-.635,1.693,1.693,0,0,1-.089-.537,4.419,4.419,0,0,1-.09-.823v-.277a110.459,110.459,0,0,0,10.817-4.178A124.775,124.775,0,0,0,1997.189,547.3Zm-1.181-50.623a.849.849,0,0,0,.089.367,3.055,3.055,0,0,0,.089.725v.089l.089.1,1.637,1.816-.09.089a1.735,1.735,0,0,0-.456.626,18.882,18.882,0,0,0-2.272,4.1,2.712,2.712,0,0,0,0,1.727,3.517,3.517,0,0,1,0,1.637q-.546,1.628-6.818,1.36a1.037,1.037,0,0,0-.268.179q-.376.179-.376.367.089.179,1.19,2.273a7.743,7.743,0,0,1,1,2.452,57.788,57.788,0,0,0-3.364,5.368,1.193,1.193,0,0,0-.188.268.079.079,0,0,0-.09.089l-.993,1.637q-.09.179-.188.358-.546,1-1.092,2.1a.257.257,0,0,0-.089.179l-.358.635a6.009,6.009,0,0,1-.465.913l-.179.358q-2.264,4.545-4.277,9.269a118.458,118.458,0,0,0-4.536,14.539q-.072.313-.134.6h-.072a5.035,5.035,0,0,0,.107-.778q-.089-2.729-.09-3.812a8.033,8.033,0,0,0-.089-1.279q.465-2.541.823-5.458h.089q.089-.993.179-2,1.369-10.45,2-14.172.734-4.366,1.458-7.1a35.654,35.654,0,0,1,2-5.905q.277-.635.546-1.271,2.353-4.724,8.267-9.726.644-.644,3.731-3,1.458-1.28,1.458-1.548,0-2.729-2.639-2.46.357-.358.725-.805a4.043,4.043,0,0,1,.814.626l1.369,1.279a10.441,10.441,0,0,1,1.27,2.174Q1995.91,496.227,1996.008,496.674Zm-78.717.268q.655.574,1.163,1.083l.107.107q2.451,2.264,2.452,3.087a2.376,2.376,0,0,1-.814,1.637,5.5,5.5,0,0,0-.734.447q-.568.285-1.011.519a15.134,15.134,0,0,0-1.342.76,12.1,12.1,0,0,1,1.342.658q.491.273,1.011.613,2.192,1.458,2.192,2.273-.179,6.182-.823,12.266-.367,3.185-.814,5.547a18.207,18.207,0,0,1-1.458,4.536v-.09q-.051-.941-.107-1.9-.147-2.472-.34-5.086v-.188a1.633,1.633,0,0,0-.1-.546,125.278,125.278,0,0,0-1.906-16.534q-.278-1.369-.546-2.461a1.984,1.984,0,0,1-.268-.635,9.342,9.342,0,0,0,3.158.492q.241-.01.474-.036-.231-.308-.474-.662-.907-1.315-1.986-3.248-.448-.823-1.172-2.094-.465-.9-1-1.816a2.693,2.693,0,0,0,.358-.268,1,1,0,0,0,.358-.367Q1915.922,495.761,1917.291,496.942Zm60.08-1.816v.188a.079.079,0,0,1,.089.089q-2.362.734-2.639,4.545v.179a1.771,1.771,0,0,1-.09.546q0,1.181.09,3a18.987,18.987,0,0,1,0,2.729q-.179,1.181-.448,2.362-.277,1.548-.555,3.185-.358,1.906-.537,3.275a51.675,51.675,0,0,0-2.729,10.531,1.924,1.924,0,0,0-.1.644,142.13,142.13,0,0,0-1.271-16.087L1972,506.4a4.029,4.029,0,0,1-1.548-.725,3.136,3.136,0,0,1-1.271-1.36,21.088,21.088,0,0,1,5.368-9.457Q1976.459,495.036,1977.371,495.126Zm-5.637,57.271a.08.08,0,0,0,.027.054.057.057,0,0,0-.027.036Z" transform="translate(-309.598 -376.068)" fill="#395fc1" fill-rule="evenodd"/>
    <path id="Trazado_1679" data-name="Trazado 1679" d="M1929.391,567.124l-1.718-.018a51.208,51.208,0,0,0-10.19.93q.459-3.468.631-6.616.1-1.89.1-3.664v-1.092a25.982,25.982,0,0,0-.912-7q-.124-.546-.407-1.4-.329-1-.872-2.411-.32-.911-.609-1.74-.769-2.239-1.3-3.9a42.138,42.138,0,0,0-2.961-3.9,13.938,13.938,0,0,0-4.08-3.454,5.94,5.94,0,0,0-.68-.277,1.49,1.49,0,0,0-.456-.089.25.25,0,0,0-.179-.1,4.11,4.11,0,0,1,.546-.626,42.234,42.234,0,0,1,4.992-4.921q.218.931,1.316,4.532.307,1,.68,2.205.351,1.094.64,1.986.1.287.183.555,1.1,3.731,1.369,3.731.358,0,1.816-.188a1.844,1.844,0,0,1,.635-.1q2-.268,2.094-.268l-.179.179q-.555,1-1.1,2.1a1.041,1.041,0,0,1-.179.268q-.46,1.005-.689,1.6a2.848,2.848,0,0,0-.224.756,23.8,23.8,0,0,0,1.969,3.324q.31.484.671,1.042a16.225,16.225,0,0,0,1.279,1.906,19.925,19.925,0,0,0,2.532,3.373q.307.3.989,1.15,1.029,1.269,2.908,3.762l.47.626q1.092,1.28,1.906,2.192.286,2.085.823,5.807h-1.637Zm9.547,17.447.179-4.814q.089-3.275.089-3.633v-.456a20.688,20.688,0,0,0,3.543.456,6.722,6.722,0,0,0,1.092.089,74.128,74.128,0,0,0,3.364,11.909l-.179.447a.289.289,0,0,1-.188.089.289.289,0,0,0,.089.188l-1,3.176a18.922,18.922,0,0,1-6.639,8.24,2.258,2.258,0,0,1-.349.206l-.09-12.9Q1938.937,586.119,1938.937,584.571Zm51.947.564q-.027.188-.054.349a.258.258,0,0,0-.089.179v.089a3.915,3.915,0,0,1-.9,2.46.746.746,0,0,0-.277-.089,7.323,7.323,0,0,0-3.453-.913,8.081,8.081,0,0,0-2,.447l-2.532-7.176v-.089a21.508,21.508,0,0,1,1.816-8.455q2.622-6.63,1.36-19.174-.1-1-.1-2-.9-11.095,2.183-18.27a44.444,44.444,0,0,1,4.456-8.088,3.8,3.8,0,0,0,2.63,1.36h.734a21.089,21.089,0,0,0-5.368,9.457,3.137,3.137,0,0,0,1.27,1.36,4.03,4.03,0,0,0,1.548.725l-2.818,3.91a142.1,142.1,0,0,1,1.27,16.087,135.125,135.125,0,0,0-.9,17.626,8.92,8.92,0,0,0,.456,4.822,21.2,21.2,0,0,0,1.181,2.541l-.376,2.675Zm1.951,4.16a14.4,14.4,0,0,1-1.548-.447.811.811,0,0,1,.089-.367q.09-.546.188-1h.179q.537,0,1.092-1.727a8.5,8.5,0,0,0,.546-1.816q.3-.895.591-2.13.063-.286.134-.6a118.475,118.475,0,0,1,4.536-14.539q2.013-4.724,4.277-9.269l.179-.358a6,6,0,0,0,.465-.913l.358-.635a.258.258,0,0,1,.089-.179q.546-1.1,1.092-2.1.1-.179.188-.358l.993-1.637a.079.079,0,0,1,.089-.089,1.191,1.191,0,0,1,.188-.268,57.722,57.722,0,0,1,3.364-5.368,7.738,7.738,0,0,0-1-2.451q-1.1-2.094-1.19-2.273,0-.188.376-.367a1.033,1.033,0,0,1,.268-.179q6.272.268,6.818-1.36a3.527,3.527,0,0,0,0-1.637,2.709,2.709,0,0,1,0-1.727,18.849,18.849,0,0,1,2.272-4.1,1.729,1.729,0,0,1,.456-.626l.09-.089q1,1.092,2,2.264a7.313,7.313,0,0,1,.644.734l.358.358q.242.206.474.42l.1.081q.125.107.242.224a13.607,13.607,0,0,0-6.541,6.182,16.532,16.532,0,0,0-1.369,4.912,43.157,43.157,0,0,0-.179,4.447q-.179,10.459-3.185,17.357-1.181,2.818-2.729,5.824-1.449,3.087-1.816,3.821a18.919,18.919,0,0,0-1.449,7.265,110.55,110.55,0,0,1-10.817,4.178v.277A5.376,5.376,0,0,1,1992.835,589.3Zm-54.444-68.159,1.816,3.275a.079.079,0,0,0,.09.089,3.435,3.435,0,0,1,.268.725,5.969,5.969,0,0,1,.277.814.378.378,0,0,0,.089.277,49.427,49.427,0,0,1,1.637,6.182q.367,1.906.725,4.268.1.725.188,1.458a2.747,2.747,0,0,0,.089.635h-.089a3.882,3.882,0,0,0,0,1.181v.993a28.621,28.621,0,0,1-.277,4.187q-.367,3.534-.635,12.088,0,.179-.277,2.639-.089,1.351-.089,2.085a10.027,10.027,0,0,0-2.64.725,1.95,1.95,0,0,0-.716.367q-.1-.913-.188-1.736a18.215,18.215,0,0,0,1.458-4.536q.447-2.362.814-5.547.644-6.084.823-12.267,0-.814-2.192-2.273-.52-.339-1.011-.613a12.075,12.075,0,0,0-1.342-.658,15.129,15.129,0,0,1,1.342-.76q.443-.234,1.011-.519a5.488,5.488,0,0,1,.734-.447,2.375,2.375,0,0,0,.814-1.637q0-.823-2.452-3.087l-.108-.107q-.508-.509-1.163-1.083-1.369-1.181-2.281-1.906a4.813,4.813,0,0,0,.644-1q.089-.179.546-1.637a4.18,4.18,0,0,1,1.816-2.532A1.611,1.611,0,0,0,1938.391,521.136Zm-5.458,62.889.358,5q.1,1.181.188,2.908l.725,10.271-2,.457q-.546.089-1.181.179a28.075,28.075,0,0,1-7.363.447,18.63,18.63,0,0,1-6.63-1.539,68.21,68.21,0,0,1-1.727-14.36v-.456q0-1.181.089-2.362,0-.895.179-5.386v-.063a9.618,9.618,0,0,1,1.056-.08l.3-.009,10.638-1.19.179-.268q1.458-.179,3.1-.447a10.594,10.594,0,0,0,1.271-1.548Q1932.576,579.659,1932.933,584.025Zm73.3,12.392q.3,1.449.5,2.478a46.238,46.238,0,0,1-5.7-.6q-4.161-.841-6.424-1.2l-.394-.188a16.211,16.211,0,0,1,2.255-.984l9.269-1.852Q2005.915,595,2006.229,596.417Z" transform="translate(-329.696 -406.981)" fill="#193c96" fill-rule="evenodd"/>
    <path id="Trazado_1680" data-name="Trazado 1680" d="M2041.943,483.573q-.179.089-.465.268a13.512,13.512,0,0,0-1.441-7.086q2.085-.278,2.631-.367t4.813-.993a27.42,27.42,0,0,1,2.729-.367,1.8,1.8,0,0,1-.268,1.181,12.2,12.2,0,0,1-1.458,1.906,3.842,3.842,0,0,0-1.092,1.727,1.111,1.111,0,0,0,.358,1Q2045.932,481.568,2041.943,483.573Zm-60.447,5.2.134.134.412.3,1.36.465h.09a1.771,1.771,0,0,0,.546.089,9.537,9.537,0,0,0,1.458.089q.271-.03.519-.049.51-.04.93-.04h.287q0,1.637-.108,2.72a14.461,14.461,0,0,1-3.355.367,6.879,6.879,0,0,1-4.25-1.306,7.88,7.88,0,0,1-2.389-3.149,1.985,1.985,0,0,1-.268-.635,4.538,4.538,0,0,0,.546-.456,1.365,1.365,0,0,0,.268-1.816q1.915,2,3.087,2.085A3.032,3.032,0,0,0,1981.5,488.771Zm-1.091-2.836a8.7,8.7,0,0,1-1.458-.725,5.932,5.932,0,0,1-1.36-1.092q0-.09.268-.277.179-.179.179-.268a3.2,3.2,0,0,1,1.458,1.172A5.238,5.238,0,0,0,1980.4,485.935Zm85.347-1.369q.644-.268,1.27-.537v.09a1.551,1.551,0,0,0,0,1.449,5.243,5.243,0,0,1-2.174,2.183,12.456,12.456,0,0,1-6.094,1.539h-1.736a4.69,4.69,0,0,1-.9-.089,1.447,1.447,0,0,1-.09-.358l-.089-.089a.079.079,0,0,0-.09-.089v-.188a6.038,6.038,0,0,0,.635.188h1.271l1.637-.367a6.449,6.449,0,0,0,1.548-.546,3.989,3.989,0,0,0,2.452-2.917,1.2,1.2,0,0,1,.456-.268A2.509,2.509,0,0,0,2065.751,484.566Z" transform="translate(-388.073 -369.417)" fill="#e1825f" fill-rule="evenodd"/>
    <path id="Trazado_1681" data-name="Trazado 1681" d="M2002.529,566.04v.089l-.089.089a.924.924,0,0,1-.179-.358,12.712,12.712,0,0,1,.9-2.273,16.043,16.043,0,0,1,1.092-2.452.623.623,0,0,1,.277-.277.25.25,0,0,0,.179.1q.456,2.63,3.463,5.995a.079.079,0,0,1,.089.089l-.049.08q-.562.908-1.776,2.559-.657-.924-1.226-1.754-.211-.311-.412-.608a22.7,22.7,0,0,0-1.727-2.183A6.9,6.9,0,0,0,2002.529,566.04Zm49.272,67.166-9.09-25.267,18.091-.9v.089l2.532,7.176,1.1,2.818h-.166a.282.282,0,0,1,.166.089q-1.19.823-3.633,2.55a2,2,0,0,0-.734.456q-.913.268-1.637.447a3.476,3.476,0,0,1-1.369.089,2.442,2.442,0,0,1-.537-.089q-1.181-.269-1.181,1a1.851,1.851,0,0,0,.913,1.727q.993.824,1.816,1.459a24.867,24.867,0,0,0,3.266,2.085.685.685,0,0,1,.268.089,6.643,6.643,0,0,0,2.183.644,7.147,7.147,0,0,0,3.731-.465l.358-.358v.089l2,5.458-6.639.268Zm-43.268-79.245q.635,0,2.63-.179a7.293,7.293,0,0,0,1.968-.349,3.736,3.736,0,0,0,.492-.206q.537.913,1,1.816a1.636,1.636,0,0,0-.465.09q-.459.057-1.029.152-.33.056-.7.125a5.53,5.53,0,0,0-1.628.635,4.935,4.935,0,0,1-.9.546h-.554Q2008.891,555.223,2008.533,553.962Zm5.073,6.737q.018.17.018.259v.268a.682.682,0,0,0,.089.268c0,.066.03.1.089.1v.367a.787.787,0,0,0,.072.322l.018.036q.179,1.181.447,2.639-.179.268.286.993-.845.757-1.494,1.253a7.608,7.608,0,0,1-1.145.752v-.089q-.09-.277-.179-.644v-.089q-.164-.484-.291-.89a11.238,11.238,0,0,1-.443-1.749,6.35,6.35,0,0,1-.268-1.816,6.87,6.87,0,0,1,2.782-2.156C2013.594,560.585,2013.6,560.645,2013.606,560.7Z" transform="translate(-408.928 -433.624)" fill="#dbdfff" fill-rule="evenodd"/>
    <path id="Trazado_1682" data-name="Trazado 1682" d="M1998.759,528.411a2.587,2.587,0,0,0,.636,1.208,3.028,3.028,0,0,1-.734-1.208Zm.814,14.36v-.09a6.925,6.925,0,0,1,.546-.9Q1999.94,542.144,1999.573,542.771Zm11.273-4.536c-.06,0-.09-.033-.09-.1a.687.687,0,0,1-.089-.268V537.6q0-.09-.018-.259A6.524,6.524,0,0,0,2010.847,538.235Zm0,.367v-.045a1.144,1.144,0,0,0,.072.367A.79.79,0,0,1,2010.847,538.6Zm-.179-1.727v.268a.317.317,0,0,1-.054-.081.073.073,0,0,1-.009-.027,1.045,1.045,0,0,1-.027-.251,4.941,4.941,0,0,0,.626.268l.09.09A4.92,4.92,0,0,0,2010.668,536.875Zm1.02,20.874-.018.027.022-.058A.1.1,0,0,0,2011.688,557.748Zm.421-1.172q.367-1.137.59-2.138a17.663,17.663,0,0,1-.492,1.968q-.143.385-.483,1.244a.286.286,0,0,0-.022.04Q2011.917,557.117,2012.109,556.576Zm73-31.8-.188.188v-.089A.256.256,0,0,1,2085.108,524.778Zm-3.82.546h.09a.556.556,0,0,0,.367.089,1.2,1.2,0,0,0-.456.268Z" transform="translate(-405.972 -410.265)" fill="#d4a48d" fill-rule="evenodd"/>
    <path id="Trazado_1683" data-name="Trazado 1683" d="M2068.761,593.378l.089.09h.09v-.09Z" transform="translate(-463.529 -466.589)" fill="#d3d9e7" fill-rule="evenodd"/>
    <path id="Trazado_1684" data-name="Trazado 1684" d="M1889.183,818.879l-1.172-3.552q.269,1.45.537,2.639A11.049,11.049,0,0,0,1889.183,818.879Z" transform="translate(-315.122 -648.822)" fill="#fcd8c9" fill-rule="evenodd"/>
    <path id="Trazado_1685" data-name="Trazado 1685" d="M2059.8,884.641l5.368-4.366q.09-1.449.09-3-.187.273-.385.532a11.714,11.714,0,0,1-4.858,3.744q-.2.1-.4.179Q2059.709,882.914,2059.8,884.641Z" transform="translate(-456.016 -699.688)" fill="#6d411a" fill-rule="evenodd"/>
    <path id="Trazado_1686" data-name="Trazado 1686" d="M2135.5,899.628a.289.289,0,0,1-.188.089.289.289,0,0,0,.089.188Z" transform="translate(-518.17 -718.038)" fill-rule="evenodd" fill="url(#linear-gradient)"/>
    <path id="Trazado_1687" data-name="Trazado 1687" d="M1981.411,1245.026a2.574,2.574,0,0,0,.09-.546v-1A12.76,12.76,0,0,0,1981.411,1245.026Z" transform="translate(-391.809 -1000.359)" fill="#1b2b38" fill-rule="evenodd"/>
    <path id="Trazado_1688" data-name="Trazado 1688" d="M2530,564.224l-.635-.635q-.268-.358-.546-.725Q2529.539,563.687,2530,564.224Zm-2.97-3.042q.349.286.7.591a3,3,0,0,1-.456-.367Q2527.15,561.289,2527.025,561.182Zm-5.3-5.771v-.09a.265.265,0,0,1,.089.188Zm-.09-.814a.855.855,0,0,1-.089-.367q-.1-.447-.188-1A8.649,8.649,0,0,1,2521.638,554.6Z" transform="translate(-835.139 -433.624)" fill="#f5f4f4" fill-rule="evenodd"/>
    <path id="Trazado_1689" data-name="Trazado 1689" d="M2377.15,865.628q-.09.358-.179.913v.179q-.179.8-.286,1.4l-.027.161c-.018.125-.035.242-.053.349a.258.258,0,0,0-.09.179v.089a3.915,3.915,0,0,1-.9,2.461q.627.268,1.181.537a.345.345,0,0,1,.268.1.807.807,0,0,1,.09-.367q.089-.546.188-1a.079.079,0,0,1,.089-.089,3.055,3.055,0,0,1,.09-.725.267.267,0,0,0,.09-.188v-3.275A5.217,5.217,0,0,1,2377.15,865.628Z" transform="translate(-715.47 -690.122)" fill="#010f1a" fill-rule="evenodd"/>
    <path id="Trazado_1690" data-name="Trazado 1690" d="M2381.987,864.577l-.376,2.675q.107-.6.286-1.4v-.179q.09-.555.179-.913A.288.288,0,0,1,2381.987,864.577Z" transform="translate(-720.396 -689.259)" fill="#3c3b3b" fill-rule="evenodd"/>
    <path id="Trazado_1691" data-name="Trazado 1691" d="M2386.94,869.866q-.178-.107-.179-.188v.1a.077.077,0,0,0,.027.054A.249.249,0,0,0,2386.94,869.866Z" transform="translate(-724.625 -693.448)" fill="#eefcff" fill-rule="evenodd"/>
  </g>
</svg>
