<svg xmlns="http://www.w3.org/2000/svg" xmlns:xlink="http://www.w3.org/1999/xlink" width="291.142" height="338.515" viewBox="0 0 291.142 338.515">
  <defs>
    <linearGradient id="linear-gradient" x1="-2.123" y1="0.599" x2="-0.996" y2="0.599" gradientUnits="objectBoundingBox">
      <stop offset="0" stop-color="#70dde5"/>
      <stop offset="1" stop-color="#cbefff"/>
    </linearGradient>
  </defs>
  <g id="Grupo_10032" data-name="Grupo 10032" transform="translate(-1447.027 -388.905)">
    <path id="Trazado_1692" data-name="Trazado 1692" d="M1647.354,799.848l-.145.032c.055-.134.114-.268.176-.4C1647.373,799.6,1647.362,799.724,1647.354,799.848Zm-64.92,6.412q-.657.216-1.286.482l-.032-.016a5.41,5.41,0,0,1,1.414-.53A.759.759,0,0,1,1582.434,806.259Zm-9.448-1.832a11.988,11.988,0,0,1,.643-1.221l.482-.707a8.584,8.584,0,0,0-3.632-4.339,6.4,6.4,0,0,0-1.077-.53,6.126,6.126,0,0,1,1.173.562,8.071,8.071,0,0,1,3.6,4.371l.771-.386,1.623-.177-.016.016q-1.446.931-2.153,1.35a.567.567,0,0,1-.048.032l-.659-.129a4.081,4.081,0,0,0-.562,1.044C1573.081,804.354,1573.033,804.392,1572.986,804.427Z" transform="translate(-43.716 -146.009)" fill="#f3f7ff" fill-rule="evenodd"/>
    <path id="Trazado_1693" data-name="Trazado 1693" d="M1716.255,693.129h-.016c-.279.052-.44,0-.482-.161a.256.256,0,0,1-.016-.1.946.946,0,0,1,.08-.354l.465-1.141,7.216-17.917a1.277,1.277,0,0,1,1-.868l7.777-1.382,16.873-2.989q.554-.1.5.337l-24.6,4.355a1.281,1.281,0,0,0-1,.9L1716.3,693a.293.293,0,0,0-.017.064A.314.314,0,0,0,1716.255,693.129Zm33.086,40.591,19.7-3.471v-1.864l-20.022,3.535q-.483-2.792-.9-5.367l20.954-3.7v25.036l-8.034,1.414q-1.041-.816-2.6-1.864-2.3-1.54-3.551-2.314l14.157-2.507v-1.864L1753,743.6a10.778,10.778,0,0,1-1.9-2.683.708.708,0,0,0-.033-.064,15.864,15.864,0,0,1-.578-1.543l18.544-3.278V734.17l-18.994,3.359q-.209-1.1-.4-2.169Q1749.5,734.532,1749.341,733.72ZM1629.947,598.561a5.855,5.855,0,0,1-2.41,1.591,11,11,0,0,1-3.729-1.735q-2.313-1.7-3.438-2.475.153-.013.3-.032l.129-.016c.034,0,.066-.01.1-.016a8.6,8.6,0,0,0,3.937-1.543c.069-.053.139-.106.209-.161.091.062.181.127.273.193a32.447,32.447,0,0,1,4.467,4.017Zm63.184-62.911q-.312.037-.627.064c-.1.01-.2.02-.3.032-.175.013-.351.024-.53.032a26.862,26.862,0,0,1-3.053.016q-.092-.834-.177-1.816l-.354-6.106v-.868q1.341.308,2.7.514a.538.538,0,0,1,.161.032,9.14,9.14,0,0,0,1.093,0Zm40.88,142.5a2.368,2.368,0,0,1,2.025.9,2.337,2.337,0,0,1,.289,2.185,4.52,4.52,0,0,1-4.082,3.117,2.3,2.3,0,0,1-1.993-.932,2.346,2.346,0,0,1-.354-2.185,4.19,4.19,0,0,1,1.607-2.185A4.089,4.089,0,0,1,1734.011,678.152Zm6.459,11.891-23.782,4.21a2.642,2.642,0,0,0-1.221.546l-12.6,9.834-.931.161q-.707.129-.193-.289l2.347-1.832,2.507-1.944,3.728-2.925.353-.273,4.5-3.5a3.072,3.072,0,0,1,.289-.209c.094-.046.186-.094.273-.145a2.937,2.937,0,0,1,.514-.161q.1.163.466.1l24.65-4.371a.413.413,0,0,0,.064-.016.664.664,0,0,1-.192.209Zm1.077,43.194-1.51.273q-.706-2.414-1.4-5.287l.739-.129Q1740.652,731.088,1741.548,733.238Zm2.555,7.2c.021.247.032.494.032.739q-.033.836.032,1.96a14.911,14.911,0,0,1-1.381-1.864c-.108-.179-.21-.362-.306-.546Zm-.466-1.784-1.816.321a30.423,30.423,0,0,1-1.254-3.616.5.5,0,0,0-.032-.08l1.719-.305c.046.127.094.256.144.386Q1742.965,736.8,1743.637,738.653Zm-121.275,23.156v-13.08L1702.5,734.6q-1.3.021-2.651.016a81.069,81.069,0,0,1-14.109-1q-5.849-1.029-5.85-2.507,0-1.414,5.85-2.475,2.185-.384,4.708-.627a14.727,14.727,0,0,0,2.844,2.073,13.405,13.405,0,0,0,10.445,1.446q1.317-.515,1.993-.739a4.412,4.412,0,0,1,2.12-.321,15.172,15.172,0,0,0,7.618-1.414l.176-.08q4.131.922,4.13,2.137a.858.858,0,0,1-.161.466l9.593-1.687q.227.452.466.932,1.11,2.231,2.025,4.162l-109.3,19.267v1.864L1732.5,736.693q.945,2.02,1.639,3.648l-111.745,19.7v1.768Zm0,2.218h.065l7.842-3.5L1734.7,742.092a.518.518,0,0,0,.016.08,10.809,10.809,0,0,1,.161,1.221.5.5,0,0,1-.033.161q-.1.836-.321,2.635c-.032.232-.058.456-.08.675l-112.05,19.765v1.864l111.97-19.749q.008.26.033.5.289,3.567,2.764,3.824.737.076,1.478.177l-86,15.153v.032l-30.275,5.3v-9.706Zm-12.18-106.153q2.057.193,1.735,4.017a25.028,25.028,0,0,0-.256,9.127,86.466,86.466,0,0,1,.932,8.613c.015.169.03.336.047.5q.127,1.537.209,2.619a4.4,4.4,0,0,1,.1.514q.16.932.225,5.914a8.4,8.4,0,0,1-2.041,6.2,7.03,7.03,0,0,1-1.173,1q-1.11.736-2.282,1.414a50.023,50.023,0,0,1-4.756,2.443q-3.76,1.639-5.046,2.153a6.074,6.074,0,0,0-2.892-2.732,23.407,23.407,0,0,1,4.628-2.507q2.635-1.35,4.853-2.282a16.074,16.074,0,0,1,1.864-.739,5.838,5.838,0,0,0,.61-.257v-.032a47.391,47.391,0,0,1-.674-6.235q-.16-4.307-.321-6.46-.015-.192-.032-.386a31.135,31.135,0,0,0-2.571-10.927q-.225-.449-.482-.868a12.948,12.948,0,0,1,.161-3.31,10.2,10.2,0,0,1,2.25-4.226,14.719,14.719,0,0,1,2.443-2.2A11.541,11.541,0,0,1,1610.182,657.873Zm92.013,3.471,1.156-.289q.436,1.058.788,1.993.263.684.482,1.3c.042.122.085.24.129.354q.2.635.369,1.189.147.5.258.948-.126-.085-.338-.257-.419-.353-1.172-1.061v-.016a.073.073,0,0,1-.033-.016c-.228-.214-.442-.406-.643-.578a8.854,8.854,0,0,0-.851-.643c-.04-.022-.078-.043-.113-.064l-.048.032c-.056.042-.11.084-.161.129v-.016q-.259-.494-.466-.932a1.953,1.953,0,0,0,.61-1.414q.024-.249.032-.53v-.129Zm-23.252,33.151a.763.763,0,0,1-.1.016,6.486,6.486,0,0,0-.674.225c-.139.053-.278.113-.418.177q.116-.66.241-1.366,1.286-7.07,1.993-9.481a49.543,49.543,0,0,0,.8-4.981,17.026,17.026,0,0,1,1.382-5.206,12.124,12.124,0,0,1,2.41-2.764,24.05,24.05,0,0,1,4.082-3.085,8.471,8.471,0,0,1,.354.836,8.359,8.359,0,0,1,.321,1.061.882.882,0,0,0,.016.1q.092.432.145.884a.187.187,0,0,0,0,.048,3.393,3.393,0,0,1-1.061,2.667q-.122.13-.257.257-.8.739-2.571,2.057a13.774,13.774,0,0,0-1,3.9c-.012.092-.022.183-.032.273q-.225,1.414-.515,4.242-.321,1.767-.932,5.239a40.86,40.86,0,0,1-1.221,5.239A4.327,4.327,0,0,0,1678.942,694.495Zm-22.063,32.974v-5.946q1.158.317,2.25.595a53.182,53.182,0,0,0,7.553,1.382,26.256,26.256,0,0,0,10.509-.964q.128-.643.193-.964.1-.643-.257-.546c0-.025.01-.052.016-.08.009-.053.019-.106.032-.161s.01-.078.016-.112a.42.42,0,0,0,0-.08.628.628,0,0,1,.016-.1l-1.3-2.507q1.887.229,3.6.53,7.1,1.253,7.1,3.021,0,1.735-7.1,2.989a100.667,100.667,0,0,1-17.1,1.189q-2.623,0-5.046-.08a1.057,1.057,0,0,1,.322.723Q1657.682,726.943,1656.879,727.469ZM1615,723.6v5.432q-5.72-1.178-5.721-2.764Q1609.282,724.734,1615,723.6Zm47.05,37.923-17.033,3.021,14.4,1.96Zm-60.805-27.51a10.335,10.335,0,0,0,3.31-2.539q2.8.914,2.8,2.025,0,1.736-7.1,2.989h-.016c.016-.02.032-.042.048-.064q1.189,0,1.478-.771A1.931,1.931,0,0,0,1601.247,734.009Zm-11.537,1.125a.129.129,0,0,1,.128-.064v.064a3.885,3.885,0,0,0,.8.1,1.51,1.51,0,0,0,.193.032,40.215,40.215,0,0,1,4.082,1.093q1.033.42,1.784.643a113.766,113.766,0,0,1-13.546.675,100.567,100.567,0,0,1-16.776-1.205q.162-.064.321-.145a23.221,23.221,0,0,1,5.014-2.153q4.628-1.542,4.853-1.7l.322.1a14.09,14.09,0,0,0,2.764.386,12.608,12.608,0,0,1,3.214.771,17.626,17.626,0,0,1,2.443.9,1.249,1.249,0,0,0,1.414.129A11.5,11.5,0,0,1,1589.71,735.134Z" transform="translate(-42.635 -49.333)" fill="#cedefe" fill-rule="evenodd"/>
    <path id="Trazado_1694" data-name="Trazado 1694" d="M1682.407,705.955a.341.341,0,0,1-.032-.129.63.63,0,0,1,.032-.257.321.321,0,0,1,.031-.064.3.3,0,0,1,.017-.064l7.745-19.187a1.281,1.281,0,0,1,1-.9L1715.8,681l.048-.016q.707-.128.417.643l-5.608,13.884-2.137,5.3a1.281,1.281,0,0,1-.933.852.418.418,0,0,1-.064.016l-24.65,4.371C1682.63,706.1,1682.476,706.064,1682.407,705.955Zm-93.893,74.915v5.335l-116.887-20.7V740.44h.032l26.257,4.66,9.336,1.655a35.318,35.318,0,0,0,5.994,1.912,19.989,19.989,0,0,0,6.653.45l.771.016,14.719,2.619,53.124,9.417V766.6L1471.659,746v1.9l116.855,20.6v3.889l-116.855-20.6v1.9l99.983,17.644,16.872,5.142v2.507l-116.855-20.6v1.9l26.225,4.628,1.575,2.989,8.71-1.189Zm-50.151-52.8.289.562.016.048q.449.9-.418.707l-30.5-5.914h-.032a1.714,1.714,0,0,1-1.093-.691,2.387,2.387,0,0,1-.225-.37l-4.66-9.224-6.91-13.627q-.45-.9.418-.739l1.141.225,29.391,5.689a1.9,1.9,0,0,1,1.318,1.093Zm137.568-41.973a36.835,36.835,0,0,1-2.571-6.749,24.877,24.877,0,0,0-2.3-5.287,12.218,12.218,0,0,0-.884-1.237,6.417,6.417,0,0,1,1.366.4q2.769,1.156,3.712,4.9a21.465,21.465,0,0,1,.546,4.082Q1675.868,683.619,1675.931,686.094Zm-2.281,17.933a8.85,8.85,0,0,1,.627-3.921c.016-.042.032-.085.047-.129a14.293,14.293,0,0,1,3.407-4.949q.226,1.383.707,3.246.256,1.061.836,3.15A13.8,13.8,0,0,0,1673.65,704.027Zm26.514-13.434a4.088,4.088,0,0,0-2.507.9,4.191,4.191,0,0,0-1.607,2.185,2.345,2.345,0,0,0,.354,2.185,2.3,2.3,0,0,0,1.993.932,4.519,4.519,0,0,0,4.081-3.117,2.336,2.336,0,0,0-.289-2.185A2.369,2.369,0,0,0,1700.164,690.593Zm6.524,57.126q-.214-.74-.45-1.591c-.019-.062-.034-.12-.048-.177l1.511-.273a.236.236,0,0,0,.016.064q.318.741.691,1.671Zm3.1,3.375q.169.448.337.916a8.625,8.625,0,0,1,.129.868l-1.624.289-.128-.289a8,8,0,0,1-.434-1.253c-.032-.066-.064-.136-.1-.209Zm6.862.659a14.637,14.637,0,0,1-.45-1.768v-.016l18.994-3.358v1.864Zm-1.479-7.392,20.022-3.535v1.864l-19.7,3.471Q1715.331,745.249,1715.173,744.361Zm5.865,13.209c-.375-.233-.68-.416-.916-.546q-.526-.5-.964-.98l16.038-2.844v1.864Zm-20.456-4.114a9.587,9.587,0,0,0,.273,1.077l-104.434,18.431.482-.225-8.356,1.478v-1.735l111.745-19.7C1700.393,753.009,1700.489,753.235,1700.582,753.456Zm-.065,7.729-111.97,19.749V779.07l112.05-19.765A12.593,12.593,0,0,0,1700.517,761.185Zm-153.686-95.242q-5.86,3.342-6.122,13.723a46.645,46.645,0,0,0,.145,4.724q-.515-1.221-.8-1.96-.225-.771-.707-2.86-.106-.67-.177-1.221a15.2,15.2,0,0,1-.177-1.864,28.036,28.036,0,0,1,.482-2.989,9.146,9.146,0,0,1,1.189-2.635,12.186,12.186,0,0,1,3.728-3.6A19.417,19.417,0,0,1,1546.831,665.943Zm5.817,8.356a2.093,2.093,0,0,1,.482-.611,3.184,3.184,0,0,0,.643-3.214q.868,2.089,1.768,4.082l-3.889,2.635a6.806,6.806,0,0,0,.193-.9A4.226,4.226,0,0,1,1552.648,674.3Zm-2.7,2.443-1-3.6q.161.482.578-.289a5.622,5.622,0,0,0,.643-1.51.5.5,0,0,1,.289.193c-.022.3-.032.557-.032.771a.343.343,0,0,1-.065.193c.043,0,.043.021,0,.064a7.694,7.694,0,0,1,0,1.414,8.6,8.6,0,0,1-.193,1.414v.321Q1550.077,676.195,1549.949,676.741Zm30.129,39.113a15.635,15.635,0,0,1-4.74,1.446l-.224.1q-3.026,1.275-4.949,1.864-2.257.777-4.676,1.51-.674.213-1.366.418.115-.337.209-.659a7.866,7.866,0,0,0,.048-4.869q-.161-.417-.353-.836,1.285-.514,5.046-2.153a50,50,0,0,0,4.756-2.443q1.173-.679,2.282-1.414a7,7,0,0,0,1.173-1,8.4,8.4,0,0,0,2.041-6.2q-.065-4.982-.225-5.913a4.329,4.329,0,0,0-.1-.514q-.083-1.083-.209-2.619c-.017-.163-.033-.329-.048-.5a86.436,86.436,0,0,0-.932-8.613,25.027,25.027,0,0,1,.256-9.127q.322-3.825-1.735-4.017,3.921-1.35,6.877,2.957a17.664,17.664,0,0,1,1.254,6.588q0,2.218-.1,6.717a72.1,72.1,0,0,1,.707,11.023q.064,3.664,0,11.056a7.5,7.5,0,0,1-3.15,6.042A11.114,11.114,0,0,1,1580.078,715.854Zm-37.633,1.462c-.047.038-.094.075-.145.112l-.611.289-.048.048-1.623.177a4.83,4.83,0,0,0,1.221-2.635,6.115,6.115,0,0,0-.385-2.764,4.421,4.421,0,0,0-4.692-2.571q.675-.739,3.407-3.471,2.153-2.088,3.567-3.246,0-2.088-.1-5.946-.161-4.017-.161-5.785a43.062,43.062,0,0,1,1.9,13.048,41.257,41.257,0,0,1-.289,4.917A34.981,34.981,0,0,1,1542.444,717.316Zm83.962-143.145a42,42,0,0,0-1.607-6.476q-.455-1.31-.98-2.539a11.611,11.611,0,0,0,.69-2.057q.109.36.226.739A59.275,59.275,0,0,1,1626.406,574.171Zm-4.9-7.569q.187,1.066.353,2.25.951,6.745,1.592,12.405a113.041,113.041,0,0,1,.611,13.016q-.026,6.072-.048,9-.011.615-.016,1.093a20.275,20.275,0,0,0,.1,2.169.2.2,0,0,0,0,.048c-.037.25-.073.491-.112.723-.026-.269-.053-.537-.08-.8q-.157-1.688-.305-3.31-1.3-13.554-2.089-22.481-.733-8.274-7.521-18.881c.06.061.119.12.177.177q4.676,4.591,7.424,5.11C1621.557,566.945,1621.531,566.774,1621.505,566.6Zm46.826,118.43q-.612-.677-1.607-1.848-.831-.978-1.928-2.3.381-.537,1.559-2.153c.054-.075.107-.149.161-.225s.1-.128.145-.193l.192-.241c.028.049.055.1.08.145.081.134.167.273.258.418a6.863,6.863,0,0,0,.706.964v.1q0,.325.017.707.049,1.4.289,3.535.025.191.048.386C1668.281,684.571,1668.308,684.807,1668.331,685.033Zm2.86-6.01q-.384,2.692-.755,4.339-.354-1.488-.354-1.51l-.53-2.876q.056-.115.112-.241.2-.437.354-.771Q1670.77,678.671,1671.191,679.023Zm-.417-2.234a2.13,2.13,0,0,1,.5,1.543q-.165-.554-.369-1.189Q1670.836,676.972,1670.773,676.789Zm27.88,72.344-110.107,19.428V766.7l109.3-19.267c.059.122.118.245.176.37Q1698.355,748.488,1698.654,749.133ZM1589.977,750a2.312,2.312,0,0,0,1.4,1.141l4.242.739a4.655,4.655,0,0,0,1.864-.064l.964-.177a2.3,2.3,0,0,0,1.317,1.012l4.243.739a4.628,4.628,0,0,0,1.863-.064l13.145-2.314a4.411,4.411,0,0,0,3.6-2.507q2.058.448,3.6.868,3.631,1.028,2.185,1.286l-21.372,3.76a35.347,35.347,0,0,1-7.2-.386q-5.753-.61-12.341-1.768-6.556-1.157-10.221-2.185t-2.185-1.286l6.282-1.109a2.439,2.439,0,0,0,1.656,1.784l4.242.739a4.642,4.642,0,0,0,1.864-.064Zm-78.113-35.5a5.286,5.286,0,0,0,2.185,2.539,5.111,5.111,0,0,0,3.246.836,2.875,2.875,0,0,0,2.378-1.318,2.976,2.976,0,0,0,.129-2.764,4.959,4.959,0,0,0-2.153-2.507,5.156,5.156,0,0,0-3.214-.868,3.045,3.045,0,0,0-2.41,1.35A2.962,2.962,0,0,0,1511.865,714.5Zm26.338,5.576a4.078,4.078,0,0,1,.562-1.045l.659.129Q1538.742,719.678,1538.2,720.08Z" transform="translate(-8.788 -61.774)" fill="#aac5fc" fill-rule="evenodd"/>
    <path id="Trazado_1695" data-name="Trazado 1695" d="M1726.438,722.25l-20.954,3.7q-.424-2.584-.771-4.949-.187-1.361-.37-2.668Zm-5.7,29.069a3.962,3.962,0,0,0-1.076-1.527,14.7,14.7,0,0,0-1.254-1.093l8.035-1.414v-1.093l11.731,2.057Zm-257.895-1.366v2.507l116.887,20.7v-.032l30.275-5.3v-.032l86-15.153a42.483,42.483,0,0,1,4.949,1.044q1.278.361,2.555.675l-123.653,21.79-132.829-23.429Zm33.3-18.158a1.529,1.529,0,0,0,.1.161,3.039,3.039,0,0,0,1.8,1.575q.216.091.434.177l-9.336-1.655-26.257-4.66,15.78-2.78,12.984-2.3a12.84,12.84,0,0,0,3.889,1.96q3.149.738,4.66,1.253a11.694,11.694,0,0,0-2.571,1.575,3.4,3.4,0,0,0-1.51,2.443A3.241,3.241,0,0,0,1496.135,731.795Zm33.44-16.776-11.264-22.24a1.905,1.905,0,0,0-1.318-1.093L1487.6,686l-.209-.418q-.45-.9.418-.739l10.445,2.025,20.087,3.889a1.906,1.906,0,0,1,1.317,1.093l3.535,7.006a7.69,7.69,0,0,1,.836-.578,9.308,9.308,0,0,1,3.343-1.35,4.421,4.421,0,0,1,4.692,2.571,6.117,6.117,0,0,1,.386,2.764,4.834,4.834,0,0,1-1.221,2.635l-.771.386a8.07,8.07,0,0,0-3.6-4.371,6.14,6.14,0,0,0-1.173-.562,4.975,4.975,0,0,0-1.88-.305l4.274,8.452.418.82.1.193.659,1.286.209.4.064.112.273.546.08.177.241.482.064.129.1.209.032.048.161.321.1.193.257.5.064.129.08.177.048.08.113.241.048.1a.425.425,0,0,0,.016.048l.048.112a.559.559,0,0,1,.032.305c-.025.132-.138.19-.337.177a1.336,1.336,0,0,1-.225-.032ZM1596.085,535.3h-.032q-.675-.161-.8.064v.032a.057.057,0,0,0-.064.064.732.732,0,0,0,.064.225q.256.675,1.125.482a27.459,27.459,0,0,0,4.306,1.736q1.51.771,4.4,2.475a21.448,21.448,0,0,0,4.6,1.993,1.184,1.184,0,0,1,.337.08.918.918,0,0,1,.563,1.012,7.893,7.893,0,0,1-.289,1.7l-.161.514a5.071,5.071,0,0,1-.643,1.543q-.515.643-1.35-.032-4.372-2.412-6.83-3.792a1.533,1.533,0,0,1-.418-.337q-.148-.182-2.33-2.137a11.161,11.161,0,0,0-4.885-2.6,20.463,20.463,0,0,1,.385-2.378,1.575,1.575,0,0,1,1.8-1.157Zm13.82.289.016-.064.145-.611a16.074,16.074,0,0,1,3.375,3.439q.836,2.089,1.221,3.246.16.514.225.836a9.362,9.362,0,0,1,.177,1.077,5.823,5.823,0,0,1-.4,2.925c-.031.071-.063.14-.1.209q-.482-.868-1.35-2.668l-.257-.675c-.064-.15-.129-.3-.193-.45-.005-.026-.011-.053-.017-.08a1.876,1.876,0,0,1,.017-.578,2.35,2.35,0,0,1,.1-.434q.353-1.478.354-1.575A7.737,7.737,0,0,0,1609.905,535.589Zm36.075-.4q-.521-.033-1.044-.08-1.736-.128-3.471-.386l-.1-.1.193-9.32a37.481,37.481,0,0,0,3.888,1.093v.868l.354,6.106Q1645.888,534.353,1645.98,535.188ZM1696,727.617q-.453-1.878-.9-3.953.887,2.057,1.64,3.824ZM1588.147,593.085a3.47,3.47,0,0,1-.1,3.857,6.1,6.1,0,0,1-.739,1.012l-.161-.177a32.44,32.44,0,0,0-4.467-4.017q-.138-.1-.273-.193.12-.095.241-.193,2.507-2.025,1.96-4.628.61.707,1.768,2.185Q1587.536,592.378,1588.147,593.085Zm-28.7,54.893a8.508,8.508,0,0,1-2.507,3.857,47.618,47.618,0,0,0-3.535,3.31q-1.7,1.575-6.653,6.363-.9-1.993-1.768-4.082l-.321-.739a2.13,2.13,0,0,1,.482-2.475l.964-.289a14.1,14.1,0,0,0,4.435-2.507q3.214-2.571,4.21-3.471a4.772,4.772,0,0,0,1.382-1.607,2.219,2.219,0,0,0,.032-1.993,2,2,0,0,1,2.25,1.093A21.437,21.437,0,0,1,1559.448,647.978Zm-17.515,8.87a6.5,6.5,0,0,1-.546,1.446,5.634,5.634,0,0,1-.643,1.51q-.419.771-.578.289V660a5.414,5.414,0,0,1-.032-1.414q.1-2.636.129-3.985a9.754,9.754,0,0,1,.289-2.185l.064.032c.021,0,.032.021.032.064l.257.225a.41.41,0,0,1,.1.193l.161.161a3.476,3.476,0,0,0,.193.289q.386.386.868.932v1.8a.748.748,0,0,0-.1.289Zm-30.05,79.237,2.732.08a18.813,18.813,0,0,1,2.507-.032q1.724.071,2.266.048c.028.019.054.034.08.048a6.725,6.725,0,0,0,4.274-.37,100.571,100.571,0,0,0,16.776,1.205,113.764,113.764,0,0,0,13.546-.675,6.118,6.118,0,0,0,1.044.225,2.278,2.278,0,0,0,2.491-.739h.016q7.1-1.253,7.1-2.989,0-1.111-2.8-2.025a13.65,13.65,0,0,0,1.832-2.732,24.747,24.747,0,0,0,2.186-7.135c.013-.053.024-.106.032-.161l.161.129q2.989-2.25,2.121-7.745-.468-1.814-.981-4.226l6.187-1.093,7.28-1.286,1.655,1.4a26.791,26.791,0,0,0-.643,4.467q-.028.619-.08,1.51l-5.32.932a4.335,4.335,0,0,0-3.985,4.724v3.342q-5.72,1.139-5.721,2.668,0,1.587,5.721,2.764v4.6a5.631,5.631,0,0,0,.208,1.623l-6.282,1.109q-1.478.257,2.185,1.285t10.221,2.185q6.588,1.157,12.341,1.768a35.348,35.348,0,0,0,7.2.386l21.372-3.76q1.446-.257-2.186-1.286-1.542-.419-3.6-.868a5.718,5.718,0,0,0,.418-2.282v-6.315q.8-.526.8-1.109a1.058,1.058,0,0,0-.321-.723q2.423.081,5.046.08a100.66,100.66,0,0,0,17.1-1.189q7.1-1.253,7.1-2.989,0-1.767-7.1-3.021-1.713-.3-3.6-.53l-.194-.386a5.541,5.541,0,0,0-1.125-.466,22.436,22.436,0,0,1-5.077-2.185,45.177,45.177,0,0,1-9.787-7.954l-1.366-1.543c-.043-.047-.086-.1-.128-.145l.9-.643v-1.366l27.944,4.965q-1.6,5.227-.145,13.562a11.662,11.662,0,0,0,3.519,6.187q-2.524.243-4.708.627-5.848,1.06-5.85,2.475,0,1.478,5.85,2.507a81.066,81.066,0,0,0,14.109,1q1.356,0,2.651-.016l-80.138,14.125L1526.6,738.7ZM1545.05,702.1a.721.721,0,0,1-.225.1,23.867,23.867,0,0,1,3.632-1.993,10.712,10.712,0,0,1,3.889-1.157,6.074,6.074,0,0,1,2.892,2.732q.193.418.354.836a7.867,7.867,0,0,1-.048,4.869q-.094.321-.209.659a24.354,24.354,0,0,1-6.074.787q-.468.007-.932-.016a3.294,3.294,0,0,0,.225-.482c.016-.033.032-.066.048-.1a8.4,8.4,0,0,0,.482-1.3,5.3,5.3,0,0,0,.145-.916,5.4,5.4,0,0,0-.482-2.41A2.741,2.741,0,0,0,1545.05,702.1Zm48.079,2.33,10.365-1.832.145-.032a.316.316,0,0,1,0,.048l1.189.771a30.283,30.283,0,0,1-.659,4.017q-.068.332-.145.675-.21.987-.482,2.121a36.128,36.128,0,0,0-.8,4.58l-2.989-.53h-.1a4.655,4.655,0,0,0-1.8.032l-.8.145a2.244,2.244,0,0,0-1.35-1.077,4.157,4.157,0,0,0-.739-.129l-2.475-.45q-.244-.625-.467-1.269c-.041-.125-.084-.248-.128-.37l-.4-1.35.064-.578,1.575-.45Zm65.788-41.619q.206.439.466.932-.231.176-.466.386a9.059,9.059,0,0,0-.787.836.566.566,0,0,0-.065.064l-.192.241c-.047.065-.1.129-.145.193l-.161.225q-1.178,1.617-1.559,2.153c-.1.141-.159.228-.177.257q-.964-.836-2.507-2.346-1.863-1.865-2.506-2.41a13.365,13.365,0,0,0-5.881-3.439q-1.511-.836.289-3.085a10.667,10.667,0,0,1,.884-.964,4.961,4.961,0,0,1,2.523-1.446,2.975,2.975,0,0,0-.177,1.093,2.9,2.9,0,0,0,1.527,2.314q.386.257,1.832,1.093a11.071,11.071,0,0,1,1.7,1.125,25.369,25.369,0,0,0,3.792,2.667,2.9,2.9,0,0,0,.787.273A1.08,1.08,0,0,0,1658.916,662.81Zm-23.381,31.319c-.144.059-.289.123-.434.193a10.268,10.268,0,0,0-2.99,2.362c-.129.139-.257.283-.385.434q.835-4.37,1.575-9.963.353-2.829,1.157-9.963a39.2,39.2,0,0,1,.611-8.452q1.189-4.821,5.174-6.042a7.579,7.579,0,0,1,1.736.595,8.727,8.727,0,0,1,2.764,2.2,9.623,9.623,0,0,1,1.286,1.928,24.055,24.055,0,0,0-4.082,3.085,12.13,12.13,0,0,0-2.41,2.764,17.033,17.033,0,0,0-1.382,5.206,49.47,49.47,0,0,1-.8,4.981q-.708,2.41-1.992,9.481-.125.706-.241,1.366Q1635.327,694.209,1635.535,694.129Zm51.036,35.16-9.594,1.687a.86.86,0,0,0,.161-.466q0-1.216-4.13-2.137a14.226,14.226,0,0,0,5.77-4.837,13.8,13.8,0,0,0,1.639-1.768q.964-1.286,1.479-1.928Q1682.534,721.178,1686.572,729.288ZM1615.594,704.7l-.418.289-.8.354Zm-112.517-3.246a2.962,2.962,0,0,1,.161-2.732,3.045,3.045,0,0,1,2.41-1.35,5.156,5.156,0,0,1,3.214.868,4.96,4.96,0,0,1,2.153,2.507,2.975,2.975,0,0,1-.129,2.764,2.875,2.875,0,0,1-2.378,1.318,5.111,5.111,0,0,1-3.246-.836A5.287,5.287,0,0,1,1503.077,701.456Z" transform="translate(0 -48.726)" fill="#e8effd" fill-rule="evenodd"/>
    <path id="Trazado_1696" data-name="Trazado 1696" d="M1588.532,868.956v1.9l-116.855-20.6v-1.9Zm0,5.785V876.6l-17.129-3.021.257.1-99.983-17.644v-1.9Zm0,6.589v1.9l-80.346-14.173,5.688-.771-17.033-3.021,1.061,1.993-26.225-4.628v-1.9Z" transform="translate(-8.806 -164.129)" fill="#789eeb" fill-rule="evenodd"/>
    <path id="Trazado_1697" data-name="Trazado 1697" d="M1610.424,884.714l-7.842,3.5h-.065l-16.872-5.142-.257-.1L1602.518,886h.033v-.032l8.356-1.478Zm31.784,1-2.635,4.981-14.4-1.96Zm-120.037-7.263-8.71,1.189-1.575-2.989-1.061-1.993,17.033,3.021Z" transform="translate(-22.791 -173.524)" fill="#f7faff" fill-rule="evenodd"/>
    <path id="Trazado_1698" data-name="Trazado 1698" d="M1736.787,678.7a2.129,2.129,0,0,0-.5-1.543q-.219-.618-.482-1.3-.353-.935-.788-1.993l.676-.675a12.244,12.244,0,0,1,.884,1.237,24.874,24.874,0,0,1,2.3,5.287,36.849,36.849,0,0,0,2.571,6.749,19.88,19.88,0,0,1,1.977,3.262c-.042-.082-.084-.168-.129-.257q-.16.233-.337.5a3.224,3.224,0,0,1-2.7,1.7,14.22,14.22,0,0,1-2.443-.482,14.217,14.217,0,0,0-2.443-.482,2.536,2.536,0,0,0-.819.161,9.227,9.227,0,0,0-2.2,1.253,6.243,6.243,0,0,1-3.407,1.382h-.337q-3.438-.084-4.387-1.8-.578-1-.611-4.5a14.61,14.61,0,0,0-1.028-5.849,12.982,12.982,0,0,0-6.01-5.817c-.167-.123-.333-.236-.5-.337.068-.044.138-.087.209-.129q1.407-.848,2.957-1.751a13.364,13.364,0,0,1,5.881,3.439q.642.546,2.506,2.41,1.544,1.51,2.508,2.346c.018-.03.077-.116.177-.257q1.1,1.32,1.928,2.3.995,1.172,1.607,1.848c.036.039.073.076.113.112q.72.787.835.787.563,0,1.157-2.555v-.016q.37-1.647.755-4.339c.141.115.254.2.338.257Q1736.933,679.2,1736.787,678.7Zm7.168,15.266c.045-.159.083-.319.112-.482a5.283,5.283,0,0,0,.081-.627A4.63,4.63,0,0,1,1743.954,693.964Zm-54.346-87.015a.2.2,0,0,1,0-.048,20.27,20.27,0,0,1-.1-2.169q.005-.477.016-1.093.022-2.927.048-9a112.982,112.982,0,0,0-.611-13.016q-.641-5.66-1.591-12.405-.166-1.184-.353-2.25l-.675-3.166c-.022-.082-.044-.162-.064-.241-.011-.037-.022-.075-.033-.112a1.892,1.892,0,0,0,.66.112,1.282,1.282,0,0,0,1.285-.707q.377.947.932,2.185.054.121.112.241t.1.257v-.016q.526,1.228.98,2.539a41.992,41.992,0,0,1,1.607,6.476l-.626,35.5a3.168,3.168,0,0,1-1.527-2.153A7.328,7.328,0,0,1,1689.608,606.949Zm44.4,70.126c-.139.055-.283.114-.435.177-.115.091-.233.187-.353.289q.235-.21.466-.386v.016c.051-.044.1-.087.161-.129l.048-.032C1733.93,677.032,1733.968,677.053,1734.007,677.075Zm5.48,29.278a10.915,10.915,0,0,0-3.76,2.218,8.832,8.832,0,0,1-3.857,2.025q-1.263-.083-2.619-.241-1.375-.147-2.844-.37a15.974,15.974,0,0,1,1.285-3.085,11.536,11.536,0,0,1,5.881-5.367,15.837,15.837,0,0,1,6.011-1.061h.209a8.854,8.854,0,0,0-.627,3.921A16.514,16.514,0,0,0,1739.487,706.353Zm-78.354,45.894-4.242-.739a2.312,2.312,0,0,1-1.4-1.141,4.735,4.735,0,0,1-.466-2.266v-13.37a5.308,5.308,0,0,1,.61-2.651,4.555,4.555,0,0,1,3.375-2.073l12.342-2.169.8-.145a4.656,4.656,0,0,1,1.8-.032h.1l2.989.53.579.113a4.369,4.369,0,0,0-.594-.016,6.5,6.5,0,0,0-.884.113L1663,730.714a4.4,4.4,0,0,0-3.439,2.2,5.339,5.339,0,0,0-.547,2.523v13.37a6.12,6.12,0,0,0,.065.916,3.41,3.41,0,0,0,.643,1.687A2.518,2.518,0,0,0,1661.133,752.247Z" transform="translate(-74.304 -62.14)" fill="#ff65a7" fill-rule="evenodd"/>
    <path id="Trazado_1699" data-name="Trazado 1699" d="M1728.028,707.264q.184,1.307.37,2.668.347,2.365.771,4.949t.9,5.367q.159.888.321,1.8.154.812.305,1.639.193,1.066.4,2.169v.016c-.042,0-.084,0-.129,0l-3.263.579a8.329,8.329,0,0,0-2.683,1.446q-.169-.468-.337-.916-.672-1.855-1.238-3.294c-.05-.13-.1-.259-.144-.386q-.374-.93-.691-1.671a.231.231,0,0,1-.016-.064q-.9-2.149-2.169-5.142-.752-1.767-1.64-3.825-.736-3.448-1.205-7.2-.4-3.274-.594-6.781-.094-2-.241-3.728a40.757,40.757,0,0,0-1.141-7.424,8.58,8.58,0,0,0-1.189-2.571,7.857,7.857,0,0,0-3.182-2.635,9.907,9.907,0,0,1,6.621-2.089,8.509,8.509,0,0,1,2.137.386,6.85,6.85,0,0,1,3.745,2.892,16.426,16.426,0,0,1,2.121,6.717q.066.61.321,3.5.067.649.129,1.221.172,1.356.353,2.282.235,1.734.482,3.583Q1727.565,703.841,1728.028,707.264ZM1571.69,623.575a.639.639,0,0,0-.1-.016,8.986,8.986,0,0,0-.964-.177,4.8,4.8,0,0,0-2.266.225l-.112.032a14.571,14.571,0,0,0-3.6,1.253,19.513,19.513,0,0,1-3.76,1.125,5.508,5.508,0,0,1-3.5-.386,20.338,20.338,0,0,1-2.282-1.382,3,3,0,0,1-1.35-2.089,1.228,1.228,0,0,1,.386.064,23.5,23.5,0,0,0,6.749.386,20.927,20.927,0,0,0,7.488-1.977,12.5,12.5,0,0,0,2.668-1.816q.284-.268.546-.53a15.768,15.768,0,0,0,1.35-1.559,14.641,14.641,0,0,0,1.125-1.768q.257-.611.45-1a3.764,3.764,0,0,1,.322-.739,1.419,1.419,0,0,0,.354.129,1.3,1.3,0,0,1,.45.354q.032-.064.193,0,.482.45,1,.964-.8,1.767-1.639,3.375t-1.7,2.957q-.836,1.446-1.157,2.089A1.1,1.1,0,0,1,1571.69,623.575Zm39.916,75.108a16.775,16.775,0,0,1-3.535-.546,5.068,5.068,0,0,1-1.992-1.189l-1.655-1.4-.37-.305q1.866-10.206-.369-17.773-.761-4.481-1.141-7.263a21.56,21.56,0,0,1,.8-6.46q.578-2.121,2.089-6.171l.063-.177.692-1.961c.025-.087.052-.172.08-.257.005-.01.011-.021.016-.032q.83-2.409,1.205-3.776a23.739,23.739,0,0,0,.932-6.46q.012-1.519.1-3.744.134-3.9.482-9.979.514-8.807.45-13.723-.064-6.716-.032-10.092.034-2.109.225-3.969c.028-.211.055-.42.08-.627q.167-1.435.433-2.716c.028-.112.055-.225.08-.338a21.6,21.6,0,0,1,.627-2.25l7.279,3.278q1.016.412,1.992.787.539.2,1.061.386c.048.184.1.372.145.563a20.642,20.642,0,0,1,.707,4.789,126.813,126.813,0,0,1-1.156,18.126,131.924,131.924,0,0,1-2.764,13.37q-.65,2.566-1.189,4.773-1.559,6.334-2.25,9.786a214.784,214.784,0,0,0-3.086,21.822Zm5.528-180.843q.128.386.482,1.768c.005.017.01.034.016.048l.193.659q.094.314.177.578h.016c.037.127.074.245.113.354a9.976,9.976,0,0,1-1.575-.755q-.255-.174-.611-.4c-.128-.089-.257-.179-.385-.273l-1.478-1.414-.08-.1c-.035-.039-.068-.076-.1-.112a1.811,1.811,0,0,1-.129-.145c-.03-.042-.062-.085-.1-.129s-.063-.083-.1-.129-.064-.084-.1-.128l-.08-.113c-.039-.055-.077-.108-.113-.161l-.064-.1c-.029-.038-.056-.075-.08-.113s-.067-.1-.1-.145a12.9,12.9,0,0,1-1.751-4.692q.12-.1.241-.193a22.443,22.443,0,0,1,4.628-2.764,14.909,14.909,0,0,1,3.7-1.221c.046.14.089.285.128.434l.193,1.4c0,.045,0,.088,0,.129q0,.1,0,.209a28.375,28.375,0,0,1-.611,4.612,2.283,2.283,0,0,1-2.153-.578,8.3,8.3,0,0,0-1.961-1.286,4.038,4.038,0,0,0,.194,2.635A6.585,6.585,0,0,0,1617.134,517.839Zm1.478-11.795q-.523.3-1.028.579a31.691,31.691,0,0,1-6.492,2.812,13.538,13.538,0,0,1,.433-3.182c.009-.046.019-.095.033-.145s.033-.107.048-.161.031-.12.049-.177.032-.1.048-.145.031-.109.048-.161a28.207,28.207,0,0,0,3.711-1.253,16.75,16.75,0,0,0,3.214-2.025q2.54-1.9,3.761-2.635.385-.225,4.435-1.7a34.768,34.768,0,0,0,4.886-2.057,18.958,18.958,0,0,0,1.607-1.462,2.223,2.223,0,0,1,.176.241,3.7,3.7,0,0,1,.306,2.539l-.016.1a9.4,9.4,0,0,1-1.237,3.15q-2.555.383-4.29.675a1.042,1.042,0,0,1-.338-.273q-.494.249-1.013.5-1.646.29-2.169.45a11.383,11.383,0,0,0-6.395,4.114C1618.466,505.892,1618.541,505.967,1618.613,506.044Zm-41.234,120.423a6.909,6.909,0,0,0-.482,1.7,5.145,5.145,0,0,1-1.028,1.9,1.019,1.019,0,0,0-.386.129,8.22,8.22,0,0,1-1.318-.868,17.84,17.84,0,0,0,2.635-5.4q.386-1.511.836-4.275.289-2.347.514-3.5h.064a18,18,0,0,1,1.254,2.089,12.806,12.806,0,0,1,1.318,5.624,8.435,8.435,0,0,1-1.607,5.3l-.257.193a17.6,17.6,0,0,0-.129-1.993,2.215,2.215,0,0,0-.868-1.735A4.307,4.307,0,0,0,1577.379,626.468Zm-11.474,18.03a2.616,2.616,0,0,0,2.443,1.125l.321.739a3.184,3.184,0,0,1-.643,3.214,2.1,2.1,0,0,0-.482.611,4.3,4.3,0,0,0-.707.064,2.31,2.31,0,0,1-1.382-.289.789.789,0,0,0-.193-.1,7.715,7.715,0,0,0,0-1.414c.043-.043.043-.064,0-.064a.344.344,0,0,0,.064-.193c0-.215.01-.471.032-.771a12.3,12.3,0,0,1,.257-1.639l.193-.45a.753.753,0,0,1,.1-.289Zm128.152-9.015-.017.08a3.378,3.378,0,0,1-2.25,2.667,1.368,1.368,0,0,0-.482-1.832,9.127,9.127,0,0,0-1.864-.932,6.816,6.816,0,0,1-3.279-1.671,15.9,15.9,0,0,0-2.924-2.185q-.275.711-.595,1.4a19.744,19.744,0,0,1-2.571,4.017l-.177.209q-.358.415-.738.8a18.312,18.312,0,0,1-4.339,3.375l-.611-.161q-.8-.209-1.639-.418a8.788,8.788,0,0,1-2.443-.659h-.016c-.05-.026-.1-.053-.145-.08a1.854,1.854,0,0,1-.836-.884,26.871,26.871,0,0,0,3.615-.819l.306-.1a22.892,22.892,0,0,0,2.635-1,6.056,6.056,0,0,0,2.475-1.864,4.716,4.716,0,0,0,.449-.707,13.978,13.978,0,0,0,.9-3.182q.27-1.244.53-2.218-.606-1.519-1.3-3.792a34.846,34.846,0,0,1-1.382-5.174q.405-.134.82-.241h.016a10.162,10.162,0,0,1,3.021,3.648,26.163,26.163,0,0,0,4.049,5.849q2.025,1.446,8.581,5.464l.241.161C1694.08,635.321,1694.069,635.4,1694.058,635.482Zm-24.634.916c-.017.118-.033.236-.049.354a1.921,1.921,0,0,0-.208-.032A3.331,3.331,0,0,1,1669.424,636.4Zm-31.64,57.9a16.956,16.956,0,0,1-4.645-.273,14.435,14.435,0,0,1-4.627-1.7l-1.189-.771a.316.316,0,0,0,0-.048c.008-.123.019-.246.031-.37a64.249,64.249,0,0,0-1.446-17.644,17.755,17.755,0,0,1-1.735-8.067,45.232,45.232,0,0,1,1.092-8.163q1.254-6.138,1.479-8.26a21.65,21.65,0,0,0-.546-8.227q.284-3.649,1.028-8.163.518-3.12,1.253-6.653,2.186-9.77,3.15-14.687a33.038,33.038,0,0,0,4.467-2.346,12.727,12.727,0,0,0,3.631-3.535q.639-.18,1.254-.386a23.434,23.434,0,0,0,2.555-1.028q.644-.3,1.253-.643a37,37,0,0,0,.74,7.054q.627,3.139-.4,9.561-.142.9-.321,1.88-1.438,7.852-7.521,20.713-1.64,6.46-1.639,17.773l1.446,25.454q.205,2.858.418,5.383Q1637.645,692.793,1637.783,694.3Zm11.056-68.407a48.952,48.952,0,0,1-3.214,11.907q.278-.7.546-1.414.244-.941.5-1.912Q1648.047,629.207,1648.839,625.889Zm6.572,60.163q-.038.617-.048,1.141a10.726,10.726,0,0,0,.08,1.591c.006.027.011.054.016.08a2.689,2.689,0,0,0,.048.273q.45,1.832,2.056,1.8,1.414-.033,6.428,0,.874.007,1.672,0,2.848,0,4.756-.129a8.3,8.3,0,0,0-.369,1.382,17.481,17.481,0,0,1-3.9.771,23.4,23.4,0,0,1-14.173-2.41,12.416,12.416,0,0,1-6.588-10.927q.739-6.749,3.792-10.477,3.117-3.727,3.214-6.2a22.325,22.325,0,0,0-.868-6.235,8.035,8.035,0,0,1-.1-3.841,7.735,7.735,0,0,1,1.414-2.973,10.252,10.252,0,0,1,5.753-3.953q.818-.217,1.542-.418,2.359-.671,3.664-1.189a8.111,8.111,0,0,0,2.748-2.025,7.518,7.518,0,0,0,.434.707,1.742,1.742,0,0,0,.321.45,3.377,3.377,0,0,0,2.491,1.318,10.739,10.739,0,0,0-.884.964q-1.8,2.25-.289,3.085-1.55.9-2.957,1.752c-.071.042-.141.085-.209.129q-.787.464-1.526.916-3.986,1.221-5.174,6.042a39.207,39.207,0,0,0-.611,8.452q-.8,7.135-1.157,9.963Q1656.247,681.681,1655.411,686.052Zm29.037-31.19q-.548,1.205-.723,1.205a1.081,1.081,0,0,1-.675-.321,3.165,3.165,0,0,1-.258-.257,6.844,6.844,0,0,1-.706-.964c-.091-.145-.177-.284-.258-.418-.026-.048-.052-.1-.08-.145a.564.564,0,0,1,.065-.064,9.118,9.118,0,0,1,.787-.836c.12-.1.238-.2.353-.289.152-.063.3-.122.435-.177a8.887,8.887,0,0,1,.851.643q.3.259.643.579a.072.072,0,0,0,.033.016v.016q-.15.335-.354.771Q1684.5,654.747,1684.448,654.862Zm-14.382,29.583q-1.029-.257-3.6-.611l-.8-.129q-1.679-.284-2.7-.546a40.878,40.878,0,0,0,1.221-5.239q.61-3.471.931-5.239.213.721.547,1.607.679,1.808,1.864,4.306,1.22,2.629,1.928,4.323Q1669.833,683.812,1670.066,684.445Zm35.513,24.329q-.515.642-1.478,1.928a13.8,13.8,0,0,1-1.639,1.768,8.607,8.607,0,0,1-4.5.514,7.728,7.728,0,0,1-4.082-1.768q3.981-4.142,8.6-8.517.894-.844,1.816-1.7.119.791.305,2.089.105.818.241,1.832A31.75,31.75,0,0,0,1705.58,708.774Zm-149.926-2.442a6.449,6.449,0,0,0,1.157-.129l14.944-2.7q.032.381.032.8a26.976,26.976,0,0,0-8.742,12.341,6.871,6.871,0,0,1-.691.916,10.005,10.005,0,0,1-1.752,1.495,9.725,9.725,0,0,1-.868.578,21.559,21.559,0,0,1-2.121,1.157q-.226.161-4.853,1.7a23.226,23.226,0,0,0-5.014,2.153q-.159.081-.321.145a6.725,6.725,0,0,1-4.275.37c-.026-.014-.052-.03-.08-.048a6.435,6.435,0,0,1-2.137-1.719,7.314,7.314,0,0,1-.514-.707,1.312,1.312,0,0,0,.145-.064,18.719,18.719,0,0,0,5.753-3.68,37.308,37.308,0,0,0,5.865-7.022Q1554.438,708.126,1555.653,706.332Zm-4.821,1.768-.032.1a20.847,20.847,0,0,1-3.31,6.235,18.8,18.8,0,0,1-2.346,2.378q-6.262-1.781-12.47-3.375-6.477-1.713-10.911-3.326-6.224-2.245-8.437-4.29a6.093,6.093,0,0,1,2.86-4.339q.643-.418,2.25-1.382a17.728,17.728,0,0,1,3.085-1.43,1.715,1.715,0,0,0,1.093.691h.032l.032.064.418.739.482.482.385.161.322.225,7.006,1.189a.4.4,0,0,1-.032.257,5.219,5.219,0,0,1,.659-.145l9.625,1.639q.867.375,1.928.852,1.046.481,2.282,1.061h.016A38.262,38.262,0,0,0,1550.833,708.1Z" transform="translate(-23.684 -37.661)" fill="#003151" fill-rule="evenodd"/>
    <path id="Trazado_1700" data-name="Trazado 1700" d="M1780.552,795.532l-3.053.546q-.707.129-.192-.289l.835-.643,12.6-9.834a2.644,2.644,0,0,1,1.221-.546l23.782-4.21.868-.161q.707-.1.193.321l-2.588,2.025a8.506,8.506,0,0,0-2.136-.386,9.909,9.909,0,0,0-6.621,2.089,8.3,8.3,0,0,0-1.67-.514,14.535,14.535,0,0,0-6.556,1.35,55.923,55.923,0,0,0-5.914,3.342,31.9,31.9,0,0,1-3.728,2.153q-.953.668-2.218,1.527Q1783.358,793.676,1780.552,795.532Z" transform="translate(-117.908 -139.845)" fill="#73a4de" fill-rule="evenodd"/>
    <path id="Trazado_1701" data-name="Trazado 1701" d="M1729.877,734.155a5.262,5.262,0,0,0,2.089,1.928q.226.128,2.668,1.253c.268.123.513.247.739.37a5.777,5.777,0,0,1,1.542,1.109,3.1,3.1,0,0,1,.868,1.494,3.86,3.86,0,0,1,.128,1.012,9.1,9.1,0,0,1-6.717,1.7q-2.012-.355-4.033-.836-1.276-.315-2.555-.675a42.492,42.492,0,0,0-4.949-1.044q-.742-.1-1.478-.177-2.474-.257-2.764-3.825-.025-.238-.033-.5a12.561,12.561,0,0,1,.08-1.88c.022-.219.049-.443.08-.675q.226-1.8.321-2.635a3.239,3.239,0,0,0,1.366,3,6.348,6.348,0,0,0,.884.53,13.5,13.5,0,0,0,1.672.659c.136.046.275.095.417.145q.115.03.226.064,1.671.547,2.218.8a2.163,2.163,0,0,0,2.764-.578q.739-.868,1.125-1.286c.044-.049.088-.1.129-.145a5.373,5.373,0,0,1,1.092-.916q.511.229.949.45l.161.08Q1729.436,733.883,1729.877,734.155ZM1568.349,611.273a18.575,18.575,0,0,1,1.9-.209,8.331,8.331,0,0,1,1.318.016,7.908,7.908,0,0,1,3.246,1.044,3.751,3.751,0,0,0-.321.739q-.193.386-.45,1a14.63,14.63,0,0,1-1.125,1.768,15.787,15.787,0,0,1-1.35,1.559q-.262.262-.547.53a12.5,12.5,0,0,1-2.667,1.816,20.924,20.924,0,0,1-7.488,1.977,23.5,23.5,0,0,1-6.749-.386,1.226,1.226,0,0,0-.386-.064v-.1a25.026,25.026,0,0,1,7.2-6.846A19.7,19.7,0,0,1,1568.349,611.273Zm47.179-92.559c.129.094.257.185.385.273q.357.228.611.4A9.751,9.751,0,0,1,1615.529,518.714Zm4.435-11.216q-.059-.224-.129-.434a14.908,14.908,0,0,0-3.7,1.221,22.452,22.452,0,0,0-4.628,2.764q-.12.095-.241.193a16.905,16.905,0,0,1-.177-1.7q-.038-.61-.031-1.205a31.685,31.685,0,0,0,6.492-2.812q.505-.283,1.028-.579A5.41,5.41,0,0,1,1619.964,507.5Zm13.546-14.029a2.232,2.232,0,0,0-.176-.241,19.019,19.019,0,0,1-1.607,1.462,34.8,34.8,0,0,1-4.886,2.057q-4.048,1.478-4.434,1.7-1.222.74-3.761,2.635a16.749,16.749,0,0,1-3.214,2.025,28.207,28.207,0,0,1-3.711,1.253,12.764,12.764,0,0,1,.594-1.511,10.942,10.942,0,0,1,4.467-5.046,9.419,9.419,0,0,1,3.085-1.832q1-.386,3.5-1.061,4.66-1.222,6.363-3.31.58-.579.964-.225a2.42,2.42,0,0,1,.611,1.028,2.085,2.085,0,0,0,.707.932q.449.321,1.157-.289A1.887,1.887,0,0,1,1633.509,493.469Zm81.648,234.1q-.693-1.628-1.639-3.648-.3-.645-.627-1.334c-.058-.125-.117-.247-.176-.37q-.915-1.93-2.025-4.162l-.466-.932q-4.038-8.11-4.676-9.449a31.758,31.758,0,0,1-.739-3.857q-.136-1.014-.241-1.832-.187-1.3-.305-2.089-.923.86-1.816,1.7-4.616,4.374-8.6,8.517a11.682,11.682,0,0,0-2.024,2.282,5.1,5.1,0,0,1-3.343,1.639,9.886,9.886,0,0,1-6.974-1.735,23.718,23.718,0,0,1-5.5-5.624,6.461,6.461,0,0,1-1.446-3.567,3.682,3.682,0,0,1,1.029-2.443,44.969,44.969,0,0,1,3.519-3.2q2.146-1.779,4.852-3.68c.051-.032.1-.064.145-.1q1.145-.754,2.185-1.446,2.807-1.856,4.821-3.23,1.266-.858,2.218-1.527a31.9,31.9,0,0,0,3.727-2.153,55.932,55.932,0,0,1,5.914-3.342,14.536,14.536,0,0,1,6.556-1.35,8.309,8.309,0,0,1,1.671.514,7.861,7.861,0,0,1,3.182,2.635,8.583,8.583,0,0,1,1.189,2.571,40.757,40.757,0,0,1,1.141,7.424q.146,1.727.241,3.728.195,3.507.594,6.781.469,3.752,1.205,7.2.448,2.074.9,3.953.693,2.872,1.4,5.287c.014.057.03.115.048.177q.236.851.45,1.591a.507.507,0,0,1,.032.08,30.45,30.45,0,0,0,1.253,3.616c.032.073.064.143.1.209a5.526,5.526,0,0,0-.9-.064l-2.732.482-.193.064a36.365,36.365,0,0,0-3.664,1.35C1715.355,728.02,1715.258,727.794,1715.158,727.566Zm14.3,7.392q-1.414.033-2.925,2.057a6.2,6.2,0,0,0,3.857-.193Q1732.288,736.083,1729.46,734.958Zm-102.539-234.8q.52-.25,1.013-.5a1.043,1.043,0,0,0,.338.273Q1627.518,500.048,1626.921,500.154Zm-48.737,114.9h-.064q-.225,1.157-.514,3.5-.45,2.763-.836,4.274a17.842,17.842,0,0,1-2.635,5.4,6.26,6.26,0,0,1-2.539-3.471,5.15,5.15,0,0,1,.064-2.282,1.1,1.1,0,0,0,.643-.482q.321-.642,1.157-2.089.868-1.35,1.7-2.957t1.639-3.375A8.16,8.16,0,0,1,1578.183,615.049Zm-12.952,33.713a.794.794,0,0,1,.193.1,2.309,2.309,0,0,0,1.382.289,4.3,4.3,0,0,1,.707-.064,4.227,4.227,0,0,0-.8,1.993,6.806,6.806,0,0,1-.193.9l-1.221.868-.482-1.318q.128-.547.225-1.028v-.321A8.6,8.6,0,0,0,1565.232,648.763ZM1669.393,635.3q.108-1.012.161-2.25.064-2.57.161-3.824.354-4.628,2.314-7.038a15.529,15.529,0,0,1,3.921-2.41,14.426,14.426,0,0,1,1.382-.514,34.827,34.827,0,0,0,1.382,5.174q.7,2.273,1.3,3.792-.26.974-.53,2.218a14,14,0,0,1-.9,3.182,4.733,4.733,0,0,1-.449.707,6.057,6.057,0,0,1-2.475,1.864,22.892,22.892,0,0,1-2.635,1l-.306.1a26.882,26.882,0,0,1-3.615.819,1.766,1.766,0,0,1,.065-1.3q.1-.529.176-1.157C1669.36,635.533,1669.375,635.414,1669.393,635.3Zm24.634-.916q.017-.121.032-.241l-.241-.161q-6.556-4.018-8.581-5.464a26.164,26.164,0,0,1-4.049-5.849,10.161,10.161,0,0,0-3.021-3.648,16.953,16.953,0,0,1,2.506-.434,11.239,11.239,0,0,1,8.838,2.475,14.35,14.35,0,0,1,3.311,4.467q.771,1.574,2.089,5.206A18.322,18.322,0,0,0,1694.027,634.381Zm-53.88,32.122v25.389l-.9.643-1.221.643a.276.276,0,0,1-.064,0c-.072.009-.142.014-.209.016q-.139-1.5-.273-3.15-.213-2.525-.418-5.383l-1.446-25.454q0-11.312,1.639-17.773,6.082-12.862,7.52-20.713.179-.977.321-1.88,1.028-6.421.4-9.561a37,37,0,0,1-.74-7.054q.477-.261.933-.546a19.343,19.343,0,0,0,2.169-1.575q.154.791.289,1.575a79.3,79.3,0,0,1,1.286,14.639q-.013,2.356-.193,4.644c-.007.087-.013.172-.016.257q-.151,1.765-.4,3.455c-.006.04-.011.078-.016.112q-.792,3.318-2.169,8.581-.255.971-.5,1.912-.269.712-.546,1.414a44.647,44.647,0,0,1-1.944,4.033c-.035.053-.067.107-.1.161a23.208,23.208,0,0,1-1.092,6.717,59.07,59.07,0,0,1-2.475,6.3q.3,4.314.161,10.638c0,.1,0,.2,0,.305Zm-.451-62.22a12.73,12.73,0,0,1-3.631,3.535,33.048,33.048,0,0,1-4.467,2.346q-.964,4.917-3.15,14.687-.735,3.533-1.253,6.653-.743,4.514-1.028,8.163a12.631,12.631,0,0,1-2.058,6.235,24.04,24.04,0,0,0-2.763,5.978q-.16.579-1.993,5.464a26.258,26.258,0,0,0-1.511,5.624,55.467,55.467,0,0,1-.449,8.517q-.169,1.385-.627,4.6l.016,16.182v4.323l-1.575.45a9.012,9.012,0,0,1-3.632.546V674.056a214.776,214.776,0,0,1,3.086-21.822q.69-3.453,2.25-9.786.54-2.207,1.189-4.773a131.886,131.886,0,0,0,2.764-13.37,126.815,126.815,0,0,0,1.156-18.126,20.642,20.642,0,0,0-.707-4.789c-.047-.191-.1-.379-.145-.562q1.256.46,2.458.852.618.2,1.222.386a49.508,49.508,0,0,0,13.466,2.218Q1639.009,604.3,1639.7,604.283Zm44.721,49.477.53,2.876q0,.022.354,1.51v.016q-.595,2.555-1.157,2.555-.116,0-.836-.787c-.039-.036-.076-.073-.113-.112-.023-.226-.05-.462-.08-.707q-.023-.195-.048-.386-.241-2.136-.289-3.535-.016-.382-.017-.707v-.1a3.135,3.135,0,0,0,.258.257,1.08,1.08,0,0,0,.675.321Q1683.87,654.965,1684.417,653.76Zm-27.688,51.068q-.243-.126-.513-.241-.587.224-1.205.418a29.186,29.186,0,0,1-8.79,1.221q-2.989-.836-6.106-1.671a.907.907,0,0,1-.1-.032,40.055,40.055,0,0,0-9.481-1.639,8.448,8.448,0,0,1,6.235-6.942q1.318-.417,3.5-1a3.85,3.85,0,0,0,.787-.37q-.161-.172-.321-.354a45.173,45.173,0,0,0,9.787,7.954,22.437,22.437,0,0,0,5.077,2.185A5.545,5.545,0,0,1,1656.729,704.828Zm1.415,3.423q.354-.1.257.546c-.042.214-.107.535-.193.964a26.256,26.256,0,0,1-10.509.964,53.159,53.159,0,0,1-7.552-1.382q-1.091-.277-2.25-.595v-1.141c0-.2-.005-.394-.016-.578q.48.054.884.129.69.266,1.382.5a32.807,32.807,0,0,0,8.2,1.687A27.565,27.565,0,0,0,1658.144,708.251Zm-42.472-8.918q.224.644.467,1.269l-1.093-.193h-.1a3.519,3.519,0,0,0-.867-.064,10.829,10.829,0,0,0,1.028-.578A3.873,3.873,0,0,0,1615.672,699.333Zm-42.76-2.571q-2.683.845-4.933,1.623l-1.607-.273a.145.145,0,0,0,.048-.016,9.908,9.908,0,0,0,3.053-.643q1.735-.546,2.218-.675h.032l.257-.032Q1572.444,696.768,1572.913,696.762ZM1550.8,707a11.687,11.687,0,0,1,1.109-2.362l2.716.466a3.274,3.274,0,0,0,1,.129q-1.215,1.794-3.471,5.592a37.315,37.315,0,0,1-5.865,7.022,18.718,18.718,0,0,1-5.753,3.68,1.3,1.3,0,0,1-.145.064,3.323,3.323,0,0,1-.257-2.025l1.414-1.3q-5.126-1.639-8.388-2.426-.836-.258-2.41-.707-1.543-.418-3.118-.8-1.446-.418-2.314-.578-1.19.578-2.025,1-.514.289-.964.514a8.52,8.52,0,0,0-2.571,2.121,3.4,3.4,0,0,1,1.51-2.443,11.682,11.682,0,0,1,2.571-1.575q-1.511-.514-4.66-1.253a12.839,12.839,0,0,1-3.889-1.96c-.11-.082-.217-.168-.321-.257a5.8,5.8,0,0,1-1.7-4.853,1.635,1.635,0,0,0,.032-.321q2.213,2.045,8.436,4.291,4.434,1.613,10.911,3.326,6.207,1.594,12.47,3.375a18.791,18.791,0,0,0,2.346-2.378,20.843,20.843,0,0,0,3.31-6.235Zm30.5,16.648q-.417-.643-.836-1.35a24.816,24.816,0,0,1-1.671-3.664q-.287-.741-.546-1.382-1.111-2.831-1.607-3.824,2.056-.675,3.342,2.635.239.538.595,1.527.209.6.466,1.366a8.548,8.548,0,0,0,1.221,2.282,1.931,1.931,0,0,1,.514,1.639Q1582.49,723.645,1581.3,723.645Zm-23.718-3.953a21.563,21.563,0,0,0,2.121-1.157q.61.129,1.318.289,1.478.353,2.41.546a2.057,2.057,0,0,0,.45,1.575,12.607,12.607,0,0,0-3.214-.771,14.1,14.1,0,0,1-2.764-.386Z" transform="translate(-23.653 -36.559)" fill="#00558c" fill-rule="evenodd"/>
    <path id="Trazado_1702" data-name="Trazado 1702" d="M1786.164,842.179c.237.13.541.314.917.546q1.252.774,3.551,2.314,1.562,1.047,2.6,1.864a14.711,14.711,0,0,1,1.254,1.093,3.964,3.964,0,0,1,1.076,1.527q.42,1.317-1.43,2.137a6.243,6.243,0,0,1-2.539.482,5.7,5.7,0,0,1-2.507-.45,3.86,3.86,0,0,0-.129-1.012,3.1,3.1,0,0,0-.868-1.494,5.776,5.776,0,0,0-1.542-1.109c-.226-.123-.471-.247-.739-.37q-2.443-1.124-2.667-1.253a5.262,5.262,0,0,1-2.089-1.928,1.877,1.877,0,0,0,2.668-.45l.771-.9c.162-.184.258-.291.289-.321A2.393,2.393,0,0,1,1786.164,842.179Zm-38.325-15.6-.176.08a15.172,15.172,0,0,1-7.618,1.414,4.412,4.412,0,0,0-2.12.321q-.676.225-1.993.739a13.405,13.405,0,0,1-10.445-1.446,14.725,14.725,0,0,1-2.844-2.073,11.664,11.664,0,0,1-3.519-6.187q-1.454-8.336.145-13.562a14.225,14.225,0,0,1,.643-1.7,11.576,11.576,0,0,1,1.205-2.089,10.485,10.485,0,0,1,1.318-.723,13.637,13.637,0,0,1,4.307-1.077q1.454-.117,5.255-.016c.263,0,.537.008.819.016q1.968.084,3.472,0l-2.347,1.832q-.514.417.194.289l.931-.161-.835.643q-.515.418.192.289l3.053-.546q-1.039.692-2.185,1.446c-.046.032-.095.064-.145.1q-2.705,1.9-4.852,3.68a44.958,44.958,0,0,0-3.519,3.2,3.683,3.683,0,0,0-1.029,2.442,6.462,6.462,0,0,0,1.446,3.567,23.72,23.72,0,0,0,5.5,5.624,9.886,9.886,0,0,0,6.974,1.735,5.1,5.1,0,0,0,3.343-1.639,11.69,11.69,0,0,1,2.024-2.282,7.73,7.73,0,0,0,4.082,1.768,8.607,8.607,0,0,0,4.5-.514A14.226,14.226,0,0,1,1747.839,826.576Zm39.868,17.4a2.992,2.992,0,0,0-2.8,1.51,5.9,5.9,0,0,0,3.632.193Q1790.311,845.233,1787.708,843.979Zm-130.482-37.763a5.068,5.068,0,0,0,1.992,1.189,16.775,16.775,0,0,0,3.535.546,9.011,9.011,0,0,0,3.632-.546l-.064.578.4,1.35c.044.122.087.245.128.37a3.882,3.882,0,0,1-.562.434,10.834,10.834,0,0,1-1.028.578,5.3,5.3,0,0,0-.932.1l-7.826,1.382q.053-.892.08-1.51A26.765,26.765,0,0,1,1657.225,806.216Zm31.7-2.651c.067,0,.137-.007.209-.016a.268.268,0,0,0,.064,0l.8-.354.418-.289c.042.049.085.1.128.145l1.366,1.543q.16.181.321.353a3.845,3.845,0,0,1-.787.37q-2.186.579-3.5,1a8.448,8.448,0,0,0-6.236,6.942,40.055,40.055,0,0,1,9.481,1.639.881.881,0,0,0,.1.032q3.117.836,6.106,1.671a29.186,29.186,0,0,0,8.79-1.221q.618-.194,1.205-.418c.181.076.352.157.514.241l.193.386,1.3,2.507a.628.628,0,0,0-.016.1.4.4,0,0,1,0,.08c-.006.035-.01.072-.016.112s-.023.108-.032.161c-.006.028-.011.055-.016.08a27.568,27.568,0,0,1-9.8,1.093,32.809,32.809,0,0,1-8.2-1.687q-.691-.232-1.382-.5-.4-.074-.884-.129a2.678,2.678,0,0,0-1.784-2.668,4.075,4.075,0,0,0-.74-.129l-3.567-.643h-.1a4.677,4.677,0,0,0-1.8.032l-.931.161a2.2,2.2,0,0,0-1.253-.932,4.085,4.085,0,0,0-.739-.129l-.578-.112a36.128,36.128,0,0,1,.8-4.58q.272-1.133.482-2.121.076-.343.144-.675a30.242,30.242,0,0,0,.659-4.017,14.434,14.434,0,0,0,4.627,1.7A16.958,16.958,0,0,0,1688.93,803.564Z" transform="translate(-74.831 -146.93)" fill="#001c2e" fill-rule="evenodd"/>
    <path id="Trazado_1703" data-name="Trazado 1703" d="M1592.989,629.206l-.273-.064a6.893,6.893,0,0,0-1.559-.128,12.2,12.2,0,0,0-1.816.289,10.664,10.664,0,0,0-2.362.9,16.272,16.272,0,0,1-5.946,1.414,8.584,8.584,0,0,1-2.217-.289,1.874,1.874,0,0,1-.064-.45l-.032-1.8a.251.251,0,0,0,.032-.1,5.507,5.507,0,0,0,3.5.386,19.511,19.511,0,0,0,3.76-1.125,14.576,14.576,0,0,1,3.6-1.253l.113-.032a4.8,4.8,0,0,1,2.266-.225,9,9,0,0,1,.964.177.646.646,0,0,1,.1.016A5.15,5.15,0,0,0,1592.989,629.206Zm36.959-37.377a5.856,5.856,0,0,0,2.41-1.591,6.1,6.1,0,0,0,.739-1.012,3.47,3.47,0,0,0,.1-3.857q.289,0,1.06-.064.369-.074.723-.112a6.973,6.973,0,0,1,.338,2.394q-.032,1-.161,3.053a5.858,5.858,0,0,0,1.639,4.049q.345.37.674.691a2.317,2.317,0,0,1-.224.064,2.684,2.684,0,0,1-1.7-.241c-.021-.012-.042-.022-.064-.032q-1.19-.61-2.282-1.125a10.553,10.553,0,0,0-1.029-.45,6.711,6.711,0,0,1-1.156-.8Q1630.849,592.633,1629.948,591.829Zm25.02-64.02-.016.064q.032.61.225,1.9-.354,1.735-1.446,2.025a3.925,3.925,0,0,1-2.443-.289q-1.863-.771-2.828-1.061a4.9,4.9,0,0,0-2.732-.257,27.46,27.46,0,0,1-4.307-1.735l-.289-.868-.225-.514a8.259,8.259,0,0,0-.675-1.253q-.482-.8-.739-1.221c-.038-.109-.075-.226-.112-.354q.62.3,1.334.611A36.268,36.268,0,0,0,1654.968,527.809Zm-5.3-23.429q1.737-.292,4.291-.675c.05.051.1.105.144.161a12.036,12.036,0,0,1,1.141,1.414q.315.45.595.932l-.434.032q-7.167.579-10.027,3.407-1.737,1.9-3.182,3.374-.339.355-.643.659c0-.073,0-.142,0-.209,0-.04,0-.083,0-.129l-.193-1.4a5.409,5.409,0,0,0-1.382-2.555c-.072-.078-.147-.152-.225-.225a11.384,11.384,0,0,1,6.395-4.114q.524-.159,2.169-.45Q1648.912,504.5,1649.665,504.38Zm36.814,11.377,1.543,1.157a8.947,8.947,0,0,0,4.66,1.446q.032,0,1.864-1.382-.515,1.061-1.189,2.25a.537.537,0,0,0-.161-.032q-1.36-.207-2.7-.514a37.475,37.475,0,0,1-3.888-1.093q-.033-.675-.1-1.446A2.3,2.3,0,0,1,1686.479,515.757Zm-.321-6.01h-.032v-.225l-.032-.611q.45-.482,1.253-1.221a22.6,22.6,0,0,1,1.768-1.414c.021,0,.042.021.064.064a.249.249,0,0,1,.1-.032l.225-.064a.927.927,0,0,0,.225-.032.9.9,0,0,1-.418.707q-.45.354-.45.643a19.008,19.008,0,0,0,.482,1.864q.514,1.864.611,2.475a1.018,1.018,0,0,0,.867-1.061,11.812,11.812,0,0,1-.224-1.285v-1.671c.021,0,.032-.021.032-.064a.435.435,0,0,1,.289-.064q.514,0,.611,1.478v2.443h1.157q.193-1.35.289-2.025a3.969,3.969,0,0,1,.836-1.9q.289.289.289.45,0,.45-.547,3.6c0,.215.023.289.065.225a.1.1,0,0,1,.1.064.989.989,0,0,0,.29.032q.161,0,1.028-1.607a8.9,8.9,0,0,1,1.35-2.153c.171.064.268.118.289.161l.032.032a12.4,12.4,0,0,0-.547,2.378q-.868,2.6-1.51,2.6a1.745,1.745,0,0,1-.514-.129,1.335,1.335,0,0,0-.418-.161l-2.056-.129-.9.064a7.528,7.528,0,0,0,.514,2.089,3.273,3.273,0,0,1,.289,1.51,4.731,4.731,0,0,1-.032.707.809.809,0,0,1-.611.611q-.739-.964-1.575-2.185a7.009,7.009,0,0,1-1.221-2.218,5.273,5.273,0,0,1,.482-1.286,5.229,5.229,0,0,0,.418-1.51q0-.032-.8-2.892-.45,0-1.254.9A10.671,10.671,0,0,1,1686.158,509.747Zm-18.768,69.483v-.45h.064Zm45.3,63.907a.911.911,0,0,0-.048.112l-.466-.305q-.452-.31-.949-.659-4.821-3.375-5.431-3.632a15.172,15.172,0,0,1-2.105,2.635q-.472.5-1.028,1.044-.518.5-1.109,1.045a15.153,15.153,0,0,1-4.58,3.182q-.17-.3-.322-.611-.215-.46-.386-.932c-.026-.086-.053-.172-.08-.257a18.313,18.313,0,0,0,4.339-3.375q.38-.389.739-.8l.177-.209a19.744,19.744,0,0,0,2.571-4.017q.32-.686.595-1.4a15.9,15.9,0,0,1,2.924,2.185,6.817,6.817,0,0,0,3.279,1.671,9.128,9.128,0,0,1,1.863.932,1.368,1.368,0,0,1,.482,1.832q-.183.726-.433,1.446C1712.712,643.064,1712.7,643.1,1712.688,643.138Zm-35.963,47.4c.009-.22.021-.45.031-.691q.17-.43.4-.884a10.268,10.268,0,0,1,2.989-2.362c.145-.069.29-.134.434-.193a6.494,6.494,0,0,1,.674-.225.78.78,0,0,0,.1-.016l.144.852q-.835,1.253-1.221,1.928a4.036,4.036,0,0,0-.643,1.9.8.8,0,0,0,.482.836,1.847,1.847,0,0,0,.643.1q2.347,0,2.925.032a5.128,5.128,0,0,1,1.318.225l18.64-.257a25.859,25.859,0,0,0,2.763-.659q1.981-.554,4.87-1.527h.016a3.491,3.491,0,0,0,.836-.08c.029,0,.062-.009.1-.016.17-.007.341-.012.514-.016l-3.728,2.925a26.542,26.542,0,0,1-5.544.916q-.952.069-1.977.1-1.639.064-4.853.129-.648.03-1.253.08-1.233.1-2.3.273-.686.113-1.3.257-1.907.125-4.756.129-.8.007-1.672,0-5.013-.033-6.428,0-1.606.033-2.056-1.8a2.689,2.689,0,0,1-.048-.273c0-.026-.01-.053-.016-.08A10.747,10.747,0,0,1,1676.726,690.542Zm78.691,44.737q.439.479.964.98a2.392,2.392,0,0,0-1.381.675c-.031.031-.127.138-.289.321l-.771.9a1.877,1.877,0,0,1-2.668.45q-.443-.273-1.012-.562l-.161-.08a13.2,13.2,0,0,1,.225-1.784,1.457,1.457,0,0,1,.112-.305,19.141,19.141,0,0,1,3.053-3.342.692.692,0,0,1,.033.064A10.779,10.779,0,0,0,1755.416,735.279Zm-14.237,4.146a13.492,13.492,0,0,1-1.672-.659,6.35,6.35,0,0,1-.884-.53,3.239,3.239,0,0,1-1.366-3.005.5.5,0,0,0,.033-.161,10.807,10.807,0,0,0-.161-1.221.5.5,0,0,1-.016-.08,9.587,9.587,0,0,1-.273-1.077,36.381,36.381,0,0,1,3.664-1.35l.193-.064,2.732-.482a5.525,5.525,0,0,1,.9.064,8.038,8.038,0,0,0,.434,1.253c-.068.11-.143.228-.225.353q-.492.77-1.27,1.9a18.365,18.365,0,0,0-1.639,3.342A10.21,10.21,0,0,0,1741.179,739.425Zm16.744-1.366q2.6,1.253.836,1.7a5.905,5.905,0,0,1-3.632-.193A2.992,2.992,0,0,1,1757.923,738.059Zm-115.217-216.4c-.065-.02-.129-.042-.193-.064l.129-.08C1642.663,521.559,1642.684,521.607,1642.707,521.654Zm-45.476,111.762a5.142,5.142,0,0,0,1.029-1.9,6.9,6.9,0,0,1,.482-1.7,2.8,2.8,0,0,1,.578,1.446q0,.065.064,1.35-.161,1.383-1.189,1.51Q1597.3,634.219,1597.231,633.416Zm-7.135,60.967a2.742,2.742,0,0,1,3.7,1.607,5.4,5.4,0,0,1,.482,2.41,5.3,5.3,0,0,1-.145.916,8.386,8.386,0,0,1-.482,1.3c-.016.03-.032.063-.048.1a2.124,2.124,0,0,1-.482.514h-.032q-.482.128-2.217.675a9.91,9.91,0,0,1-3.053.643.147.147,0,0,1-.048.016,36.835,36.835,0,0,1-4.58,1.784.843.843,0,0,1-.257.032q-.532.172-.948.289l-.273.064a5.677,5.677,0,0,1-.852.161.877.877,0,0,1-.337-.032.279.279,0,0,1,.048-.016l.4-.177.305-.129q1.512-.636,3.712-1.446a.472.472,0,0,0,.064-.032l.61-.225q.415-.144.8-.289l.354-.129q5.654-2.146,6.138-4.307a1.954,1.954,0,0,0,.032-.578q-.065-.771-1.543-1.96A7.9,7.9,0,0,1,1590.1,694.383Zm-11.441,9.867a2.436,2.436,0,0,1-1.157.193.394.394,0,0,0-.225.064,4.348,4.348,0,0,1,.241-.482l.08-.129c.041-.065.083-.129.129-.193a11.416,11.416,0,0,1,2.153-2.234c.067-.06.137-.118.209-.177l.08-.064q3.085-2.507,4.692-2.6l.032.354q.064.418-1.318,1.864-.322.354-.578.611a3.61,3.61,0,0,0-.562.273l-.193.129-.016.016L1580,703.189a.745.745,0,0,0-.257.161q-.065,0-.193.161a.692.692,0,0,0-.161.1,1.936,1.936,0,0,1-.289.337,1.858,1.858,0,0,1-.45.305Zm-1.221-2.025c-.064.042-.321.247-.771.611a6.05,6.05,0,0,1-.739.546,2.453,2.453,0,0,1-.305.161q-.74.355-1.109-.064l-.209-.4a.307.307,0,0,0,.048-.145h.032a11.957,11.957,0,0,1,1.848-1.928c.128-.116.262-.235.4-.354.074-.065.149-.128.225-.193q3.15-2.507,4.435-2.507a33.785,33.785,0,0,1-2.667,3.053c-.071.075-.141.15-.209.225Q1577.949,701.708,1577.434,702.225Zm.45-5.206.1-.032q1.011-.31,1.35-.064a28.919,28.919,0,0,1-3.5,3.021q-.311.244-.594.45-.806.629-1.334.98-.2.135-.353.225l-.418-.819a5.393,5.393,0,0,1,.868-1.093c.1-.08.21-.166.321-.257.047-.035.1-.073.145-.112q.54-.4,1.221-.916a.549.549,0,0,0,.048-.032Q1576.437,697.949,1577.884,697.018Z" transform="translate(-45.047 -41.01)" fill="#ed9870" fill-rule="evenodd"/>
    <path id="Trazado_1704" data-name="Trazado 1704" d="M1637,533.958h-.016q-.083-.264-.177-.579l-.193-.659c-.005-.014-.01-.031-.015-.048q-.354-1.382-.482-1.768a6.466,6.466,0,0,0,2.089.739,2.963,2.963,0,0,0,1.928-.337c.064.023.128.044.193.064a7.7,7.7,0,0,0,5.978,4.451,25.1,25.1,0,0,0,8.066,0l-1.638,1.093-.145.611a36.267,36.267,0,0,1-14.254-2.957Q1637.624,534.254,1637,533.958Zm70.528,159.021a13.8,13.8,0,0,1,5.624-2.6,10.669,10.669,0,0,0,3.165,2.394l-.465,1.141a.94.94,0,0,0-.081.354,6.7,6.7,0,0,0-1.061-.209,9.775,9.775,0,0,0-2.522.016q-.868.1-4.339.868A16.524,16.524,0,0,1,1707.533,692.979Zm40.189,54.7c-.292-.147-.608-.3-.949-.45q-.514-.422-1.044-.948a21.99,21.99,0,0,1-1.527-1.752q-.063-1.125-.031-1.96c0-.245-.011-.492-.032-.739a8.593,8.593,0,0,0-.128-.868,8.333,8.333,0,0,1,2.683-1.446l3.263-.578c.044,0,.087,0,.129,0a14.642,14.642,0,0,0,.45,1.768,15.85,15.85,0,0,0,.578,1.543,19.158,19.158,0,0,0-3.053,3.342,1.463,1.463,0,0,0-.112.305A13.156,13.156,0,0,0,1747.722,747.679Zm-31.464-52.9a.344.344,0,0,0,.032.129,2.925,2.925,0,0,0-.514.161A5.019,5.019,0,0,0,1716.258,694.779Zm-5.544,4.146q-.641-.113-1.157-.257-.45-.836-.514-.932a12.187,12.187,0,0,1,3.76-1.575q.942-.242,1.687-.514a10.465,10.465,0,0,0,1.013-.434,3.08,3.08,0,0,0-.289.209ZM1598.84,646.347a2.219,2.219,0,0,1-.032,1.993,4.77,4.77,0,0,1-1.382,1.607q-1,.9-4.21,3.471a14.1,14.1,0,0,1-4.435,2.507q1.446-1.479,2.25-2.185,1.446-1.318,2.282-2.25a6.965,6.965,0,0,0,1.414-5.881,2.045,2.045,0,0,0,2.218-.643,3.908,3.908,0,0,0,.964-2.539l.257-.193q.161.8.289,1.768Q1598.615,644.933,1598.84,646.347Zm-11.506,12.341a2.615,2.615,0,0,1-2.443-1.125v-1.253a25.1,25.1,0,0,0,2.925-.1A2.13,2.13,0,0,0,1587.335,658.688Zm68.1-114.494a3.16,3.16,0,0,0-1.061-.177,2.545,2.545,0,0,0-1.687.434,1.181,1.181,0,0,0-.337-.08,21.441,21.441,0,0,1-4.6-1.993q-2.893-1.7-4.4-2.475a4.9,4.9,0,0,1,2.732.257q.964.289,2.827,1.061a3.925,3.925,0,0,0,2.443.289q1.092-.289,1.446-2.025,1.061.868,3.085,2.7,0,.1-.354,1.575A2.361,2.361,0,0,0,1655.436,544.194ZM1691.3,656.406q.128-1.639.257-2.507.835.209,1.639.418l.611.161c.027.085.054.171.08.257q.17.471.385.932a12.07,12.07,0,0,0,2.876,3.792,19.288,19.288,0,0,0,4.017,2.764q.516.262,1.061.514v.129q-.008.281-.032.53a1.953,1.953,0,0,1-.61,1.414,1.08,1.08,0,0,1-.82.161,2.9,2.9,0,0,1-.787-.273,25.381,25.381,0,0,1-3.792-2.667,11.063,11.063,0,0,0-1.7-1.125q-1.446-.836-1.832-1.093a2.9,2.9,0,0,1-1.527-2.314A2.973,2.973,0,0,1,1691.3,656.406Zm-119.362,52.739c-.111.091-.218.177-.321.257a5.4,5.4,0,0,0-.868,1.093l-4.274-8.452a4.974,4.974,0,0,1,1.88.305,6.4,6.4,0,0,1,1.077.53,8.583,8.583,0,0,1,3.631,4.339l-.482.707A12.044,12.044,0,0,0,1571.941,709.145Z" transform="translate(-42.671 -50.727)" fill="#ce7c56" fill-rule="evenodd"/>
    <path id="Trazado_1705" data-name="Trazado 1705" d="M1585.893,642.175l-.064-.1-.225-.482q-.547-.675-1.061-1.414a29.115,29.115,0,0,1-2.635-3.985q-.205-.4-.4-.8-.7-1.413-1.3-2.893c-.014-.037-.03-.073-.048-.112q-.324-.87-.627-1.687a7.066,7.066,0,0,1-.482-1.928,8.584,8.584,0,0,0,2.218.289,16.27,16.27,0,0,0,5.946-1.414,10.667,10.667,0,0,1,2.362-.9,12.207,12.207,0,0,1,1.816-.289,6.892,6.892,0,0,1,1.559.129l.273.064a6.262,6.262,0,0,0,2.539,3.471,8.213,8.213,0,0,0,1.318.868,1.019,1.019,0,0,1,.386-.129q.064.8.964.707,1.029-.128,1.189-1.51-.065-1.286-.064-1.35a2.8,2.8,0,0,0-.578-1.446,4.314,4.314,0,0,1,.546-.836,2.215,2.215,0,0,1,.868,1.736,17.615,17.615,0,0,1,.128,1.993,3.907,3.907,0,0,1-.964,2.539,2.045,2.045,0,0,1-2.218.643,6.964,6.964,0,0,1-1.414,5.881q-.836.932-2.282,2.25-.8.708-2.25,2.185l-.964.289a25.07,25.07,0,0,1-2.925.1q-.482-.546-.868-.932a3.477,3.477,0,0,1-.193-.289l-.161-.161a.409.409,0,0,0-.1-.193l-.257-.225C1585.925,642.2,1585.914,642.175,1585.893,642.175Zm71.09-118.623a25.106,25.106,0,0,1-8.066,0,7.7,7.7,0,0,1-5.978-4.451c-.022-.048-.045-.1-.064-.145l-.129.08a2.964,2.964,0,0,1-1.928.337,6.463,6.463,0,0,1-2.089-.739,6.589,6.589,0,0,1-1.479-2.121,4.038,4.038,0,0,1-.194-2.635,8.3,8.3,0,0,1,1.961,1.286,2.282,2.282,0,0,0,2.153.578,28.374,28.374,0,0,0,.611-4.612q.3-.3.643-.659,1.446-1.478,3.182-3.375,2.86-2.828,10.027-3.407l.434-.032a16,16,0,0,1,1.912,5.688,97.677,97.677,0,0,1,.546,12.277Q1658.59,523.391,1656.983,523.551Zm39.4-15.169q-.129.8-.289,1.736a13.7,13.7,0,0,1-1.318,4.307q-1.832,1.382-1.864,1.382a8.947,8.947,0,0,1-4.66-1.446l-1.543-1.157q-.257-3.953-.322-6.01a10.592,10.592,0,0,0,.8-.836q.8-.9,1.254-.9.8,2.861.8,2.893a5.231,5.231,0,0,1-.418,1.51,5.287,5.287,0,0,0-.482,1.286,7.013,7.013,0,0,0,1.221,2.218q.836,1.221,1.575,2.185a.809.809,0,0,0,.611-.611,4.713,4.713,0,0,0,.032-.707,3.272,3.272,0,0,0-.289-1.51,7.531,7.531,0,0,1-.514-2.089l.9-.064,2.056.129a1.336,1.336,0,0,1,.418.161,1.743,1.743,0,0,0,.514.129Q1695.518,510.985,1696.385,508.382Zm-10.059-2.025-.1-1.414a25.469,25.469,0,0,1,.274-4.017,16.613,16.613,0,0,1,1.269-4.371,1.346,1.346,0,0,1,1.382,1,5.236,5.236,0,0,1-.1,2.185c-.079.46-.144.856-.193,1.189a9.441,9.441,0,0,0-.128,1.157,1.968,1.968,0,0,0,.611,1.639,22.583,22.583,0,0,0-1.768,1.414Q1686.775,505.875,1686.326,506.357Zm10.606-.354-.032-.032c-.021-.042-.118-.1-.289-.161a8.9,8.9,0,0,0-1.35,2.153q-.868,1.607-1.028,1.607a.987.987,0,0,1-.29-.032.1.1,0,0,0-.1-.064c-.042.064-.065-.01-.065-.225q.547-3.15.547-3.6,0-.161-.289-.45a3.968,3.968,0,0,0-.836,1.9q-.1.675-.289,2.025h-1.157v-2.443q-.1-1.478-.611-1.478a.434.434,0,0,0-.289.064c0,.043-.011.064-.032.064V507a11.78,11.78,0,0,0,.224,1.286,1.018,1.018,0,0,1-.867,1.061q-.1-.61-.611-2.475a18.976,18.976,0,0,1-.482-1.864q0-.289.45-.643a.9.9,0,0,0,.418-.707.929.929,0,0,1-.225.032,9.575,9.575,0,0,1,3.824,0,6.231,6.231,0,0,1,3.5,1.864C1697.018,505.7,1696.974,505.854,1696.932,506Zm.45,180.3q1.469.224,2.844.37,1.356.158,2.619.241a8.832,8.832,0,0,0,3.857-2.025,10.915,10.915,0,0,1,3.76-2.218q3.471-.771,4.339-.868a9.765,9.765,0,0,1,2.522-.016,6.7,6.7,0,0,1,1.061.209.254.254,0,0,0,.016.1c.042.158.2.212.482.161h.016a.621.621,0,0,0-.032.257,5.062,5.062,0,0,1-.482.289c-.087.051-.179.1-.273.145a10.5,10.5,0,0,1-1.012.434q-.745.273-1.687.514a12.191,12.191,0,0,0-3.76,1.575q-1.189.8-.9,1.253a.855.855,0,0,0,.755.321q-2.889.974-4.87,1.527a25.874,25.874,0,0,1-2.763.659l-18.64.257a5.127,5.127,0,0,0-1.318-.225q-.578-.032-2.924-.032a1.846,1.846,0,0,1-.643-.1.8.8,0,0,1-.482-.836,4.037,4.037,0,0,1,.643-1.9q.385-.675,1.221-1.928l-.144-.852a4.328,4.328,0,0,1,2.973.337q1.019.261,2.7.546l.8.129q2.571.354,3.6.611,1.637.351,3.182.627Q1696.144,686.111,1697.382,686.3Zm47.613,43.258.128.289c.1.185.2.368.306.546a14.916,14.916,0,0,0,1.381,1.864,22.014,22.014,0,0,0,1.526,1.752q.53.526,1.045.948a5.369,5.369,0,0,0-1.092.916c-.041.047-.084.1-.129.145q-.385.417-1.125,1.286a2.163,2.163,0,0,1-2.764.578q-.547-.256-2.218-.8c-.074-.023-.149-.044-.226-.064-.142-.05-.281-.1-.417-.145a10.21,10.21,0,0,1,.45-1.719,18.361,18.361,0,0,1,1.639-3.342q.778-1.126,1.269-1.9C1744.852,729.787,1744.927,729.669,1744.995,729.559Zm6.09,7.3q2.828,1.125.932,1.864a6.2,6.2,0,0,1-3.857.193Q1749.671,736.887,1751.085,736.855Zm-173.58-34.9q-.616-.126-.627-.562a.609.609,0,0,1,.032-.209.919.919,0,0,1,.064-.209,2.478,2.478,0,0,1,.241-.434q.61-.931.45-.868.516-.516.98-1c.068-.075.138-.15.209-.225a33.792,33.792,0,0,0,2.667-3.053q-1.286,0-4.435,2.507c-.077.064-.151.128-.225.193-.14.119-.274.237-.4.354a11.959,11.959,0,0,0-1.848,1.928,8.738,8.738,0,0,0,.386-1.221,2.033,2.033,0,0,1-1.125.08l-.1-.193q.155-.09.354-.225.527-.351,1.334-.98.283-.205.594-.45a28.919,28.919,0,0,0,3.5-3.021q-.337-.246-1.35.064l-.1.032.016-.016.048-.048.611-.289c.05-.037.1-.075.145-.112a10.689,10.689,0,0,1,5.319-1.752q3.92-.1,5.849-.321a.722.722,0,0,0,.225-.1,7.894,7.894,0,0,0,1.35,1.189q1.478,1.19,1.543,1.96a1.942,1.942,0,0,1-.032.578q-.485,2.161-6.138,4.307l-.354.129c-.26.1-.527.193-.8.289l-.61.225a.492.492,0,0,1-.064.032q-2.2.81-3.712,1.446l-.305.128-.4.177a.28.28,0,0,0-.048.016.28.28,0,0,1-.112-.145.288.288,0,0,1-.016-.193.437.437,0,0,1,.048-.129,1.169,1.169,0,0,1,.177-.305q.094-.12.193-.241l.016-.016a11.166,11.166,0,0,1,1.334-1.286q.1-.1.723-.578a1.484,1.484,0,0,1,.129-.112c.215-.172.467-.37.755-.595a.759.759,0,0,0,.1-.064,5.406,5.406,0,0,0-1.414.53c-.066.044-.135.086-.209.129l.193-.129a3.61,3.61,0,0,1,.562-.273q.257-.257.578-.611,1.382-1.446,1.318-1.864l-.032-.354q-1.607.1-4.692,2.6l-.08.064c-.072.059-.142.117-.209.177a11.418,11.418,0,0,0-2.153,2.234c-.046.064-.088.128-.129.193l-.08.128A4.344,4.344,0,0,0,1577.505,701.952Zm59.97-109.062c.076-.018.151-.039.224-.064q-.33-.321-.674-.691a5.857,5.857,0,0,1-1.639-4.049q.129-2.057.161-3.053a6.97,6.97,0,0,0-.338-2.394,4.386,4.386,0,0,1,4.612,2.78,5.556,5.556,0,0,1-.739,6.4A2.84,2.84,0,0,1,1637.475,592.89Zm75.4,47.806a19.248,19.248,0,0,1-2.121,4.049,29.543,29.543,0,0,1-4.082,4.757l-.676.675-1.156.289q-.545-.252-1.061-.514a19.28,19.28,0,0,1-4.017-2.764,12.069,12.069,0,0,1-2.876-3.792q.151.307.321.611a15.151,15.151,0,0,0,4.58-3.182q.591-.544,1.109-1.045.555-.542,1.028-1.044a15.176,15.176,0,0,0,2.105-2.635q.61.256,5.431,3.632.5.348.949.659Zm-35.915,47.292q.01-.525.048-1.141c.128-.15.256-.294.385-.434q-.232.454-.4.884C1676.978,687.538,1676.967,687.768,1676.958,687.988Zm-83.126,10.172a3.3,3.3,0,0,1-.225.482l-.257.032A2.117,2.117,0,0,0,1593.831,698.16Z" transform="translate(-45.279 -38.456)" fill="#ffaa83" fill-rule="evenodd"/>
    <path id="Trazado_1706" data-name="Trazado 1706" d="M1680.09,441.736a4.767,4.767,0,0,1-2.185,3.664,8.92,8.92,0,0,1-5.3,1.575h-.032a8.922,8.922,0,0,1-5.3-1.575,4.652,4.652,0,0,1-2.185-3.664v-4.789a15.688,15.688,0,0,1-2.668-2.153,14.334,14.334,0,1,1,20.312,0,15.045,15.045,0,0,1-2.636,2.121Zm-5.238,1.125a50.8,50.8,0,0,0,1.318-5.946q.289-1.639.514-3.342.354-2.379.771-4.917.353-1.96.643-3.921a5.729,5.729,0,0,0-.353-2.86,1.441,1.441,0,0,0-1.029-.9,1.574,1.574,0,0,0-1.638.386,10.937,10.937,0,0,0-1.736,1.993,1.735,1.735,0,0,1-2.25.707,1.852,1.852,0,0,1-.931-.675q-.482-.61-.932-1.253a1.382,1.382,0,0,0-1.607-.643.759.759,0,0,0-.739.289,2.831,2.831,0,0,0-.514,1.157,3.881,3.881,0,0,0-.032.868q.289,2.571.643,4.949.385,2.635.8,5.335.482,3.054.868,6.2.193,1.414.321,2.892-.128-1.478-.321-2.892-.386-3.15-.868-6.2-.419-2.7-.8-5.335-.354-2.379-.643-4.949a3.881,3.881,0,0,1,.032-.868,2.831,2.831,0,0,1,.514-1.157.759.759,0,0,1,.739-.289,1.382,1.382,0,0,1,1.607.643q.45.643.932,1.253a1.852,1.852,0,0,0,.931.675,1.735,1.735,0,0,0,2.25-.707,10.937,10.937,0,0,1,1.736-1.993,1.574,1.574,0,0,1,1.638-.386,1.441,1.441,0,0,1,1.029.9,5.729,5.729,0,0,1,.353,2.86q-.289,1.96-.643,3.921-.418,2.539-.771,4.917-.225,1.7-.514,3.342A50.8,50.8,0,0,1,1674.853,442.861Zm-95.612,187.4a46.681,46.681,0,0,1-.145-4.724q.262-10.382,6.122-13.723.8-.353,1.639-.739a4.521,4.521,0,0,0,.643-.289l.225.482v.064a9.769,9.769,0,0,0-.289,2.185q-.033,1.35-.129,3.985a5.439,5.439,0,0,0,.032,1.414v.1l1,3.6.482,1.318,1.221-.868,3.889-2.635q4.949-4.788,6.653-6.363a47.682,47.682,0,0,1,3.535-3.31,8.508,8.508,0,0,0,2.507-3.857q.482.354,1.06.771a4.723,4.723,0,0,1,.547.289q.531.391,1.157.868.671.5,1.445,1.093,2.8,2.185,4.147,3.021a13.682,13.682,0,0,1,3.985,2.378q-5.581-1.524-9.256,1.912a13.238,13.238,0,0,0-2.475,3.23,18.572,18.572,0,0,0-2.218,12.566,14.022,14.022,0,0,1-.064,5.255,15.788,15.788,0,0,1-.675,2.394,37.383,37.383,0,0,0-1.639,9.577q0,5.881-7.36,6.3-7.264.354-9.77-.418-1.383-.354-2.635-.771a41.256,41.256,0,0,0,.289-4.917,43.066,43.066,0,0,0-1.9-13.048A35.693,35.693,0,0,1,1579.24,630.261Z" transform="translate(-47.175 -7.645)" fill="#ffd22e" fill-rule="evenodd"/>
    <path id="Trazado_1707" data-name="Trazado 1707" d="M1609.373,570.115q-4.634-4.8-7.3-7.649-10.8-11.505-10.8-16.037a11.2,11.2,0,0,1,.353-2.523q2.87-3.819,4.95-6.862a102.279,102.279,0,0,0,6.845-11.152,13.226,13.226,0,0,1,2.764-2.925,13,13,0,0,1,3.438-2.025,14.1,14.1,0,0,1,8,6.894c-.2.127-.4.261-.611.4a40.363,40.363,0,0,0-8.162,7.231q-2.8,2.828-5.078,5.367-4.435,4.949-4.436,6.492a15.968,15.968,0,0,0,2.25,3.5,12.673,12.673,0,0,0,2.909,3.069,37.882,37.882,0,0,1,3.1,4.451q3.825,6.3,4.178,6.781.546,2.6-1.96,4.628-.12.1-.241.193C1609.512,570.009,1609.442,570.062,1609.373,570.115Zm15.314,19.267q-.521-.188-1.061-.386-.977-.375-1.993-.787.569-1.146,1.092-2.3a56.965,56.965,0,0,0,3.327-36.718,135.57,135.57,0,0,0-6.974-21.886,21.6,21.6,0,0,0-5.817-8.131q1-.462,2.186-1a25.822,25.822,0,0,0,4.547-2.764,2.317,2.317,0,0,1,.4.707q0,1.671.29,10.252l6.4.161a33.669,33.669,0,0,0-1.51,3.246,17.815,17.815,0,0,0-1.061,3.1q6.634,4.041,7.777,7.89,1.734,5.655,3.937,12.116a59.958,59.958,0,0,1,2.877,13.129l.032.321q.149,1.5.289,2.989.516,5.453.916,10.782.512,6.782,1.028,12.711l.467.016a49.509,49.509,0,0,1-13.466-2.218q-.6-.184-1.222-.386Q1625.943,589.842,1624.687,589.382Zm24.891-26.5h-.064v.45a36.159,36.159,0,0,0,.338,4.612c.016.111.032.223.048.337q.07.439.514,3.021.182,1.008.418,2.346a38.169,38.169,0,0,0,.932,3.728,33.112,33.112,0,0,1,1.029,3.889q.9,4.628-1.414,7.392a19.351,19.351,0,0,1-2.169,1.575q-.455.285-.933.546-.609.34-1.253.643-.123-1.152-.274-2.571-.674-6.4-.674-8.484,0-1.51-.032-9.85,0-.7,0-1.462,0-.922,0-1.784,0-8.258.273-11.763.3-3.877.321-5.48t.4-8.42q.389-6.825.915-10.059.175-1.077.29-1.591a4.066,4.066,0,0,0-.707-1.366q-.707-1.079-2.3-3.728.25-.753,2.539-1.125a36.906,36.906,0,0,0-2.089-4.017q-1.671-1.9-2.314-2.764-.906-1.193-1.527-1.944,1.508.239,3.873.37a9.933,9.933,0,0,1,2.635.707c.022.012.043.023.065.032a6.336,6.336,0,0,1,1.381.868,5.093,5.093,0,0,1,.482.45,9.459,9.459,0,0,1,1.672,4.307,14.175,14.175,0,0,0,.755,2.234q.757,1.978-.048,12.968.032.708.031,1.446a91.955,91.955,0,0,0-2.056,11.184q-.515,4.179-.932,10.542-.032.413-.1.787c.006-.013.028-.03.064-.048Zm7.134-92.784a9.357,9.357,0,0,1-4.113.868h-.032a9.359,9.359,0,0,1-4.114-.868,9.132,9.132,0,0,1-1.189-.707,4.693,4.693,0,0,1-2.186-3.857V459.2a4.652,4.652,0,0,0,2.186,3.664,8.92,8.92,0,0,0,5.3,1.575h.032a8.922,8.922,0,0,0,5.3-1.575,4.767,4.767,0,0,0,2.185-3.664v6.331a4.691,4.691,0,0,1-2.185,3.857A9.128,9.128,0,0,1,1656.712,470.1Zm-57.174,234.708v-8.774a4.335,4.335,0,0,1,3.984-4.724l5.32-.932,7.826-1.382a5.312,5.312,0,0,1,.932-.1,3.516,3.516,0,0,1,.867.064h.1l1.093.193,2.475.45a5.163,5.163,0,0,0-1.479.1l-13.145,2.314a4.311,4.311,0,0,0-3.986,4.724v13.627a3.953,3.953,0,0,0,.708,2.346,2.514,2.514,0,0,0,1.414.836l-4.242-.739a2.438,2.438,0,0,1-1.656-1.784,5.631,5.631,0,0,1-.208-1.623Zm-19.38-2.828q.5.994,1.607,3.824.259.64.546,1.382a24.808,24.808,0,0,0,1.671,3.664,14.743,14.743,0,0,0-1.9-.418q-5.046-.739-5.4-4.017a2.292,2.292,0,0,1,.225-1.109,6.211,6.211,0,0,1,1.768-2.041q.964-.771,1.479-1.253Zm-53.35,1.318q1.317.61,4.146,2.025a40.356,40.356,0,0,1,8.742,5.271q-.225.129-.514.321a2.9,2.9,0,0,1-1.189.289,27.337,27.337,0,0,1-4.66-.578q-3.471-.61-5.624-1.028-.482-.1-3.792-1.253a2.326,2.326,0,0,0-.611-.161,3.239,3.239,0,0,1-.032-2.25,8.525,8.525,0,0,1,2.571-2.121Q1526.3,703.587,1526.809,703.3Z" transform="translate(-27.171 -25.113)" fill="#395fc1" fill-rule="evenodd"/>
    <path id="Trazado_1708" data-name="Trazado 1708" d="M1591.753,549.961a11.191,11.191,0,0,0-.353,2.523q0,4.531,10.8,16.037,2.663,2.852,7.3,7.649a8.6,8.6,0,0,1-3.937,1.543c-.03.006-.062.012-.1.016l-.129.016c-.1.013-.2.024-.3.032l-.482-.4-6.139-5.062q-4.018-3.343-6.749-5.528a10.853,10.853,0,0,1-3.857-6.074,8.586,8.586,0,0,1,1.093-7.006Q1590.41,551.748,1591.753,549.961Zm55.391,47.517a23.43,23.43,0,0,1-2.555,1.028q-.614.205-1.254.386-.687.013-1.381,0l-.467-.016q-.516-5.929-1.028-12.711-.4-5.329-.916-10.782-.141-1.489-.289-2.989l-.032-.321a59.937,59.937,0,0,0-2.877-13.129q-2.2-6.462-3.937-12.116-1.143-3.849-7.777-7.89a17.82,17.82,0,0,1,1.061-3.1,33.7,33.7,0,0,1,1.51-3.246l-6.4-.161q-.289-8.581-.29-10.252a2.314,2.314,0,0,0-.4-.707q.208-.159.4-.321.234-.19.451-.386a11.16,11.16,0,0,1,4.885,2.6q2.182,1.955,2.33,2.137a1.528,1.528,0,0,0,.418.337l.305.177v.016q1.963,2.662,3.583,5.19,6.789,10.607,7.521,18.881.79,8.927,2.089,22.481.148,1.623.305,3.31c.028.266.054.534.08.8.039-.232.076-.473.112-.723a7.334,7.334,0,0,0,.161.932,3.168,3.168,0,0,0,1.527,2.153l.627-35.5a59.278,59.278,0,0,0-1.671-10.333q-.117-.38-.226-.739-.67-2.193-1.06-3.616a5.823,5.823,0,0,0,.4-2.925,9.337,9.337,0,0,0-.177-1.077q-.064-.321-.225-.836-.386-1.157-1.221-3.246.26.073.578.145.3.057.658.112v.016q.62.752,1.527,1.944.643.868,2.315,2.764a36.919,36.919,0,0,1,2.089,4.017q-2.288.372-2.539,1.125,1.59,2.649,2.3,3.728a4.064,4.064,0,0,1,.707,1.366q-.116.514-.29,1.591-.527,3.235-.915,10.059t-.4,8.42q-.025,1.6-.321,5.48-.273,3.5-.273,11.763,0,.862,0,1.784,0,.76,0,1.462.031,8.341.032,9.85,0,2.088.674,8.485Q1647.022,596.326,1647.144,597.478Zm30.789-52.209q-.322-.073-.659-.145-8.968-1.864-10.766-2.8a30.463,30.463,0,0,1-5.3-3.6,11.4,11.4,0,0,1-3.375-3.857,49.778,49.778,0,0,0-3.985-9.384l14.366,8.9v-3.76q.032-1.767.161-3.535.064-1.9.192-3.824.013-.484.033-.964l.016-1.012q.053-1.51.112-2.973.034-.61.033-1.157,1.735.257,3.471.386.523.048,1.045.08a26.886,26.886,0,0,0,3.053-.016c.179-.008.355-.019.53-.032.1-.012.2-.022.3-.032q.315-.028.627-.064a38.869,38.869,0,0,1,.8,5.11q.193,2.218.321,4.435.1,1.8.225,4.371.14,1.845.353,4.4.074.962.161,2.025a12.075,12.075,0,0,1-.578,5.817A5.727,5.727,0,0,1,1677.933,545.269Zm-29.359-69.114a9.358,9.358,0,0,0,4.114.868h.032a9.356,9.356,0,0,0,4.113-.868v.739a2.543,2.543,0,0,1-1.221,2.121,4.685,4.685,0,0,1-2.892.868,4.828,4.828,0,0,1-2.925-.868,2.545,2.545,0,0,1-1.221-2.121Zm-30.821,57.737a16.074,16.074,0,0,1,.964,2.362,7.069,7.069,0,0,1,.353,2.346,3.049,3.049,0,0,1-1.317,2.539,25.792,25.792,0,0,0-3.665,3.375,56.987,56.987,0,0,0-3.727,4.628q-1.414,1.574-3.728,4.467-1.211,1.506-2.089,2.587-1.035,1.267-1.607,1.944a20.365,20.365,0,0,1,1.607,1.719l.08.1a12.675,12.675,0,0,1-2.909-3.069,15.973,15.973,0,0,1-2.25-3.5q0-1.543,4.436-6.492,2.281-2.539,5.078-5.367a40.355,40.355,0,0,1,8.162-7.231C1617.351,534.153,1617.554,534.019,1617.754,533.892Zm-92,182.258q-.218-.086-.434-.177a3.04,3.04,0,0,1-1.8-1.575,1.548,1.548,0,0,1-.1-.161,2.33,2.33,0,0,1,.611.161q3.31,1.157,3.792,1.253,2.153.418,5.624,1.028a27.344,27.344,0,0,0,4.66.578,2.9,2.9,0,0,0,1.189-.289q.289-.193.514-.321a40.35,40.35,0,0,0-8.742-5.271q-2.829-1.414-4.146-2.025.835-.417,2.025-1,.868.161,2.314.578,1.575.386,3.118.8,1.574.45,2.41.707,3.262.788,8.388,2.426l-1.414,1.3a3.322,3.322,0,0,0,.257,2.025,7.314,7.314,0,0,0,.514.707,6.436,6.436,0,0,0,2.137,1.719q-.542.024-2.266-.048a18.833,18.833,0,0,0-2.507.032l-2.732-.08-.771-.016a19.99,19.99,0,0,1-6.653-.45A35.318,35.318,0,0,1,1525.757,716.149Zm41.314-2.169a3.936,3.936,0,0,0,.1-.418q0-.064,1-1.993l-.032-.739q.556.13,1.045.225a17.117,17.117,0,0,0,1.912.321,8.079,8.079,0,0,0,3.053,0c.087-.058.179-.117.273-.177a46.37,46.37,0,0,1,5.865-3.166v.032q-.514.482-1.478,1.253a6.21,6.21,0,0,0-1.768,2.041,2.291,2.291,0,0,0-.225,1.109q.354,3.278,5.4,4.017a14.726,14.726,0,0,1,1.9.418q.417.708.836,1.35c-.016.023-.032.044-.048.064a2.278,2.278,0,0,1-2.491.739,6.128,6.128,0,0,1-1.045-.225q-.751-.223-1.784-.643a40.179,40.179,0,0,0-4.082-1.093,1.5,1.5,0,0,1-.193-.032,3.881,3.881,0,0,1-.8-.1V716.9a.412.412,0,0,0-.1-.193,2.024,2.024,0,0,1-.032.257,11.5,11.5,0,0,0-2.989-.386,1.249,1.249,0,0,1-1.414-.129,17.62,17.62,0,0,0-2.443-.9A2.057,2.057,0,0,1,1567.071,713.98Z" transform="translate(-27.292 -31.168)" fill="#395fc1" fill-rule="evenodd"/>
    <path id="Trazado_1709" data-name="Trazado 1709" d="M1678.427,540.818l.289.868q-.868.193-1.125-.482a.73.73,0,0,1-.064-.225.057.057,0,0,1,.064-.064v-.032q.129-.225.8-.064Z" transform="translate(-82.342 -54.244)" fill="#020202" fill-rule="evenodd"/>
    <path id="Trazado_1710" data-name="Trazado 1710" d="M1666.337,620.324l-7.279-3.278a1.592,1.592,0,0,1-1.285-1.543,11.523,11.523,0,0,1,1.22-5.688,10.485,10.485,0,0,1,1.029.45q1.092.514,2.282,1.125c.022.01.043.021.063.032a2.684,2.684,0,0,0,1.7.241,2.841,2.841,0,0,0,1.607-1.077,5.556,5.556,0,0,0,.739-6.4,4.387,4.387,0,0,0-4.612-2.78c-.236.025-.477.063-.723.112a17.28,17.28,0,0,0-.385-11.473q-2.829-7.52-5.753-14.848a56.924,56.924,0,0,1,3.728-4.628,25.782,25.782,0,0,1,3.664-3.375,3.049,3.049,0,0,0,1.317-2.539,7.069,7.069,0,0,0-.353-2.346,16.071,16.071,0,0,0-.964-2.362,14.1,14.1,0,0,0-8-6.894l3.632-1.768a21.6,21.6,0,0,1,5.817,8.131,135.579,135.579,0,0,1,6.974,21.886,56.965,56.965,0,0,1-3.327,36.718Q1666.906,619.177,1666.337,620.324Zm31.03-51.261q.805-10.989.048-12.968a14.126,14.126,0,0,1-.755-2.234,9.46,9.46,0,0,0-1.672-4.307,5.059,5.059,0,0,0-.482-.45l3.922,2.426v.016a49.784,49.784,0,0,1,3.985,9.384,11.4,11.4,0,0,0,3.375,3.857,30.471,30.471,0,0,0,5.3,3.6q1.8.932,10.766,2.8.337.071.659.145a9.59,9.59,0,0,1-2.427,1.719,13.8,13.8,0,0,1-6.46,1.607,38.69,38.69,0,0,1-4.37-.627q-.759-.153-1.511-.337a19.634,19.634,0,0,1-4.788-1.671Q1700.869,571.024,1697.366,569.063Zm-28.443,153.863-12.342,2.169a4.556,4.556,0,0,0-3.375,2.073,5.309,5.309,0,0,0-.61,2.651v13.37a4.735,4.735,0,0,0,.466,2.266l-.852.145a4.639,4.639,0,0,1-1.864.064,2.513,2.513,0,0,1-1.414-.836,3.952,3.952,0,0,1-.708-2.346V728.856a4.311,4.311,0,0,1,3.986-4.724l13.145-2.314a5.168,5.168,0,0,1,1.479-.1,4.15,4.15,0,0,1,.739.128A2.244,2.244,0,0,1,1668.924,722.926Z" transform="translate(-71.874 -57.228)" fill="#0d2a77" fill-rule="evenodd"/>
    <path id="Trazado_1711" data-name="Trazado 1711" d="M1592.527,723.02v-.064l.064.1Z" transform="translate(-51.977 -119.333)" fill="#ffb087" fill-rule="evenodd"/>
    <path id="Trazado_1712" data-name="Trazado 1712" d="M1592.176,729.955a12.3,12.3,0,0,0-.257,1.639.5.5,0,0,0-.289-.193A6.5,6.5,0,0,0,1592.176,729.955Zm-4.5,52.611q.629-.266,1.286-.482c-.289.225-.54.422-.755.595Z" transform="translate(-50.244 -121.833)" fill="#a7c4e4" fill-rule="evenodd"/>
    <path id="Trazado_1713" data-name="Trazado 1713" d="M1622.569,732.819q-2.956-4.306-6.877-2.957a11.531,11.531,0,0,0-2.475,1.35,14.705,14.705,0,0,0-2.443,2.2,10.2,10.2,0,0,0-2.25,4.226,12.953,12.953,0,0,0-.161,3.31q.257.418.482.868a31.144,31.144,0,0,1,2.571,10.927q.018.194.032.386.161,2.153.321,6.46a47.377,47.377,0,0,0,.674,6.235v.032a5.824,5.824,0,0,1-.61.257,16.083,16.083,0,0,0-1.864.739q-2.218.931-4.853,2.282a23.432,23.432,0,0,0-4.628,2.507,10.712,10.712,0,0,0-3.889,1.157,23.877,23.877,0,0,0-3.632,1.993q-1.928.226-5.849.321a10.689,10.689,0,0,0-5.319,1.752,34.967,34.967,0,0,0,2.041-7.826q1.253.418,2.635.771,2.507.771,9.77.418,7.36-.417,7.36-6.3a37.389,37.389,0,0,1,1.639-9.577,15.806,15.806,0,0,0,.675-2.394,14.022,14.022,0,0,0,.064-5.255,18.573,18.573,0,0,1,2.217-12.566,13.244,13.244,0,0,1,2.475-3.23q3.674-3.437,9.256-1.912c.042,0,.064.011.064.032a9.6,9.6,0,0,1,2.668,3.857A.1.1,0,0,1,1622.569,732.819Zm-7.151,48.77q.514,2.412.981,4.226.868,5.5-2.121,7.745l-.161-.129a17.115,17.115,0,0,0,.482-2.443,3.762,3.762,0,0,0-.514-2.153,18.265,18.265,0,0,0-2.089-2.7q-1.221-1.382-2.635-2.86-.272-.278-.53-.53a12.133,12.133,0,0,0-2.073-1.623,7.4,7.4,0,0,0-1.912-.8q2.419-.734,4.676-1.51,1.923-.589,4.949-1.864Q1614.961,779.493,1615.418,781.589Z" transform="translate(-48.146 -121.323)" fill="#f3a90f" fill-rule="evenodd"/>
    <path id="Trazado_1714" data-name="Trazado 1714" d="M1760.427,688.729a5.261,5.261,0,0,1-.08.627c-.03.163-.068.323-.113.482l-.659,1.366c-.017.022-.033.043-.047.064a14.291,14.291,0,0,0-3.407,4.949c-.015.044-.031.086-.047.129h-.209a15.837,15.837,0,0,0-6.011,1.06,11.537,11.537,0,0,0-5.881,5.367,15.974,15.974,0,0,0-1.286,3.085q-1.237-.189-2.539-.434-1.545-.276-3.182-.627-.235-.632-.611-1.527-.708-1.694-1.928-4.323-1.184-2.5-1.864-4.307-.335-.886-.547-1.607.29-2.829.515-4.242c.01-.09.021-.181.032-.273a13.777,13.777,0,0,1,1-3.9q1.767-1.318,2.571-2.057.136-.127.257-.257a3.392,3.392,0,0,0,1.06-2.667.2.2,0,0,1,0-.048q-.052-.452-.144-.884a.8.8,0,0,1-.016-.1,9.5,9.5,0,0,0-.675-1.9,9.631,9.631,0,0,0-1.286-1.928,8.728,8.728,0,0,0-2.764-2.2,7.58,7.58,0,0,0-1.735-.595q.74-.453,1.527-.916c.165.1.331.215.5.338a12.98,12.98,0,0,1,6.01,5.817,14.609,14.609,0,0,1,1.028,5.849q.034,3.5.611,4.5.949,1.715,4.387,1.8h.338a6.242,6.242,0,0,0,3.407-1.382,9.228,9.228,0,0,1,2.2-1.253,2.538,2.538,0,0,1,.82-.161,14.222,14.222,0,0,1,2.443.482,14.222,14.222,0,0,0,2.443.482,3.224,3.224,0,0,0,2.7-1.7q.176-.265.337-.5c.045.089.087.175.129.257l.4,1.044c.015.044.03.087.048.129Zm-8.388,22.625q-1.5.084-3.472,0c-.282-.008-.556-.013-.819-.016q-3.8-.1-5.255.016a13.641,13.641,0,0,0-4.307,1.077,10.487,10.487,0,0,0-1.318.723q.036-.317.08-.611a8.3,8.3,0,0,1,.369-1.382q.616-.144,1.3-.257,1.063-.175,2.3-.273.606-.051,1.253-.08,3.214-.063,4.853-.128,1.025-.027,1.976-.1a26.546,26.546,0,0,0,5.544-.916Zm-51.325-156.386.161-.514a7.885,7.885,0,0,0,.289-1.7.918.918,0,0,0-.562-1.012,2.544,2.544,0,0,1,1.687-.434,3.159,3.159,0,0,1,1.061.177,1.883,1.883,0,0,0-.017.578c.006.028.012.054.017.08.064.15.129.3.193.45l.257.675a5.766,5.766,0,0,0,.1,3.921q.206.633.579,1.543a1.282,1.282,0,0,1-1.286.707,1.89,1.89,0,0,1-.66-.112,15.466,15.466,0,0,0-1.462-3.744Q1700.907,555.29,1700.714,554.968Zm36.317,105.559a8.874,8.874,0,0,0-1.9,1.816,7.978,7.978,0,0,0-.932,1.478,1.731,1.731,0,0,1-.322-.45,7.551,7.551,0,0,1-.434-.707,4.718,4.718,0,0,1-.209-.482,4.962,4.962,0,0,1-.354-1.832q0-3.585,3.182-3.278a1.888,1.888,0,0,1,.208.032q-.072.627-.176,1.157a1.766,1.766,0,0,0-.065,1.3,1.855,1.855,0,0,0,.836.884c.047.028.1.055.145.08Zm20.44,45.428c.042.085.139.268.289.546-.035.007-.067.013-.1.016a3.486,3.486,0,0,1-.836.08h-.016a.854.854,0,0,1-.755-.321q-.289-.449.9-1.253Q1757.021,705.12,1757.471,705.955Z" transform="translate(-90.584 -58.014)" fill="#e62b7b" fill-rule="evenodd"/>
    <path id="Trazado_1715" data-name="Trazado 1715" d="M1701.465,560.108a11.623,11.623,0,0,1-.69,2.057v.016q-.051-.128-.1-.257t-.113-.241q-.554-1.239-.932-2.185-.373-.909-.579-1.543a5.766,5.766,0,0,1-.1-3.921q.867,1.8,1.35,2.668c.033-.069.066-.138.1-.209Q1700.795,557.914,1701.465,560.108Zm-14.413-6.653q2.458,1.38,6.829,3.792.836.675,1.35.032a5.075,5.075,0,0,0,.643-1.543c.128.214.246.418.353.611a15.464,15.464,0,0,1,1.462,3.744l.033.112c.021.079.042.159.064.241l.675,3.166q.039.257.08.514-2.747-.519-7.424-5.11c-.058-.057-.118-.116-.177-.177q-1.619-2.528-3.583-5.19v-.016Z" transform="translate(-85.744 -58.782)" fill="#8ec2ff" fill-rule="evenodd"/>
    <path id="Trazado_1716" data-name="Trazado 1716" d="M1700.652,543.2q-.193-1.285-.225-1.9a7.737,7.737,0,0,1,3.31,4.6Q1701.712,544.069,1700.652,543.2Z" transform="translate(-90.522 -54.442)" fill-rule="evenodd"/>
    <path id="Trazado_1717" data-name="Trazado 1717" d="M1722.627,725.842a3.376,3.376,0,0,1-2.491-1.318,7.978,7.978,0,0,1,.932-1.478,8.871,8.871,0,0,1,1.9-1.816,8.788,8.788,0,0,0,2.443.659q-.129.868-.257,2.507A4.962,4.962,0,0,0,1722.627,725.842Zm-56.451,82.741-.964.177a4.654,4.654,0,0,1-1.864.064,2.518,2.518,0,0,1-1.414-.836,3.412,3.412,0,0,1-.643-1.687,6.12,6.12,0,0,1-.065-.916v-13.37a5.341,5.341,0,0,1,.547-2.523,4.4,4.4,0,0,1,3.439-2.2l13.145-2.314a6.5,6.5,0,0,1,.884-.113,4.37,4.37,0,0,1,.595.016,4.073,4.073,0,0,1,.739.129,2.2,2.2,0,0,1,1.253.932l-12.213,2.153q-3.779.671-3.97,4.323c-.01.129-.015.263-.015.4v13.37A4.46,4.46,0,0,0,1666.176,808.583Z" transform="translate(-76.518 -118.716)" fill="#b3004d" fill-rule="evenodd"/>
    <path id="Trazado_1718" data-name="Trazado 1718" d="M1695.424,827.11v12.261a5.714,5.714,0,0,1-.418,2.282,4.411,4.411,0,0,1-3.6,2.507l-13.146,2.314a4.627,4.627,0,0,1-1.863.064,2.515,2.515,0,0,1-1.414-.836,3.35,3.35,0,0,1-.627-1.527,6.653,6.653,0,0,1-.08-1.077v-13.37q0-.371.032-.707a4.052,4.052,0,0,1,2.764-3.712,6.879,6.879,0,0,1,1.188-.305l13.146-2.314a5.16,5.16,0,0,1,1.478-.1,4.073,4.073,0,0,1,.74.129,2.678,2.678,0,0,1,1.784,2.668c.011.184.016.377.016.578Z" transform="translate(-81.18 -154.92)" fill="#ffdb59" fill-rule="evenodd"/>
    <path id="Trazado_1719" data-name="Trazado 1719" d="M1674.183,846.15l-4.243-.739a2.3,2.3,0,0,1-1.317-1.012,4.461,4.461,0,0,1-.546-2.394v-13.37q0-.208.015-.4.191-3.652,3.97-4.323l12.213-2.153.931-.161a4.678,4.678,0,0,1,1.8-.032h.1l3.567.643a5.159,5.159,0,0,0-1.478.1l-13.145,2.314a6.86,6.86,0,0,0-1.188.305,4.051,4.051,0,0,0-2.764,3.712q-.032.336-.032.707v13.37a6.653,6.653,0,0,0,.08,1.077,3.353,3.353,0,0,0,.627,1.527A2.515,2.515,0,0,0,1674.183,846.15Z" transform="translate(-78.966 -154.533)" fill="#fd9c3c" fill-rule="evenodd"/>
    <path id="Trazado_1720" data-name="Trazado 1720" d="M1613.238,832.245a10.335,10.335,0,0,1-3.31,2.539,8.543,8.543,0,0,1-1.221-2.282q-.257-.77-.466-1.366-.356-.988-.595-1.527-1.286-3.31-3.342-2.635a46.376,46.376,0,0,0-5.865,3.166c-.094.06-.186.119-.273.177a8.079,8.079,0,0,1-3.053,0A17.1,17.1,0,0,1,1593.2,830q-.488-.1-1.045-.225l-1.478-.675a26.976,26.976,0,0,1,8.742-12.341q0-.422-.032-.8l3.889-.707a1.176,1.176,0,0,0,1.093-.9l-.1-.707v-.1l-.032-.064-.1-.064-.386-.128-8.115-1.35q2.249-.777,4.933-1.623a24.36,24.36,0,0,0,6.074-.787q.692-.206,1.366-.418a7.39,7.39,0,0,1,1.912.8,12.141,12.141,0,0,1,2.073,1.623q.259.253.53.53,1.413,1.479,2.635,2.86a18.273,18.273,0,0,1,2.089,2.7,3.761,3.761,0,0,1,.514,2.153,17.114,17.114,0,0,1-.482,2.443c-.008.055-.019.108-.032.161a24.755,24.755,0,0,1-2.185,7.135A13.656,13.656,0,0,1,1613.238,832.245Z" transform="translate(-51.316 -150.108)" fill="#010613" fill-rule="evenodd"/>
    <path id="Trazado_1721" data-name="Trazado 1721" d="M1590.757,812.889l8.115,1.35.386.128.1.064.032.064v.1h-.129l-19.829,3.6-1.607.129-.032-.289h-.064l-.128-.225.739.032,10.413-1.928v-.032l.386-.032.129-.032-.032-.1h-.161l-5.7-1q.416-.118.948-.289a.845.845,0,0,0,.257-.032,36.832,36.832,0,0,0,4.58-1.784Zm-6.894-1.093.53.112a1.464,1.464,0,0,0-.128.112l-.643-.112c.073-.042.143-.085.209-.129Zm-3.6,2.378a1.754,1.754,0,0,0,.225-.177l.289.048h.611l.8-.145-.193.241a1.165,1.165,0,0,0-.177.305l-.8-.145h-.048Zm-2.957-.739.819.145a.908.908,0,0,0-.064.209L1577,813.6A2.444,2.444,0,0,0,1577.307,813.435Zm1.51,4.692h-.064v.032l.064-.032v.032l.1-.064v-.064h-.1l.1.064Zm-.578-.032-.1-.032-.1.1.161-.064-.161.1Zm.064,0,.129.032v.064h.064v-.064h-.064l-.032-.032Z" transform="translate(-46.431 -151.063)" fill-rule="evenodd" fill="url(#linear-gradient)"/>
    <path id="Trazado_1722" data-name="Trazado 1722" d="M1582.524,811.9l.643.113c-.416.319-.657.513-.723.578a11.139,11.139,0,0,0-1.334,1.286l-.852.161h-.578l-.289-.048a1.942,1.942,0,0,0,.289-.338.693.693,0,0,1,.161-.1c.086-.107.15-.161.193-.161a.744.744,0,0,1,.257-.161l2.218-1.318Zm-7.938,1.221-.659-1.286a2.034,2.034,0,0,0,1.125-.08,8.758,8.758,0,0,1-.386,1.221h-.032A.307.307,0,0,1,1574.586,813.121Zm2.443.45-.819-.145a6.059,6.059,0,0,0,.739-.546c.45-.364.707-.568.771-.611q.16-.064-.45.868A2.487,2.487,0,0,0,1577.028,813.571Z" transform="translate(-45.332 -151.055)" fill="#89abd0" fill-rule="evenodd"/>
    <path id="Trazado_1723" data-name="Trazado 1723" d="M1564.226,815.157,1563.5,815h-.016l-.064-.016h-.289l-1.543.354,1.607.193,1.045-.177a.278.278,0,0,0,.112.145.879.879,0,0,0,.337.032l1.045.161h.128l.675-.064.032-.064-1.028-.193.273-.064,5.7,1-.032.032.128-.032h.064l.032.1-.129.032-.386.032v.032l-10.413,1.928-.739-.032.129.225h.064l.032.289,1.607-.129,19.829-3.6h.129l.1.707a1.176,1.176,0,0,1-1.093.9l-3.889.707-14.944,2.7a6.442,6.442,0,0,1-1.157.129,3.273,3.273,0,0,1-1-.129l-2.715-.466-10.4-1.768-9.625-1.639-.627-.112-7.006-1.189-.321-.225-.386-.161-.482-.482-.418-.739.9,1.028.707.353,30.371,5.207.129-.032.257-.257.032-.257v-.321l-.45-.932c.2.013.312-.045.338-.177l.434.016.578-.161-1.045-.161c-.016-.037-.032-.074-.048-.113l1.382.241,1.511-.225-2.282-.482h-.1l-.691.08-.048-.08.289-.032-.193-.129-.177-.016-.064-.128,1.237-.273-1.414-.225h-.08l-.1-.193.627.064,1.318-.129-.1-.064-1.318-.321h-.1l-.595.129-.032-.048.209-.048-.129-.129-.177-.032-.064-.129h.016l1.253-.257-1.414-.225h-.1l-.08-.177.08.016h.161l1.479-.289-1.205-.193a.782.782,0,0,1-.787-.08l-.064-.112q.367.419,1.109.064l1.061.193a.6.6,0,0,0-.032.209l-1.3.241,1.768.354h.354l1.51-.225-.321-.064a1.753,1.753,0,0,0,.225-.128l.707.128h.048l.8.145A.433.433,0,0,0,1564.226,815.157Zm10.22,1.88.386-.064-.064-.032-.354.064Zm-4.082-.836-1.478-.257-.354.064v-.1l-1.623-.305-.048-.016-.225.129-.08.016-1.237.145v.064l-1-.161-.032-.161-.707.064-1.061-.161-1.318.386,1.575.193,1.286-.257h.032l.032.032v.1l-1.028.257,3.728.578h.225l1.382-.289-.9-.1.1-.064h.032l-.032-.032.418-.064.032.129,1.671.257.643-.129v-.08Zm-5.656,1v-.032l-1.414-.225-1.479.289.064.032,1.607.257,1.318-.321Zm1.864-.257-2.957-.546-1.35.257v.032l2.764.45Zm-3.343-.611-1.318-.289-.225.064-1.3.225,1.3.225h.193l1.35-.193Zm-2.635-.514.257-.032,1.318-.289-1.318-.225-1.51.225Zm2.282,1.125-1.318-.321-1.607.289,1.318.225Z" transform="translate(-28.882 -151.644)" fill="#59bcc6" fill-rule="evenodd"/>
    <path id="Trazado_1724" data-name="Trazado 1724" d="M1582.773,815.071l-.8.145h-.032l.852-.161Zm6.878,1.816h.1l-.129.032Zm2.925.739-.032-.032.354-.064.064.032Zm-13.691,1.639h.1l.032.032h.064v.064h-.064V819.3Zm-.064,0-.193.1.161-.1-.161.064.1-.1Zm.579.032.1-.032-.1-.064h.1v.064l-.1.064V819.3l-.064.032V819.3Z" transform="translate(-47.011 -152.233)" fill="red" fill-rule="evenodd"/>
    <path id="Trazado_1725" data-name="Trazado 1725" d="M1541.886,817.707a5.226,5.226,0,0,0-.659.145.4.4,0,0,0,.032-.257Zm20.022,3.407a11.685,11.685,0,0,0-1.109,2.362,38.253,38.253,0,0,1-5.062-2.218h-.016q-1.236-.58-2.282-1.061-1.062-.477-1.928-.852Zm13.225-3.519.032.241v.08l-.643.129-1.671-.257-.032-.129-.418.064.032.032h-.032l-.1.064-2.218-.386v-.064l1.35.257,1.864-.321v.1l-.482.064v.032l1.7.257Z" transform="translate(-33.651 -153.037)" fill="#132146" fill-rule="evenodd"/>
    <path id="Trazado_1726" data-name="Trazado 1726" d="M1565.525,815.33l1.029.193-.032.064-.675.064h-.129l-1.045-.161A5.668,5.668,0,0,0,1565.525,815.33Zm-1.3-.016-1.044.177-1.607-.193,1.543-.354h.289l.064.016h.016l.723.161A.288.288,0,0,0,1564.224,815.314Zm-3.76-.771q.011.436.627.562a.393.393,0,0,1,.225-.064,2.436,2.436,0,0,0,1.157-.193l.321.064-1.51.225h-.354l-1.768-.354Zm-1.8.193-.273-.546a.782.782,0,0,0,.787.08l1.205.193-1.478.289h-.161Zm.08.177h.1l1.414.225-1.253.257h-.016Zm.305.611.177.032.129.129-.209.048Zm.643,1.269-.257-.5h.08l1.414.225Zm-.354-.691-.161-.321.594-.129h.1l1.318.321.1.064-1.318.129Zm.723,1.462a.38.38,0,0,1-.016-.048l-.048-.1-.112-.241.691-.08h.1l2.282.482-1.511.225Zm-.225-.466-.08-.177.177.016.193.129Zm-1.4.8,1.141.225a1.336,1.336,0,0,0,.225.032l.45.932v.321l-.032.257-.257.257-.129.032-30.371-5.206-.707-.354-.9-1.028-.032-.064,30.5,5.914q.868.193.418-.707l-.016-.048Zm1.7.08a.56.56,0,0,0-.032-.305l1.045.161-.578.161ZM1565.3,816l2.218.386.9.1-1.382.289h-.225l-3.728-.578,1.028-.257.354-.1Zm0-.064v-.1l1.237-.145.08-.016.225-.129.048.016,1.623.305-1.864.321Zm-1.736-.289.482.161-1.286.257-1.575-.193,1.318-.386Zm6.781.514-.611.161-1.7-.257v-.032l.482-.064.354-.064Zm-5.656,1h.1l-1.318.321-1.607-.257-.064-.032,1.479-.289,1.414.225Zm1.864-.257-1.543.193-2.764-.45v-.032l1.35-.257Zm-3.343-.611v.032l-1.35.193h-.193l-1.3-.225,1.3-.225.225-.064Zm-2.635-.514-1.253-.321,1.51-.225,1.318.225-1.318.289Zm2.282,1.125-1.607.193-1.318-.225,1.607-.289Z" transform="translate(-28.864 -151.608)" fill="#455d9d" fill-rule="evenodd"/>
    <path id="Trazado_1727" data-name="Trazado 1727" d="M1585.162,817.273l-.836-.161-.354.1v-.1l-.032-.032h-.032l-.482-.161.707-.065.032.161,1,.161v.1Z" transform="translate(-48.726 -152.876)" fill="#2c4482" fill-rule="evenodd"/>
    <path id="Trazado_1728" data-name="Trazado 1728" d="M1602.806,850.6a.13.13,0,0,0-.129.064,2.023,2.023,0,0,0,.032-.257A.413.413,0,0,1,1602.806,850.6Z" transform="translate(-55.603 -164.862)" fill="#713d22" fill-rule="evenodd"/>
    <path id="Trazado_1729" data-name="Trazado 1729" d="M1585.527,843.194a9.742,9.742,0,0,0,.868-.579,10.007,10.007,0,0,0,1.752-1.494,6.875,6.875,0,0,0,.691-.916l1.478.675.032.739q-1,1.928-1,1.993a3.933,3.933,0,0,1-.1.418q-.932-.193-2.41-.546Q1586.138,843.322,1585.527,843.194Z" transform="translate(-49.476 -161.218)" fill="#0c1838" fill-rule="evenodd"/>
    <g id="Grupo_10031" data-name="Grupo 10031" transform="translate(1597.563 388.905)">
      <path id="Trazado_1730" data-name="Trazado 1730" d="M1689.775,437.595a.964.964,0,0,1-.681-1.646,40.223,40.223,0,0,1,5.144-4.481.964.964,0,0,1,1.1,1.582,38.428,38.428,0,0,0-4.882,4.262A.961.961,0,0,1,1689.775,437.595Zm15.682-1.093a.965.965,0,0,1-.96-.881c-.083-.961-.19-1.918-.316-2.845-.255-2.087-.545-4.163-.864-6.183q-.42-2.708-.805-5.346c-.236-1.581-.454-3.258-.647-4.981a4.92,4.92,0,0,1,.037-1.122,3.841,3.841,0,0,1,.7-1.589,1.735,1.735,0,0,1,1.443-.685,2.321,2.321,0,0,1,2.473,1.074c.28.4.582.807.891,1.2a.923.923,0,0,0,.479.358c.636.226.888.06,1.14-.322a11.966,11.966,0,0,1,1.9-2.178,2.543,2.543,0,0,1,2.54-.6,2.4,2.4,0,0,1,1.657,1.445,6.736,6.736,0,0,1,.425,3.373c-.193,1.312-.411,2.641-.649,3.965-.275,1.673-.531,3.307-.767,4.888-.148,1.129-.324,2.267-.518,3.368a52.012,52.012,0,0,1-1.34,6.043.964.964,0,0,1-1.854-.53,49.989,49.989,0,0,0,1.292-5.833c.192-1.09.363-2.2.51-3.317.239-1.606.5-3.25.776-4.948.237-1.318.452-2.626.64-3.9a4.724,4.724,0,0,0-.3-2.372.454.454,0,0,0-.343-.307c-.027-.006-.055-.013-.082-.022a.618.618,0,0,0-.693.18,10,10,0,0,0-1.587,1.82,2.7,2.7,0,0,1-3.371,1.076,2.789,2.789,0,0,1-1.386-1.014c-.311-.392-.636-.829-.944-1.27-.222-.327-.367-.316-.576-.262a1.1,1.1,0,0,1-.279.03,1.877,1.877,0,0,0-.271.672,2.978,2.978,0,0,0-.016.61c.188,1.662.4,3.315.634,4.876q.386,2.634.8,5.329c.322,2.039.615,4.137.872,6.233.129.945.238,1.934.325,2.926a.965.965,0,0,1-.877,1.044C1705.514,436.5,1705.486,436.5,1705.458,436.5Zm27.351-4.627a.994.994,0,0,1-.206-.022,15.168,15.168,0,0,1-4.37-1.882,18.56,18.56,0,0,1-3.723-2.75.964.964,0,0,1,1.363-1.363,16.749,16.749,0,0,0,3.341,2.453,13.32,13.32,0,0,0,3.8,1.658.964.964,0,0,1-.206,1.906Zm-46.215-13.4a19.958,19.958,0,0,1-4.629-.477.964.964,0,1,1,.452-1.874,20.994,20.994,0,0,0,8.386,0,.964.964,0,0,1,.453,1.874A20.119,20.119,0,0,1,1686.594,418.472Zm48.079-2.957h-8.227a.964.964,0,1,1,0-1.928h8.227a.964.964,0,0,1,0,1.928Zm-41.137-10.734a.961.961,0,0,1-.78-.4,21.061,21.061,0,0,0-1.59-1.991,6.331,6.331,0,0,0-2.324-1.524.964.964,0,1,1,.647-1.816,8.276,8.276,0,0,1,3.058,1.994,22.318,22.318,0,0,1,1.769,2.2.964.964,0,0,1-.779,1.531Zm27.9-.643a.964.964,0,0,1-.542-1.762c.606-.411,1.92-1.248,4.016-2.559a30.316,30.316,0,0,0,3.514-2.452.964.964,0,0,1,1.258,1.462,31.746,31.746,0,0,1-3.751,2.626c-2.045,1.278-3.375,2.126-3.953,2.518A.962.962,0,0,1,1721.432,404.139Zm-12.7-5.721a.964.964,0,0,1-.964-.964v-7.585a.964.964,0,0,1,1.928,0v7.585A.964.964,0,0,1,1708.737,398.418Z" transform="translate(-1681.226 -388.905)" fill="#ffea9e"/>
    </g>
  </g>
</svg>
