<svg xmlns="http://www.w3.org/2000/svg" width="345.452" height="322.805" viewBox="0 0 345.452 322.805">
  <g id="Grupo_10102" data-name="Grupo 10102" transform="translate(-1434.6 -364.95)">
    <path id="Trazado_2743" data-name="Trazado 2743" d="M1753.321,757.15l12.142,7.015-70.224,40.622-12.142-7.016Zm-277.085-59.525,28.288,16.339,3.3-1.922,1.41-.832,2.755-1.731v-2.4l5.094,2.947-12.4,7.176-5.35-3.091a21.077,21.077,0,0,1-7.689,6.936q-9.483,5.478-22.906,5.478t-22.906-5.478q-9.451-5.478-9.483-13.23,0-7.754,9.483-13.232a37.785,37.785,0,0,1,8.2-3.507,7.251,7.251,0,0,0-1.313,1.874,1.6,1.6,0,0,0-.192.384,1.084,1.084,0,0,0-.128.288l-.352,2.787v.128a.094.094,0,0,1,.032.065v.16a.505.505,0,0,0,.032.128.308.308,0,0,0,.064.16v.609a13.77,13.77,0,0,0,.769,4.677,10.768,10.768,0,0,1,.48,3.268q.257,1.217,2.115,1.345.128.578.224,1.281a30.062,30.062,0,0,0,.8,3.652,6.3,6.3,0,0,1,.224,1.474,9.329,9.329,0,0,0,2.083,5.03,8.729,8.729,0,0,0,4.581,2.947,18.192,18.192,0,0,0,5.254,1.218,5.742,5.742,0,0,0,4.805-1.827,10.528,10.528,0,0,0-.128-2.626,7.811,7.811,0,0,0-.833-2.275q-.929-1.57-1.378-2.4a.241.241,0,0,1,.1.032q3.844,2.819,10.092,2.723a4.276,4.276,0,0,0,2.691-.866,2.793,2.793,0,0,0,1.281-2.4,6.352,6.352,0,0,0-.417-1.6,10.628,10.628,0,0,0-2.307-3.588q-2.979-2.787-4.293-4.2a4.441,4.441,0,0,1-1.121-2.628,5.515,5.515,0,0,0-.929-2.595v-.352C1476.259,697.839,1476.249,697.732,1476.236,697.625Zm-21.4-4.068a11.989,11.989,0,0,1,.448-2.836l.064-.015-.064.192A13.036,13.036,0,0,0,1454.835,693.557Zm144.405,48.1q.385-.312.753-.656c.045-.043.088-.086.128-.129A2.2,2.2,0,0,1,1599.24,741.66Zm-11.758,1.682q-.438.724-.945,1.506c-.036.056-.073.11-.112.16a1.526,1.526,0,0,1-.112.16h.016q-1.015,1.532-2.259,3.267c-.15.192-.277.363-.384.513l-.064.065a.089.089,0,0,0-.032.063l-1.922,2.755q-2.211,3.236-3.172,5.03a8.683,8.683,0,0,0-.7,1.6,8.449,8.449,0,0,0-.321.961,4.079,4.079,0,0,0-.1.544.6.6,0,0,0-.032.192l-.064.448a2.346,2.346,0,0,0,1.986,2.755,23.331,23.331,0,0,0,7.625.32,12.017,12.017,0,0,0,6.92-3.044,34.113,34.113,0,0,0,3.62-6.439,48.545,48.545,0,0,1,3.524-6.568l.064-.063a.094.094,0,0,0,.032-.065l.064-.064c0-.021.021-.031.064-.031a.132.132,0,0,1,.032-.1.091.091,0,0,0,.032-.063.028.028,0,0,1,.032-.032.093.093,0,0,1,.032-.065v-.032a7.8,7.8,0,0,0,1.057-2.211l.16-.609q.062-.315.1-.641a8.92,8.92,0,0,0-.1-2.5,11.409,11.409,0,0,0-.9-2.948c.05-.178.093-.36.128-.545q.172-.834.32-1.682a34.383,34.383,0,0,1,7.625,3.252q8.617,4.965,8.618,11.982,0,7.079-8.618,12.046-8.554,4.965-20.76,4.966-12.142,0-20.76-4.966-8.554-4.966-8.586-12.014a10.553,10.553,0,0,1,1.281-5.094q-11.533-.224-19.767-4.966-6.363-3.7-8.009-8.521l-.545.32-12.4-7.177,5.094-2.947v2.4l2.755,1.729,1.41.834,3.3,1.922,30.323-17.508a14.882,14.882,0,0,0,1.281,7.3,24.106,24.106,0,0,1-2.227,1.778,67.233,67.233,0,0,1-6.664,4.1q-3.46,1.889-5.863,3.364a33.215,33.215,0,0,0-3.716,2.563,4.484,4.484,0,0,0-1.185,1.281,4.368,4.368,0,0,0-.641,1.857q-.032.353-.032.769a3.082,3.082,0,0,0,2.435,3.268,21.979,21.979,0,0,0,8.2-1.089,28.694,28.694,0,0,0,7.465-3.717q2.4-1.473,8.426-2.658,5.7-1.09,8.233-3.012a5.428,5.428,0,0,0,2.018-4.228,7.226,7.226,0,0,0-.288-1.955,10.755,10.755,0,0,0-.545-1.554,9.479,9.479,0,0,0,.24-4.453q1.258.6,2.451,1.3.632.363,1.218.737.008,2.607-.1,5.221-.064,2.532.032,4.934a43.59,43.59,0,0,1-.256,8.842,5.957,5.957,0,0,0,1.217,4.613A4.852,4.852,0,0,0,1587.483,743.342ZM1469.572,702q.214.479.432.977h-.016Q1469.775,702.484,1469.572,702Zm-4.9-8.089c.019.17.04.341.064.512.028.213.054.426.08.641-.027-.183-.053-.364-.08-.544C1464.71,694.317,1464.689,694.114,1464.67,693.91Zm3.973,12.526a.284.284,0,0,1,.1.192,9.52,9.52,0,0,1,.481,2.628.314.314,0,0,1-.128-.16c-.043-.065-.1-.15-.16-.257q-.161-.448-.352-1.121-.1-.416-.192-.9a4.167,4.167,0,0,0-1.089-2.307l-.048.049a2.451,2.451,0,0,1-.689-1.426v-.16a.719.719,0,0,1-.032-.224,6.112,6.112,0,0,1-.1-.737,4.969,4.969,0,0,1-.032-.545q-.262-.741-.5-1.538.235.745.5,1.442.577,1.25,1.794,3.812.224.578.416,1.153v.065Zm-11.133,1.185h-.016q-.288-1.569-1.057-4.42c-.052-.192-.1-.379-.144-.561q.084.317.176.656Q1457.184,706,1457.51,707.621Z" transform="translate(-0.629 -117.033)" fill="#1d1d1b" fill-rule="evenodd" opacity="0.1"/>
    <path id="Trazado_2744" data-name="Trazado 2744" d="M1689.218,607.688q-8.169-9.636-8.169-27.888,0-24.989,15.314-51.514,15.314-26.495,36.938-38.989,21.657-12.494,36.938-3.684a27.7,27.7,0,0,1,4.069,2.851q11.277,9.558,11.277,30.98,0,24.989-15.346,51.514-15.281,26.527-36.938,39.021-21.625,12.494-36.938,3.652A26.943,26.943,0,0,1,1689.218,607.688Zm74.261-75.43q0,14.417-8.842,29.7-8.81,15.25-21.3,22.394-12.463,7.176-21.3,2.05-8.81-5.126-8.81-19.542t8.81-29.667q8.842-15.249,21.3-22.426,12.494-7.144,21.3-2.018Q1763.479,517.841,1763.479,532.259Zm11.149-6.407q0-19.735-12.11-26.751-12.077-7.015-29.185,2.787-17.075,9.836-29.185,30.755-12.078,20.889-12.078,40.623t12.078,26.783q12.11,7.015,29.185-2.82,17.108-9.8,29.185-30.723Q1774.628,545.585,1774.628,525.851Zm-29.89,30.37a31.817,31.817,0,0,0,4.741-15.954q0-7.721-4.741-10.509-4.742-2.723-11.405,1.09a31.743,31.743,0,0,0-11.437,12.014q-4.741,8.233-4.741,15.954,0,7.753,4.741,10.508t11.437-1.089Q1740,564.422,1744.737,556.221ZM1488.316,396.535a.2.2,0,0,1-.032.047l-.064-2.018c-.277.065-.566.139-.865.225a17.224,17.224,0,0,1-5.638.481,44.987,44.987,0,0,1-5.735-1.314,19.429,19.429,0,0,1-5.478-3.011,24.683,24.683,0,0,1-3.348-2.419l-.208-.177a33.516,33.516,0,0,1-3.812-3.78q-.588-.686-1.153-1.409-1.1-1.394-2.114-2.916a10.2,10.2,0,0,0-2.371,4.133q-.128.544-.256,1.057.608,1.539,1.858,4.069.119.241.256.481a12.954,12.954,0,0,0,1.874,2.578,16.413,16.413,0,0,0,1.618,1.49,12.625,12.625,0,0,0,4.165,2.5,24.031,24.031,0,0,1,2.5.832,54.772,54.772,0,0,0-1.89,6.28,6.08,6.08,0,0,1-.625-.193l-1.234-1.826a1.606,1.606,0,0,1-.448-1.217,5.023,5.023,0,0,0-1.794-2.21,3.4,3.4,0,0,0-2.691-.673q-.288.833-.32.994a1.525,1.525,0,0,0,.032,1.025,6.143,6.143,0,0,0,1.7,2.547,18.231,18.231,0,0,1-.833,2.131,18.534,18.534,0,0,1-4.87,6.632,22.963,22.963,0,0,1-6.535,3.651,24.139,24.139,0,0,0,3.748-22.233,62.943,62.943,0,0,1-2.018-9.195q-1.281-8.586,6.375-12.463a5.068,5.068,0,0,1,3.46-.32,11.374,11.374,0,0,1,4.9,2.435,5.045,5.045,0,0,0-5.7,1.538,4.93,4.93,0,0,0-1.089,3.716,4.8,4.8,0,0,0,.641,1.891l2.307-1.827a21.375,21.375,0,0,0,1.458,1.6q.392.409.817.8,2.146,1.7,4.453,3.62,1.922,1.506,4.1,3.012a19.952,19.952,0,0,0,5.382,2.723,44.83,44.83,0,0,0,5.35,1.089,11.543,11.543,0,0,0,3.941-.016,12.719,12.719,0,0,0,1.794-.465,2.447,2.447,0,0,1,.1.7A6.552,6.552,0,0,1,1488.316,396.535Zm52.989,55.984a5.9,5.9,0,0,0-.9,1.458,9.422,9.422,0,0,0-.657,2.21q-.063.407-.112.834-.04.319-.064.656-1.762-1.313-4.549-3.652-2.819-2.338-5.35-4.357a49.745,49.745,0,0,1-5.638-5.542.185.185,0,0,1-.064-.129,5.635,5.635,0,0,1,.865-5.35,8.312,8.312,0,0,1,.833-.9q.2.188.4.369.3.292.609.576,1.121,1.075,2.291,2.162.56.545,1.153,1.09.306.28.657.592c.072.068.147.137.224.209q1.2,1.119,2.595,2.4,1.5,1.349,3.348,3.043,1.145,1.078,2.275,2.194Q1540.27,451.438,1541.3,452.519Zm83.84,38.475-.7.706a7.655,7.655,0,0,0-.833,1.137l-7.641-4.581q-.523-.94-1.009-1.971a34.77,34.77,0,0,0-5.19-7.24,1.683,1.683,0,0,1-.112-.145l-.465-.529-6.5-5.638a1.009,1.009,0,0,1-.1-.064.916.916,0,0,1-.1-.064,1.14,1.14,0,0,1-.1-.063.748.748,0,0,0-.1-.049.892.892,0,0,0-.1-.048l-2.707-1.505a3.462,3.462,0,0,0-.753-.289q-.217-.043-.352-.449l-.208-1.153c-.006-.055-.012-.108-.016-.16a.314.314,0,0,0,0-.048,1.073,1.073,0,0,0,0-.112c0-.023,0-.044,0-.064l.192-.256,1.057-1.073c.028-.024.055-.045.08-.064q.2-.152.4-.289l3.092-1.008a.361.361,0,0,0,.064,0c.12-.006.243-.012.368-.017s.278-.016.417-.016h.064a2.369,2.369,0,0,1,.24.016,3.779,3.779,0,0,1,.417.048.409.409,0,0,1,.064.016l5.142,3.012a26.887,26.887,0,0,1,1.89,2.034,101.8,101.8,0,0,1,6.183,8.746q.808,1.247,1.538,2.355Zm-7.8-.512,5.7,3.4a14.2,14.2,0,0,0-.545,1.346v.015q-.128.351-.24.721a37.555,37.555,0,0,1-4.325-4.645Q1617.631,490.908,1617.344,490.483Zm-48.119,113.906a14.18,14.18,0,0,0,2.034,3.124,1.055,1.055,0,0,1,.128.16,4.718,4.718,0,0,0,1.442,1.057,9.588,9.588,0,0,0,10.444-1.153,3.886,3.886,0,0,0,1.378-1.859c.069-.186.132-.374.192-.561a10.741,10.741,0,0,1,.545,1.554,7.227,7.227,0,0,1,.288,1.955q-.288.256-.737.608a16.528,16.528,0,0,1-2.627,1.827q-4.421,2.53-12.334,3.748a6.88,6.88,0,0,0-2.563,1.249q-.961.641-3.268,2.275a18.9,18.9,0,0,1-10.38,3.172,6,6,0,0,1-4.069-1.538q-.417-.383-.769-.673a4.368,4.368,0,0,1,.641-1.857c.149.042.309.085.48.127a14.848,14.848,0,0,0,3.844.513,22.7,22.7,0,0,0,9.739-2.5q5.062-2.4,5.062-4.293a8.542,8.542,0,0,0-1.057-3.587,11.038,11.038,0,0,1-.641-1.57A24.089,24.089,0,0,0,1569.224,604.389Zm23.162,23.787c.09.025.181.047.272.065a10.9,10.9,0,0,0,2.114.384,10.458,10.458,0,0,0,9.371-2.13,2.2,2.2,0,0,0,.881-.785,5.884,5.884,0,0,0,1.506-2.659,11.414,11.414,0,0,1,.9,2.948,8.92,8.92,0,0,1,.1,2.5,29.227,29.227,0,0,1-2.371,3.3,27.421,27.421,0,0,0-2.371,3.2,18.88,18.88,0,0,0-.641,2.723,14.507,14.507,0,0,1-1.73,4.357q-3.621,5.735-12.911,5.094a9.892,9.892,0,0,1-4.293-1.538q-.545-.383-.961-.641a.6.6,0,0,1,.032-.192,4.06,4.06,0,0,1,.1-.544,8.424,8.424,0,0,1,.32-.961q2.5-.193,6.151-.192,6.119,0,8.682-3.4a6.368,6.368,0,0,0,1.41-3.908q0-1.537-4.838-4a14.966,14.966,0,0,1-2.867-1.793h-.016a1.545,1.545,0,0,0,.112-.16c.038-.051.076-.1.112-.16Q1591.948,628.9,1592.387,628.176ZM1481.652,416.509a14.456,14.456,0,0,1-.064,2.435,3.2,3.2,0,0,1-.609,1.859q-.481-.289-2.371-1.154-.833-.416-1.954-.865a.219.219,0,0,0-.16-.063q.48-2.659.545-2.852V415.8a1.53,1.53,0,0,0,.064-.481l.064-.192Q1479.794,415.869,1481.652,416.509Zm-5.478,181.777q-.32-.385-.641-.8a10.055,10.055,0,0,1-2.05-4.934q.192.674.352,1.121c.064.107.117.192.16.257a.314.314,0,0,0,.128.16,9.524,9.524,0,0,0-.481-2.628l.032-.032a.369.369,0,0,0-.128-.16l-.032-.031v-.065q-.192-.577-.417-1.153-1.218-2.562-1.794-3.812-.261-.7-.5-1.442l-.144-.5a38.373,38.373,0,0,1-.849-3.844l-.1-.529c-.026-.215-.052-.428-.08-.641-.024-.17-.045-.342-.064-.512q-.153-1.132-.256-2.4v-.32a.346.346,0,0,0,.032.063q.144.4.32.866,1.346,3.4,1.41,3.587.128.385,2.915,6.952a31.552,31.552,0,0,1,1.89,5.351q.512.768,1.249,1.922,2.915,3.62,5.927,3.62a10.121,10.121,0,0,0,6.76-2.243,6.352,6.352,0,0,1,.417,1.6,2.793,2.793,0,0,1-1.281,2.4,4.276,4.276,0,0,1-2.691.866Q1480.018,601.1,1476.174,598.286Zm-15.73-6.5a11.5,11.5,0,0,0-.384-1.505q-.353-.929-1.634-4.133a37.658,37.658,0,0,1-1.346-4.228v-.033a.308.308,0,0,1-.064-.16.505.505,0,0,1-.032-.128v-.16a.093.093,0,0,0-.032-.065v-.128l.353-2.787a1.084,1.084,0,0,1,.128-.288q.128.961.449,2.307.512,1.922,1.377,4.677.993,3.043,2.211,6.5v.033a17.59,17.59,0,0,1,.256,2.883,13.4,13.4,0,0,0,1.153,4.292q2.723,5.543,11.629,5.542a5.09,5.09,0,0,0,2.819-.929q.576-.352.961-.544a10.528,10.528,0,0,1,.128,2.626,5.742,5.742,0,0,1-4.805,1.827,18.192,18.192,0,0,1-5.254-1.218,8.73,8.73,0,0,1-4.581-2.947,9.329,9.329,0,0,1-2.082-5.03,6.3,6.3,0,0,0-.224-1.474,30.039,30.039,0,0,1-.8-3.652Q1460.572,592.359,1460.444,591.782Z" transform="translate(-5.533 -1.867)" fill="#cb2069" fill-rule="evenodd"/>
    <path id="Trazado_2745" data-name="Trazado 2745" d="M1662.432,700.969q-.148.848-.32,1.682c-.035.185-.078.367-.128.545a5.884,5.884,0,0,1-1.506,2.659c-.04.043-.083.086-.128.129q-.368.343-.753.656a10.458,10.458,0,0,1-9.371,2.13q.081-1.429.144-2.867.163-3.319.256-6.648c.005-.222.01-.447.016-.673,0-.018,0-.034,0-.048q.131-4.367.032-8.73-.111-5.193-.545-10.38a106.855,106.855,0,0,0-2.563-16.115q-1.954-8.3-3.876-16.691a100.167,100.167,0,0,1-2.435-17.412q-.017-.325-.032-.657-.377-7.553-.032-15.137a4.176,4.176,0,0,0,3.428,1.49,1.594,1.594,0,0,0,.32-.032q.734-.073,1.458-.176L1659,646.171q-.14.818-.288,1.635a10.123,10.123,0,0,0,.609,5.894,96.729,96.729,0,0,1,3.78,10.989,46.455,46.455,0,0,1,1.313,18.71q-.7,5.7-1.185,11.341Q1662.982,697.906,1662.432,700.969Zm-3.14-56.481-12-29.922a39.748,39.748,0,0,0,14.384-5.206q.023.556.048,1.121a132.03,132.03,0,0,1-.417,18.613Q1660.573,636.794,1659.293,644.489ZM1634.7,595.6c-.02.185-.036.371-.048.561a183.12,183.12,0,0,0,.192,27.391q.353,4.934.673,9.931a91.4,91.4,0,0,0,5.51,25.726q.693,1.847,1.2,3.748a56.965,56.965,0,0,1-1.586,8.49,18.983,18.983,0,0,0-.192,9.035c.028.124.054.247.08.368a9.476,9.476,0,0,1-.24,4.453c-.06.187-.124.374-.192.561a3.886,3.886,0,0,1-1.378,1.859,9.588,9.588,0,0,1-10.444,1.153,4.718,4.718,0,0,1-1.442-1.057q.038-.337.08-.656.055-.475.112-.913.88-7.263,1.105-11.758.08-1.562.08-2.787a120.039,120.039,0,0,0-2.371-20.28q-1.1-6.091-1.682-11.677-.2-1.877-.336-3.7-.055-.775-.1-1.537c-.012-.156-.023-.311-.032-.465q-.081-1.339-.128-2.643-.064-1.794-.064-3.524a204.917,204.917,0,0,1,1.153-21.72q.745-6.9,1.874-12.927c.078.051.152.1.224.145l.016.7,5.254,1.73-.016-.592A25.328,25.328,0,0,0,1634.7,595.6Zm3,129.54q.416.257.961.641a9.892,9.892,0,0,0,4.293,1.538q9.291.641,12.911-5.094a14.507,14.507,0,0,0,1.73-4.357,18.881,18.881,0,0,1,.641-2.723,27.421,27.421,0,0,1,2.371-3.2,29.221,29.221,0,0,0,2.371-3.3q-.035.326-.1.641l-.16.609a7.8,7.8,0,0,1-1.057,2.211v.032a.093.093,0,0,0-.032.065.028.028,0,0,0-.032.032.092.092,0,0,1-.032.063.132.132,0,0,0-.032.1c-.043,0-.064.01-.064.031l-.064.064a.094.094,0,0,1-.032.065l-.064.063a48.527,48.527,0,0,0-3.524,6.568,34.121,34.121,0,0,1-3.62,6.439,12.017,12.017,0,0,1-6.92,3.043,23.332,23.332,0,0,1-7.625-.32,2.346,2.346,0,0,1-1.986-2.755C1637.657,725.44,1637.679,725.29,1637.7,725.141Zm3.428-36.329a5.428,5.428,0,0,1-2.018,4.228q-2.531,1.922-8.233,3.012-6.023,1.185-8.426,2.658a28.691,28.691,0,0,1-7.465,3.717,21.977,21.977,0,0,1-8.2,1.089,3.082,3.082,0,0,1-2.435-3.268q0-.416.032-.769.353.288.769.673a6,6,0,0,0,4.069,1.538,18.9,18.9,0,0,0,10.38-3.172q2.307-1.634,3.268-2.275a6.879,6.879,0,0,1,2.563-1.249q7.913-1.217,12.334-3.748a16.524,16.524,0,0,0,2.627-1.827Q1640.84,689.068,1641.128,688.812Z" transform="translate(-60.985 -82.013)" fill="#132146" fill-rule="evenodd"/>
    <path id="Trazado_2746" data-name="Trazado 2746" d="M1477.65,619.912a10.055,10.055,0,0,0,2.05,4.934q.32.416.641.8a.241.241,0,0,0-.1-.032q.448.832,1.378,2.4a7.8,7.8,0,0,1,.833,2.275q-.384.192-.961.544a5.09,5.09,0,0,1-2.819.929q-8.907,0-11.629-5.542a13.4,13.4,0,0,1-1.153-4.292,17.59,17.59,0,0,0-.256-2.883v-.033q-1.218-3.46-2.211-6.5-.865-2.756-1.377-4.677-.32-1.347-.449-2.307a1.61,1.61,0,0,1,.192-.384,7.246,7.246,0,0,1,1.313-1.874,7.418,7.418,0,0,1,1.538-1.2q-.158.414-.288.848a11.989,11.989,0,0,0-.449,2.836l.1,2.979.256,1.667c.043.191.085.383.128.576.024.12.051.254.08.4l.9,3.461c.044.182.092.369.144.561q.769,2.851,1.057,4.42h.016q3.448-.449,5.206-.8a8.913,8.913,0,0,0,4.533-2.258l.048-.049a4.168,4.168,0,0,1,1.089,2.307Q1477.554,619.5,1477.65,619.912Zm89.062-141.73a1.716,1.716,0,0,0-.288-.737,11.121,11.121,0,0,0-1.506-.432q.2-.676.417-1.458c.019-.1.04-.2.064-.3a25.862,25.862,0,0,1,2.979-8.009,21.583,21.583,0,0,1-5.959,1.809,23.254,23.254,0,0,1-8.986-.4,22.467,22.467,0,0,1-6.359-2.675q-2.35-1.461-4.581-3.075a.14.14,0,0,0-.032-.033q7.626-.768,14.961-1.362t12.014-.608q2.25-.009,3.989,0l.016-.017a16.359,16.359,0,0,1,3.14.064q.622.079,1.249.209c.01.013.021.029.032.047q.285.474.545.9l-3.925,5.4a46.353,46.353,0,0,0-7.1,7.754c-.022.03-.044.063-.064.1q-.226.307-.448.625l.817.865Zm-.433,71.634a17.463,17.463,0,0,1-2.387-3.268,11.676,11.676,0,0,1-1.6-4.869q.032-.289,3.78-14.929.16-1.378.288-3.2.1-.578.16-1.217a63.07,63.07,0,0,0-2.915-27.52q.987-.081,2.5-.192a.574.574,0,0,0,.256-.064,1.322,1.322,0,0,0,1.105-.866q.432,2.461,1.105,6.183,1.762,9.836,1.89,12.046.128,3.171.385,13.9.416,5.96,1.666,7.945-.067.9-.112,1.747-.029.364-.048.721-.043.655-.128,1.457-.461,4.478-2.146,13.5-.16.8-.32,1.57A18.1,18.1,0,0,1,1566.28,549.815Zm23.627,10.812a9.026,9.026,0,0,1-1.73-4.693q-.686-5.145-1.394-13.135l-.192-2.162,8.522,21.272q-.724.1-1.458.176a1.6,1.6,0,0,1-.32.032A4.176,4.176,0,0,1,1589.907,560.628Zm-40.03-83.007c-.241.028-.475.065-.7.113a6.1,6.1,0,0,0-2.675,1.153,9.7,9.7,0,0,0-.945.9c-.026.033-.053.065-.08.1q-1.035-1.081-2.082-2.131-1.129-1.116-2.275-2.194-1.852-1.694-3.348-3.043-1.391-1.284-2.595-2.4c-.078-.072-.152-.141-.224-.209q-.352-.312-.657-.592-.593-.545-1.153-1.09-1.171-1.087-2.291-2.162-.309-.284-.609-.576-.2-.181-.4-.369a9.737,9.737,0,0,1,4.261-2.21.229.229,0,0,1,.256.031l.208.129.881.512a25.818,25.818,0,0,1,6.535,5.575h.032q3.46,3.331,4.966,4.966.049.054.1.112,1.459,1.614,2.915,3.38C1549.951,477.609,1549.914,477.614,1549.877,477.621Zm29.041-14.7q.288.442.545.816l-.1.065q-1.134.745-2.211,1.553Zm-8.762,18.148L1567,479.319l1.314-1.811,2.883,3.076Zm41.744-2.306a6.47,6.47,0,0,1,2.194,1.633,19.561,19.561,0,0,1,2.146,2.563q1.858,2.852,3.524,5.927c.074.14.15.279.224.416l6.007,12.51q.181.439.368.881.164.394.352.769l.128.24a7.451,7.451,0,0,0,.993,1.49,44.284,44.284,0,0,1,2.563,3.62q1.763,2.658,4.517,7.753c-.209-.022-.4-.038-.561-.049a3.423,3.423,0,0,0-.721.016,7.4,7.4,0,0,0-4.325,1.826l-5.767-8.825q-.729-1.109-1.538-2.355a101.8,101.8,0,0,0-6.183-8.746,26.887,26.887,0,0,0-1.89-2.034l-5.142-3.012a.409.409,0,0,0-.064-.016,3.779,3.779,0,0,0-.417-.048,2.369,2.369,0,0,0-.24-.016h-.064c-.139,0-.278.006-.417.016s-.248.01-.368.017a.361.361,0,0,1-.064,0l-3.092,1.008q-.2.137-.4.289c-.025.019-.052.04-.08.064l-1.057,1.073-.192.256a12.264,12.264,0,0,1,0-1.249q.032-3.077,3.62-9.708,3.588-6.663,5.062-6.535A3,3,0,0,1,1611.9,478.759Zm-1.234-1.121q-.113.119-.208.224a3.655,3.655,0,0,1-.593.513,24.929,24.929,0,0,0-5.254,7.753,40.221,40.221,0,0,0-2.147,5.189v-.032l-.448,1.922a26.529,26.529,0,0,0-.865,5.351q-.23,2.393-.24,5.542l-7.048-4.229q.241-.377.5-.737l-3.236-3.459,8.266-2.6q.288-1.473.7-2.883a166.527,166.527,0,0,1,6.1-17.011q.108-.243.208-.481Zm-9.739,27.935q.062,3.783.417,8.554a30.477,30.477,0,0,0,2.659,9.611q.544,1.282.993,2.435.449,1.666.8,3.14.848,2.6,1.586,4.885,4.514,14.065,4.6,15.746a16.5,16.5,0,0,1-1.025,6.279c-.188.117-.375.234-.561.353a39.75,39.75,0,0,1-14.384,5.206l-9.483-23.675q.4-2.1,1.041-9.483.281-3.27.609-7.576c.006-.074.011-.149.016-.224l.641-5.96q.449-2.788,1.057-5.238.434-1.752.961-3.332a29.648,29.648,0,0,1,2.355-5.333Zm28.1,5.543a1.8,1.8,0,1,0,1.3.528A1.766,1.766,0,0,0,1629.024,511.116ZM1564.31,481.5l-.769,1.041a.307.307,0,0,0-.1.224.512.512,0,0,0,.064.224l.384.961-1.249.177-.064-.064a17.232,17.232,0,0,1,.609-2.516,1.607,1.607,0,0,0,.16-.384,7,7,0,0,0,.464-.914Zm.417.945.016-.017.08.048Zm-18.405-7.946a1.468,1.468,0,0,0-.641-.368,1.578,1.578,0,0,0-.4-.049,1.449,1.449,0,0,0-1.041.416,1.432,1.432,0,0,0,0,2.05,1.51,1.51,0,0,0,2.083,0,1.366,1.366,0,0,0,.432-1.025,1.26,1.26,0,0,0-.016-.208A1.352,1.352,0,0,0,1546.321,474.5ZM1485.756,446.3q.665.836,1.41,1.939,1.764,2.618,3.972,6.744a8,8,0,0,1,.673,1.442,2.182,2.182,0,0,1,.08.32c0,.094.009.19.016.288l.256,5.895a2.125,2.125,0,0,1,0,.737q.064,1.378.1,2.723a19,19,0,0,0-3.075-4.9l-.769-.929q-.209-.238-.416-.481-.289-.993-.385-1.505-.192-.705-2.691-5.8a32.744,32.744,0,0,1-1.7-4.036,10.926,10.926,0,0,1-.448-1.731q1.89.865,2.371,1.154A3.2,3.2,0,0,0,1485.756,446.3Zm8.233,177.195a10.121,10.121,0,0,1-6.76,2.243q-3.011,0-5.927-3.62-.737-1.154-1.249-1.922a31.552,31.552,0,0,0-1.89-5.351q-2.787-6.567-2.915-6.952-.064-.192-1.41-3.587-.176-.469-.32-.866a.346.346,0,0,1-.032-.063v.32q-.068-1.373-.144-2.963-.02-.63-.048-1.3.8,3.108,2.179,6.856.841,2.324,2.018,5.223l1.153,2.675q.2.486.416.977h.016a34.276,34.276,0,0,0,4.213-1.442q2.37-1.185,1.986-3.3c.022.022.043.044.064.063a5.515,5.515,0,0,1,.929,2.595,4.441,4.441,0,0,0,1.121,2.628q1.314,1.409,4.293,4.2A10.626,10.626,0,0,1,1493.989,623.5Zm-6.856-7.144a5.3,5.3,0,0,0-.9-1.506,19.189,19.189,0,0,1-6.151,3.268,3.992,3.992,0,0,0,.1.416,3.4,3.4,0,0,0,.7,1.378,3.448,3.448,0,0,0,1.826,1.025,3.414,3.414,0,0,0,3.716-1.314,2.308,2.308,0,0,0,.961-2.371,2.84,2.84,0,0,0-.112-.5l-.016-.065Q1487.208,616.528,1487.133,616.356Zm-18.934,8.169a4.091,4.091,0,0,0,3.524,1.57,12.839,12.839,0,0,0,5.927-1.6,1.378,1.378,0,0,0,.7-1.955.189.189,0,0,1-.016-.032.17.17,0,0,1-.016-.032q-.224-.385-.416-.7c-.086-.15-.171-.288-.256-.417a.531.531,0,0,0-.032-.048l-.3-.576c-.087-.177-.157-.331-.208-.465a.092.092,0,0,0-.032-.063v-.032a40.817,40.817,0,0,1-4.773,1.537q-1.6.385-4.806.993a.914.914,0,0,0,.016.1c.006.055.011.108.016.16.012.068.022.132.032.192.033.1.064.193.1.288l.032.1q.1.267.224.513l.064.128A3.912,3.912,0,0,0,1468.2,624.526Zm127.2,32.838a14.966,14.966,0,0,0,2.867,1.793q4.837,2.467,4.838,4a6.368,6.368,0,0,1-1.41,3.908q-2.563,3.4-8.682,3.4-3.652,0-6.151.192a8.7,8.7,0,0,1,.7-1.6q.961-1.8,3.172-5.03l1.922-2.755a.089.089,0,0,1,.032-.063l.064-.065c.107-.149.234-.32.384-.513Q1594.385,658.9,1595.4,657.363Zm-24.236-23.836a11.038,11.038,0,0,0,.641,1.57,8.542,8.542,0,0,1,1.057,3.587q0,1.89-5.062,4.293a22.7,22.7,0,0,1-9.739,2.5,14.848,14.848,0,0,1-3.844-.513c-.171-.042-.331-.085-.48-.127a4.484,4.484,0,0,1,1.185-1.281,33.192,33.192,0,0,1,3.716-2.563q2.4-1.474,5.863-3.364A67.218,67.218,0,0,0,1571.165,633.527Z" transform="translate(-9.7 -29.228)" fill="#ed428b" fill-rule="evenodd"/>
    <path id="Trazado_2747" data-name="Trazado 2747" d="M1556.342,426.474l-52.092-11.629c.021-.086.043-.171.064-.256a1.546,1.546,0,0,1,.449-.8q.257-.353.513-.289l.384.032,2.1.353,14.5,2.434h.064a5.686,5.686,0,0,0,.833.577l.224.128,1.185.673.128.033a2.441,2.441,0,0,0,.8.32.452.452,0,0,1,.192.031,7.484,7.484,0,0,1,1.986.481l1.506-.832.352-.16,9.227,1.537,19.606,3.236a16.136,16.136,0,0,1,1.666.384.641.641,0,0,1,.288.064,4.422,4.422,0,0,1,2.178,1.6,4.781,4.781,0,0,1,.609,1.186,5.017,5.017,0,0,1,.224,2.467l-1.057-.224a4.193,4.193,0,0,0-.288-2.243.363.363,0,0,0-.064-.1,2.762,2.762,0,0,0-1.858-1.538,2.8,2.8,0,0,0-2.339.513,3.239,3.239,0,0,0-.961,1.121A4.294,4.294,0,0,0,1556.342,426.474Zm-38.636,135.739-.128,3.076q-.064.736-1.089,1.121c-.213.042-.427.1-.641.16l-.577-.065a2.16,2.16,0,0,1-1.57-1.537c-.021-.107-.043-.214-.064-.32l-.1-1.7v-3.172a2.163,2.163,0,0,0-1.057-2.114q-2.867-1.7-5.735-3.38a36.208,36.208,0,0,1,1.346-3.956q3.22,1.768,6.439,3.589a5.26,5.26,0,0,1,2.275,2.5A10.908,10.908,0,0,1,1517.705,562.214Zm18.677,45.268v2.4l-2.755,1.731-.032-37.131,2.787-1.473Zm54.238-171.076a13.767,13.767,0,0,1,.513-2.819,15.772,15.772,0,0,1,3.332-5.159,12.779,12.779,0,0,1,5.062-3.364,11.591,11.591,0,0,1,5.542,0,15.883,15.883,0,0,1,5.158,2.115c.073.049.148.1.224.144l-5.879,8.073a2.869,2.869,0,0,0-1.906-.688,2.307,2.307,0,0,0-1.826.928,10.609,10.609,0,0,0-1.185,2.019,8.591,8.591,0,0,1-1.345,2.018,3.433,3.433,0,0,1-2.435.928q-.416,0-3.3-2.563-.431-.383-.8-.7Q1591.11,436.773,1590.621,436.406Zm-.064,2.178a9.026,9.026,0,0,0,1.057,2.211q.155.254.32.481a7.07,7.07,0,0,0,.625.785,6.493,6.493,0,0,0,1.2,1.041q.059.253.112.481.389,1.691.529,2.339a.13.13,0,0,1-.032-.1,2.1,2.1,0,0,1-.224-.193L1592.094,444a8.349,8.349,0,0,1-.673-.93q-.224-.32-.385-.545a32.518,32.518,0,0,1-.448-3.4v-.288A1.055,1.055,0,0,1,1590.557,438.584Zm-38.124,151.694-.032,37.13-2.755-1.729V588.8Zm16.018-9.2-.128-3.076a10.906,10.906,0,0,1,.9-5.8,5.265,5.265,0,0,1,2.274-2.5q3.684-2.082,7.368-4.1a2.731,2.731,0,0,1,2.579-.145q.495,4.064,1.3,8.089.141.708.272,1.41a2.546,2.546,0,0,1-1.778.352,1.821,1.821,0,0,1-1.218-.929l-.288-3.011-.032-1.538q-3.075,1.794-6.151,3.621a2.162,2.162,0,0,0-1.057,2.114v3.172l-.1,1.7c-.021.107-.043.214-.064.32a2.161,2.161,0,0,1-1.57,1.538l-.577.063q-.32-.1-.641-.16Q1568.515,581.821,1568.451,581.083ZM1614.9,439.418q-.227-.8-.448-1.7.2-1.158.3-2.259c.011-.172.021-.343.032-.512a19.9,19.9,0,0,0-.016-2.676,37.109,37.109,0,0,1,1.506,3.717q-.1.636-.16,1.826-.069.346-.4,1.505-.135.455-.3,1.025a3.772,3.772,0,0,0-.1.416Q1615.111,440.131,1614.9,439.418Zm-9.723-3.364,5.782-7.962a10.731,10.731,0,0,0,.417,1.3q.147.461.272.865a10.392,10.392,0,0,1,.5,2.532,8.992,8.992,0,0,1-1.922,4.645q-1.954,2.915-3.652,3.171a8.172,8.172,0,0,0-.833-3.587A5.936,5.936,0,0,0,1605.182,436.054Zm-98.945,120.138-.224,2.4a1.423,1.423,0,0,1-.417.529Q1505.909,557.578,1506.236,556.192Zm25.886,19.157.272-.16-.208.128.032,37.131-3.3,1.922-.064-37.034Zm24.989,54.815-3.3-1.922.032-37.13-.208-.129.272.16,3.268,1.986Z" transform="translate(-25.023 -17.439)" fill="#7a3a1e" fill-rule="evenodd"/>
    <path id="Trazado_2748" data-name="Trazado 2748" d="M1532.405,427.94l-12.014-3.653-2.371-.737.032-.031q-.7-.9-1.217-1.538a2.5,2.5,0,0,0-.224-.256l-.064-.064a.093.093,0,0,0-.064-.032c0-.021-.021-.031-.064-.031a.029.029,0,0,0-.032-.033c0-.042-.011-.064-.032-.064a3.286,3.286,0,0,0-2.5-1.057h-.256a1.171,1.171,0,0,0-1.185.8,1.306,1.306,0,0,0-.064.416v.193l-13.888-4.229-.721-.224v-.064l-2.05-.577a.573.573,0,0,1-.288-.512,1.608,1.608,0,0,1,0-.641l52.092,11.629a2.479,2.479,0,0,0-.1.385,3.781,3.781,0,0,0,.224,2.627.092.092,0,0,1,.032.063,2.664,2.664,0,0,0,1.858,1.6,2.706,2.706,0,0,0,2.339-.577,4.407,4.407,0,0,0,.993-1.089,6.307,6.307,0,0,0,.481-1.218,3.259,3.259,0,0,1,.1-.448l1.057.224c-.022.085-.043.192-.064.32v.031a5.017,5.017,0,0,1-.417,1.09,4.962,4.962,0,0,1-2.114,2.178,4.842,4.842,0,0,1-2.691.481,1.456,1.456,0,0,1-.288-.033q-.833-.16-1.73-.384l-14.16-4.325-.032-.033Zm53.149,18.741v.1a8.185,8.185,0,0,1,0,2.788,1.927,1.927,0,0,1-.032.192,7.282,7.282,0,0,1-2.931-4.292.658.658,0,0,0-.016-.064l-.288-1.6c-.043-.193-.075-.363-.1-.513q.16.225.385.545a8.349,8.349,0,0,0,.673.93l2.051,1.633a2.1,2.1,0,0,0,.224.193A.13.13,0,0,0,1585.554,446.682Zm-3.844-7.337a17.915,17.915,0,0,1,.064-2.178q.49.367,1.153.93.37.32.8.7,2.883,2.563,3.3,2.563a3.433,3.433,0,0,0,2.435-.928,8.591,8.591,0,0,0,1.345-2.018,10.609,10.609,0,0,1,1.185-2.019,2.307,2.307,0,0,1,1.826-.928,2.869,2.869,0,0,1,1.906.688l-6.647,9.147q-.676-.346-1.025-.513a15.582,15.582,0,0,0-2.948-.9.609.609,0,0,1-.192-.031,6.493,6.493,0,0,1-1.2-1.041,7.07,7.07,0,0,1-.625-.785q-.165-.227-.32-.481A9.026,9.026,0,0,1,1581.71,439.345Zm8.169,6.36,6.456-8.89a5.936,5.936,0,0,1,.561.961,8.172,8.172,0,0,1,.833,3.587q1.7-.256,3.652-3.171a8.992,8.992,0,0,0,1.922-4.645,10.392,10.392,0,0,0-.5-2.532q-.125-.4-.272-.865a10.731,10.731,0,0,1-.417-1.3l.208-.288a12.109,12.109,0,0,1,3.444,4.181q.064.128.16.288a19.9,19.9,0,0,1,.016,2.676c-.011.169-.021.34-.032.512q-.1,1.1-.3,2.259a10.752,10.752,0,0,0-2.114,2.371q-1.185,1.794-1.762,2.659-4.325,4.614-10.732,2.756Q1590.386,445.953,1589.879,445.7Zm17.556-8.954v-.033c.021.064.042.139.064.224l.625,1.891.016.064a24.923,24.923,0,0,1,.224,2.69,3.655,3.655,0,0,1-.641,2.115c-.067.04-.136.077-.208.112-.035.016-.072.033-.112.049-.043-.086-.086-.182-.128-.289a16.371,16.371,0,0,1-.8-2.05,3.772,3.772,0,0,1,.1-.416q.169-.57.3-1.025.33-1.158.4-1.505Q1607.338,437.386,1607.435,436.75Zm-36.266,138.4a1.821,1.821,0,0,0,1.218.929l-8.842,5.126.1-1.7Zm-88.806,7.625a2.373,2.373,0,0,0-.032.384,22.609,22.609,0,0,1-.609,2.819l-2.1,1.362.048-1.585q-.092-7.29.032-10.989a47.9,47.9,0,0,1,1.057-9.451q.256-.928.513-1.825a20.507,20.507,0,0,1,.352,4.292q.032,1.763.1,2.948.032.9.064,1.41.673,5.477.7,7.176A29.687,29.687,0,0,1,1482.364,582.773Zm37.707,32.357-28.288-16.339q-.488-6.392-.8-9.674a56.767,56.767,0,0,1,1.538-9.676q1.89-8.138,2.146-9.579.324-1.2,1.233-5.719l24.108,13.953Zm-22.906-55.775,7.529,4.356.1,1.7-8.2-4.758c.033-.151.065-.306.1-.464.021-.1.042-.2.064-.3A1.423,1.423,0,0,0,1497.165,559.355Zm11.565,6.7,4.613,2.658-1.409.833-4.293-2.37Q1508.666,566.786,1508.73,566.05Zm9.323,7.015,1.41-.8,5.286,2.979.032,37.131-1.41.832-.032-37.131.208-.128-.272.16Zm30.819,14.993,1.41.8-5.222,3.043-.272-.16.208.129-.032,37.13-1.41-.834.032-37.13Zm29.714,25.358-30.323,17.508.064-37.035,26.4-15.281q1.179,6.2,2.178,12.334a148.75,148.75,0,0,1,1.858,17.332,39.146,39.146,0,0,1-.128,4.485Q1578.6,613.091,1578.586,613.417ZM1556.4,585.336l-1.41-.832,4.613-2.66q.064.737,1.089,1.121Z" transform="translate(-16.176 -18.199)" fill="#452312" fill-rule="evenodd"/>
    <path id="Trazado_2749" data-name="Trazado 2749" d="M1481.723,625.965q-.064-1.186-.1-2.948a20.508,20.508,0,0,0-.352-4.292q-.257.9-.513,1.825v-.063q0-1.57,2.275-5.671.747-1.211,1.3-2.114.481-.786.817-1.345.609-1.01.769-1.314a1.18,1.18,0,0,0,.064-.16q.293-.72,1.3-3.924,1.7-.387,3.6-.913a36.033,36.033,0,0,0,9.867-3.973,16.531,16.531,0,0,1-1.249,4.613q-.385.178-.769.368a32.925,32.925,0,0,0-5.35,3.236q-1.176.875-2.243,1.842-.533.484-1.041.993a28.922,28.922,0,0,0-2.275,2.6,31.745,31.745,0,0,0-5.719,12.141Zm40.494-.032,5.318,3.076-2.787,1.473-5.286-2.979Zm-4.165,2.37,5.222,3.043-3.268,1.987L1495.9,619.381q.307-1.545.689-3.492l8.2,4.758c.021.106.043.213.064.32a2.16,2.16,0,0,0,1.57,1.537l.577.065c.213-.065.427-.118.641-.16l4.293,2.37-1.7.961,6.119,3.557Zm-4.709-4.357-4.613-2.658.128-3.076,7.24,4.165ZM1651.5,574.161q.687.317,1.458.641a2.237,2.237,0,0,1,0,.8l-1.49-.88C1651.482,574.532,1651.493,574.345,1651.5,574.161Zm-105.385,67.565,2.755,1.57-5.286,2.98L1540.8,644.8Zm13.359-7.721.128,3.076-4.613,2.66-2.755-1.57Zm86.563-64.618a.255.255,0,0,1,.032.033q.011,1.033,0,2.066l-.48-.288a5.757,5.757,0,0,1,.32-1.842A.285.285,0,0,1,1646.04,569.387Zm.016,3.444q-.048,2.123-.176,4.245-.9.042-1.858.032a5.134,5.134,0,0,0-1.938.256c-.058-.129-.117-.268-.176-.416a8.741,8.741,0,0,1,1.7-.961q1.619-.873,1.874-3.493Zm-82.414,58.74,7.24-4.2.288,3.011-7.529,4.358Zm-15.313,17.555-3.268-1.986,5.222-3.043,1.7.993,6.119-3.556-1.7-.961,4.293-2.371q.32.064.641.16l.577-.063a2.161,2.161,0,0,0,1.57-1.538l.064-.32,8.842-5.126a2.546,2.546,0,0,0,1.778-.352q.284,1.445.561,2.883Zm103.062-73.091v-.017l.577.337Zm-165.838,83.343q-.219-.5-.432-.976l-1.153-2.675q-1.177-2.9-2.018-5.223-1.377-3.748-2.179-6.856.027.669.048,1.3l-.192-2.371,2.1-1.362a22.606,22.606,0,0,0,.609-2.819,2.373,2.373,0,0,1,.032-.384,2.852,2.852,0,0,1,.384,1.762q-.064,1.57-.448,4.582a16.016,16.016,0,0,0,1.137,4.853q.35,1.008.817,2.162,1.024,2.595,2.659,6.343a21.4,21.4,0,0,0,4.9-3.364v.352c-.021-.02-.042-.041-.064-.063q.384,2.114-1.986,3.3A34.276,34.276,0,0,1,1485.552,659.378Zm19.142-40.43-7.529-4.356.224-2.4q.074-.281.144-.561l7.16,4.148Zm-11.085,41.616q-.7.576-1.666,1.217a15.716,15.716,0,0,1-4.581,2.339,3.4,3.4,0,0,1-.7-1.378,4.06,4.06,0,0,1-.1-.416,19.186,19.186,0,0,0,6.151-3.268A5.3,5.3,0,0,1,1493.609,660.564Z" transform="translate(-16.176 -73.436)" fill="#b17960" fill-rule="evenodd"/>
    <path id="Trazado_2750" data-name="Trazado 2750" d="M1533.263,652.1l6.119,3.557-2.755,1.569-1.41.8-1.7.994-6.119-3.557,1.7-.961,1.41-.833ZM1569.4,667.9l2.755,1.57,1.409.832,1.7.961-6.119,3.556-1.7-.993-1.41-.8-2.755-1.57Z" transform="translate(-33.34 -103.165)" fill="#ffbd59" fill-rule="evenodd"/>
    <path id="Trazado_2751" data-name="Trazado 2751" d="M1670.671,594.857q-.283-1.709-.448-3.524t-.24-3.716q-.16-5.99,4.773-12.686,4.838-6.791,9.931-15.474a75.621,75.621,0,0,0,7.625-18.421,118.111,118.111,0,0,0,3.2-16.531,7.721,7.721,0,0,0,1.186-.192q.474-.113.865-.192-.107.827-.224,1.65a1.4,1.4,0,0,0-1.153,1.714l.881.128q-.643,4.149-1.618,8.233a99.556,99.556,0,0,1-6.407,18.293,95.944,95.944,0,0,1-10.284,17.076,67.071,67.071,0,0,0-5.19,7.977,24.462,24.462,0,0,0-2.915,13.247,27.212,27.212,0,0,0,.513,3.652q.225,1.093.544,2.195l-.288.256Q1670.976,596.761,1670.671,594.857ZM1646.563,546.4q-.344,7.584.032,15.137.015.332.032.657a100.178,100.178,0,0,0,2.435,17.412q1.922,8.394,3.876,16.691a106.84,106.84,0,0,1,2.563,16.115q.433,5.188.545,10.38.1,4.362-.032,8.73c0,.014,0,.03,0,.048-.006.226-.011.45-.016.673q-.093,3.329-.256,6.648-.063,1.437-.144,2.867a10.905,10.905,0,0,1-2.114-.384c-.092-.018-.183-.04-.272-.065a4.852,4.852,0,0,1-2.739-1.826,5.958,5.958,0,0,1-1.217-4.613,43.591,43.591,0,0,0,.256-8.842q-.1-2.4-.032-4.934.1-2.613.1-5.221a122.225,122.225,0,0,0-.865-14.161,40.486,40.486,0,0,0-1.105-5.767q-.509-1.9-1.2-3.748a91.4,91.4,0,0,1-5.51-25.726q-.321-5-.673-9.931a183.1,183.1,0,0,1-.192-27.391c.012-.19.028-.376.048-.561a16.775,16.775,0,0,0,3.364-.015q.707,7.991,1.394,13.135A9.026,9.026,0,0,0,1646.563,546.4Zm-23.627-10.812a18.1,18.1,0,0,0,3.476,2.948q.16-.769.32-1.57,1.686-9.025,2.146-13.5a9.854,9.854,0,0,0,2.948,2.708c.029.018.055.035.08.047q-1.129,6.025-1.874,12.927a204.951,204.951,0,0,0-1.153,21.72q0,1.73.064,3.524.047,1.3.128,2.643c.009.154.02.31.032.465q.041.762.1,1.537.138,1.824.336,3.7.579,5.585,1.682,11.677a120.029,120.029,0,0,1,2.371,20.28q0,1.225-.08,2.787-.224,4.5-1.105,11.758-.058.438-.112.913-.041.319-.08.656a1.047,1.047,0,0,0-.128-.16,14.179,14.179,0,0,1-2.034-3.124,14.882,14.882,0,0,1-1.281-7.3q.017-.326.048-.657a39.146,39.146,0,0,0,.128-4.485,148.8,148.8,0,0,0-1.858-17.332q-1-6.136-2.178-12.334-.276-1.438-.561-2.883-.131-.7-.272-1.41-.8-4.025-1.3-8.089-.538-4.39-.721-8.825a105.27,105.27,0,0,1,.48-15.346Q1622.707,537.221,1622.936,535.589Zm42.721-128.306a17.537,17.537,0,0,0,0,13.551,128.348,128.348,0,0,0,9.387,19.158q4.934,8.3,9.1,17.076a192.536,192.536,0,0,1,7.5,18.294,128.022,128.022,0,0,1,5.254,19.542,93.234,93.234,0,0,1,1.442,15.345q.011.687.016,1.378,0,1.118-.032,2.243c0,.138-.008.277-.016.416l-2.05-1.234q.01-1.032,0-2.066v-.033q-.007-.583-.016-1.169-.107-4.324-.561-8.634a116.727,116.727,0,0,0-3.844-20.216,143.149,143.149,0,0,0-7.24-19.318q-4.357-9.482-9.195-18.645-4.87-9.194-9.195-17.716a22.429,22.429,0,0,1-1.682-16.435q.267-1.05.625-2.114l.5.561Zm-19.8,60-3.124.625a7.142,7.142,0,0,0,.689-1.426,1.7,1.7,0,0,0-.512-1.7l1.57-.449Zm-24.043,3.252-.288-.721.769.464a.827.827,0,0,0-.432.208Zm8.778,4.693-2.131.433-3.844.752-.336-.208-.272-.16-.256-.657a1.721,1.721,0,0,0,1.153-.481,1.3,1.3,0,0,0,.384-.9,1.739,1.739,0,0,0-.064-.384,14.618,14.618,0,0,0-.737-1.538,8.287,8.287,0,0,0-.481-.785Zm5.814-11.293V460.7l.929-.465.833,2.371a1.741,1.741,0,0,0-.833.192A2.78,2.78,0,0,0,1636.407,463.939Zm-15.858,5.783.769,1.922a23.663,23.663,0,0,1-1.826-1.569c-.064-.058-.127-.116-.192-.176Zm75.687,44.675,2.034,1.217q-.067,1.433-.16,2.868-.991.113-2.051.16Q1696.188,516.52,1696.236,514.4Z" transform="translate(-66.357 -15.002)" fill="#17388e" fill-rule="evenodd"/>
    <path id="Trazado_2752" data-name="Trazado 2752" d="M1639.3,591.642l-.048-3.236q1.345.676,2.755,1.217a24.948,24.948,0,0,0,2.5.786l.048,3.075.016.592-5.254-1.73Z" transform="translate(-73.524 -80.28)" fill="#d8d8d8" fill-rule="evenodd"/>
    <path id="Trazado_2753" data-name="Trazado 2753" d="M1648.619,590.657l.192,2.162a16.774,16.774,0,0,1-3.364.015,25.328,25.328,0,0,1-2.691-.384l-.048-3.076a28.407,28.407,0,0,0,5.735.864Zm-11.165-3.284.048,3.236c-.072-.045-.147-.094-.224-.145-.025-.013-.051-.029-.08-.047a9.854,9.854,0,0,1-2.947-2.708q.085-.8.128-1.457.019-.357.048-.721.255.2.529.4Q1636.174,586.713,1637.454,587.373Z" transform="translate(-71.728 -79.247)" fill="#522b1c" fill-rule="evenodd"/>
    <path id="Trazado_2754" data-name="Trazado 2754" d="M1737.687,568.176q3.04,1.621,7.16,4.309a.128.128,0,0,1-.032.1,1.244,1.244,0,0,1-1.249.513,13.687,13.687,0,0,1-2.243-.929,7.753,7.753,0,0,0-2.275-.865q-.771-.324-1.458-.641Q1737.653,569.419,1737.687,568.176Zm.913,11.838a2.881,2.881,0,0,0-1.538-.1c-.094.018-.189.034-.288.048l-.833.177q-.289-.48-.48-.737-.257-.512-.641-.512h-.1a4.619,4.619,0,0,0,2.051-.993c.091-.1.177-.186.256-.273q.5-.536.833-.945.161.866.673,2.755A2.957,2.957,0,0,1,1738.6,580.013Zm-6.439-14.1a.251.251,0,0,0-.032-.033.07.07,0,0,0,.032,0Zm-5.639,9.546q.76-.02,1.57,0c.285.007.573.017.865.033q1.679.129,2.851.208,1.323.073,2.018.08h.128q.865,0,1.089.385-.669.11-1.281.224-1.122.227-2.051.481c-.222.064-.436.128-.641.192a8.132,8.132,0,0,1-1.826.24q-.453.016-.993.016h-.224q-1.505-1.666-1.6-1.762h.064A.13.13,0,0,1,1726.522,575.464Zm-3.3-7.848a12.494,12.494,0,0,1-1.538-2.612,4.718,4.718,0,0,1-.417-2.162l2.643,1.586a2.308,2.308,0,0,0-.24.4,5.041,5.041,0,0,0-.336,1.01.312.312,0,0,1-.016.047,5.751,5.751,0,0,0-.128,1.217A4.21,4.21,0,0,0,1723.222,567.615Zm3.781,2.947a4.312,4.312,0,0,1,.769-2.082,13.536,13.536,0,0,1,.9-1.218l2.9,1.73q-.256,2.621-1.874,3.493a8.743,8.743,0,0,0-1.7.961A15.587,15.587,0,0,1,1727,570.563Zm-7.753-7.241h.016q.523.423,1.073.834c.045.033.088.065.128.1A11.957,11.957,0,0,1,1719.25,563.322Zm5.623.289-3.236-1.938a3.232,3.232,0,0,1,1.3-1.121,10.46,10.46,0,0,1,3.78-.945.855.855,0,0,1,.16.224q.769,1.152,2.146,3.14a2.284,2.284,0,0,1-.385-.033,9.224,9.224,0,0,0-2.947.32c-.2.071-.387.146-.561.224Q1725,563.547,1724.873,563.611Zm6.808,4.085-2.242-1.346a.268.268,0,0,1,.16-.112q.64-.737,2.4-.384A5.753,5.753,0,0,0,1731.68,567.7Z" transform="translate(-102.265 -69.933)" fill="#e6987b" fill-rule="evenodd"/>
    <path id="Trazado_2755" data-name="Trazado 2755" d="M1591.712,504.676a5.138,5.138,0,0,1,.24-3q4.249,2.079,6.151,3.188a13.1,13.1,0,0,1,4,3.2q.865,1.314,6.824,2.883c.13.034.258.066.385.1q2.851.753,4.645,1.362a.849.849,0,0,1,.08.033l.272.688a2.2,2.2,0,0,1-.144.449,1.321,1.321,0,0,1-1.105.866.575.575,0,0,1-.256.064q-1.513.11-2.5.192-.435.036-.769.065a10.478,10.478,0,0,1-3.2-.256q-1.506.128-2.274.128a2.683,2.683,0,0,1-1.986-.832q-2.595-2.948-3.94-4.325a15.066,15.066,0,0,0-4.709-3.4,4.018,4.018,0,0,1-1.506-1.185C1591.851,504.821,1591.781,504.746,1591.712,504.676Zm22.089,4.837h-.32l-.673-.111h-.016a24.335,24.335,0,0,1-3.011-.721c-.083-.035-.164-.067-.24-.1a3.9,3.9,0,0,1-.609-.289,6.009,6.009,0,0,1-1.057-.9,9.5,9.5,0,0,0-.865-.8,8.01,8.01,0,0,0-.641-.513.347.347,0,0,1,.16-.256,1.067,1.067,0,0,0,.16-.128,11.435,11.435,0,0,1,2.915,1.345,14.627,14.627,0,0,0,2.435.417q.454.048.977.1,1,.1,2.259.192a1.743,1.743,0,0,1,.064.384,1.3,1.3,0,0,1-.385.9A1.721,1.721,0,0,1,1613.8,509.513Z" transform="translate(-56.405 -49.122)" fill="#c0755a" fill-rule="evenodd"/>
    <path id="Trazado_2756" data-name="Trazado 2756" d="M1673.438,520.249q-.187-.442-.368-.881.185.421.368.849Zm10.444,20.1q-.181-.276-.352-.528-1.378-1.987-2.146-3.14a.852.852,0,0,0-.16-.224,10.462,10.462,0,0,0-3.78.945l-.448-.625q-.293-.4-.577-.8a.337.337,0,0,1-.032-.065,7.4,7.4,0,0,1,4.325-1.826,3.423,3.423,0,0,1,.721-.016q.494.92.977,1.842.352.674.769,1.346A4.658,4.658,0,0,1,1683.881,540.352Zm-85.922-43.633a7.627,7.627,0,0,0-4.709,1.265l-.625-.641a9.7,9.7,0,0,1,.945-.9,6.1,6.1,0,0,1,2.675-1.153c.229-.047.464-.085.7-.113q.656.769,1.3,1.554C1598.149,496.724,1598.053,496.719,1597.959,496.718Z" transform="translate(-56.773 -46.787)" fill="#ebeaf5" fill-rule="evenodd"/>
    <path id="Trazado_2757" data-name="Trazado 2757" d="M1592.271,496.295a4.114,4.114,0,0,0-.929,1.362,5.141,5.141,0,0,0-.24,3c.038.206.087.42.144.641l-1.346-1.041q.049-.428.112-.834a9.417,9.417,0,0,1,.657-2.21,5.9,5.9,0,0,1,.9-1.458c.028-.032.054-.064.08-.1Zm63.689,43.41c-.008-.11-.014-.222-.016-.336.024.117.051.229.08.336Zm17.348-2.595,1.49.9a4.716,4.716,0,0,0,.417,2.162q-.668-.384-1.217-.752c-.04-.031-.083-.063-.128-.1q-.551-.41-1.073-.834a.211.211,0,0,1-.032-.031A14.188,14.188,0,0,1,1673.307,537.11Zm1.858-.272-1.3-.77a7.655,7.655,0,0,1,.833-1.137l.7-.705a.336.336,0,0,0,.032.065q.283.4.577.8l.448.625A3.232,3.232,0,0,0,1675.166,536.838Zm-76.68-46.357q1,.06,1.538.08,1.666.159,4.389.288.649.037,1.362.08l-1.362-.047q-2.723-.161-4.357-.289Q1599.511,490.563,1598.486,490.481Zm34.023,65.611a28.4,28.4,0,0,1-5.735-.864,24.948,24.948,0,0,1-2.5-.786c.1-.109.216-.22.336-.336q.728-.759,1.746-1.795,1.075-1.092,2.467-2.483.426-.439.833-.865Zm-.417-9.771q.231,3.481.448,7.448l-2.21-5.526Q1631.249,547.266,1632.092,546.32Z" transform="translate(-55.794 -45.099)" fill="#cac7e2" fill-rule="evenodd"/>
    <path id="Trazado_2758" data-name="Trazado 2758" d="M1587.985,483.512q-.047-.058-.1-.111-1.506-1.635-4.966-4.966h-.032a25.82,25.82,0,0,0-6.536-5.575l-.881-.512a6.736,6.736,0,0,1,.961-.1h1.265c.065,0,.129,0,.192,0l2.467.048q1.362-.032,3.011-.144a.142.142,0,0,1,.032.033q2.231,1.614,4.581,3.075a22.467,22.467,0,0,0,6.359,2.675,23.256,23.256,0,0,0,8.986.4,21.583,21.583,0,0,0,5.959-1.809,25.855,25.855,0,0,0-2.979,8.009q-1.445-.062-3.14-.113l-2.579-.08q-.712-.043-1.362-.08-2.723-.128-4.389-.288-.536-.02-1.538-.08l-4.613-.32a.8.8,0,0,0-.112-.016.849.849,0,0,0-.112-.017C1588.309,483.533,1588.149,483.522,1587.985,483.512Zm63.593,3.413a15.189,15.189,0,0,1,1.233,1.121,3,3,0,0,0-.881-.224q-1.473-.129-5.062,6.535-3.589,6.633-3.62,9.708a12.336,12.336,0,0,0,0,1.249c0,.02,0,.041,0,.064a1.073,1.073,0,0,1,0,.112.315.315,0,0,1,0,.048c0,.053.01.106.016.16l.208,1.153q.135.406.352.449a3.465,3.465,0,0,1,.753.289l2.707,1.505a.889.889,0,0,1,.1.048.755.755,0,0,1,.1.049,1.141,1.141,0,0,0,.1.063.922.922,0,0,0,.1.064,1,1,0,0,0,.1.064l6.5,5.638.465.529q-.719,2.227-1.634,4.6l-11.277-6.76q.011-3.148.24-5.542a26.52,26.52,0,0,1,.865-5.351l.448-1.922v.032a40.232,40.232,0,0,1,2.146-5.189,24.931,24.931,0,0,1,5.254-7.753,3.651,3.651,0,0,0,.593-.513C1651.433,487.078,1651.5,487,1651.578,486.925Zm-.817,45.86c0,.115.008.227.016.336q.026.327.048.657l.016.1c.009.072.019.147.032.224a.251.251,0,0,1,0,.063l.032.24q.044.349.1.7.385,1.731.7,3.14,5.927,15.57,6.279,17.044a9.168,9.168,0,0,1-1.121,5.446,11.947,11.947,0,0,1-3.908,4.1q-.545.353-1.089.673a16.5,16.5,0,0,0,1.025-6.279q-.083-1.682-4.6-15.746-.738-2.284-1.586-4.885-.353-1.474-.8-3.14-.449-1.154-.993-2.435a30.481,30.481,0,0,1-2.659-9.611q-.354-4.771-.417-8.554l10.813,6.44q-.131.355-.272.7A24.518,24.518,0,0,0,1650.761,532.784Z" transform="translate(-50.612 -38.515)" fill="#9d0948" fill-rule="evenodd"/>
    <path id="Trazado_2759" data-name="Trazado 2759" d="M1592.576,485.114q.156-.785.32-1.586a4.468,4.468,0,0,0,2.05-1.329,9.806,9.806,0,0,0,1.137-1.426l3.124-.625.9,1.922,7.865-5.43q-1.031,1.616-2.131,3.284-5.256,3.5-9.931,3.524A3.923,3.923,0,0,0,1592.576,485.114Zm-.5-19.3q.392.6.833,1.186l-5,5.974q-.022-1.314.032-2.546A25.577,25.577,0,0,1,1592.08,465.812Zm-2.323,7.754V476.8a6.062,6.062,0,0,0-.256.625,13.154,13.154,0,0,0-.609,3.2,2.191,2.191,0,0,0,.609,1.7,7.42,7.42,0,0,0-.9,1.09v-.16q0-1.6-.256-4.55c-.006-.065-.012-.129-.016-.192q-.024-.228-.048-.433v-.016q-.228-2.189-.256-2.5-.037-.556-.064-1.106Zm-99.266-22.779-.112-.112a9.161,9.161,0,0,0-.929-.865,24.685,24.685,0,0,0,.9-3.171q.192-1.09.32-1.922a.219.219,0,0,1,.16.063q1.122.449,1.954.865a10.941,10.941,0,0,0,.448,1.731q-.6-.293-1.313-.705-.032.064-1.345,3.876Q1490.53,450.666,1490.491,450.786Zm10.22-4.853-.369-.129q-2.563-.9-2.819-.961a4.4,4.4,0,0,0-.256,1.7,1.571,1.571,0,0,1-.1.337q-.745-1.1-1.41-1.939a14.458,14.458,0,0,0,.064-2.435,21.742,21.742,0,0,1,4.453,1.794.187.187,0,0,1,.064.128,4.225,4.225,0,0,1,.1.513V445a1.317,1.317,0,0,1,.192.577C1500.658,445.7,1500.685,445.813,1500.711,445.934Z" transform="translate(-19.706 -27.863)" fill="#abb1eb" fill-rule="evenodd"/>
    <path id="Trazado_2760" data-name="Trazado 2760" d="M1772.748,553.649q0-14.416-8.842-19.51-8.81-5.126-21.3,2.018-12.463,7.177-21.3,22.426-8.81,15.25-8.81,29.667t8.81,19.542q8.842,5.126,21.3-2.05,12.494-7.145,21.3-22.394Q1772.748,568.065,1772.748,553.649Zm-18.741,23.963q-4.742,8.2-11.405,12.014-6.7,3.844-11.437,1.089t-4.741-10.508q0-7.721,4.741-15.954a31.743,31.743,0,0,1,11.437-12.014q6.664-3.813,11.405-1.09,4.742,2.788,4.741,10.509A31.817,31.817,0,0,1,1754.007,577.612Zm29.89-30.37q0,19.734-12.11,40.654-12.077,20.92-29.185,30.723-17.075,9.836-29.186,2.82-12.078-7.049-12.078-26.783t12.078-40.623q12.11-20.919,29.186-30.755,17.108-9.8,29.185-2.787Q1783.9,527.507,1783.9,547.241Zm-231.849-113.6a3.3,3.3,0,0,0-.1.448,6.307,6.307,0,0,1-.48,1.218,4.408,4.408,0,0,1-.993,1.089,2.706,2.706,0,0,1-2.339.577,2.664,2.664,0,0,1-1.858-1.6.092.092,0,0,0-.032-.063,3.782,3.782,0,0,1-.224-2.627,2.493,2.493,0,0,1,.1-.385,4.288,4.288,0,0,1,.416-.9,3.241,3.241,0,0,1,.961-1.121,2.805,2.805,0,0,1,2.339-.513,2.762,2.762,0,0,1,1.858,1.538.369.369,0,0,1,.064.1A4.2,4.2,0,0,1,1552.047,433.639Zm-20.375.448-.032-.032v-.031Zm-15.41,38.444q-1.955-.384-3.908-.8a7.917,7.917,0,0,1,2.883-3.4l3.364,1.346a4.5,4.5,0,0,0-.961.672,4.06,4.06,0,0,0-.961,1.281Q1516.487,472.083,1516.262,472.531Zm91.849-8.793q-2.278,3.955-5.046,8.3l-7.865,5.43-.9-1.922-1.378-2.947-.7-1.522-.128-.272,2.931-1.811.208.144a10.918,10.918,0,0,1,1.281.93,2.126,2.126,0,0,0,1.474.417,7.593,7.593,0,0,0,4.421-1.474,36.881,36.881,0,0,0,3.3-8.025Zm-16.243,25.9-5.158-3.092q.381-2.966.961-6.039a3.923,3.923,0,0,1,3.332-1.666q4.675-.026,9.931-3.524-1.519,2.319-3.172,4.741A91.37,91.37,0,0,0,1591.869,489.639Zm-13.615,9.1-1.618-4.021q-.031-.857-.048-1.585a76.15,76.15,0,0,1,.32-9.211l2.131-.433,1.954,1.17q-.282.843-.561,1.777A59.584,59.584,0,0,0,1578.253,498.738Zm12.847,25.741q-.844.946-1.762,1.922l-2.691-6.712q0-.046,0-.1.48-4.1-.448-14.832a82.907,82.907,0,0,1,.336-16.8l4.773,2.852a13.078,13.078,0,0,0-.593,1.618,57.138,57.138,0,0,0-1.474,6.054q-.417,2.659.545,10.8Q1590.475,515.131,1591.1,524.479Zm-7.4-45.668a20.446,20.446,0,0,0-2.259,4.581l-1.938-1.153-1.586-4.645a39.476,39.476,0,0,1,3.732-9.515,22.284,22.284,0,0,1,1.394-2.259q-.055,1.232-.032,2.546l-2.195,2.627,2.243-1.137q.026.55.064,1.106.027.309.256,2.5v.016q.024.206.048.433c0,.063.01.127.016.192q.256,2.948.256,4.55Zm-.416,53.789q-1.41-.54-2.755-1.217-1.279-.66-2.5-1.442-.274-.2-.529-.4.045-.851.112-1.747.16-4.325-.032-9.867-.385-8.233-.545-12.4-.207-4.855-.32-8.281l1.394,3.493a132.647,132.647,0,0,0,.465,19.333q2.338,9.868,4.677,10.636,2.655-2.543,3.252-8.986l2.163,5.4q-.408.427-.833.865-1.391,1.391-2.467,2.483-1.018,1.035-1.746,1.795C1583.5,532.38,1583.387,532.491,1583.283,532.6Zm-91.273-99.826a22.416,22.416,0,0,1,3.364,6.92,21.743,21.743,0,0,0-4.453-1.794q-1.858-.64-4.485-1.377l-.064.192a1.53,1.53,0,0,1-.064.481v.064q-.064.193-.545,2.852-.128.832-.32,1.922a24.7,24.7,0,0,1-.9,3.171q-.929-.928-1.922-1.858-6.087-5.669-6.792-10.156a3.921,3.921,0,0,1-.032-.481v-.256a3.41,3.41,0,0,1,.288-1.057q.065-.14.144-.3c.026.1.053.206.08.3a3.223,3.223,0,0,0,.384.768,7.643,7.643,0,0,0,3.3,2.435,23.625,23.625,0,0,0,4,1.217,20.857,20.857,0,0,0,6.6-1.442q-.16-.36-.3-.736A2.543,2.543,0,0,0,1492.01,432.774Zm33.767,8.65q-2.915-.608-5.222-4,.736-2.21,1.666-4.356a1.229,1.229,0,0,1,.1-.257l.352.353q.192.191.417.384.512.448,1.089.9a16.878,16.878,0,0,0,2.979,1.826q-.32,1.249-.641,2.5Q1526.13,440.078,1525.777,441.424Z" transform="translate(-14.802 -23.257)" fill="#f0f0ff" fill-rule="evenodd"/>
    <path id="Trazado_2761" data-name="Trazado 2761" d="M1639.259,473.6a21.2,21.2,0,0,0,1.842,3.348,25.581,25.581,0,0,0-4.133,4.614,22.264,22.264,0,0,0-1.394,2.259,39.482,39.482,0,0,0-3.732,9.515l-.432-1.281-2.227-1.218,1.041-.481-2.883-3.076,8.842-12.158q1.076-.807,2.211-1.553l.1-.065c.021.033.043.065.064.1Zm-12.542,13.008-.817-.865q.223-.319.448-.625c.021-.033.042-.065.064-.1a46.352,46.352,0,0,1,7.1-7.754Zm26.174,23.034-7.1-4.261a91.376,91.376,0,0,1,5.895-9.579q1.652-2.422,3.172-4.741,1.1-1.668,2.13-3.284,2.768-4.342,5.046-8.3c.046-.07.088-.139.128-.209l3.268,3.2q-.1.237-.208.481a166.526,166.526,0,0,0-6.1,17.011q-.416,1.41-.7,2.883l-8.266,2.6,3.236,3.459Q1653.132,509.265,1652.891,509.642Zm-7.417,38.028q-.218-3.967-.448-7.448-.625-9.348-1.313-15.2-.961-8.137-.545-10.8a57.143,57.143,0,0,1,1.474-6.054,13.1,13.1,0,0,1,.593-1.618l7,4.181a29.648,29.648,0,0,0-2.355,5.333q-.527,1.58-.961,3.332-.608,2.45-1.057,5.238l-.641,5.96c-.005.075-.01.15-.016.224q-.329,4.306-.609,7.576-.637,7.387-1.041,9.483Zm-14.641-48.006a76.125,76.125,0,0,0-.32,9.211q.017.728.048,1.585l-3.684-9.178q.074-.371.144-.609l-.368-.465.336.208Zm-.192,13.327q.114,3.426.32,8.281.161,4.165.545,12.4.192,5.543.032,9.867-1.25-1.986-1.666-7.945-.257-10.732-.385-13.9-.128-2.212-1.89-12.046-.672-3.721-1.105-6.183a2.21,2.21,0,0,0,.144-.449Z" transform="translate(-68.728 -39)" fill="#ff9fc8" fill-rule="evenodd"/>
    <path id="Trazado_2762" data-name="Trazado 2762" d="M1650.638,482.34l-1.618,7.368a2.4,2.4,0,0,0-.256-.032,2.754,2.754,0,0,0-.48-.031l-.833-2.371,2.851-5.317Q1650.463,482.152,1650.638,482.34Z" transform="translate(-76.47 -42.036)" fill="#a6a4cf" fill-rule="evenodd"/>
    <path id="Trazado_2763" data-name="Trazado 2763" d="M1651.518,482.555a32.644,32.644,0,0,0,6.055,5.43l-2.931,1.811.128.272-1.778,1.154a7,7,0,0,0-1.506-.834q-.275-.112-.561-.208c-.1-.031-.192-.058-.288-.08a5.69,5.69,0,0,0-.737-.177Z" transform="translate(-77.35 -42.252)" fill="#c18368" fill-rule="evenodd"/>
    <path id="Trazado_2764" data-name="Trazado 2764" d="M1647.517,481.516l-2.851,5.318-.929.465-1.794.9-2.243,1.137,2.195-2.627,5-5.974Q1647.194,481.123,1647.517,481.516Z" transform="translate(-73.686 -41.596)" fill="#fff" fill-rule="evenodd"/>
    <path id="Trazado_2765" data-name="Trazado 2765" d="M1648.651,502.012a2.433,2.433,0,0,1-1.442-.047,4.9,4.9,0,0,1-1.954-1.154,2.191,2.191,0,0,1-.609-1.7,13.154,13.154,0,0,1,.609-3.2,6.062,6.062,0,0,1,.256-.625,2.78,2.78,0,0,1,.929-1.137,1.741,1.741,0,0,1,.833-.192,2.754,2.754,0,0,1,.48.031,2.41,2.41,0,0,1,.256.032,5.693,5.693,0,0,1,.737.177c.1.022.192.049.288.08q.285.1.561.208a6.994,6.994,0,0,1,1.506.834,6.067,6.067,0,0,1,.625.528c.056.053.109.106.16.16s.087.085.128.129a1.7,1.7,0,0,1,.512,1.7,7.136,7.136,0,0,1-.689,1.426,9.807,9.807,0,0,1-1.137,1.426A4.467,4.467,0,0,1,1648.651,502.012Z" transform="translate(-75.461 -46.347)" fill="#3156b5" fill-rule="evenodd"/>
    <path id="Trazado_2766" data-name="Trazado 2766" d="M1657.208,495.8l-1.57.449c-.041-.044-.084-.087-.128-.129s-.1-.108-.16-.16a6.067,6.067,0,0,0-.625-.528l1.778-1.154Z" transform="translate(-79.084 -46.464)" fill="#a3a7cf" fill-rule="evenodd"/>
    <path id="Trazado_2767" data-name="Trazado 2767" d="M1701.524,516.449l-3.348-2c.008-.139.013-.278.016-.416q.03-1.125.032-2.243-.006-.692-.016-1.378a93.234,93.234,0,0,0-1.442-15.345,128.022,128.022,0,0,0-5.254-19.542,192.536,192.536,0,0,0-7.5-18.294q-4.165-8.778-9.1-17.076a128.348,128.348,0,0,1-9.387-19.158,17.537,17.537,0,0,1,0-13.551,5.752,5.752,0,0,0,.833-.289,14.47,14.47,0,0,0-.512,7.978,42.512,42.512,0,0,0,6.279,14.737q4.165,6.279,7.945,12.975,3.749,6.663,7.529,14a141.989,141.989,0,0,1,6.375,14.192,1.557,1.557,0,0,1,.1.16v.064a108.4,108.4,0,0,1,7.609,40.654q-.012.745-.032,1.49-.033,1.244-.1,2.483C1701.548,516.072,1701.537,516.259,1701.524,516.449Zm-4.581,11.325a16.715,16.715,0,0,0,1.874.16,6.5,6.5,0,0,0,1.6-.288,84.954,84.954,0,0,1-3.4,15.249q-3.235,9.579-5.446,13.392-2.21,3.779-4.838,7.656a94.479,94.479,0,0,1-6.023,7.882,44.619,44.619,0,0,0-5.446,7.592,27.36,27.36,0,0,0-2.979,8.233,39.091,39.091,0,0,0,.256,7.048,6.3,6.3,0,0,0,.16,1.506,7.613,7.613,0,0,1,.32,1.505l-1.442.737q-.319-1.1-.544-2.195a27.212,27.212,0,0,1-.513-3.652,24.462,24.462,0,0,1,2.915-13.247,67.071,67.071,0,0,1,5.19-7.977,95.944,95.944,0,0,0,10.284-17.076,99.556,99.556,0,0,0,6.407-18.293Q1696.3,531.923,1696.943,527.774Zm-76.6-61.591-1.394-3.444,3.78,2.082.8.433,3.156,1.745,2.227,1.218.433,1.281,1.586,4.645-9.13-5.479a1.6,1.6,0,0,0-.448-.256l-.08-.048-.08-.047-.353-.881Zm17.8,12.27-5.27-3.156a20.446,20.446,0,0,1,2.259-4.581,7.406,7.406,0,0,1,.9-1.09,4.9,4.9,0,0,0,1.954,1.154,2.433,2.433,0,0,0,1.442.047q-.163.8-.32,1.586Q1638.521,475.487,1638.14,478.453Zm-.064,33.142-8.394-20.951a59.584,59.584,0,0,1,2.178-12.3q.279-.934.561-1.777l5.542,3.3a82.907,82.907,0,0,0-.336,16.8q.929,10.732.448,14.832Q1638.074,511.548,1638.076,511.595Zm-.144,2.035q-.6,6.441-3.252,8.986-2.338-.769-4.677-10.636a132.647,132.647,0,0,1-.465-19.333Zm60.758,10.492h.1q.385,0,.641.512.192.257.48.737v.032c-.192.042-.395.085-.609.128a5.659,5.659,0,0,0-.737.128c-.106.021-.208.043-.3.065l-.256.048-.432.08a1.5,1.5,0,0,0-.192.032,1.671,1.671,0,0,0-.16.048q.118-.824.224-1.65A6.989,6.989,0,0,1,1698.689,524.122Zm-.544-8.346,3.3,1.97v.017l-.352-.208a5.357,5.357,0,0,1-1.858.9q-.611.109-1.249.193Q1698.078,517.209,1698.145,515.775Z" transform="translate(-66.231 -15.163)" fill="#5c83e6" fill-rule="evenodd"/>
    <path id="Trazado_2768" data-name="Trazado 2768" d="M1508.144,415.564q.48-.352,1.121-.8,1.089-.832,2.595-1.954l-.1-.1a8.566,8.566,0,0,0-2.5.928q-.32.16-.7.32a10.359,10.359,0,0,0-1.6.929l-.224-.128a5.686,5.686,0,0,1-.833-.577h-.064l.064-.031h-.064a2.679,2.679,0,0,1,.352-.545l.769-.736a1.48,1.48,0,0,1,.16-.1,14.641,14.641,0,0,1,7.465-1.41,9.022,9.022,0,0,1,1.954.289,7.3,7.3,0,0,1,5.03,3.14,5.977,5.977,0,0,1-1.506.384,6.339,6.339,0,0,1-2.242-.449,5.382,5.382,0,0,0-1.666-.449,5.543,5.543,0,0,0-2.659.545q-.673.384-.737.77l-1.506.832a7.483,7.483,0,0,0-1.986-.481.451.451,0,0,0-.192-.031,2.441,2.441,0,0,1-.8-.32Zm-35.064-8.009q.725.428,1.586.865a26.263,26.263,0,0,0,9.579,2.772q.939.074,1.89.08a51.848,51.848,0,0,0,5.254-.289q-.015.4-.048.77l-2.1-.353-.384-.032q-.257-.063-.513.289a1.545,1.545,0,0,0-.448.8c-.021.085-.043.17-.064.256a1.608,1.608,0,0,0,0,.641.573.573,0,0,0,.288.512l2.05.577v.064l.721.224q-.06.236-.128.481a20.868,20.868,0,0,1-1.394,3.46l-.432.834q-.59,1.1-1.458,2.706-.263.464-.545.978a6.389,6.389,0,0,1-1.121,1.633,2.544,2.544,0,0,1-1.714.866,2.391,2.391,0,0,1-.5-.033,20.613,20.613,0,0,1-7.673-2.755q-1.08-.633-2.163-1.41a11.74,11.74,0,0,1-1.858-1.538q-.393-.4-.8-.865-.344-.384-.817-.944-.218-.265-.464-.561l-.9.352a19.951,19.951,0,0,1-2.723-1.617q-.239-.19-.448-.369-.237-.193-.449-.4a6.144,6.144,0,0,1-1.7-2.547,1.525,1.525,0,0,1-.032-1.025q.032-.16.32-.994a3.4,3.4,0,0,1,2.691.673,5.023,5.023,0,0,1,1.794,2.21,1.605,1.605,0,0,0,.448,1.217l1.233,1.826a6.063,6.063,0,0,0,.625.193,54.726,54.726,0,0,1,1.89-6.28Zm53.806,68.976c.021-.086.043-.16.064-.224a7.112,7.112,0,0,0-1.057-3.012q-1.089-1.986-1.73-2.05h-.032a1.069,1.069,0,0,0-.032.384q0,.033.641,1.474a6.329,6.329,0,0,1,.609,2.434v.289a11.8,11.8,0,0,1-.769,1.569,16.512,16.512,0,0,1-1.057,1.442,16.9,16.9,0,0,0-.288-2.883q-.449-2.37-1.378-2.466.064.512.288,1.7a9.718,9.718,0,0,1,.192,1.313,5.3,5.3,0,0,1-.545,1.858,5.336,5.336,0,0,0-.256.673l-1.121,1.249-1.121-.8q.224-.672.384-1.378a2.7,2.7,0,0,0-.1-1.089,2.1,2.1,0,0,0-.609-.994q-.641-.481-1.346-.928a9.555,9.555,0,0,0-2.307-3.268,7.9,7.9,0,0,1-2.819-5.735,4.3,4.3,0,0,1,.769-2.146,5.356,5.356,0,0,0,.769-1.505,3.415,3.415,0,0,0-.032-.481q3.62.544,7.208,1.281,2.05.512,4.229,1.185,5.125,2.211,10.444,4.613l-.384.77q-.513-.193-1.153-.384-3.781-1.025-4.421-1.25-2.018-1.057-3.428-1.7-2.755-1.217-2.755.32,0,.321,2.819,1.858-1.057-.224-2.082-.416a7.88,7.88,0,0,1,1.954,2.467,10.857,10.857,0,0,1,1.217,5.157Zm-53,121.675q.234.8.5,1.538a4.97,4.97,0,0,0,.032.545,15.1,15.1,0,0,0-1.474.929q-4.1,2.756-5.959,3.044v-.192a41.227,41.227,0,0,0-3.316-15.169c-.056-.137-.115-.27-.176-.4a2.21,2.21,0,0,0,.1-.289A98.784,98.784,0,0,0,1459,569.821a22.818,22.818,0,0,1-.256-7.4,2.587,2.587,0,0,1,.48-.481,54.193,54.193,0,0,1,6.375-5.735c.058-.036.112-.068.16-.1l8.57-2.948q.74-.263,1.554-.544l.416-.145q1.134-.393,2.115-.721a1.2,1.2,0,0,1-.064.16q-.16.3-.769,1.314-.335.559-.817,1.345-.55.9-1.3,2.114-2.275,4.1-2.275,5.671v.063a47.9,47.9,0,0,0-1.057,9.451q-.124,3.7-.032,10.989l-.048,1.585.192,2.371q.075,1.591.144,2.963.1,1.271.256,2.4c.018.2.04.407.064.609q.04.27.08.544l.1.529a38.338,38.338,0,0,0,.849,3.844Zm177.307-80.347q-4.12-2.687-7.16-4.309.02-.746.032-1.49,3.374,2.04,7,4.645A.777.777,0,0,1,1651.188,517.858Zm-10.828.929q.638-.084,1.249-.193a5.356,5.356,0,0,0,1.858-.9l.352.208.577.32q.278.17.561.336l.689.417a5.1,5.1,0,0,1-1.442,3.044v.031q-.332.409-.833.945c-.079.087-.165.177-.256.273a4.619,4.619,0,0,1-2.05.993,7,7,0,0,0-1.249.16q-.391.079-.865.192a7.719,7.719,0,0,1-1.185.192,3.276,3.276,0,0,1-.961-.032,7.8,7.8,0,0,1-2.114-1.762l-.32-.32h.224q.54,0,.993-.016a8.13,8.13,0,0,0,1.826-.24c.205-.065.419-.128.641-.192q.929-.254,2.05-.481.613-.114,1.281-.224-.224-.385-1.089-.385h-.128q-.7-.007-2.018-.08-1.172-.079-2.851-.208c-.292-.015-.58-.026-.865-.033q-.81-.02-1.57,0a2.681,2.681,0,0,1,1.65-1.6,5.134,5.134,0,0,1,1.938-.256q.954.01,1.858-.032Q1639.369,518.9,1640.36,518.787Zm2.435,9a6.505,6.505,0,0,1-1.6.288,16.726,16.726,0,0,1-1.874-.16l-.881-.128a1.4,1.4,0,0,1,1.153-1.714,1.661,1.661,0,0,1,.16-.048,1.5,1.5,0,0,1,.192-.032l.432-.08.256-.048c.1-.022.2-.044.3-.065a5.667,5.667,0,0,1,.737-.128c.214-.044.416-.086.609-.128v-.032l.833-.177c.1-.014.195-.03.288-.048a2.882,2.882,0,0,1,1.538.1,2.347,2.347,0,0,1-1.185,1.954A4.565,4.565,0,0,1,1642.794,527.789ZM1580.4,443.933l-2.275,3.124c-.046-.123-.093-.251-.144-.384a8.185,8.185,0,0,0,0-2.788v-.1q-.14-.648-.529-2.339a19.775,19.775,0,0,0,2.034,1.793Q1579.954,443.609,1580.4,443.933Zm.577,9.322a21.2,21.2,0,0,1-1.842-3.348q-.1-.229-.192-.465-.151-.372-.288-.753c-.046-.177-.1-.381-.176-.609l2.659-3.652a9.673,9.673,0,0,0,5.11,1.858q4.26,0,9.387-5.478a30.865,30.865,0,0,0,2.851-3.524q.206.713.417,1.345a16.372,16.372,0,0,0,.8,2.05c.042.107.085.2.128.289a.491.491,0,0,0,.1.128l.048-.031c.037.215.074.44.112.672a8.669,8.669,0,0,1,.561,2.516,13.162,13.162,0,0,1,.016,1.713q0,.033-.481,4.261-.29,1.426-.673,2.8a36.888,36.888,0,0,1-3.3,8.025,7.594,7.594,0,0,1-4.421,1.474,2.125,2.125,0,0,1-1.474-.416,10.929,10.929,0,0,0-1.281-.93l-.208-.144a32.641,32.641,0,0,1-6.055-5.43q-.175-.187-.336-.384-.323-.393-.625-.785Q1581.371,453.858,1580.98,453.255Zm-15.874,11.709-3.78-2.082,1.394,3.444q-1.883-.337-2.162-.368a6.337,6.337,0,0,0-2.307.031q-.2.695-.417,1.378a8.26,8.26,0,0,1,1.121.7,30.631,30.631,0,0,1,2.531,2.067l.064.064c.065.06.128.119.192.176a23.675,23.675,0,0,0,1.826,1.569,1.859,1.859,0,0,0,.192.128q.159-.1.16-1.089l.144-.144.048-.049a.829.829,0,0,1,.432-.208l1.714,1.025a8.305,8.305,0,0,1,.481.785,14.618,14.618,0,0,1,.737,1.538q-1.26-.1-2.259-.192-.524-.048-.977-.1a14.63,14.63,0,0,1-2.435-.417,11.433,11.433,0,0,0-2.915-1.345,1.061,1.061,0,0,1-.16.128.347.347,0,0,0-.16.256,8.034,8.034,0,0,1,.641.513,9.5,9.5,0,0,1,.865.8,6,6,0,0,0,1.057.9,3.889,3.889,0,0,0,.609.289c.077.029.157.061.24.1a24.34,24.34,0,0,0,3.011.721h.016l.673.111q-.316,0-.625-.016l1.185,2.948a.833.833,0,0,0-.08-.033q-1.794-.609-4.645-1.362c-.126-.03-.255-.062-.385-.1q-5.959-1.57-6.824-2.883a13.1,13.1,0,0,0-4-3.2q-1.9-1.109-6.151-3.188a4.114,4.114,0,0,1,.929-1.362,7.627,7.627,0,0,1,4.709-1.265l.192.144a30.6,30.6,0,0,0,4.069-2.114,6.416,6.416,0,0,1,4.357-.7q1.185.1,3.524.256a18.347,18.347,0,0,1,1.89.273,11.121,11.121,0,0,1,1.506.432,1.716,1.716,0,0,1,.288.737Zm73.4,46.293a.069.069,0,0,1-.032,0,.286.286,0,0,0-.128-.031q-1.763-.353-2.4.384a.268.268,0,0,0-.16.112l-4.565-2.738q.123-.063.256-.129c.174-.078.36-.153.561-.224a9.225,9.225,0,0,1,2.947-.32,2.289,2.289,0,0,0,.384.033q.172.252.352.528.333.475.7,1.009a15,15,0,0,1,1.73.16l.336.049Q1638.494,510.674,1638.5,511.258Zm-5.158,4.678q-.1.512-.224,1.6a2.65,2.65,0,0,1-.769,1.41,1.279,1.279,0,0,1-.993.481h-1.121a14.4,14.4,0,0,1-.481-3.172q0-.417-.032-.8v-1.378a10.41,10.41,0,0,1-.064-1.057.132.132,0,0,0-.1-.031,4.185,4.185,0,0,1-.032-.513,5.751,5.751,0,0,1,.128-1.217.3.3,0,0,0,.016-.047,5.041,5.041,0,0,1,.336-1.01,2.307,2.307,0,0,1,.24-.4l4.757,2.835a13.512,13.512,0,0,0-.9,1.218A4.312,4.312,0,0,0,1633.344,515.936Zm-66.588-38.348-.5-1.234.272.16.368.465Q1566.829,477.217,1566.755,477.588Zm-53.934-56.193a1.738,1.738,0,0,0-.48.384,1.227,1.227,0,0,1-.961.641q-1.025-.832-2.115-1.57a17.554,17.554,0,0,0-1.666-1.121,10.7,10.7,0,0,0-2.755-1.378,1.171,1.171,0,0,1,1.185-.8h.256a3.286,3.286,0,0,1,2.5,1.057c.021,0,.032.022.032.064a.029.029,0,0,1,.032.033c.043,0,.064.01.064.031a.093.093,0,0,1,.064.032l.064.064a2.479,2.479,0,0,1,.224.256q.512.641,1.218,1.538l-.032.031Zm-2.915,45.012q0-.448.032-.865.064-.512.128-.961.224-.448.417-.9a4.058,4.058,0,0,1,.961-1.281A6.847,6.847,0,0,0,1509.906,466.406Zm-42.8,144.2a27.466,27.466,0,0,0,6.952-1.378,12.628,12.628,0,0,0,2.787-1.314q.17.3.385.641a.162.162,0,0,0,.016.032.191.191,0,0,0,.016.032,1.378,1.378,0,0,1-.7,1.955,12.841,12.841,0,0,1-5.927,1.6A4.091,4.091,0,0,1,1467.105,610.6Z" transform="translate(-8.606 -15.307)" fill="#ffaa83" fill-rule="evenodd"/>
    <path id="Trazado_2769" data-name="Trazado 2769" d="M1521.674,413.018a1.2,1.2,0,0,1,.064.16,5.1,5.1,0,0,1,.48,1.057q.128.481.224.961l-9.227-1.537-.352.16q.064-.384.737-.77a5.544,5.544,0,0,1,2.659-.545,5.38,5.38,0,0,1,1.666.448,6.339,6.339,0,0,0,2.243.449A5.976,5.976,0,0,0,1521.674,413.018Zm-14.609.1a10.347,10.347,0,0,1,1.6-.929q.385-.16.7-.32a8.565,8.565,0,0,1,2.5-.928l.1.1q-1.506,1.122-2.595,1.954-.641.449-1.121.8Zm5.863,6.5,12.014,3.653a2.886,2.886,0,0,0,.609,1.057l.032.032-.064.064a2.864,2.864,0,0,1-1.57,1.795,4.124,4.124,0,0,1-2.883.32,16.881,16.881,0,0,1-2.979-1.826q-.577-.449-1.089-.9a1.644,1.644,0,0,1,.032-.32l-.448-.064-.352-.353a1.23,1.23,0,0,0-.1.257q-1.954-.385-3.908-.8-.545-.225-1.089-.417l-.9-.448a8.425,8.425,0,0,1-.737-.416l-.128-.064-.513-.32-3.973-3.684v-.193a1.309,1.309,0,0,1,.064-.416,10.7,10.7,0,0,1,2.755,1.378,17.562,17.562,0,0,1,1.666,1.121q1.089.737,2.115,1.57a1.227,1.227,0,0,0,.961-.641A1.737,1.737,0,0,1,1512.928,419.617Zm4.805,53.694v.031q-.257-.16-.48-.288a.378.378,0,0,0-.1-.063,10.5,10.5,0,0,1-6.023-5.446l-.545-.064q-.1-.225-.16-.417c-.043-.129-.085-.257-.128-.384a.541.541,0,0,1-.032-.16,3.293,3.293,0,0,1-.1-.449.09.09,0,0,1-.032-.064,4.888,4.888,0,0,1-.1-.961,2.968,2.968,0,0,1-.032-.417,6.848,6.848,0,0,1,1.538-4,4.5,4.5,0,0,1,.961-.672q.8.1,1.6.224a3.416,3.416,0,0,1,.032.481,5.357,5.357,0,0,1-.769,1.505,4.3,4.3,0,0,0-.769,2.146,7.9,7.9,0,0,0,2.819,5.735A9.556,9.556,0,0,1,1517.733,473.311Zm3.908,3.94a5.316,5.316,0,0,1,.256-.673,5.3,5.3,0,0,0,.545-1.858,9.728,9.728,0,0,0-.192-1.313q-.224-1.186-.288-1.7.929.1,1.378,2.466a16.915,16.915,0,0,1,.288,2.883l-1.346-.577Zm3.813-3.268v-.224a6.327,6.327,0,0,0-.609-2.434q-.641-1.442-.641-1.474a1.071,1.071,0,0,1,.032-.384h.032q.641.063,1.73,2.05a7.113,7.113,0,0,1,1.057,3.012c-.021.064-.043.138-.064.224l-.1.063Zm1.217-7.112q-2.819-1.538-2.819-1.858,0-1.538,2.755-.32,1.41.641,3.428,1.7.641.225,4.421,1.25.641.191,1.153.384l-.16.32a2.372,2.372,0,0,1-1.634.224,6.652,6.652,0,0,0-2.05-.608,4.472,4.472,0,0,0-1.346-.385Q1528.562,467.224,1526.672,466.871Zm-34.888,79.547a36.183,36.183,0,0,0-1.345,3.956q-.184.653-.369,1.346-.07.28-.144.561-.328,1.388-.641,2.931-.034.152-.064.3c-.031.159-.063.314-.1.465q-.381,1.945-.689,3.492-.909,4.516-1.234,5.719-.257,1.442-2.146,9.579a56.765,56.765,0,0,0-1.538,9.676q.312,3.282.8,9.674c.013.107.024.214.032.32a21.405,21.405,0,0,1-4.9,3.364q-1.634-3.748-2.659-6.343-.467-1.154-.817-2.162a16.013,16.013,0,0,1-1.137-4.853q.384-3.012.448-4.582a2.851,2.851,0,0,0-.384-1.762,29.741,29.741,0,0,0,.128-3.46q-.032-1.7-.7-7.176-.032-.513-.064-1.41l.384.9a31.746,31.746,0,0,1,5.719-12.141,28.94,28.94,0,0,1,2.275-2.6q.508-.507,1.041-.993,1.068-.967,2.242-1.842a32.921,32.921,0,0,1,5.35-3.236q.384-.191.769-.368a.714.714,0,0,0-.1.257Q1491.862,546.221,1491.784,546.418Zm-17.268,52.092a6.112,6.112,0,0,0,.1.737.719.719,0,0,0,.032.224v.16a2.451,2.451,0,0,0,.689,1.426,8.913,8.913,0,0,1-4.533,2.258q-1.759.352-5.206.8-.326-1.619-1.041-4.325-.092-.338-.176-.656l-.9-3.461c-.029-.146-.056-.28-.08-.4q-.064-.289-.128-.576l-.256-1.667-.1-2.979a13.036,13.036,0,0,1,.448-2.66l.064-.192q.064-.181.128-.352v-.033a.285.285,0,0,1,.032-.128v.032c.061.131.12.264.176.4a41.227,41.227,0,0,1,3.316,15.169v.192q1.858-.288,5.959-3.043A15.071,15.071,0,0,1,1474.516,598.51Zm-10.524-54.863q1.086.81,3.38,2.387.256.159.48.32.449.16.865.32a11.311,11.311,0,0,0,3.812.384,37.146,37.146,0,0,0,7.288-1.009q-1,3.2-1.3,3.924-.98.328-2.115.721l-.416.145q-.814.281-1.554.544l-8.57,2.948c-.048.028-.1.06-.16.1a54.192,54.192,0,0,0-6.375,5.735,2.588,2.588,0,0,0-.481.481,11.535,11.535,0,0,1,.224-1.505v-.16a17.566,17.566,0,0,1,3.813-8.169,5.907,5.907,0,0,0,1.474-4.293Q1464.3,545.916,1463.992,543.647Zm9.691-141.041a19.427,19.427,0,0,0,5.478,3.011,44.99,44.99,0,0,0,5.734,1.314,17.225,17.225,0,0,0,5.639-.481c.3-.086.588-.16.865-.225l.064,2.018a.2.2,0,0,0,.032-.047,9.142,9.142,0,0,1,0,1.008,51.845,51.845,0,0,1-5.254.289q-.951-.006-1.89-.08a26.263,26.263,0,0,1-9.579-2.772q-.86-.437-1.586-.865Zm104.552,42.673-.817,1.121q-.26-.424-.545-.9c-.011-.019-.022-.035-.032-.047q-1.066-1.729-1.6-2.612a4.561,4.561,0,0,1-.609-2.146q.262.043.5.1a7.281,7.281,0,0,0,2.931,4.292c.013-.062.024-.126.032-.192C1578.142,445.028,1578.189,445.156,1578.235,445.279Zm3.38-4.645-1.105,1.522q-.449-.325-.913-.689a19.761,19.761,0,0,1-2.034-1.793q-.054-.228-.112-.481a.611.611,0,0,0,.192.031,15.581,15.581,0,0,1,2.947.9Q1580.938,440.288,1581.615,440.634Zm16.531-6.824q.221.9.448,1.7a30.877,30.877,0,0,1-2.851,3.524q-5.127,5.477-9.387,5.478a9.673,9.673,0,0,1-5.11-1.857l1.169-1.618q.508.249,1.121.561,6.408,1.858,10.732-2.756.577-.865,1.762-2.659A10.746,10.746,0,0,1,1598.146,433.809ZM1578.587,446.3c.072.228.13.431.176.609q.138.381.288.753.093.235.192.465h-.7c-.021-.031-.043-.063-.064-.1q-.256-.375-.545-.816Zm22.169-3.828a8.673,8.673,0,0,0-.561-2.516c-.038-.232-.075-.457-.112-.672a1,1,0,0,0,.176-.256,3.655,3.655,0,0,0,.641-2.115,24.852,24.852,0,0,0-.224-2.69l-.016-.064a.842.842,0,0,1,.561.1,11.393,11.393,0,0,1,.288,4.774q-.128.736-.256,2.37A2.38,2.38,0,0,1,1600.756,442.476ZM1479.9,604.212a15.714,15.714,0,0,0,4.581-2.339q.961-.64,1.666-1.217a3.567,3.567,0,0,1,.128.336l.016.065a2.84,2.84,0,0,1,.112.5,2.308,2.308,0,0,1-.961,2.371,3.413,3.413,0,0,1-3.716,1.314A3.448,3.448,0,0,1,1479.9,604.212Zm-2.563,2.563q-.214-.337-.385-.641a12.636,12.636,0,0,1-2.787,1.313,27.464,27.464,0,0,1-6.952,1.378,3.913,3.913,0,0,1-.224-.352l-.064-.128q-.121-.245-.224-.513l-.032-.1c-.032-.095-.063-.19-.1-.288-.01-.06-.021-.124-.032-.192,0-.053-.01-.106-.016-.16a.914.914,0,0,1-.016-.1q3.2-.608,4.805-.993a40.8,40.8,0,0,0,4.773-1.537v.032a.092.092,0,0,1,.032.063c.051.134.121.288.208.465l.3.576a.5.5,0,0,1,.032.048c.085.129.17.267.256.417Q1477.111,606.391,1477.335,606.775Z" transform="translate(-8.712 -13.529)" fill="#ed9870" fill-rule="evenodd"/>
    <path id="Trazado_2770" data-name="Trazado 2770" d="M1719.257,565.387h-.016l-.016-.016v-.015A.211.211,0,0,0,1719.257,565.387Z" transform="translate(-102.256 -71.999)" fill="#fbd2c1" fill-rule="evenodd"/>
    <path id="Trazado_2771" data-name="Trazado 2771" d="M1768.775,486.6a27.707,27.707,0,0,0-4.069-2.851q-15.281-8.81-36.938,3.684-21.625,12.494-36.938,38.989-15.314,26.525-15.314,51.514,0,18.252,8.169,27.888-11.278-9.551-11.277-31,0-24.989,15.314-51.515,15.313-26.494,36.938-38.989,21.656-12.494,36.938-3.684A27.018,27.018,0,0,1,1768.775,486.6Zm-284.39-98.032a12.714,12.714,0,0,1-1.794.465,11.543,11.543,0,0,1-3.941.016,44.83,44.83,0,0,1-5.35-1.089,19.952,19.952,0,0,1-5.382-2.723q-2.179-1.506-4.1-3.012-2.306-1.922-4.453-3.62-.424-.391-.817-.8a21.375,21.375,0,0,1-1.458-1.6q2.115-1.281,4.453-2.4a14.966,14.966,0,0,1,1.954-.689,5.111,5.111,0,0,0-1.281-1.489,5.274,5.274,0,0,0-1.281-.737,11.374,11.374,0,0,0-4.9-2.435,5.068,5.068,0,0,0-3.46.32q-7.657,3.877-6.375,12.463a62.942,62.942,0,0,0,2.018,9.195,24.139,24.139,0,0,1-3.748,22.233,6.628,6.628,0,0,0-.769.193,7.516,7.516,0,0,1-7.016-1.7,6.031,6.031,0,0,1-2.05-3.171,8.11,8.11,0,0,1,.1-2.115,3.29,3.29,0,0,1,2.755-2.37q2.146-.481,2.755,1.153a2.624,2.624,0,0,0-1.121.064q-2.4.545-2.115,1.794.064.417,1.185,1.089a6.789,6.789,0,0,0,1.762.93,2.1,2.1,0,0,0,1.121.128,5.524,5.524,0,0,0,1.922-.832q1.377-.8,1.666-4.421a17.382,17.382,0,0,0-.1-4.709q-.353-1.09-1.666-5.7-1.506-4.614-1.986-6.792-1.634-8.683,1.378-14.225a12.109,12.109,0,0,1,7.721-6.407,12.473,12.473,0,0,1,9.066.513,8.983,8.983,0,0,1,5.414,6.664c.009.043.02.085.032.128a18.343,18.343,0,0,1,7.3.128,11.989,11.989,0,0,1,4.741,2.114,16.543,16.543,0,0,1,3.524,3.588,13.156,13.156,0,0,1,2.275,4.454Q1483.1,385.521,1484.385,388.564Zm134.938,93.323a1.8,1.8,0,1,1-1.3.528A1.766,1.766,0,0,1,1619.323,481.888Zm-82.7-36.619a1.352,1.352,0,0,1,.416.818,1.26,1.26,0,0,1,.016.208,1.366,1.366,0,0,1-.432,1.025,1.51,1.51,0,0,1-2.083,0,1.432,1.432,0,0,1,0-2.05,1.449,1.449,0,0,1,1.041-.416,1.579,1.579,0,0,1,.4.049A1.468,1.468,0,0,1,1536.621,445.269Zm-71.65-56.192-.5,3.171-.5,3.268a24.033,24.033,0,0,0-2.5-.832,12.625,12.625,0,0,1-4.165-2.5,16.409,16.409,0,0,1-1.618-1.49,12.953,12.953,0,0,1-1.874-2.578q-.137-.239-.256-.481-1.249-2.532-1.858-4.069.128-.512.256-1.057a10.2,10.2,0,0,1,2.371-4.133q1.015,1.522,2.114,2.916.565.723,1.153,1.409a33.515,33.515,0,0,0,3.812,3.78l.208.177A24.68,24.68,0,0,0,1464.971,389.077Z" fill="#ff65a7" fill-rule="evenodd"/>
    <path id="Trazado_2772" data-name="Trazado 2772" d="M1679.37,459.456a.989.989,0,0,1-.176.256l-.048.031a.49.49,0,0,1-.1-.128c.04-.016.077-.033.112-.049C1679.234,459.533,1679.3,459.5,1679.37,459.456Z" transform="translate(-87.823 -33.953)" fill="#ff4500" fill-rule="evenodd"/>
    <path id="Trazado_2773" data-name="Trazado 2773" d="M1646.355,432.13l5.879-8.073,14.16-19.462a.431.431,0,0,1,.288-.193.282.282,0,0,1,.16.016,2.92,2.92,0,0,0-.545.561,7.31,7.31,0,0,0-.7.9q-.359,1.063-.625,2.114l-12.014,16.548-.208.288-5.782,7.962-6.456,8.89-1.169,1.618-2.659,3.652-.657.914-1.762,2.434-8.842,12.158-1.314,1.811-.8-.433.513-.7.977-1.345,6.792-9.339,3.925-5.4.817-1.121,2.274-3.124,1.105-1.522ZM1670.671,590.5q.165,1.815.448,3.524l-6.3-15.7-12.606-31.476-8.522-21.272-.176-.417-2.851-7.128-2.162-5.4-8.394-20.984-1.394-3.493-4-9.979-.272-.688-1.185-2.948q.308.014.625.016h.32l.256.657.5,1.234,3.684,9.178,1.618,4.021,8.394,20.951,2.691,6.712,2.21,5.526.08.209,9.483,23.675,12,29.922Zm-48.9-119.689-.769-1.922-.385-.961a.511.511,0,0,1-.064-.224.307.307,0,0,1,.1-.224l.769-1.041.352.881.08.047-.016.017a.584.584,0,0,0-.577.192q-.353.769.224,1.121l.5.289.288.721-.144.144q0,.994-.16,1.089A1.867,1.867,0,0,1,1621.767,470.814Z" transform="translate(-66.806 -14.172)" fill="#949494" fill-rule="evenodd"/>
    <path id="Trazado_2774" data-name="Trazado 2774" d="M1692.2,406.023a5.754,5.754,0,0,1-.833.289l-.016-.016-.5-.561a7.3,7.3,0,0,1,.7-.9,2.921,2.921,0,0,1,.545-.561,2.021,2.021,0,0,1,.32-.24l.128-.032.737.1a3.867,3.867,0,0,0,.032,1.121q-.033.033-.545.416A6.594,6.594,0,0,1,1692.2,406.023Zm4.934,191.547.288-.256,1.442-.737a5.221,5.221,0,0,1,.737,2.915l-.48.256a1.065,1.065,0,0,1-.513.192,2.646,2.646,0,0,1-.577.1l.064-.225a.409.409,0,0,0-.256-.481.913.913,0,0,1-.352-.673Z" transform="translate(-92.062 -14.031)" fill="#5858c5" fill-rule="evenodd"/>
    <path id="Trazado_2775" data-name="Trazado 2775" d="M1701.686,708.855a.41.41,0,0,1,.256.481Q1701.365,709.336,1701.686,708.855Z" transform="translate(-95.914 -123.554)" fill="#757672" fill-rule="evenodd"/>
    <path id="Trazado_2776" data-name="Trazado 2776" d="M1702.339,552.181l-3.3-1.97-2.034-1.217-.577-.336-2.9-1.73-4.757-2.835-2.643-1.586-1.49-.9-5.7-3.4-9.771-5.831-10.812-6.44-7.721-4.613-7-4.181-4.773-2.852-5.542-3.3-1.954-1.17-6.584-3.924-1.714-1.025-.769-.464-.5-.289q-.577-.352-.224-1.121l.3.192,1.137.689,6.5,3.893,4.069,2.434,5.366,3.236,5,3,7.064,4.245,7.321,4.405,11.084,6.648,8.714,5.237,6.776,4.069,1.362.817,2.947,1.762,4.709,2.819,2.563,1.538.529.32,2.034,1.217,3.332,2,1.346.817,18.725,11.245-9.675-.736,4.325-1.859-12.943-7.72-.689-.417q-.283-.165-.561-.336Z" transform="translate(-67.126 -49.599)" fill="#2e2e2e" fill-rule="evenodd"/>
    <path id="Trazado_2777" data-name="Trazado 2777" d="M1641.448,548.767l3.348,2,1.49.88,13.936,8.362v-5.062l4.613,8.522-18.725-11.245-1.345-.817-3.332-2-2.034-1.217-.529-.32-2.563-1.538-4.709-2.819-2.947-1.762-1.362-.817-6.776-4.069-8.714-5.237-11.085-6.648-7.32-4.405-7.064-4.245-5-3-5.366-3.236-4.069-2.434-6.5-3.893-1.137-.689-.3-.192a.584.584,0,0,1,.577-.192l.1.031a1.6,1.6,0,0,1,.449.256l9.13,5.479,1.938,1.153,5.27,3.156,5.158,3.092,7.1,4.261,7.048,4.229,11.277,6.76,7.945,4.758,7.641,4.581,1.3.77,3.236,1.938,4.565,2.738,2.243,1.346.48.288Zm-180.4,80.764a37.65,37.65,0,0,0,1.345,4.228q1.281,3.2,1.634,4.133a11.506,11.506,0,0,1,.384,1.505q-1.858-.128-2.114-1.345a10.765,10.765,0,0,0-.481-3.268,13.773,13.773,0,0,1-.769-4.677Z" transform="translate(-9.503 -49.483)" fill="#545454" fill-rule="evenodd"/>
    <path id="Trazado_2778" data-name="Trazado 2778" d="M1472.961,536.67a11.311,11.311,0,0,1-3.812-.384q-.416-.16-.865-.32-.225-.16-.48-.32-2.293-1.577-3.38-2.387-.618-.468-.849-.688-2.8-21.094-3.524-42.033.045.013.1.033a63.473,63.473,0,0,0,13.455,3.748q.218.027.432.047.183,3.806.689,9.435.418,4.374.625,7.769a62.054,62.054,0,0,1,.048,8.7q-.224,2.627-1.089,8.521-.218,1.5-.433,2.852Q1473.415,534.461,1472.961,536.67Zm-2.883-162.65a5.269,5.269,0,0,1,1.281.737,5.107,5.107,0,0,1,1.281,1.489,14.961,14.961,0,0,0-1.954.689q-2.338,1.122-4.453,2.4l-2.307,1.827a4.8,4.8,0,0,1-.641-1.891,4.931,4.931,0,0,1,1.089-3.716,5.045,5.045,0,0,1,5.7-1.538Z" transform="translate(-9.143 -3.139)" fill="#00558c" fill-rule="evenodd"/>
    <path id="Trazado_2779" data-name="Trazado 2779" d="M1510.75,462.018q.086-.27.176-.545.474-1.483.945-2.979,1.013-3.16,2.034-6.376.23-.731.464-1.473,2.05-6.44,3.876-12.879a8.253,8.253,0,0,0,5.671-1.217,66.409,66.409,0,0,1-1.57,10.219,41.692,41.692,0,0,1-6.183,14.513,2.678,2.678,0,0,1-1.442.992A6.084,6.084,0,0,1,1510.75,462.018Zm-8.954-8.009a8.924,8.924,0,0,0-.208-4.485,14.35,14.35,0,0,0-2.6-5.03v.065q-1.153-1.6-2.05-2.883-.993-1.57-1.634-2.756v-.032a1.338,1.338,0,0,1-.16-.384c0-.042-.032-.064-.1-.064a12.661,12.661,0,0,1-.609-2.626,7.1,7.1,0,0,0-1.185-3.364,23.69,23.69,0,0,1-1.794-2.916q-1.282-2.05-2.05-3.075-1.161-1.753-1.81-2.659l.432-.834a20.879,20.879,0,0,0,1.394-3.46,10.483,10.483,0,0,1,1.009.32,7.058,7.058,0,0,1,4.021,3.268,7.439,7.439,0,0,1,.336.7,9.618,9.618,0,0,1-.128,6.087,6.616,6.616,0,0,0-.368,1.489q1.107,1.852,2.227,3.7,4.436,7.356,11.133,17.268-1.38,5.1,1.794,8.506c-.026-.017-.053-.033-.08-.047a13.788,13.788,0,0,1-3.364-2.146Q1503.832,456.409,1501.8,454.009Zm-43.97-13.1q-3.428,3.46-.769,9.644,2.691,6.151,11.693,11.885a101.213,101.213,0,0,0,17.876,8.939,16.042,16.042,0,0,0-10.028,8.33,23.68,23.68,0,0,0-2.467,11.885q.19,5.48,5.927,15.057,1,1.687,2.178,3.493a11.668,11.668,0,0,0-2.755.544,10.391,10.391,0,0,1-3.252.417,34.2,34.2,0,0,1-4.069-.273q-.214-.02-.433-.047a63.476,63.476,0,0,1-13.455-3.748q-.051-.019-.1-.033-.36-.143-.7-.288-2.785-16.529,4.421-25.342,4.232-5.16,3.973-6.92a7.54,7.54,0,0,0-.353-1.666,30.59,30.59,0,0,0-1.474-3.588.185.185,0,0,0-.064-.128.783.783,0,0,0-.1-.193q-.865-1.666-1.506-2.947a4.361,4.361,0,0,0-.352-.77q-.449-1.025-.737-1.7-2.083-4.678-2.755-6.312-1.506-3.556-2.595-6.375v-.063a24.17,24.17,0,0,1-1.089-6.024,8.331,8.331,0,0,1,1.666-5.269l.593-.834a6.834,6.834,0,0,1,1.458-.977q2.8-1.4,6.359.32a18.634,18.634,0,0,1,2.067,1.153l4.181,2.66q.611,1.337,1.057,2.4-2.132-1.643-4.405-3.428Q1460.613,436.676,1457.826,440.905Zm19.414,7.048-1.458-1.089q.905-.557,2.291-1.25A19.764,19.764,0,0,1,1477.24,447.954Z" transform="translate(-7.272 -19.6)" fill="#054fcb" fill-rule="evenodd"/>
    <path id="Trazado_2780" data-name="Trazado 2780" d="M1519.517,439.778q-1.826,6.44-3.876,12.879-.235.742-.465,1.473-1.022,3.216-2.034,6.376-.472,1.5-.945,2.979-.089.275-.176.545a11.159,11.159,0,0,1-1.3-1.17q-3.174-3.4-1.794-8.506-6.7-9.912-11.133-17.268-1.12-1.848-2.227-3.7a6.616,6.616,0,0,1,.368-1.489,9.619,9.619,0,0,0,.128-6.087,7.44,7.44,0,0,0-.336-.7,15.669,15.669,0,0,1,5.655,5.958q4.81,8.226,9.8,16.275.919-3.134,1.538-5.894a57.1,57.1,0,0,1,1.57-5.671Q1516.6,439.17,1519.517,439.778Zm-41.007,10.188q7.116,5.324,12.4,8.779,1.314.807,2.691,1.586.805.463,1.634.912l2.627,1.041,11.117,4.405a7.917,7.917,0,0,0-2.883,3.4q-5.108-1.072-10.156-2.386-1.283-.338-2.563-.689-.589-.184-1.169-.384a57.339,57.339,0,0,1-17.22-9.258,147.864,147.864,0,0,1-15.89-14.449q2.787-4.229,10-.192,2.274,1.786,4.405,3.428,1.83,1.41,3.556,2.723Zm-6.071-6.214-4.181-2.66a18.632,18.632,0,0,0-2.066-1.153q-3.561-1.723-6.359-.32a6.832,6.832,0,0,0-1.458.977,20.794,20.794,0,0,1,2.13-2.547q1.089-.993,2.5-2.306,2.435-2.435,3.684-3.653c.034.066.066.131.1.192Q1470.465,439.42,1472.439,443.751Zm22.185,63.112q-5.51,2.915-11.117,5.286-1.174-1.806-2.179-3.493-5.736-9.577-5.927-15.057a23.676,23.676,0,0,1,2.467-11.885,16.041,16.041,0,0,1,10.027-8.33q.686.258,1.378.512.212.078.432.145c-.03.082-.056.162-.08.24a32.375,32.375,0,0,0-1.025,8.761,31.916,31.916,0,0,0,2.211,9.259q.541,1.463,1.057,3.171A115.932,115.932,0,0,1,1494.625,506.864Zm-8.97-29.057a1.4,1.4,0,0,0-1.041.448,1.509,1.509,0,0,0,0,2.115,1.434,1.434,0,0,0,2.082,0,1.509,1.509,0,0,0,0-2.115A1.4,1.4,0,0,0,1485.654,477.806Zm3.652,14.417a1.368,1.368,0,1,0-.4.945A1.293,1.293,0,0,0,1489.306,492.223Z" transform="translate(-8.542 -21.612)" fill="#2c71e5" fill-rule="evenodd"/>
    <path id="Trazado_2781" data-name="Trazado 2781" d="M1500.96,591.632a36.033,36.033,0,0,1-9.867,3.973q-1.909.525-3.6.913a37.147,37.147,0,0,1-7.288,1.009q.454-2.208.913-5.029.214-1.356.432-2.852.865-5.894,1.089-8.521a62.082,62.082,0,0,0-.048-8.7q-.207-3.395-.625-7.769-.506-5.628-.689-9.435a34.209,34.209,0,0,0,4.069.273,10.392,10.392,0,0,0,3.252-.417,11.67,11.67,0,0,1,2.755-.544q5.606-2.371,11.117-5.286a16.926,16.926,0,0,0,5.991-6.167,60.049,60.049,0,0,1,.833,13.727,145.411,145.411,0,0,1-2.563,18.1,109.627,109.627,0,0,1-4.069,15.506A15.081,15.081,0,0,1,1500.96,591.632Z" transform="translate(-16.383 -63.996)" fill="#003151" fill-rule="evenodd"/>
    <path id="Trazado_2782" data-name="Trazado 2782" d="M1486.75,715.255a.369.369,0,0,1,.128.16l-.032.032A.284.284,0,0,0,1486.75,715.255Z" transform="translate(-18.736 -125.853)" fill="#1fbcbf" fill-rule="evenodd"/>
    <path id="Trazado_2783" data-name="Trazado 2783" d="M1536.936,442.675a8.253,8.253,0,0,1-5.671,1.217q.352-1.345.737-2.658.32-1.25.641-2.5a4.124,4.124,0,0,0,2.883-.32,2.864,2.864,0,0,0,1.57-1.795l.064-.064q.032,2.916-.192,5.8A1.662,1.662,0,0,1,1536.936,442.675Zm-43.121,2.563a32.743,32.743,0,0,0,1.7,4.036q2.5,5.095,2.691,5.8.1.512.385,1.505-2.415-2.743-5.126-5.542-1.164-1.194-2.387-2.387.038-.12.08-.24,1.314-3.812,1.346-3.876Q1493.215,444.945,1493.814,445.238Zm3.941-.5a1.578,1.578,0,0,0,.1-.337,4.4,4.4,0,0,1,.256-1.7q.257.064,2.819.961l.368.129q.335,1.487.593,3.459.338,2.551.593,5.991a2.181,2.181,0,0,0-.08-.32,8,8,0,0,0-.673-1.442Q1499.519,447.36,1497.755,444.741Z" transform="translate(-20.29 -25.725)" fill="#dbdfff" fill-rule="evenodd"/>
    <path id="Trazado_2784" data-name="Trazado 2784" d="M1495.382,449.663q-.255-3.441-.593-5.991-.257-1.972-.593-3.459c-.026-.12-.053-.238-.08-.353a1.317,1.317,0,0,0-.192-.577v-.064a4.226,4.226,0,0,0-.1-.513.187.187,0,0,0-.064-.128,22.419,22.419,0,0,0-3.364-6.92,6.392,6.392,0,0,0,1.121-1.633q.282-.514.545-.978.981.864,1.954,1.81,4.485,4.389,4.549,6.119a3.859,3.859,0,0,1-.9,2.179q-.577.768-1.922,2.5l4.389,4.356q-.21.9-.753,5.735-.519,4.656-1.137,9.114-1.377-.778-2.691-1.586-5.282-3.456-12.4-8.779a19.76,19.76,0,0,0,.833-2.339q-1.385.693-2.291,1.25-1.726-1.314-3.556-2.723-.446-1.066-1.057-2.4-1.974-4.333-5.655-11.47c-.03-.061-.062-.126-.1-.192a7.884,7.884,0,0,1,2.082-6.038,34.4,34.4,0,0,1,1.2,3.4q-.079.164-.144.3a3.411,3.411,0,0,0-.288,1.057v.256a3.922,3.922,0,0,0,.032.481q.7,4.485,6.792,10.156.993.929,1.922,1.858a9.161,9.161,0,0,1,.929.865l.112.112q1.224,1.193,2.387,2.387,2.711,2.8,5.126,5.542.209.242.416.481l.769.929a19.008,19.008,0,0,1,3.075,4.9q-.033-1.346-.1-2.723a2.119,2.119,0,0,0,0-.737l-.256-5.895C1495.391,449.853,1495.386,449.757,1495.382,449.663Zm2,27.9a1.806,1.806,0,1,1-1.265.529A1.724,1.724,0,0,1,1497.384,477.567Zm-.16,12.4a1.7,1.7,0,0,1,.513-1.249,1.664,1.664,0,0,1,1.217-.513,1.558,1.558,0,0,1,.593.112,1.654,1.654,0,0,1,.625.4,1.78,1.78,0,0,1,0,2.5,1.663,1.663,0,0,1-1.217.512,1.954,1.954,0,0,1-.352-.031,1.771,1.771,0,0,1-1.378-1.731Z" transform="translate(-13.192 -22.142)" fill="#84adf2" fill-rule="evenodd"/>
    <path id="Trazado_2785" data-name="Trazado 2785" d="M1497.182,462.679l-2.627-1.041q-.828-.449-1.634-.912.619-4.459,1.137-9.114.542-4.838.753-5.735l-4.389-4.356q1.345-1.731,1.922-2.5a3.859,3.859,0,0,0,.9-2.179q-.064-1.73-4.549-6.119-.974-.946-1.954-1.81.868-1.606,1.458-2.706.65.906,1.81,2.659.769,1.025,2.05,3.075a23.69,23.69,0,0,0,1.794,2.916,7.1,7.1,0,0,1,1.185,3.364,12.661,12.661,0,0,0,.609,2.626c.064,0,.1.022.1.064a1.338,1.338,0,0,0,.16.384v.032q.64,1.186,1.634,2.756.9,1.281,2.05,2.883V446.9a14.35,14.35,0,0,1,2.6,5.03,8.924,8.924,0,0,1,.208,4.485,7.837,7.837,0,0,1-.5,1.442A9.093,9.093,0,0,1,1497.182,462.679Zm2.755,38.413a16.926,16.926,0,0,1-5.991,6.167,115.865,115.865,0,0,0-2.755-11.39q-.516-1.708-1.057-3.171a31.911,31.911,0,0,1-2.21-9.259,32.361,32.361,0,0,1,1.025-8.761c.024-.078.051-.158.08-.24q-.22-.067-.433-.145-.692-.254-1.377-.512a101.213,101.213,0,0,1-17.876-8.939q-9-5.734-11.693-11.885-2.659-6.184.769-9.644a147.874,147.874,0,0,0,15.89,14.449,57.343,57.343,0,0,0,17.22,9.258q.58.2,1.169.384,1.279.351,2.563.689,5.047,1.314,10.156,2.386a7.513,7.513,0,0,0,.513,6.055,39.3,39.3,0,0,1-10.652-.432,135,135,0,0,1,5.366,15.618A12.285,12.285,0,0,1,1499.937,501.092Zm-7.881-23.66a1.806,1.806,0,1,0,1.266.529A1.724,1.724,0,0,0,1492.056,477.432Zm-.16,12.4a1.771,1.771,0,0,0,1.378,1.731,1.951,1.951,0,0,0,.352.031,1.663,1.663,0,0,0,1.217-.512,1.78,1.78,0,0,0,0-2.5,1.654,1.654,0,0,0-.625-.4,1.558,1.558,0,0,0-.593-.112,1.664,1.664,0,0,0-1.217.513A1.7,1.7,0,0,0,1491.9,489.83Z" transform="translate(-7.863 -22.007)" fill="#003897" fill-rule="evenodd"/>
    <path id="Trazado_2786" data-name="Trazado 2786" d="M1500.124,507.356a1.4,1.4,0,0,1,1.041.448,1.509,1.509,0,0,1,0,2.115,1.434,1.434,0,0,1-2.082,0,1.509,1.509,0,0,1,0-2.115A1.4,1.4,0,0,1,1500.124,507.356Zm3.652,14.417a1.368,1.368,0,1,1-.4-.946A1.293,1.293,0,0,1,1503.776,521.773Z" transform="translate(-23.011 -51.162)" fill="#a8c5f7" fill-rule="evenodd"/>
    <path id="Trazado_2787" data-name="Trazado 2787" d="M1474.328,428.054a34.4,34.4,0,0,0-1.2-3.4c-.051-.136-.1-.27-.16-.4a3.052,3.052,0,0,0-.737-1.058,22.1,22.1,0,0,1-1.73-1.97,19.936,19.936,0,0,0,2.723,1.617l.9-.352q.246.3.465.561.474.56.817.944.407.465.8.865a11.735,11.735,0,0,0,1.858,1.538q1.082.777,2.162,1.41a20.614,20.614,0,0,0,7.673,2.755,2.39,2.39,0,0,0,.5.033q.145.376.3.736a20.857,20.857,0,0,1-6.6,1.442,23.63,23.63,0,0,1-4-1.217,7.642,7.642,0,0,1-3.3-2.435,3.227,3.227,0,0,1-.384-.768C1474.381,428.26,1474.354,428.159,1474.328,428.054Z" transform="translate(-12.898 -20.22)" fill="#ce7c56" fill-rule="evenodd"/>
    <path id="Trazado_2788" data-name="Trazado 2788" d="M1533.124,501.36a7.512,7.512,0,0,1-.513-6.055q1.954.417,3.908.8-.064.449-.128.961-.032.417-.032.865a2.967,2.967,0,0,0,.032.416,4.888,4.888,0,0,0,.1.961.09.09,0,0,0,.032.064,3.3,3.3,0,0,0,.1.449.541.541,0,0,0,.032.16c.043.128.085.256.128.384s.1.267.16.416Q1535.014,501.136,1533.124,501.36Z" transform="translate(-35.059 -46.832)" fill="#cacff5" fill-rule="evenodd"/>
  </g>
</svg>
