<svg xmlns="http://www.w3.org/2000/svg" width="121" height="121" viewBox="0 0 121 121">
  <g id="Grupo_10112" data-name="Grupo 10112" transform="translate(-145 -3839)">
    <g id="Grupo_10092" data-name="Grupo 10092" transform="translate(2406 7746)">
      <circle id="Elipse_497" data-name="Elipse 497" cx="60.5" cy="60.5" r="60.5" transform="translate(-2261 -3907)" fill="#7cb342"/>
      <path id="Trazado_1178" data-name="Trazado 1178" d="M53.993,0A53.993,53.993,0,1,1,0,53.993,53.993,53.993,0,0,1,53.993,0Z" transform="translate(-2254 -3900)" fill="#fff"/>
    </g>
    <g id="Grupo_10101" data-name="Grupo 10101" transform="translate(174 3868)">
      <path id="Trazado_2739" data-name="Trazado 2739" d="M-607.439,945.8c-4.66,0-9.361-1.222-9.361-3.954v-3.07a3.892,3.892,0,0,1,3.886-3.888h10.95a3.893,3.893,0,0,1,3.887,3.888v3.07C-598.076,944.579-602.779,945.8-607.439,945.8Zm-6.8-4.047c.364.469,2.68,1.481,6.8,1.481s6.432-1.013,6.8-1.481v-2.977a1.324,1.324,0,0,0-1.321-1.323h-10.95a1.324,1.324,0,0,0-1.321,1.323Z" transform="translate(639.077 -903.073)" fill="#7cb342"/>
      <path id="Trazado_2740" data-name="Trazado 2740" d="M-608.161,937.07a5.582,5.582,0,0,1-3.979-1.652,5.6,5.6,0,0,1-1.645-3.983,5.61,5.61,0,0,1,1.645-3.984,5.662,5.662,0,0,1,3.979-1.652,5.579,5.579,0,0,1,3.978,1.652,5.606,5.606,0,0,1,1.647,3.984,5.6,5.6,0,0,1-1.647,3.983A5.575,5.575,0,0,1-608.161,937.07Zm0-8.705a3.076,3.076,0,0,0-2.162.9,3.064,3.064,0,0,0-.9,2.173,3.049,3.049,0,0,0,.9,2.17,3.125,3.125,0,0,0,4.324,0,3.054,3.054,0,0,0,.9-2.172,3.059,3.059,0,0,0-.9-2.173A3.033,3.033,0,0,0-608.161,928.365Z" transform="translate(639.8 -905.251)" fill="#7cb342"/>
      <path id="Trazado_2741" data-name="Trazado 2741" d="M-605.676,956.8a18.364,18.364,0,0,1-13.07-5.414,18.359,18.359,0,0,1-5.414-13.07,18.505,18.505,0,0,1,18.484-18.486,18.365,18.365,0,0,1,13.07,5.414,18.365,18.365,0,0,1,5.414,13.071h0a18.349,18.349,0,0,1-5.414,13.07A18.364,18.364,0,0,1-605.676,956.8Zm0-34.4a15.937,15.937,0,0,0-15.92,15.92,15.815,15.815,0,0,0,4.663,11.256,15.814,15.814,0,0,0,11.256,4.662,15.81,15.81,0,0,0,11.256-4.662,15.815,15.815,0,0,0,4.663-11.256h0a15.816,15.816,0,0,0-4.663-11.258A15.809,15.809,0,0,0-605.676,922.4Z" transform="translate(637.314 -906.68)" fill="#002b45"/>
      <path id="Trazado_2742" data-name="Trazado 2742" d="M-597.32,972.5h-11.627a1.284,1.284,0,0,1-1.283-1.284v-3.478a27.676,27.676,0,0,1-6.886-2.86l-2.466,2.464a1.278,1.278,0,0,1-.907.377h0a1.278,1.278,0,0,1-.906-.377l-8.222-8.221a1.281,1.281,0,0,1,0-1.813l2.449-2.452a27.713,27.713,0,0,1-2.837-6.9h-3.486a1.283,1.283,0,0,1-1.283-1.283V935.047a1.282,1.282,0,0,1,1.283-1.283h3.478a27.729,27.729,0,0,1,2.858-6.886l-2.464-2.466a1.281,1.281,0,0,1,0-1.813l8.221-8.221a1.282,1.282,0,0,1,1.813,0l2.451,2.449a27.785,27.785,0,0,1,6.9-2.837V910.5a1.284,1.284,0,0,1,1.283-1.283h11.627a1.284,1.284,0,0,1,1.283,1.283v3.478a27.769,27.769,0,0,1,6.887,2.86l2.464-2.464a1.317,1.317,0,0,1,1.813,0l8.221,8.221a1.274,1.274,0,0,1,.376.906,1.277,1.277,0,0,1-.376.907l-2.449,2.451a27.745,27.745,0,0,1,2.837,6.9h3.486a1.283,1.283,0,0,1,1.283,1.283v11.627a1.284,1.284,0,0,1-1.283,1.283h-3.478a27.655,27.655,0,0,1-2.86,6.886l2.464,2.466a1.274,1.274,0,0,1,.376.906,1.283,1.283,0,0,1-.374.907l-8.222,8.221a1.318,1.318,0,0,1-1.813,0l-2.452-2.449a27.7,27.7,0,0,1-6.9,2.837v3.486A1.284,1.284,0,0,1-597.32,972.5Zm-10.344-2.567h9.061V966.72a1.28,1.28,0,0,1,1-1.251,25.239,25.239,0,0,0,7.977-3.28,1.281,1.281,0,0,1,1.589.18l2.254,2.252,6.407-6.407-2.27-2.27a1.281,1.281,0,0,1-.176-1.593,25.186,25.186,0,0,0,3.3-7.96,1.285,1.285,0,0,1,1.252-1h3.2v-9.06h-3.213a1.285,1.285,0,0,1-1.253-1.005,25.163,25.163,0,0,0-3.279-7.975,1.283,1.283,0,0,1,.18-1.59l2.252-2.254-6.407-6.406-2.27,2.27a1.279,1.279,0,0,1-1.594.177,25.14,25.14,0,0,0-7.959-3.306,1.286,1.286,0,0,1-1-1.252v-3.2h-9.061V915a1.282,1.282,0,0,1-1,1.252,25.186,25.186,0,0,0-7.977,3.279,1.282,1.282,0,0,1-1.589-.178l-2.255-2.255-6.406,6.407,2.27,2.271a1.283,1.283,0,0,1,.176,1.593,25.207,25.207,0,0,0-3.3,7.959,1.283,1.283,0,0,1-1.252,1h-3.2v9.06h3.214a1.283,1.283,0,0,1,1.252,1.005,25.191,25.191,0,0,0,3.279,7.977,1.281,1.281,0,0,1-.18,1.589l-2.252,2.254,6.406,6.407,2.271-2.27a1.281,1.281,0,0,1,1.594-.177,25.137,25.137,0,0,0,7.959,3.3,1.285,1.285,0,0,1,1,1.252Z" transform="translate(634.772 -909.222)" fill="#002b45"/>
    </g>
  </g>
</svg>
