<svg xmlns="http://www.w3.org/2000/svg" width="392.157" height="367.501" viewBox="0 0 392.157 367.501">
  <g id="Grupo_10075" data-name="Grupo 10075" transform="translate(-1048.732 -786.1)">
    <path id="Trazado_2015" data-name="Trazado 2015" d="M1081.489,1038.71l-.351,4.907a55.515,55.515,0,0,1-16.265-15.424q1.648-1.647,2.313-2.173l.053-.018-.018.018-.631,1.052c.163.093.339.2.526.316a.556.556,0,0,0,.14.105l.21.14a.031.031,0,0,1,.035.035l.14.07a1.367,1.367,0,0,1,.21.175l.07.07a1.894,1.894,0,0,1,.28.175q.666.455,1.472,1.087a3.606,3.606,0,0,0,.315.21q2.314,1.822,3.435,2.524,4.206,2.629,7.852,1.262a5.076,5.076,0,0,0,1.157-.736,4.8,4.8,0,0,0,1.577-3.926c0-.234-.012-.479-.035-.736-.047-.444-.117-.923-.21-1.437a.143.143,0,0,0-.035-.105v-.035a4.815,4.815,0,0,0-.105-.561q-.105-.386-.21-.806a.1.1,0,0,0-.035-.07.394.394,0,0,0-.035-.175.265.265,0,0,0-.035-.105c-.047-.163-.093-.339-.14-.526-.023-.094-.047-.175-.07-.245l-.21-.7a1.379,1.379,0,0,1-.07-.175.1.1,0,0,0-.035-.07l-.263-.911c.06-.009.125-.02.193-.035q.586-.163,1.052-.28,6.383,7.362,4.767,17.6l-3.681-4.031-2.419-2.664Zm9.149-20.349v2.033q-.866-.646-1.893-1.315-.456-.28-.806-.491c-.1.021-.188.045-.28.07A7.454,7.454,0,0,1,1090.638,1018.362Zm213.389,44.833q-.319.265-.649.508a1.841,1.841,0,0,0-.456.28,1.513,1.513,0,0,0-.28.14c-.14.07-.269.14-.386.21a6.647,6.647,0,0,1-.806.28,3.383,3.383,0,0,1-3.365-.421,10.955,10.955,0,0,1-2.419-3.505c-.094-.14-.2-.3-.315-.491a19.973,19.973,0,0,0-2-3.33,6.654,6.654,0,0,0-.736-.7q-1.753-1.3-4.276-.07-.385.245-.6.35a1.2,1.2,0,0,0-.386.315,5.988,5.988,0,0,0-1.192,1.052v22.715l-44.325-25.607q.431-1.213.859-2.506,3.436-10.375,3.435-17.352a46.507,46.507,0,0,0-.438-5.977q1.893-.75,3.873-1.63a55.5,55.5,0,0,0-5.784-18.929,29.71,29.71,0,0,1-2.138-5.4,17.545,17.545,0,0,0-.6-2.734l-.088-.333a24.094,24.094,0,0,1-.281-2.752c.142.117.289.233.438.35q5.749,4.172,9.429,2.559a3.072,3.072,0,0,0,.561-.245q3.329-1.928,3.365-4.662a5.772,5.772,0,0,0-.105-.946,14.779,14.779,0,0,0-1.542-4.031q-.536-1.107-.911-2a107.227,107.227,0,0,0,12.286-1.069l21.961,12.637v33.02a36.683,36.683,0,0,0,2.068,5.609q1.717,2.979,3.961,3.505a11.007,11.007,0,0,0,4.276-.175,10.693,10.693,0,0,1,3.891-.158v13.163a41.9,41.9,0,0,0,2.419,6.52A12.3,12.3,0,0,0,1304.027,1063.2Zm24.765,44.29q2.034-3.225,6.1-2.244a21.234,21.234,0,0,1,4.978,1.718,27.07,27.07,0,0,1,4.276,2.629,79.7,79.7,0,0,0,9.289,5.819,32.659,32.659,0,0,0,11.533,3.926q9.265.96,16.475,1.1.5.006.981.018.47,0,.929,0,.737.006,1.455,0,2.243.56,3.085,4.136-2.315.051-4.61.088l-.859.017-.981.018q-7.78.112-15.283.088a45.5,45.5,0,0,1-20.787-5.854q-3.557-2-6.906-4.224A104.576,104.576,0,0,1,1328.792,1107.485Zm-109.42-148.592c-.013.065-.024.128-.035.193a.283.283,0,0,0-.017.053,1.3,1.3,0,0,0-.841-.315q-.455,0-.876-.035a4.47,4.47,0,0,0,1.858,2.839,10.3,10.3,0,0,0,3.19,1.437,7.912,7.912,0,0,0,3.646.07,19.17,19.17,0,0,0,2.7-.736l1.542-.526-.035-.456q-.035-.421-.07-1.192a.2.2,0,0,1,.053.035c.191.074.36.133.508.175a1.829,1.829,0,0,1,.982,1.087q.21.491.526,1.437a6.426,6.426,0,0,0,1.122,1.788q1.023,1.183,1.314,1.612-3.688-2.243-5.381-2.243a14.6,14.6,0,0,0-3.575.561,14.46,14.46,0,0,1-2.909.526,7.221,7.221,0,0,1-5.4-2.384q-1.718-1.717-1.718-2.664a6.448,6.448,0,0,1,.175-1.595,9.489,9.489,0,0,1,.736-.648l.035-.035h.035a.1.1,0,0,1,.07-.035l.053-.053a1.013,1.013,0,0,1,.193-.123l.07-.07.982-.736a.42.42,0,0,0,.105-.07,1.684,1.684,0,0,1,.385-.14q.367.35.7.666l.035-.018A6.3,6.3,0,0,1,1219.372,958.893Zm43.729,19.42a6.078,6.078,0,0,1,2.909,4.557,71.733,71.733,0,0,1-8.4.613q-3.053.024-5.994-.228-2.351-.2-4.627-.578a53.757,53.757,0,0,1-16.563-5.661q2.278-2.979,7.046-2.489a51.626,51.626,0,0,1,5.433.929q1.353.306,2.717.684a.462.462,0,0,0,.053.018q.555.162,1.122.333a41.366,41.366,0,0,0,6.327,1.542q1.476.239,2.927.351A44.278,44.278,0,0,0,1263.1,978.313Zm-203.311,56.226q6.316-.993,9.885,7.256l7.887,23.7a1.973,1.973,0,0,1-1.437,2.261c-.048.017-.1.035-.14.053q-1.893.6-5.714,1.858c-.071.02-.141.043-.21.07-.05-.1-.1-.2-.14-.3q-2.97-5.884-4-7.834-7.432-15.178-7.326-20.717a24.661,24.661,0,0,1,.911-5.083Q1059.686,1035.065,1059.791,1034.539Z" transform="translate(-2.949 -50.982)" fill="#f0f0ff" fill-rule="evenodd"/>
    <path id="Trazado_2016" data-name="Trazado 2016" d="M1098.146,1072.681l-1.157,5.784-1.788-3.681a8.642,8.642,0,0,0,.316-1.893,7.627,7.627,0,0,0-1.052-4.241Zm-7.4,4.417.35-4.907a5.06,5.06,0,0,0,2.419,3.47l.806,3.716Z" transform="translate(-12.56 -84.462)" fill="#abb1eb" fill-rule="evenodd"/>
    <path id="Trazado_2017" data-name="Trazado 2017" d="M1427.621,1173.716l5.013-2.909-2.121-9.167,11.936,6.888-18.263,10.551-28.218-16.3a5.025,5.025,0,0,0,.035-2,27.3,27.3,0,0,1,.28-4.767.586.586,0,0,0,.035-.175v-.07l.035-.035c0-.1,0-.2,0-.3l1.858,1.069,5.013-2.91v-.14l18.438,10.621,1.613,7.186Zm-91.472,5.573c.015-.034.032-.069.053-.105q2.016-3.846,3.3-6.818l40.592,23.468.946.6,10.674-6.152,10.358,5.977-18.263,10.551Zm-12.356,24.117a3.344,3.344,0,0,1-.666-.28.174.174,0,0,0-.052-.035l.017-.035a31.484,31.484,0,0,1,2.559-4.838q.652-1.045,1.174-1.91a36.318,36.318,0,0,1,3.243,1.665q9.534,5.5,9.569,13.32-.035,7.851-9.569,13.355-9.5,5.5-23,5.5-13.53-.035-23.065-5.538a20.953,20.953,0,0,1-7.8-7.1,4.661,4.661,0,0,1,.684-.473q2.138-1.122,3.19-1.612,1.858-.946,3.26-1.542a39.043,39.043,0,0,1,3.821-1.472l3.891-1.3a6.81,6.81,0,0,0,1.788-.911q.35-.246,1.612-1.262a10.384,10.384,0,0,0,2.384-3.365,16.061,16.061,0,0,0,1.42-4.82q.586-.172,1.174-.4,1.507-.7,2.839-1.472,1.3-.771,2.664-1.648,1.262-.912,2.384-1.893a27.551,27.551,0,0,1,2.559-2.138q.474-.316.929-.648c.061,0,.119.01.175.017a60.175,60.175,0,0,1-3.628,6.555,24.522,24.522,0,0,0-1.577,3.681,8.983,8.983,0,0,0-.421,3.926.126.126,0,0,0,.017.035.7.7,0,0,1-.052-.07l-.526.946a.643.643,0,0,0-.07-.07l-1.4,3.05a13.344,13.344,0,0,0,2.629,2.173,17.614,17.614,0,0,0,5.083,2,13.949,13.949,0,0,0,3.821.245,25.145,25.145,0,0,1,3.26.21q1.718.351,3.47.561a7.961,7.961,0,0,0,3.155-.21,11.908,11.908,0,0,0,4.136-1.683,9.014,9.014,0,0,0,3.26-3.61,5.015,5.015,0,0,0,.386-3.716,3.569,3.569,0,0,0-1.542-2.173,3.943,3.943,0,0,0-3.4-.841A6.715,6.715,0,0,1,1323.792,1203.407Zm-86.758-102.427,61.94,35.755v.683a37.586,37.586,0,0,0-3.646,2.331,45.543,45.543,0,0,0-10.236,10.078l-51.879-29.971q.138-1.288.28-2.857.386-4.557.736-6.87a21.084,21.084,0,0,1,.841-3.435q.569-1.729.859-2.682a3.334,3.334,0,0,0,.228-.578q.347-1.034.666-1.945C1236.888,1101.327,1236.958,1101.158,1237.035,1100.98Zm-34.4,59.206.543-.315a1.656,1.656,0,0,0,.175-.105,9.987,9.987,0,0,0,1.613-1.367,9.744,9.744,0,0,0,2.419-4.382,16.233,16.233,0,0,0,.491-4.207,21.393,21.393,0,0,0-.228-2.629q.285-.177.578-.351a27.2,27.2,0,0,1,6.941-2.892l-.018.245q-.079-.029-.158-.053-.49.176-.982.386a5.771,5.771,0,0,0-.876.666,4.994,4.994,0,0,0-.736.841,6.155,6.155,0,0,0-.666,1.052,3.733,3.733,0,0,0-.245,1.192,4.116,4.116,0,0,0,.035,1.192l.631,1.087a14.109,14.109,0,0,1,1.192,7.326l1.367,1.683,1.577-.035a8.462,8.462,0,0,1-.035-5.048,14.105,14.105,0,0,1,1.192,7.326l1.367,1.682,1.578-.035a8.641,8.641,0,0,1,.315-6.064q1.416,1.022,2.857,2.051c.116.121.227.243.333.368.079.015.154.026.228.035a20.714,20.714,0,0,1,2.051,1.858q.981,1.052,1.823,2.033a12.78,12.78,0,0,0,4.522.035,6.928,6.928,0,0,0,3.015-1.157q.631-.421,1.192-.876a7,7,0,0,0,1.823-2.524q.281-.736.561-1.507c-.023-.046-.023-.082,0-.105a5.269,5.269,0,0,0-.28-1.122,2.166,2.166,0,0,0-1.122-1.4,5.239,5.239,0,0,0-1.753-.526h-.7q-.264-.005-.526,0l.28-.771c-.023-.047-.023-.082,0-.105a5.275,5.275,0,0,0-.28-1.122,2.168,2.168,0,0,0-1.122-1.4,5.237,5.237,0,0,0-1.753-.526h-.7q-.351-.006-.7,0-.736-3.961-.806-4.452a11.58,11.58,0,0,1-.316-2.068q-.05-.565-.07-1.157a30.9,30.9,0,0,1,11.988,3.575q7.011,3.856,7.116,9.395.141,5.573-6.52,9.57-6.765,4-16.44,4.066a32.99,32.99,0,0,1-16.686-3.786A14.469,14.469,0,0,1,1202.63,1160.186Zm-78.993,52.37a13.237,13.237,0,0,0,.911,1.017,4.758,4.758,0,0,0,4.206,1.3l6.1-1.3,4.662-.981a12.739,12.739,0,0,0,2.594,2.1,14.224,14.224,0,0,0,19.595-4.136,14.6,14.6,0,0,0,1.735-3.7,8.318,8.318,0,0,1,.824,3.8q-.176,5.574-7.116,9.394a37.25,37.25,0,0,1-31.916.385,12.828,12.828,0,0,1,.123,1.718q-.035,8.587-10.481,14.617t-25.2,5.994q-14.828.035-25.274-5.994T1053.95,1222.2q0-8.14,9.464-14,.335,5.746,1.122,11.445.035.28.105.631.245,1.052.491,2.033a4.237,4.237,0,0,0,1.455,1.981,4.389,4.389,0,0,0-.018,2.051,9.222,9.222,0,0,0,1.192,2.8,12.458,12.458,0,0,0,1.122,1.613,6.237,6.237,0,0,1,1.192,2.068q.315.946.771,2.033a6.939,6.939,0,0,0,3.891,3.821A22.721,22.721,0,0,0,1084.1,1240q.526-.14,1.017-.28a1.7,1.7,0,0,0,1.087-2.1v-.771a13.609,13.609,0,0,0-1.472-5.749q-1.086-2.174-2.349-4.206a.4.4,0,0,0-.07-.105,29.323,29.323,0,0,1-1.805-3.418q1.873-.884,1.139-3.453a70.007,70.007,0,0,1-1.052-7.607,47.236,47.236,0,0,1,.088-10.113q1.313-.187,2.664-.316-.15,2.2-.193,3.593-.105,3.365-.14,3.716a11.74,11.74,0,0,0,.491,1.963,4.84,4.84,0,0,0,2.594,2.769l.4.21a3.549,3.549,0,0,0,2.541,3.47,31.4,31.4,0,0,0,7.046,1.683l1.577-1.578q.455.105.911.245a15.1,15.1,0,0,1,2.033.771q4.277,1.788,8.658,3.3a11.445,11.445,0,0,0,4.943.666,3.148,3.148,0,0,0,2.384-.245,2.74,2.74,0,0,0,1.718-3.33q.035-.35.035-.7a4.96,4.96,0,0,0-1.753-3.891,16.034,16.034,0,0,0-5.854-3.33,27.151,27.151,0,0,1-4.943-2.278q-.631-.385-1.227-.771a18.781,18.781,0,0,1-2.349-5.276,43.468,43.468,0,0,1,12.654,4.785q1.443.833,2.682,1.718.563-4.725,6.38-8.168a5.6,5.6,0,0,0-1.56,2.1,9.424,9.424,0,0,0-.421,1.3l-.736.14a2.6,2.6,0,0,0-1.788,1.648,4.69,4.69,0,0,0-.245,2.98,4.608,4.608,0,0,0,1.437,2.629,2.445,2.445,0,0,0,2.279.7Zm8.132-13.461-6.1,1.3a4.211,4.211,0,0,0-.561.158,31.217,31.217,0,0,1,11.673-3.33q-.212.445-.385.894Zm82.376-106.633q-.152,1.945-.315,3.47a29.905,29.905,0,0,1-.666,3.891q-.385,1.648-1.332,4.767-.371,1.288-.666,2.542l-21.1-12.181,18.263-10.551,5.048,2.927q.054.3.105.613a27.854,27.854,0,0,1,.421,4.312C1213.98,1092.32,1214.061,1092.39,1214.145,1092.462Zm178.072,54.438,1.525,6.555c-.133,0-.266,0-.4,0a1.454,1.454,0,0,0-.456,0v.018c-.212.01-.435.029-.666.052Z" transform="translate(-1.56 -89.171)" fill="#1d1d1b" fill-rule="evenodd" opacity="0.1"/>
    <path id="Trazado_2018" data-name="Trazado 2018" d="M1368.456,804.628a15.4,15.4,0,0,1-1.788,2.7,2.844,2.844,0,0,0,.561-1.858.964.964,0,0,0-1.262-1.017,2.4,2.4,0,0,0-1.472,1.157,8.852,8.852,0,0,0-.771,1.823,5.448,5.448,0,0,1-.7,1.718,3.1,3.1,0,0,1-1.3,1.332,3.355,3.355,0,0,0-.491-2.208,5.192,5.192,0,0,0-1.017-1.016,2.658,2.658,0,0,1-.561-.386,1.158,1.158,0,0,1,.14-.175,32.951,32.951,0,0,0,5.959-6.38q1.928-4.136,2.839-5.924a.877.877,0,0,1,.21.35,12.693,12.693,0,0,1,.771,2.594v.28c.047,0,.07.058.07.175v.386a8.852,8.852,0,0,1,.07,1.087A12.838,12.838,0,0,1,1368.456,804.628Zm-11.953-.175a.864.864,0,0,1-.281-.386,10.579,10.579,0,0,1-5.223.7,6.332,6.332,0,0,1-4-1.893,8.049,8.049,0,0,0-.561-.771l-.175,1.017a2.766,2.766,0,0,1-.526-1.087,3.015,3.015,0,0,1-.315-1.192l-.07-.806v-.07a2.708,2.708,0,0,1,0-1.227,9.553,9.553,0,0,1,1.4.806q4.381,2.314,6.029,2.313a9.3,9.3,0,0,0,6.17-2.313,22.91,22.91,0,0,0,5.223-8.168,7.568,7.568,0,0,0,.456-1.577,8.106,8.106,0,0,1,1.823,1.648,1.131,1.131,0,0,0,.14.175,1.994,1.994,0,0,0,.21.175,24.537,24.537,0,0,1-3.435,6.941A16.769,16.769,0,0,1,1356.5,804.452ZM1073.077,969.607q-.282,1.083-2.051,1.455a4.781,4.781,0,0,1-1.875.14,5.014,5.014,0,0,1-.508-.07,14.727,14.727,0,0,0-2.384-3.54q.491-.455,1.016-.876a5.788,5.788,0,0,1,.6-.456,8.655,8.655,0,0,1,1.122-.631c.13-.082.265-.163.4-.245q.377-.227.789-.456a8.182,8.182,0,0,1,.911-.456l.982-.491a7.992,7.992,0,0,1,.806-.245l.771-.28a1.587,1.587,0,0,1,.175-.052,6.168,6.168,0,0,1,.631-.193q.386-.14.771-.245t.806-.21q.35-.105.7-.175.526-.281,1.052-.6a10.076,10.076,0,0,0,1.087-.631l.561-.491.561-.631q.28-.315.526-.631.21-.315.386-.631.245-.455.491-.946c.023.233.047.456.07.666a7.089,7.089,0,0,1-1.577,4.382,4.956,4.956,0,0,0-1.192,4,1.324,1.324,0,0,1-1.227.035,4.557,4.557,0,0,0-2.349-2.138,2.682,2.682,0,0,0-1.437-.245,3.339,3.339,0,0,0-.7,3.61A2.259,2.259,0,0,1,1073.077,969.607Zm7.2-14.88-.7.7q-.35.35-.736.7-.421.315-.841.6a5.916,5.916,0,0,1-.911.561q-.455.316-.911.6a.848.848,0,0,1-.088.035q-.478.23-.929.456-.56.245-1.087.491-.6.21-1.157.421c-.058.022-.116.045-.175.07q-.472.178-.947.385-.561.21-1.087.456t-1.017.526l-.981.491q-.456.28-.876.6l-.841.561q-.386.315-.771.6a8.891,8.891,0,0,0-.666.666q-.491.456-.982.946l-.771.911a32.317,32.317,0,0,0-3.19-1.963.774.774,0,0,1-.315-.14,11.227,11.227,0,0,1,2.278-3.26,9.939,9.939,0,0,1,3.435-2.243q1.717-.667,3.435-1.367,1.237-.481,2.419-1.052.619-.3,1.227-.631a24.842,24.842,0,0,0,3.365-2.349q.776-.638,1.507-1.279.76-.673,1.472-1.35a8.535,8.535,0,0,0,1.455-1.753,7.946,7.946,0,0,0,.719-1.472,6.748,6.748,0,0,0,.245-3.786,13.016,13.016,0,0,1,.841,1.017,5.983,5.983,0,0,1,1.262,5.5,4.866,4.866,0,0,1-.3.824,5.5,5.5,0,0,1-.4.754,11.949,11.949,0,0,1-1.507,2.1q-.281.35-.561.666Q1080.982,953.991,1080.281,954.727Zm128.208-30.935a.176.176,0,0,1-.035.035A9.975,9.975,0,0,1,1206.3,925q-5.188,2.068-7.572.771a3.3,3.3,0,0,1-1.367-1.577h.245a8.465,8.465,0,0,0,2.1-.631,3.927,3.927,0,0,0,1.718-1.122,3.114,3.114,0,0,1,.6-.666l-.07-.7a6.892,6.892,0,0,0,.526-2.349,5.857,5.857,0,0,0-.351-2.629,13.77,13.77,0,0,0-3.26-4.066,7.957,7.957,0,0,1-1.087-1.087q-.035-1.157-.07-2.454a20.254,20.254,0,0,1,5.784-8.623,7.126,7.126,0,0,0,2-2.664,5.874,5.874,0,0,0-.491-4.031,9.162,9.162,0,0,0-1.052-2.033c.1-.024.189-.048.28-.07a8.724,8.724,0,0,1,4.329.088,14.328,14.328,0,0,1,.3-1.665,12.086,12.086,0,0,1,1.192-3.225,29.8,29.8,0,0,1,5.223-2.7,26.12,26.12,0,0,1,2.944-.946,14.305,14.305,0,0,1,2.944-.666l.6.526q-1.648,1.543-6.24,5.433-2.838,2.3-4.872,4.154-1.144,1.021-2.033,1.91a.1.1,0,0,0-.035.07.84.84,0,0,1,0,.105,4.955,4.955,0,0,0-.6.911,4.333,4.333,0,0,0-.35,3.4,4.25,4.25,0,0,0,2.208,2.664,4.47,4.47,0,0,0,3.313.368l-.018-.018.28-.07q1.468-.381,2.629-.754.9-.291,1.613-.578a3.936,3.936,0,0,0,1.034-.648,22.44,22.44,0,0,0,4.189-5.7q.841-1.577,5.573-10.867a23.692,23.692,0,0,1,1.3-2.454,4.757,4.757,0,0,1,1.087.982,7.132,7.132,0,0,1,2.208,4.662,30.228,30.228,0,0,1-3.085,9.535,28.865,28.865,0,0,1-1.4,2.594q-.9,1.6-2.016,3.33-.844,1.3-1.805,2.664-.666.49-2.1,1.437-1.4.946-2.1,1.472l-.491.333-.035.018q-.334-.315-.7-.666-.339-.3-.7-.631-1.3-1.157-2.4-2.1a5.129,5.129,0,0,1-.526,1.139q-1.656,2.76-6.888,4.785a18,18,0,0,0,1.122,1.507,8.062,8.062,0,0,1,.982,1.648,10.758,10.758,0,0,1,.631,5.118A7.615,7.615,0,0,1,1208.489,923.792ZM1316.576,1033a6.757,6.757,0,0,1-.315-1.332.259.259,0,0,1-.035-.105,15.675,15.675,0,0,1-.245-3.365,10.966,10.966,0,0,0,3.155.421q1.343,0,2.629-.07a36.693,36.693,0,0,0,4.189-.491,28.447,28.447,0,0,0,4.89-1.332,50.055,50.055,0,0,0,6.24-3.05,21.2,21.2,0,0,0,3.085-2.243,9.042,9.042,0,0,1,1.472,5.609v.175l-4.171,2.7.21.35.07.14a32.353,32.353,0,0,1-11.725,2.927q-.773.05-1.56.07-.627.018-1.262.017A44.415,44.415,0,0,1,1316.576,1033Zm21.8,0-1.753,4.592q-.6,1.262-2.033-1.367-1.017-.7-1.367.315a33.68,33.68,0,0,0-2,3.856,2.89,2.89,0,0,1-1.3,1.3,8.661,8.661,0,0,1-8.8-.035l-.245-.368a44.122,44.122,0,0,1-3.575-6.327q.807.245,2.138.806a12.205,12.205,0,0,0,4.662,1.052,7.337,7.337,0,0,0,.911-.07,76.594,76.594,0,0,0,11.007-2.91q1.331-.631,2.348-1.052Z" transform="translate(-3.458 -1.106)" fill="#452312" fill-rule="evenodd"/>
    <path id="Trazado_2019" data-name="Trazado 2019" d="M1491.6,816.057q-1.963,13.811-6.66,16.9a10.246,10.246,0,0,0-.806-3.155,5.919,5.919,0,0,0-2-2.524,53.114,53.114,0,0,1-6.31-3.926q-1.367-1.157-2.524-2.279a18.471,18.471,0,0,1-2.629-3.015q.6-.28,2.173-.946.841-.316,1.4-.561a6.662,6.662,0,0,0,1.016.806,9.044,9.044,0,0,0,4.943,1.157q3.505,0,4.347-4.767.14-4.837.14-5.048a8.683,8.683,0,0,0-.7-3.365,12.836,12.836,0,0,0,1.262-5.363,8.853,8.853,0,0,0-.07-1.087v-.386c0-.117-.023-.175-.07-.175v-.28a12.7,12.7,0,0,0-.771-2.594.877.877,0,0,0-.21-.351,7.709,7.709,0,0,0-1.788-2.594,2,2,0,0,1-.21-.175,1.131,1.131,0,0,1-.14-.175,34.136,34.136,0,0,1,9.6,4.1q3.12,1.717,8.974,5.609a26.974,26.974,0,0,1,6.87,6.169,14.489,14.489,0,0,0-7.572-1.648q-8.308.561-8.308,7.537Q1491.563,814.934,1491.6,816.057Zm-44.238,21a10.608,10.608,0,0,1,7.5,2.874q-.631,1.262-1.4,2.664a7.414,7.414,0,0,0-1.157-.631l-.421-.21c-.047,0-.116-.046-.21-.14a18.464,18.464,0,0,0-3.365-1.577,10.841,10.841,0,0,1-1.367,1.017l-.14-.491A11,11,0,0,1,1447.361,837.054Zm57.943,9.359a25.286,25.286,0,0,1-7.4-1.577q-.911-.281-1.963-.666-.736-.35-1.472-.771.946-1.507,1.823-3.085,1.717-3.26,3.33-6.8a23.338,23.338,0,0,1,3.54,7.5q1.087,3.295,1.858,5.328A1.746,1.746,0,0,0,1505.3,846.413Zm-35.439.35a28.965,28.965,0,0,1,3.19,1.227,14.476,14.476,0,0,1,3.435,2.1q-.384.872-.911,2.226-.354-.151-.754-.333l-.876-.456q-.315-.166-.649-.351-2.1-1.052-3.435-1.612a.34.34,0,0,1-.035.035.8.8,0,0,1-.07.07l-.052.053a3.34,3.34,0,0,1-.4.368q-.07-.983-.07-1.087A9.46,9.46,0,0,1,1469.865,846.763Z" transform="translate(-118.994 -1.809)" fill="#ffd22e" fill-rule="evenodd"/>
    <path id="Trazado_2020" data-name="Trazado 2020" d="M1481.2,806q-.421-.246-.806-.456-.7-.421-1.087-.7a4.606,4.606,0,0,1-1.262-1.262,16.769,16.769,0,0,0,6.87-5.714,24.543,24.543,0,0,0,3.435-6.941,7.71,7.71,0,0,1,1.788,2.594q-.911,1.788-2.839,5.924a32.949,32.949,0,0,1-5.959,6.38A1.158,1.158,0,0,0,1481.2,806Zm-14.3-8.132a8.827,8.827,0,0,1,2-5.013,17.939,17.939,0,0,1,5.258-4.347,10.578,10.578,0,0,1,7.256-1.507,10.065,10.065,0,0,1,4.767,1.928,7.569,7.569,0,0,1-.456,1.577,22.909,22.909,0,0,1-5.223,8.167,9.3,9.3,0,0,1-6.17,2.314q-1.647,0-6.029-2.314A9.558,9.558,0,0,0,1466.9,797.866Z" transform="translate(-125.003 -0.233)" fill="#713d22" fill-rule="evenodd"/>
    <path id="Trazado_2021" data-name="Trazado 2021" d="M1399.084,804.448a8.683,8.683,0,0,1,.7,3.365q0,.21-.14,5.048-.841,4.767-4.347,4.767a9.044,9.044,0,0,1-4.943-1.157,6.679,6.679,0,0,1-1.017-.806q.526-.281.806-.456a5.764,5.764,0,0,0,2.7,1.122,3.509,3.509,0,0,0,2.664-.946,6.612,6.612,0,0,0,1.648-3.926q.07-.807.14-4.312A15.4,15.4,0,0,0,1399.084,804.448ZM1383.24,789.2a17.938,17.938,0,0,0-5.258,4.347,8.827,8.827,0,0,0-2,5.013,2.711,2.711,0,0,0,0,1.227v.07l.07.806a9.442,9.442,0,0,1,.14-6.31q1.332-3.505,4.382-4.1.246-.14,1.262-.631A3.5,3.5,0,0,1,1383.24,789.2Zm-9.394,56.191a13.25,13.25,0,0,0-1.788-3.891,15.321,15.321,0,0,0-2.1-2.454,10.608,10.608,0,0,0-7.5-2.874q.49-1.017,1.016-1.893a15.207,15.207,0,0,1,5.469,1.718q1.122.631,2.1,1.262,5.153,3.05,5.153,6.31v.386a2.184,2.184,0,0,1-.456.351,4.957,4.957,0,0,1-.456.351l-.806.421A3.913,3.913,0,0,1,1373.846,845.391Zm20.892,10.8q-.386-1.963-1.016-4.312a5.03,5.03,0,0,0-2.138-2.664,14.478,14.478,0,0,0-3.435-2.1,28.977,28.977,0,0,0-3.19-1.227q.315-.631.7-1.3a11.968,11.968,0,0,1,.947-1.157,11.678,11.678,0,0,1,6.169,3.155,16.15,16.15,0,0,1,1.963,2.384,20.745,20.745,0,0,1,2.7,6.275A9.8,9.8,0,0,1,1394.738,856.187Zm-42.275,187.764a23,23,0,0,1,10.884,4.154q1.129.784,2.226,1.718c.046.039.093.08.14.123a23.407,23.407,0,0,1,2.314,2.261,36.747,36.747,0,0,1-6.748-2.1q-1.9-.773-4.049-1.788-2.832-1.346-4.7-2.384a16.141,16.141,0,0,1-3.19-2.1A22.974,22.974,0,0,1,1352.463,1043.952Zm-169.8,63.359h.035a3.577,3.577,0,0,1,1.648.315.031.031,0,0,0,.035.035,1.491,1.491,0,0,1,.876,1.192,2.067,2.067,0,0,1,.105,1.788,2.8,2.8,0,0,1-.6.841l-.982,1.122h-.035a2.079,2.079,0,0,0-.21.526.841.841,0,0,0,.561,1.017h.035a10.085,10.085,0,0,1,2.454,1.437,2.278,2.278,0,0,1,1.087,2.314l.035-.035a2.4,2.4,0,0,1-1.052,1.963h-.035a7.023,7.023,0,0,1-3.155,1.052h-.035q-1.963.141-3.961.21-2.489.07-4.872.245l-3.33.21a52.9,52.9,0,0,1-6.1-.07,1.188,1.188,0,0,1-.666-.315.93.93,0,0,1,.07-1.332.95.95,0,0,1,.7-.281,55.061,55.061,0,0,0,5.889.105h.035q1.612-.105,3.3-.175,2.419-.21,4.943-.281,1.962-.105,3.891-.175a5.319,5.319,0,0,0,2.208-.771l.035-.035a.7.7,0,0,0,.21-.386v-.07a.7.7,0,0,0-.315-.666h-.035a8.414,8.414,0,0,0-2.068-1.122,2.657,2.657,0,0,1-1.753-3.05l.035.035a2.653,2.653,0,0,1,.7-1.577q.526-.631,1.052-1.157v-.035a.763.763,0,0,0,.088-.123.545.545,0,0,0,.053-.473,1.337,1.337,0,0,1-.105-.28,2.294,2.294,0,0,0-.684-.105h-.017a1.917,1.917,0,0,0-.561.105q-.387.125-.771.245-1.976.661-3.856,1.367-2.453.912-4.978,1.893-2.874,1.052-5.854,2.1h.035q-1.332.455-2.769.911a1.007,1.007,0,0,1-.771-.1.743.743,0,0,1-.386-.526.885.885,0,0,1,.035-.736.836.836,0,0,1,.526-.491q1.437-.386,2.734-.841l-.035-.035q2.979-1.017,5.819-2.068,2.558-1.017,4.977-1.893l.473-.175q2.052-.748,4.224-1.472l.035-.035A4.074,4.074,0,0,1,1182.664,1107.311Z" transform="translate(-34.087 -0.927)" fill="#fff" fill-rule="evenodd"/>
    <path id="Trazado_2022" data-name="Trazado 2022" d="M1463.936,824.466a.717.717,0,0,1-.28-.035,3.21,3.21,0,0,1-1.858-1.682,5.342,5.342,0,0,1-.421-2.454q-1.437.176-1.367-1.262a4.538,4.538,0,0,1,.351-1.157,10.341,10.341,0,0,0,.245-1.157,22.134,22.134,0,0,1-1.578-4.487.408.408,0,0,1-.07-.28,17.522,17.522,0,0,0,9.359,2.278,4.123,4.123,0,0,0,3.12-1.577q.386.21.806.456a2.653,2.653,0,0,0,.561.386,5.193,5.193,0,0,1,1.017,1.017,3.355,3.355,0,0,1,.491,2.208,3.1,3.1,0,0,0,1.3-1.332,5.447,5.447,0,0,0,.7-1.718,8.85,8.85,0,0,1,.771-1.823,2.4,2.4,0,0,1,1.472-1.157.963.963,0,0,1,1.262,1.017,2.844,2.844,0,0,1-.561,1.858,5.813,5.813,0,0,1-1.648,1.788,5.846,5.846,0,0,0-1.647,1.753,12.462,12.462,0,0,1-3.856,4.522q-.281.176-.806.456-.56.245-1.4.561-1.577.666-2.173.946-1.332.526-2,.841A2.762,2.762,0,0,1,1463.936,824.466Zm-12.444,32.092a6.249,6.249,0,0,1-1.577,1.034q-.421.14-1.052.421a23.843,23.843,0,0,0,.491-2.682c.049-.441.089-.89.123-1.35.006-.106.011-.211.018-.315h-.158a3.313,3.313,0,0,0-1.77.631,7.924,7.924,0,0,0-2.419,3.295q-.6,1.647-1.648,4.522a.2.2,0,0,1-.14.07.924.924,0,0,1-1.227-.456,1.822,1.822,0,0,1-.28-1.437,2.1,2.1,0,0,1-1.227.6,1.2,1.2,0,0,1-.911-.491,1.348,1.348,0,0,1-.28-1.087,1.769,1.769,0,0,1,.7-1.157q-1.577.805-2.138-.421a2.444,2.444,0,0,1-.14-1.157,1.979,1.979,0,0,1,.771-1.192,3.975,3.975,0,0,1-1.227-.245q-.7-.28-.351-1.052a17.308,17.308,0,0,1,2.892-4.189,17.084,17.084,0,0,1,3-2.541q.561-.421,1.052-.771a10.835,10.835,0,0,0,1.367-1.017,18.456,18.456,0,0,1,3.365,1.577c.094.094.163.14.21.14l.421.21a7.406,7.406,0,0,1,1.157.631l.508.21q.74.279,1.139.386l-.018.035h.018a5.467,5.467,0,0,0-.228,1.507l.158,2.173a2.992,2.992,0,0,0,.07.561c.005.041.012.082.018.123s.01.081.017.123a.21.21,0,0,1,0,.053l.035,1.595a3.585,3.585,0,0,1-.315,1.192A2.859,2.859,0,0,1,1451.492,856.558Zm19.069,11.042h-.018q-.6.218-1.455.508a6.1,6.1,0,0,0-2.138,1.858,7.349,7.349,0,0,1-2.068,1.928.993.993,0,0,1-1.227-.631,1.577,1.577,0,0,1-.281-1.3,2.188,2.188,0,0,1-1.227.561,1.2,1.2,0,0,1-.911-.491,1.4,1.4,0,0,1-.281-1.087,2.308,2.308,0,0,1,.631-1.262q-1.507.912-2-.421a1.819,1.819,0,0,1-.21-1.157,2.6,2.6,0,0,1,.771-1.087,3.62,3.62,0,0,1-1.262-.28q-.667-.281-.315-1.017a17.778,17.778,0,0,1,1.349-2.3h-.018q.313-.45.649-.876l.7-.824,2.331-2.191q.426-.333.876-.648c.2-.121.4-.238.578-.351q.451-.3.841-.561c.155-.106.3-.212.438-.315a.243.243,0,0,0,.035-.035,3.34,3.34,0,0,0,.4-.368l.053-.053a.845.845,0,0,0,.07-.07.327.327,0,0,0,.035-.035q1.332.562,3.435,1.612.333.184.648.351l.876.456q.4.182.754.333l.035.018c.2.116.386.222.561.315s.339.175.491.245a7.414,7.414,0,0,0-.07,3.611,6.537,6.537,0,0,1,.07.911,5.5,5.5,0,0,1-.245,2.7,3.533,3.533,0,0,1-.754.789l-.526.386q-.333.21-.719.4c-.111.047-.239.1-.386.158S1470.757,867.526,1470.562,867.6Z" transform="translate(-116.045 -7.344)" fill="#feb37c" fill-rule="evenodd"/>
    <path id="Trazado_2023" data-name="Trazado 2023" d="M1474.238,811.662a4.124,4.124,0,0,1-3.12,1.577,17.522,17.522,0,0,1-9.359-2.278,14.165,14.165,0,0,1-.105-2.594l.175-1.017a8.054,8.054,0,0,1,.561.771,6.332,6.332,0,0,0,4,1.893,10.579,10.579,0,0,0,5.223-.7.864.864,0,0,0,.281.386,4.606,4.606,0,0,0,1.262,1.262Q1473.537,811.241,1474.238,811.662Zm-22.574,45.359v.07c-.187.047-.4.093-.631.14l-.736.351a5.272,5.272,0,0,0-2.068,1.718L1447,860.666a1.71,1.71,0,0,1-.7.456q1.052-2.874,1.648-4.522a7.924,7.924,0,0,1,2.419-3.3,3.314,3.314,0,0,1,1.77-.631h.158c-.006.1-.012.21-.018.316-.034.459-.073.908-.123,1.349A23.844,23.844,0,0,1,1451.663,857.021Z" transform="translate(-118.845 -6.352)" fill="#ed8a55" fill-rule="evenodd"/>
    <path id="Trazado_2024" data-name="Trazado 2024" d="M1487.1,822.862a12.463,12.463,0,0,0,3.856-4.522,5.845,5.845,0,0,1,1.647-1.753,5.814,5.814,0,0,0,1.648-1.788q-.07,3.505-.14,4.312a6.613,6.613,0,0,1-1.647,3.926,3.509,3.509,0,0,1-2.664.946A5.764,5.764,0,0,1,1487.1,822.862Z" transform="translate(-131.041 -8.579)" fill="#ce7c56" fill-rule="evenodd"/>
    <path id="Trazado_2025" data-name="Trazado 2025" d="M1538.833,834.069q2.208,8.623-4.908,15.108a12.025,12.025,0,0,1-7.957,3.295h-1.577a1.739,1.739,0,0,1-.28-.07q-.772-2.033-1.858-5.328a23.338,23.338,0,0,0-3.54-7.5,13.71,13.71,0,0,0,.561-1.472q1.191-2.664,2.313-5.468a42.657,42.657,0,0,0,2.208-6.73,9.093,9.093,0,0,0,.385-2.138,1.589,1.589,0,0,0,0-.666,7.235,7.235,0,0,0-1.928-6.555,4.842,4.842,0,0,0-.946-1.017,10.6,10.6,0,0,0-1.332-.806q-2.98-1.472-6.555,2.033a59.379,59.379,0,0,0-2.734,5.363q-.035-1.122-.035-2.138,0-6.975,8.308-7.536a14.487,14.487,0,0,1,7.572,1.648q.315.315.631.666,1.017,1.367,4.767,7.922,2.419,4.031,5.784,10.236a1.932,1.932,0,0,1,.561.421A4.733,4.733,0,0,1,1538.833,834.069Z" transform="translate(-138.081 -7.868)" fill="#eb7100" fill-rule="evenodd"/>
    <path id="Trazado_2026" data-name="Trazado 2026" d="M1456.622,844.343q-.981-.631-2.1-1.262a15.2,15.2,0,0,0-5.468-1.718c.094-.093.2-.21.315-.351a29.281,29.281,0,0,1,4-4.487q6.484-6.17,7.642-12.479,1.122-7.291,1.648-11.147a22.133,22.133,0,0,0,1.577,4.487,10.356,10.356,0,0,1-.245,1.157,4.539,4.539,0,0,0-.351,1.157q-.07,1.437,1.367,1.262a5.344,5.344,0,0,0,.421,2.454,3.211,3.211,0,0,0,1.858,1.682.717.717,0,0,0,.28.035,47.5,47.5,0,0,1-5.293,9.99Q1459.672,839.155,1456.622,844.343Zm28.989-5.188q4.7-3.086,6.66-16.9a59.439,59.439,0,0,1,2.734-5.363q3.576-3.5,6.555-2.033a10.6,10.6,0,0,1,1.332.806,4.838,4.838,0,0,1,.947,1.017q-.386.21-.806.456a11.066,11.066,0,0,0-5.293,8.132q-1.017,6.1-1.262,7.291a25.011,25.011,0,0,1-2.8,7.221q-1.4,2.069-7.747,7.151-5.994,4.662-7.572,6.73a11.678,11.678,0,0,0-6.169-3.155,2.051,2.051,0,0,1,.526-.491,39.373,39.373,0,0,1,4.872-3.576A27.666,27.666,0,0,0,1485.611,839.155Z" transform="translate(-119.667 -8.011)" fill="#ffeeb4" fill-rule="evenodd"/>
    <path id="Trazado_2027" data-name="Trazado 2027" d="M1502.466,841.33q-1.613,3.541-3.33,6.8-.877,1.577-1.823,3.085a52.531,52.531,0,0,1-5.153,7.081l-5.048,4.557q-.982.6-1.928,1.087a20.745,20.745,0,0,0-2.7-6.275,16.165,16.165,0,0,0-1.963-2.384q1.577-2.068,7.572-6.73,6.346-5.082,7.747-7.151a25.014,25.014,0,0,0,2.8-7.221q.246-1.191,1.262-7.291a11.066,11.066,0,0,1,5.293-8.132q.42-.245.806-.456a7.235,7.235,0,0,1,1.928,6.555,1.59,1.59,0,0,1,0,.666,9.087,9.087,0,0,1-.385,2.138,42.667,42.667,0,0,1-2.208,6.73q-1.121,2.8-2.314,5.468A13.71,13.71,0,0,1,1502.466,841.33Zm-28.954-15.459a18.469,18.469,0,0,0,2.629,3.015q-.772,2.909-1.612,5.5-4.241,13.39-10.586,18.263v-.386q0-3.26-5.153-6.31,3.05-5.187,5.644-9.219a47.517,47.517,0,0,0,5.293-9.99,2.762,2.762,0,0,0,1.788-.035Q1472.18,826.4,1473.511,825.872ZM1457.7,847.745a15.319,15.319,0,0,1,2.1,2.454,13.248,13.248,0,0,1,1.788,3.891,11.141,11.141,0,0,1-3.646,1.192,2.991,2.991,0,0,1-.07-.561l-.158-2.173a5.476,5.476,0,0,1,.228-1.507h-.017l.017-.035q-.4-.106-1.139-.386l-.508-.21Q1457.071,849.007,1457.7,847.745Zm21.628,10.166a5.029,5.029,0,0,1,2.138,2.664q.631,2.349,1.017,4.312a13.094,13.094,0,0,1-2.979.351,6.539,6.539,0,0,0-.07-.911,7.415,7.415,0,0,1,.07-3.611c-.151-.07-.316-.151-.491-.245s-.362-.2-.561-.315l-.035-.018Q1478.947,858.783,1479.33,857.911Z" transform="translate(-121.834 -9.626)" fill="#ff932e" fill-rule="evenodd"/>
    <path id="Trazado_2028" data-name="Trazado 2028" d="M1407.343,903.592l-10.621-6.134V874.918l-1.437-13.215a12.026,12.026,0,0,0,7.957-3.3q7.115-6.485,4.907-15.108a23.191,23.191,0,0,1,3.155,20.962,60.707,60.707,0,0,0-1.893,8.8q-1.367,10.2-2.1,20.436A62.645,62.645,0,0,0,1407.343,903.592Zm-139.426,251.825q.2-.6.4-1.192.376-.945,1.122-2.524l.175-.35q.7-.981,1.3-1.858a15.753,15.753,0,0,1,1.3-1.718,9.329,9.329,0,0,0,1.087-1.612,4.726,4.726,0,0,0,.385-2.419,9.261,9.261,0,0,0-.456-2.664,3.228,3.228,0,0,0-1.192-1.63,1.9,1.9,0,0,0,.245-.017,3.275,3.275,0,0,1,1.332.421,1.893,1.893,0,0,1,.824,1.1,14.435,14.435,0,0,1,.648,3.453,10.108,10.108,0,0,1-1.367,6.7,32.494,32.494,0,0,1-2.611,3.7l-.018.017q-.911,1.052-2.033,2.279-.944,1.033-2.208,2.629c.124-.3.217-.528.281-.7a3.683,3.683,0,0,0,.35-1.262A11.7,11.7,0,0,1,1267.917,1155.417ZM1131.751,980.429l-11.112,6.415-25.554-14.687,11.182-6.45Zm-15.774,19.945,11.077-6.274a4.282,4.282,0,0,0-.947,1.087,4,4,0,0,0-.543,2.243q-1.638.2-3.067,3.26.105.315.911.771a4.174,4.174,0,0,0,1.4.561q-.526,1.437.526,4.242,1.016,2.839,2.068,2.839a9.079,9.079,0,0,0,2-.736,19.838,19.838,0,0,0,2.261-1.174,39.563,39.563,0,0,0,3.733,3.208q1.227.841,2.348,1.542,1.122.631,2.068,1.052a7.949,7.949,0,0,1,.105,1.122q-.034,3.19-3.961,5.469a2.485,2.485,0,0,1-.666.28q-4.312,1.928-11.077-3.015a33.18,33.18,0,0,1-8.553-9.394q-2.033-3.541-.736-5.819A8.614,8.614,0,0,1,1115.977,1000.375Zm72.386,12.689-11.182,6.45-38.033-21.909,11.182-6.45Zm17.457,49.355-11.042,6.485a1.476,1.476,0,0,0-.351-.07,11.294,11.294,0,0,0-5.118.035,12.6,12.6,0,0,1-5.013.21q-2.629-.631-4.662-4.136a44.9,44.9,0,0,1-2.419-6.59l11.182-6.45a45.03,45.03,0,0,0,2.418,6.59q2.033,3.505,4.662,4.136a12.6,12.6,0,0,0,5.013-.21,11.754,11.754,0,0,1,5.118-.07Zm176.354-173.357q-1.442-9.676-3.646-19.157-.49-2.069-.806-4.136a52.524,52.524,0,0,0,5.153-7.081q.736.421,1.472.771a36.964,36.964,0,0,0,.245,5.363,88.439,88.439,0,0,0,.947,9.009q.455,3.61,1.087,7.256.631,4,1.332,8.167.255,1.716.491,3.435Zm-73.63,228.111-.158.491a36.892,36.892,0,0,1-7.852,1.928,24.193,24.193,0,0,1-5.328.175h-.315a.262.262,0,0,0-.105-.035q.037-.374.088-.754a37.4,37.4,0,0,1,2.016-8.255,52.805,52.805,0,0,1,4.276-9.114q.841-1.436,1.718-2.874a83.079,83.079,0,0,1,7.361-9.833q2.578-2.991,5.451-5.731,1.578-1.51,3.242-2.944,1.051-.911,2.138-1.788,1.4-1.157,2.8-2.138,8.868-6.589,15.353-7.081a9.362,9.362,0,0,1,2.98.175c.117.163.245.327.385.491a12.074,12.074,0,0,1,1.718,3.19,21.232,21.232,0,0,0-4.978-1.718q-4.066-.981-6.1,2.243-2.348,6.135,2.138,12.058.366.476.771.911a22.532,22.532,0,0,1-2.243,1.034q-.636.257-1.3.473-.421.246-.806.491a.113.113,0,0,0-.1.07q-1.788,1.017-3.541,2.033l-1.4.841-2.927,1.77q-1.452.893-2.892,1.788-.426.251-.841.508-.476.3-.929.613a21.484,21.484,0,0,0-2.471,1.963,17.056,17.056,0,0,0-3.12,3.733,13.4,13.4,0,0,0-.946,1.753.708.708,0,0,1-.035.105.326.326,0,0,0-.018.035Zm-218.506-109.753-1.683.876a5.06,5.06,0,0,1-2.419-3.47l.947-6.2,2.419,2.664a7.627,7.627,0,0,1,1.052,4.241A8.64,8.64,0,0,1,1090.038,1007.421Zm34.142,138.917q0,.351-.035.7a3.076,3.076,0,0,1-1.578,1.542,13.284,13.284,0,0,1-2.208.526,21.439,21.439,0,0,1-9.465-2.138q-1.437-.736-2.909-1.367a27.588,27.588,0,0,0-7.326-1.963q-2.083-.363-4.171-.754a17.711,17.711,0,0,1,3.155-1.069q2.769-.6,4.1-.947.841-.21,1.542-.456a11.209,11.209,0,0,0,2.244-1.017,6.971,6.971,0,0,0,2.8-2.839,1.383,1.383,0,0,0,.175-.315c-.036-.057-.072-.115-.105-.175q.6.386,1.227.771c.14.094.268.175.385.245q-.176.7-.526,1.683a10.889,10.889,0,0,0-.771,2.874,4.145,4.145,0,0,0,3.3,4.417,25.74,25.74,0,0,0,7.186.315Q1122.848,1146.3,1124.18,1146.338Zm-32.144,19.209a12.519,12.519,0,0,1-8.167.281q-1.612-.386-3.225-.876a5.772,5.772,0,0,1-3.365-3.085q-.386-.805-.736-1.647-1.086-2.559-2-5.118-.491-1.328-1.069-2.612a24.593,24.593,0,0,0,9.026-.088,22.236,22.236,0,0,0,3.646-1.016c.068-.027.132-.056.193-.088a29.322,29.322,0,0,0,1.805,3.418,40.065,40.065,0,0,1-3.961.771q-5.818.946-5.819,3.891a4.736,4.736,0,0,0,1.507,3.05q2.524,2.8,7.957,2.8.421,0,3.155-.315.561-.07,1.052-.14Zm219.172-30.847a6.709,6.709,0,0,0,2.244,2.1l.123.07q.1.048.21.105.223.11.456.21a10.721,10.721,0,0,0,1.367.473,9.071,9.071,0,0,0,3.155.263q.49-.105,1.718-.351a16.623,16.623,0,0,1,3.26-.421,4.152,4.152,0,0,0,3.225-1.647,6.251,6.251,0,0,0,.771-1.472q.215-.537.438-1.1.29-.857.491-1.367.1-.267.193-.543h.052a.175.175,0,0,1,.053.035,3.343,3.343,0,0,0,.666.281,11.421,11.421,0,0,1-.981,3.856q-.526,1.122-.981,2.138,0,.456,1.157.876a7.645,7.645,0,0,0,2.138.316q1.718,0,5.083-2.629l1.4-1.087c.15-.111.29-.216.421-.315a3.558,3.558,0,0,1-.281,1.087,10.354,10.354,0,0,1-1.542,2.734,9.124,9.124,0,0,1-5.959,3.12,12.517,12.517,0,0,1-3.365-.035q-1.612-.141-3.19-.245a1.122,1.122,0,0,0-.281-.035q-1.577-.21-3.19-.421a11.711,11.711,0,0,1-3.26-.806,14.975,14.975,0,0,1-2.909-1.542,18.549,18.549,0,0,1-2.559-2.138q-.385-.315-.7-.631l.526-.946A.722.722,0,0,0,1311.208,1134.7Z" transform="translate(-7.396 -17.099)" fill="#cb2069" fill-rule="evenodd"/>
    <path id="Trazado_2029" data-name="Trazado 2029" d="M1215.564,1082a21.371,21.371,0,0,1,.228,2.629,16.238,16.238,0,0,1-.491,4.206,9.744,9.744,0,0,1-2.419,4.382,9.975,9.975,0,0,1-1.612,1.367,1.631,1.631,0,0,1-.175.105l-.543.315-11.024,6.45a18.189,18.189,0,0,0,1.507-1.227,10.75,10.75,0,0,0,3.085-4.942,13.031,13.031,0,0,0,.491-4.171,21.194,21.194,0,0,0-2.945-10.551,10.308,10.308,0,0,0-4.8-4.767l11.042-6.485q2.734,1.052,4.872,4.8A21.809,21.809,0,0,1,1215.564,1082Zm-36.263,39.26v-26.711a7.4,7.4,0,0,1,1.367-1.262,1.559,1.559,0,0,1,.491-.386q.21-.105.666-.386,2.979-1.437,5.048.07a5.773,5.773,0,0,1,.876.841,23.979,23.979,0,0,1,2.349,3.891q.21.351.35.6l.035,16.9Zm-56.576-127.525,11.112-6.415a11.361,11.361,0,0,1,1.262,6.45,9.125,9.125,0,0,1-3.155,4.662q-1.823,1.543-2.8,2.559l-11.077,6.275q1.017-.912,2.7-2.384a9.126,9.126,0,0,0,3.155-4.662A11.773,11.773,0,0,0,1122.724,993.735Zm67.759,65.059-11.182,6.45-.035-38.839,11.182-6.45Zm188.991-165.61a116.845,116.845,0,0,0-4.715-15.967l5.048-4.557q.315,2.069.806,4.136,2.2,9.482,3.646,19.157Zm19.332,11.165-8.273-4.767q-.235-1.718-.491-3.435-.7-4.172-1.332-8.167-.631-3.646-1.087-7.256a88.475,88.475,0,0,1-.946-9.009,36.962,36.962,0,0,1-.245-5.363q1.052.386,1.963.666a25.288,25.288,0,0,0,7.4,1.577h1.577l1.437,13.215ZM1090.44,1015.187l1.683-.876,1.788,3.681-.491,2.314-2.173-1.4Zm23.276,128.541a27.155,27.155,0,0,0,4.943,2.278,16.035,16.035,0,0,1,5.854,3.33,4.96,4.96,0,0,1,1.753,3.891q-1.333-.035-2.98.035a25.739,25.739,0,0,1-7.186-.315,4.145,4.145,0,0,1-3.3-4.417,10.878,10.878,0,0,1,.771-2.874q.35-.982.526-1.683C1113.984,1143.9,1113.856,1143.823,1113.716,1143.729Zm-19.595,27.938q-.491.07-1.052.14-2.734.315-3.155.315-5.434,0-7.957-2.8a4.735,4.735,0,0,1-1.507-3.05q0-2.945,5.819-3.891a40.065,40.065,0,0,0,3.961-.771.4.4,0,0,1,.07.105q1.262,2.033,2.349,4.206A13.61,13.61,0,0,1,1094.121,1171.666Zm237.593-33.441a6.715,6.715,0,0,0,3.786.175,3.943,3.943,0,0,1,3.4.841,2.493,2.493,0,0,1,1.052,2.138c-.13.1-.271.2-.421.316l-1.4,1.087q-3.365,2.629-5.083,2.629a7.648,7.648,0,0,1-2.138-.315q-1.157-.421-1.157-.876.455-1.017.981-2.138A11.423,11.423,0,0,0,1331.714,1138.225Z" transform="translate(-9.481 -23.989)" fill="#ed428b" fill-rule="evenodd"/>
    <path id="Trazado_2030" data-name="Trazado 2030" d="M1524.568,1073.03l18.473,10.656,1.4,6.169-24.993-14.407,4.7-2.7Zm6.8,37.63v-5.03l.316-.175.456.245,18.473,10.656,1.4,6.169Zm3.19,30.164,4.7-2.7.421.28,18.438,10.621,1.437,6.2Z" transform="translate(-140.711 -85.688)" fill="#9999ef" fill-rule="evenodd"/>
    <path id="Trazado_2031" data-name="Trazado 2031" d="M1565.875,1155.5l-24.783-107.439v-24.59l27.675,119.953,2.121,9.167Zm-42.853-100.043.649,2.839-.421-.28-4.7,2.7-2.1-9.079Zm3.348,14.442,1.245,5.4-6.555-3.786-1.244-5.4Zm4.1,17.719.771,3.348-.456-.245-.316.175Zm3.19,38.471-3.19-13.811v-11.708l3.435,1.963,4.873,21.137-.421-.28Zm2.8,12.2-1.613-6.87,6.625,3.821v.14Z" transform="translate(-139.814 -70.958)" fill="#6a6adc" fill-rule="evenodd"/>
    <path id="Trazado_2032" data-name="Trazado 2032" d="M1536.856,1064.877l2.331-1.349v-4.978l24.783,107.439-4.347-2.454-1.613-7.186-18.438-10.621-6.625-3.821,1.613,6.871-1.858-1.069q-.151-1.93-2.611-1.98l-1.525-6.555v-16.405l3.19,13.811,24.993,14.407-1.437-6.2-4.872-21.1L1532,1113.023l-3.435-1.963v-4.645l20.647,11.866-1.4-6.169-4.907-21.1-18.438-10.621-6.555-3.786,1.244,5.4-4.452-2.577-4.627-19.893,4.469,2.594,2.1,9.079,24.993,14.407-1.4-6.17Z" transform="translate(-137.909 -81.443)" fill="#4c4cc2" fill-rule="evenodd"/>
    <path id="Trazado_2033" data-name="Trazado 2033" d="M1152.528,1143.608a9.365,9.365,0,0,1-1.682-3.786v-.035a8.814,8.814,0,0,1,0-4.136,9.431,9.431,0,0,1,.421-1.3,5.6,5.6,0,0,1,1.56-2.1,4.188,4.188,0,0,1,1.735-.806l6.1-1.3a4.77,4.77,0,0,0-3.085,2.874,8.847,8.847,0,0,0-.421,5.433v.035a8.855,8.855,0,0,0,2.594,4.8,4.627,4.627,0,0,0,4,1.332l-6.1,1.3a4.758,4.758,0,0,1-4.206-1.3A13.262,13.262,0,0,1,1152.528,1143.608Zm195.634-234q-1.135,10.155-6.275,13.128l-.771.421-10.1,5.854a10.885,10.885,0,0,0,4.171-5.188,28.6,28.6,0,0,0,1.788-7.817,35.92,35.92,0,0,0,.035-7.922,14.886,14.886,0,0,0-1.472-5.573,14.429,14.429,0,0,0-5.468-5.819c0-.023-.024-.035-.07-.035a5.357,5.357,0,0,0-5.363-.105,3.361,3.361,0,0,0-.28.385,20.662,20.662,0,0,0-1.682,2.419,11.114,11.114,0,0,1-3.015,3.33,7.336,7.336,0,0,1-1.052.526,3.97,3.97,0,0,1-2.559.526q-1.226-.35-2.629-2.769-.876-1.508-3.155-10.2-.911-3.61-1.472-6.029l.035-24.537,11.147-6.45v24.537q.561,2.419,1.472,6.029,2.208,8.694,3.085,10.2a14.7,14.7,0,0,0,1.087,1.612l10.306-6.064a5.009,5.009,0,0,1,2.559-.648v1.63q.561,2.419,1.472,6.064,2.243,8.694,3.12,10.2,1.4,2.453,2.629,2.734a3.7,3.7,0,0,0,2.349-.386A1.069,1.069,0,0,1,1348.162,909.608Zm-74.98,35.79a.122.122,0,0,1-.035-.018,16.65,16.65,0,0,0-2.769-2.874q-1.15-.869-2.051-1.577a10.871,10.871,0,0,1-.824-2.909,4.671,4.671,0,0,1,1.893-4.031,7.065,7.065,0,0,1,1.367-.982l11.007,6.38a17.388,17.388,0,0,1,.736,2.208,6.83,6.83,0,0,1,.21,1.577,5.6,5.6,0,0,1-2.086,4.1,41.365,41.365,0,0,1-6.327-1.542Q1273.738,945.56,1273.182,945.4Zm35.65-5.153V921.684q.56-.315,1.227-.7,4.1-2.384,6.625.421a15.209,15.209,0,0,1,1.963,3.12q.877,1.542,1.367,2.489v7.519a4.492,4.492,0,0,0-1.507-.052q-1.156.315-1.612.456-.491.176-1.472.561a1.382,1.382,0,0,1-.315.175,4.178,4.178,0,0,0-1.052.806,2.628,2.628,0,0,1-.771.666c.024.023.012.047-.035.07q-.386.455-.806.911l-.421.6c-.115.13-.238.264-.368.4Q1310.231,939.693,1308.832,940.245Zm0,8.273q3.484-2.666,5.433-4.452a17.123,17.123,0,0,0,4.943.754,5.489,5.489,0,0,0,.806-.07v3.821l-11.182,6.45Z" transform="translate(-30.451 -20.223)" fill="#1fbcbf" fill-rule="evenodd"/>
    <path id="Trazado_2034" data-name="Trazado 2034" d="M1259.15,795.3l82.13,47.427-.035,24.537q.56,2.419,1.472,6.029,2.279,8.694,3.155,10.2,1.4,2.419,2.629,2.769a3.969,3.969,0,0,0,2.559-.526q-.21.176-.456.351-2.384,1.367-3.611,1.017-1.262-.316-2.664-2.734-.877-1.508-3.12-10.2-.912-3.61-1.472-6.029V843.6l-80.588-46.586Zm98.921,83.357a5.579,5.579,0,0,1,4.382.526c.046,0,.07.012.07.035a14.428,14.428,0,0,1,5.469,5.819,14.887,14.887,0,0,1,1.472,5.574,35.92,35.92,0,0,1-.035,7.922,28.606,28.606,0,0,1-1.788,7.817,10.884,10.884,0,0,1-4.171,5.188l-.421.245q-.315.176-.6.315a11.18,11.18,0,0,0,3.681-4.872,28.631,28.631,0,0,0,1.788-7.817,34.576,34.576,0,0,0,0-7.922,13.844,13.844,0,0,0-6.906-11.392c0-.023-.023-.035-.07-.035a5.224,5.224,0,0,0-4.136-.6,3.347,3.347,0,0,1,.281-.386A5.626,5.626,0,0,1,1358.071,878.657Zm-56.226,37.858a4.671,4.671,0,0,0-1.893,4.031,10.866,10.866,0,0,0,.824,2.909q-1.243-.977-2.016-1.647c-.022-.021-.126-.121-.315-.3a.617.617,0,0,0,0-.088q-.245-2.979,3.26-5.013Zm39.435-12.3v18.561q-.757.3-1.507.613v-18.3q.561-.316,1.227-.7A1.844,1.844,0,0,1,1341.281,904.211Zm0,33.336-1.507-.876v-4.522q.526-.351.981-.7.267-.2.526-.4Z" transform="translate(-62.9 -2.75)" fill="#cff5f5" fill-rule="evenodd"/>
    <path id="Trazado_2035" data-name="Trazado 2035" d="M1091.521,974.735l-.035,65.3a58.9,58.9,0,0,0-5.118-9.6,50.184,50.184,0,0,1-6.555-13.5q-1.683-6.1-3.54-11.848-2.419-7.572-2.945-9.289a15.723,15.723,0,0,0-4.838-7.642,13.245,13.245,0,0,0-6.765-3.19h-.175q.7-.7,1.437-1.4,1.612-1.717,2.769-2.874a55.516,55.516,0,0,0,16.265,15.424l3.575,2.278,2.173,1.4.491-2.313,1.157-5.784q1.616-10.235-4.767-17.6.552-.135.946-.21a5.553,5.553,0,0,0,1.928-.7,2.325,2.325,0,0,0,.613-.631A21.745,21.745,0,0,1,1091.521,974.735Zm118.9-86.091a12.079,12.079,0,0,0-1.192,3.225,14.328,14.328,0,0,0-.3,1.665,8.724,8.724,0,0,0-4.329-.088l-4.487-2.594-.035-93.1,80.588,46.586v24.537q.562,2.419,1.472,6.029,2.243,8.694,3.12,10.2,1.4,2.419,2.664,2.734,1.226.351,3.611-1.017.245-.176.456-.351a7.355,7.355,0,0,0,1.052-.526,11.117,11.117,0,0,0,3.015-3.33,20.675,20.675,0,0,1,1.682-2.419,5.224,5.224,0,0,1,4.136.6c.047,0,.07.012.07.035a13.843,13.843,0,0,1,6.906,11.392,34.576,34.576,0,0,1,0,7.922,28.628,28.628,0,0,1-1.788,7.817,11.179,11.179,0,0,1-3.68,4.872,9.265,9.265,0,0,1-4.908.806q-3.365-.245-4.522-2.208,0-.035-.561-1.157-.491-.946-1.367-2.489a15.2,15.2,0,0,0-1.963-3.12q-2.524-2.8-6.625-.421-.666.386-1.227.7a1.854,1.854,0,0,0-.28.175q-.666.386-1.227.7v18.3q-7.121,2.851-13.6,5.451l-11.953-6.923-11.007-6.38a7.07,7.07,0,0,0-1.367.982l-.14-.105q-3.505,2.033-3.26,5.013a.618.618,0,0,1,0,.088q-.317-.3-.982-.929a6.3,6.3,0,0,1-.561-.561,12.486,12.486,0,0,1-1.016-1.262,2.225,2.225,0,0,1-.421-.28c-.2-.123-.389-.24-.578-.351q-.292-.43-1.315-1.612a6.421,6.421,0,0,1-1.122-1.788q-.315-.946-.526-1.437a1.828,1.828,0,0,0-.981-1.087c-.148-.042-.317-.1-.508-.175,0-.264,0-.52.018-.771q.1-1.747.175-3.277a6.325,6.325,0,0,0,.876-.193q.912-.175,2.874-.736a4.315,4.315,0,0,0,2.629-1.718q.07-3.575.035-4a22.169,22.169,0,0,1,.421-3.961,5.591,5.591,0,0,1-3.015-3.05q-.21-.56-.386-1.157a37.963,37.963,0,0,0-1.577-5.468,7.132,7.132,0,0,0-2.208-4.662,4.755,4.755,0,0,0-1.087-.982,10.979,10.979,0,0,0-3.611-1.718,12.385,12.385,0,0,0-5.539-.351,8.965,8.965,0,0,0-4.837,2.243,11.5,11.5,0,0,0-4.452,3.716A17.52,17.52,0,0,0,1210.422,888.644ZM1280.7,937.4l-3.926-2.261a34.764,34.764,0,0,0,3.926-2.261Z" transform="translate(-3.832 -3.483)" fill="#4eeef1" fill-rule="evenodd"/>
    <path id="Trazado_2036" data-name="Trazado 2036" d="M1083.82,1047.687q-.511.1-1.017.175a22.16,22.16,0,0,1-5.206.123,45.339,45.339,0,0,1-5.679-.771,12.18,12.18,0,0,1-4.172-1.963,6.025,6.025,0,0,1-1.823-2.156,8.281,8.281,0,0,1-.771-2.471,16.484,16.484,0,0,1-.21-4.872,30.175,30.175,0,0,0,.491-3.54q.21-2,.315-4.031.091-3.183-.105-6.871a30.029,30.029,0,0,1,2.208,4.031,69.45,69.45,0,0,0,7.186,11.638q.912,1.191,2.138,2.734,2.559,3.26,6.555,7.887A.734.734,0,0,0,1083.82,1047.687Zm6.993-11.13v8.711q-.25-.108-.491-.193-2.883-7.38-4.487-11.007a37.734,37.734,0,0,0-6.31-10.13,9.357,9.357,0,0,1-2.068-3.505q-.717-2.4-1.122-3.663a1.973,1.973,0,0,0,1.437-2.261l-7.887-23.7q-3.569-8.249-9.885-7.256a5.1,5.1,0,0,0-.526.105c-.06.013-.118.025-.175.035a11.62,11.62,0,0,1,.841-1.367l.421-.561a3.764,3.764,0,0,1,.316-.28h.175a13.246,13.246,0,0,1,6.765,3.19,15.722,15.722,0,0,1,4.837,7.642q.526,1.718,2.945,9.289,1.858,5.749,3.54,11.848a50.185,50.185,0,0,0,6.555,13.5A58.919,58.919,0,0,1,1090.813,1036.557Zm190.726-196.58-82.131-47.427,11.182-6.45,82.1,47.427Zm-157.986,275.451a8.817,8.817,0,0,0,0,4.136v.035a9.367,9.367,0,0,0,1.682,3.786l-.736.14a2.445,2.445,0,0,1-2.279-.7,4.608,4.608,0,0,1-1.437-2.629,4.69,4.69,0,0,1,.245-2.98,2.6,2.6,0,0,1,1.788-1.647Z" transform="translate(-3.159)" fill="#0d8e90" fill-rule="evenodd"/>
    <path id="Trazado_2037" data-name="Trazado 2037" d="M1166.439,1174.7a4.627,4.627,0,0,1-4-1.332,8.855,8.855,0,0,1-2.594-4.8v-.035a8.848,8.848,0,0,1,.421-5.433,4.77,4.77,0,0,1,3.085-2.874l4.627-.981q.173-.449.385-.894a17.437,17.437,0,0,1,1.157-2.156,14.169,14.169,0,0,1,25.729,4.8,13.84,13.84,0,0,1-.228,6.993,14.6,14.6,0,0,1-1.735,3.7,14.224,14.224,0,0,1-19.595,4.136,12.744,12.744,0,0,1-2.594-2.1Zm73.665-196.44q-.142-.3-.263-.561-.136-.334-.263-.666-.846-2.162-1.4-4.049a7.615,7.615,0,0,0,3.032-5.556,10.758,10.758,0,0,0-.631-5.118,8.068,8.068,0,0,0-.981-1.648,18.017,18.017,0,0,1-1.122-1.507q5.232-2.024,6.888-4.785a5.953,5.953,0,0,1,.964.438,3.772,3.772,0,0,0-.245.3,7.818,7.818,0,0,0-1.542,5.065,10.014,10.014,0,0,0,.07,1.3,6.153,6.153,0,0,0,.911,2.594q2.174,3.645,8.308,3.646a15.484,15.484,0,0,0,4.978-.561,9.447,9.447,0,0,1,3.26-.526,12.8,12.8,0,0,1,4.382.631,7.319,7.319,0,0,1,.7.315,6.3,6.3,0,0,0,.561.561q.666.627.982.929c.189.177.294.277.315.3q.773.671,2.016,1.647.9.709,2.051,1.577a16.645,16.645,0,0,1,2.769,2.874h-.018q-1.363-.377-2.717-.684a12.873,12.873,0,0,1-1.648-1.455q-1.087-1.086-2.384-2.279a10.847,10.847,0,0,0-1.56-1.279,7.06,7.06,0,0,0-.894-.508,4.351,4.351,0,0,0-2.944-.28c-.243.053-.477.112-.7.175a8.474,8.474,0,0,0-2.349,1.087,12.766,12.766,0,0,0-2.454,2.1,16.964,16.964,0,0,0-2.1,2.734,9.7,9.7,0,0,0-1.472,3.435,34.018,34.018,0,0,0-.561,3.716,10.15,10.15,0,0,0,.28,3.12q.385,1.717.911,3.435.6,1.718,1.332,3.435.7,1.717,1.3,3.505a18.949,18.949,0,0,1,.841,3.576,13.158,13.158,0,0,1,.105,3.716,11.061,11.061,0,0,1-.911,3.225,31.093,31.093,0,0,1-1.648,3.3q-.387.659-.736,1.315-.526.942-.982,1.875c-.031.066-.061.13-.088.193a13.989,13.989,0,0,0-.964,2.927q-.35,1.647-.561,3.225-.21,1.788-.245,3.435-.036,1.893.07,3.821a.889.889,0,0,1,0,.105,22.1,22.1,0,0,0,.421,2.91q.351,1.612.841,3.19a20.06,20.06,0,0,1-9.009-3.05,12.752,12.752,0,0,1-1.542-1.052q-.089-3.326-.053-5.468c.005-.259.01-.5.018-.736a1.083,1.083,0,0,0-.894.526,10.611,10.611,0,0,0-1.385,4.066,34.2,34.2,0,0,1-3.085-2.664q-4.41-4.411-3.681-8.168a35.31,35.31,0,0,1,5.048-11.918,71.48,71.48,0,0,0,4.417-7.852c-.023.07-.046.152-.07.245q.253.285.526.561.588.625,1.262,1.227,4.943,4.451,9.429,4.452a1.192,1.192,0,0,0,1.262-.771,8.99,8.99,0,0,0,.07-1.507q0-1.963-2.769-3.365l-2.839-1.367a21,21,0,0,1-3.435-1.893q-.687-.687-1.3-1.244-.479-.453-.911-.824a14.573,14.573,0,0,0-.841-4.031c-.022-.07-.046-.14-.07-.21-.043-.069-.085-.14-.123-.21-.07-.125-.134-.254-.193-.386-.025-.069-.048-.139-.07-.21q-.359-.979-.771-1.963-.561-1.3-1.087-2.559Q1240.8,979.784,1240.1,978.264Zm142.055,68L1411.6,1063.3l.035,56.454q-7.211-.143-16.475-1.1a32.656,32.656,0,0,1-11.533-3.926,79.7,79.7,0,0,1-9.289-5.819,27.061,27.061,0,0,0-4.276-2.629,12.063,12.063,0,0,0-1.718-3.19,14.919,14.919,0,0,0-1.262-1.507,23.418,23.418,0,0,0-2.313-2.261c0-.176-.016-.38-.035-.613q-.141-1.612-.14-2.208a2.515,2.515,0,0,1,.245-1.227q.21-.631,1.472-.982c.187.023.4.047.631.07a2.785,2.785,0,0,0,2.909-1.332q.141-.7.281-1.4a31.636,31.636,0,0,0,.631-3.856q.245-2.032.491-3.961a27.724,27.724,0,0,0,.281-3.856q-.036-.526-.07-1.367-.035-.911-.14-2.174v-.175a9.041,9.041,0,0,0-1.472-5.609,9.3,9.3,0,0,0-1.612-1.858,5.708,5.708,0,0,0-2.909-1.367,21.958,21.958,0,0,0-12.619,1.665,9.488,9.488,0,0,0-4.943-4.434,11.706,11.706,0,0,0-5.048.035,13.9,13.9,0,0,1-5.013.175,6.332,6.332,0,0,1-3.488-2.331,12.289,12.289,0,0,1-1.244-1.805,41.9,41.9,0,0,1-2.419-6.52v-37.683l33.091,19.1a4.86,4.86,0,0,1-.175,4.1,13.428,13.428,0,0,1-4.1,3.716,19.105,19.105,0,0,0-1.753,1.3,9.457,9.457,0,0,0-2.349,2.244q-1.472,2.453.526,5.889a21.18,21.18,0,0,0,3.646,4.417,31.98,31.98,0,0,0,5.819,4.522q8.027,4.908,13.671,1.647c.187-.094.363-.186.526-.28.187-.116.35-.21.491-.281q2.91-1.683,3.085-4.312a8.976,8.976,0,0,0-.035-1.332,19.067,19.067,0,0,0-.911-3.575,13.966,13.966,0,0,1-.946-4.943A4.124,4.124,0,0,1,1382.159,1046.268Zm29.48,83.182.035,27.517-40.592-23.468q.162-.381.315-.754a10.056,10.056,0,0,0,1.122-3.751.762.762,0,0,1,.035-.245q0-.07.07-.771a4.688,4.688,0,0,0-.21-1.542q-.211-.633-.316-.982a72.134,72.134,0,0,0,13.355,3.856,99.254,99.254,0,0,0,17.211.771Q1408.016,1129.849,1411.639,1129.45Zm-60.818-38.594q.28.771.526,1.647a.592.592,0,0,1,.035.245.306.306,0,0,1,.035.14l.035.105.07.333a23.013,23.013,0,0,0-3.12-.123,24.255,24.255,0,0,0-3.4.315,43.844,43.844,0,0,0-12.479,4q-1,.487-1.963,1.034v-.683l-.035-14.442a7.4,7.4,0,0,1,1.367-1.262l.07-.035a.537.537,0,0,1,.14-.105q3.015-1.472,5.083.07,1.367.981,3.225,4.7.141.245.351.6a12.992,12.992,0,0,0,2.734,4.136q2.349,1.718,5.819-.28l.526-.315a3.847,3.847,0,0,0,.421-.245c.108-.062.213-.126.315-.193Zm11.077,28.919a12.222,12.222,0,0,0,2.752,2.191q-.274-.061-.683-.123-.7-.176-1.753-.421-.89-.259-2.559-.613A22.544,22.544,0,0,0,1361.9,1119.775Zm-180.175,36.911a4.075,4.075,0,0,0-1.052.14l-.035.035q-2.172.725-4.224,1.472l-.473.175q-2.419.877-4.978,1.893-2.839,1.052-5.819,2.068l.035.035q-1.3.456-2.734.841a.836.836,0,0,0-.526.491.885.885,0,0,0-.035.736.742.742,0,0,0,.386.526,1.008,1.008,0,0,0,.771.105q1.438-.455,2.769-.911h-.035q2.979-1.052,5.854-2.1,2.524-.982,4.978-1.893,1.88-.7,3.856-1.367.385-.121.771-.245a1.918,1.918,0,0,1,.561-.105h.017a2.289,2.289,0,0,1,.684.105,1.337,1.337,0,0,0,.105.28.546.546,0,0,1-.053.473.76.76,0,0,1-.088.123v.035q-.526.526-1.052,1.157a2.653,2.653,0,0,0-.7,1.577l-.035-.035a2.656,2.656,0,0,0,1.753,3.05,8.413,8.413,0,0,1,2.068,1.122h.035a.7.7,0,0,1,.315.666v.07a.7.7,0,0,1-.21.386l-.035.035a5.315,5.315,0,0,1-2.208.771q-1.928.07-3.891.175-2.524.07-4.943.281-1.683.069-3.3.175h-.035a55.093,55.093,0,0,1-5.889-.105.951.951,0,0,0-.7.28.929.929,0,0,0-.07,1.332,1.187,1.187,0,0,0,.666.315,52.9,52.9,0,0,0,6.1.07l3.33-.21q2.383-.175,4.872-.245,2-.07,3.961-.21h.035a7.022,7.022,0,0,0,3.155-1.052h.035a2.4,2.4,0,0,0,1.052-1.963l-.035.035a2.278,2.278,0,0,0-1.087-2.314,10.094,10.094,0,0,0-2.454-1.437h-.035a.841.841,0,0,1-.561-1.016,2.073,2.073,0,0,1,.21-.526h.035l.982-1.122a2.8,2.8,0,0,0,.6-.841,2.067,2.067,0,0,0-.105-1.788,1.491,1.491,0,0,0-.876-1.192.031.031,0,0,1-.035-.035,3.578,3.578,0,0,0-1.647-.315Z" transform="translate(-33.145 -50.302)" fill="#ffdb59" fill-rule="evenodd"/>
    <path id="Trazado_2038" data-name="Trazado 2038" d="M1403.435,1042.507l-.035-1.157,34.142,19.7a4.79,4.79,0,0,1-.175,4.066,13.418,13.418,0,0,1-4.1,3.716,19.068,19.068,0,0,0-1.753,1.3,9.472,9.472,0,0,0-2.349,2.243q-1.472,2.489.526,5.924a20.51,20.51,0,0,0,3.646,4.382,30.055,30.055,0,0,0,5.819,4.522q7.677,4.7,13.18,1.963c-.163.094-.339.186-.526.28q-5.644,3.26-13.671-1.647a31.98,31.98,0,0,1-5.819-4.522,21.177,21.177,0,0,1-3.646-4.417q-2-3.436-.526-5.889a9.459,9.459,0,0,1,2.349-2.243,19.06,19.06,0,0,1,1.753-1.3,13.429,13.429,0,0,0,4.1-3.716,4.86,4.86,0,0,0,.175-4.1Zm82.06,46.235v57.032q-.485-.011-.981-.017l-.035-56.454-29.445-17.036a3.26,3.26,0,0,1,.631-.771Zm0,94.82-.946-.6-.035-27.517.981-.105Zm-80.728-75.4a1.559,1.559,0,0,1,.491-.386,1.887,1.887,0,0,1,.6-.245l.14-.07q3.015-1.472,5.083.035,1.3,1.017,3.155,4.767.14.245.351.6a13.712,13.712,0,0,0,2.8,4.066q2.1,1.577,5.328,0l-.526.315q-3.47,2-5.819.28a12.992,12.992,0,0,1-2.734-4.136q-.21-.35-.351-.6-1.858-3.715-3.225-4.7-2.068-1.543-5.083-.07a.54.54,0,0,0-.14.105Z" transform="translate(-106.02 -76.302)" fill="#ffedad" fill-rule="evenodd"/>
    <path id="Trazado_2039" data-name="Trazado 2039" d="M1419.135,1069.336q-5.5,2.734-13.18-1.963a30.067,30.067,0,0,1-5.819-4.522,20.508,20.508,0,0,1-3.646-4.382q-2-3.436-.526-5.924a9.468,9.468,0,0,1,2.349-2.243l11.042-6.38a9.288,9.288,0,0,0-2.279,2.208q-1.4,2.419.6,5.854a21.156,21.156,0,0,0,3.646,4.417,32.39,32.39,0,0,0,5.749,4.557,29,29,0,0,0,4.417,2.138q.526.14,1.192.315a8.974,8.974,0,0,1,.035,1.332q-.174,2.629-3.085,4.312C1419.485,1069.125,1419.322,1069.219,1419.135,1069.336Zm34.931-12.3,6.555,3.786,2.857,1.648-11.182,6.45-29.831-17.246,11.182-6.45,15.967,9.237Zm-142.545-48.409a29.719,29.719,0,0,0,2.138,5.4,55.5,55.5,0,0,1,5.784,18.929q-1.98.879-3.873,1.63a76.6,76.6,0,0,1-7.344,2.507,45.884,45.884,0,0,1-11.042,1.753h-.35q-1.612,0-3.155-.14-.491-1.577-.841-3.19a22.119,22.119,0,0,1-.421-2.91.838.838,0,0,0,0-.105q-.105-1.928-.07-3.821.036-1.648.245-3.435.21-1.577.561-3.225a13.985,13.985,0,0,1,.964-2.927c.027-.062.056-.127.088-.193q.456-.933.982-1.875.349-.655.736-1.315a31.116,31.116,0,0,0,1.648-3.3,11.061,11.061,0,0,0,.911-3.225,13.154,13.154,0,0,0-.105-3.716,18.94,18.94,0,0,0-.841-3.576q-.6-1.788-1.3-3.505-.736-1.717-1.332-3.435-.526-1.717-.911-3.435a10.153,10.153,0,0,1-.28-3.12,33.988,33.988,0,0,1,.561-3.716,9.7,9.7,0,0,1,1.472-3.435,16.97,16.97,0,0,1,2.1-2.734,12.766,12.766,0,0,1,2.454-2.1,8.473,8.473,0,0,1,2.349-1.087c.224-.063.458-.122.7-.175a4.351,4.351,0,0,1,2.945.28,7.051,7.051,0,0,1,.894.508,10.841,10.841,0,0,1,1.56,1.279q1.3,1.192,2.384,2.279a12.881,12.881,0,0,0,1.648,1.455,51.615,51.615,0,0,0-5.433-.929q-4.767-.491-7.046,2.489a4.8,4.8,0,0,0-.631,3.4,6.372,6.372,0,0,0,1.507,2.594,18.118,18.118,0,0,0,5.153,2.839,30.553,30.553,0,0,0,6.748,1.84,6.149,6.149,0,0,0-2.051,3.277,25.074,25.074,0,0,0-.4,2.822,24.365,24.365,0,0,0-.07,3.523,24.094,24.094,0,0,0,.281,2.752A25.758,25.758,0,0,0,1311.521,1008.623Zm4-26.991a.124.124,0,0,0,.035.018.46.46,0,0,1-.052-.018Zm94.312,56.419-5.486,3.172-34.142-19.7,11.182-6.45,24.836,14.319q-.817,2.227.894,5.171A20.451,20.451,0,0,0,1409.828,1038.05Zm-23.889,50.319q.28.876.736,1.963a44.126,44.126,0,0,0,3.576,6.327c-.1.066-.208.131-.315.193a3.869,3.869,0,0,1-.421.245q-3.224,1.578-5.328,0a13.706,13.706,0,0,1-2.8-4.066q-.21-.35-.35-.6-1.858-3.75-3.155-4.767-2.067-1.507-5.083-.035l11.147-6.485.14-.07a7.21,7.21,0,0,1,1.858-.579c-.013.031-.025.06-.035.088a10.037,10.037,0,0,0-.561,2.98,15.675,15.675,0,0,0,.245,3.365.259.259,0,0,0,.035.105A6.757,6.757,0,0,0,1385.939,1088.37Z" transform="translate(-72.821 -56.474)" fill="#fd9c3c" fill-rule="evenodd"/>
    <path id="Trazado_2040" data-name="Trazado 2040" d="M1452.639,1128.41c.135.081.274.163.421.245a1.236,1.236,0,0,0,.491.14,22.822,22.822,0,0,0,6.134-1.139V1151.3l-.508.3-10.674,6.152v-28.218q1.78-.226,3.085-.491A4.307,4.307,0,0,0,1452.639,1128.41Zm-171.692-136.5q.432.37.911.824.61.557,1.3,1.244a20.986,20.986,0,0,0,3.435,1.893l2.839,1.367q2.769,1.4,2.769,3.365a8.99,8.99,0,0,1-.07,1.507,1.193,1.193,0,0,1-1.262.771q-4.486,0-9.429-4.452-.673-.6-1.262-1.227-.272-.275-.526-.561c.024-.093.047-.175.07-.245l1.052-2.489a.583.583,0,0,0,.035-.14c.023-.094.046-.175.07-.245A8.934,8.934,0,0,0,1280.947,991.911Zm128.436,43.239q-.818.676-1.928,1.42a22.654,22.654,0,0,0-1.893,1.367l-11.042,6.38a19.069,19.069,0,0,1,1.753-1.3,13.415,13.415,0,0,0,4.1-3.716,4.789,4.789,0,0,0,.175-4.066l5.486-3.172q.424.458.894.929Q1408.13,1034.15,1409.383,1035.15Zm39.12,84.812V1062.93l11.182-6.45v58.364a19.334,19.334,0,0,0-2.857.6q.763-1.5.824-1.682a2.678,2.678,0,0,0-.316-2.489q-6.484,3.119-7.747,7.992c-.053.2-.1.408-.14.614-.007.03-.013.059-.017.088Q1448.973,1119.96,1448.5,1119.962ZM1284.224,956.139a2.661,2.661,0,0,0-1.63.964,3.036,3.036,0,0,0-.386.964,6.448,6.448,0,0,0-.175,1.6q0,.946,1.718,2.664a7.221,7.221,0,0,0,5.4,2.384,14.46,14.46,0,0,0,2.909-.526,14.6,14.6,0,0,1,3.576-.561q1.693,0,5.381,2.243c.189.111.383.228.578.351a2.216,2.216,0,0,0,.421.28,12.469,12.469,0,0,0,1.017,1.262,7.3,7.3,0,0,0-.7-.315,12.8,12.8,0,0,0-4.382-.631,9.447,9.447,0,0,0-3.26.526,15.485,15.485,0,0,1-4.978.561q-6.134,0-8.308-3.646a6.153,6.153,0,0,1-.911-2.594,10.014,10.014,0,0,1-.07-1.3,7.818,7.818,0,0,1,1.542-5.065,3.761,3.761,0,0,1,.245-.3,6.127,6.127,0,0,1,.666.351q.456.21,1.437.771Z" transform="translate(-69.028 -50.489)" fill="#ffbd59" fill-rule="evenodd"/>
    <path id="Trazado_2041" data-name="Trazado 2041" d="M1533.38,995.652v29.568l-2.331,1.349-8.851,5.1.035-94.855,11.147-6.415Zm-41.679,19.507a4.147,4.147,0,0,1,.666-.771l11.427,6.555-.035.105a7.131,7.131,0,0,1-.14.982,5.933,5.933,0,0,1-2.454,3.05L1490.65,1031a4.8,4.8,0,0,0,1.928-3.505,5.215,5.215,0,0,0-.035-1.332,20.429,20.429,0,0,0-.876-3.576,14.1,14.1,0,0,1-.946-4.942A4.091,4.091,0,0,1,1491.7,1015.159Z" transform="translate(-132.102 -43.135)" fill="#60a2f0" fill-rule="evenodd"/>
    <path id="Trazado_2042" data-name="Trazado 2042" d="M1499.874,903.272l10.621,6.134,1.332.771-11.147,6.415L1418.55,869.2l11.182-6.45,4.714,2.717a17.314,17.314,0,0,0-2.892,4.189q-.35.772.351,1.052a3.978,3.978,0,0,0,1.227.245,1.979,1.979,0,0,0-.771,1.192,2.442,2.442,0,0,0,.14,1.157q.56,1.227,2.138.421a1.77,1.77,0,0,0-.7,1.157,1.347,1.347,0,0,0,.281,1.087,1.2,1.2,0,0,0,.911.491,2.1,2.1,0,0,0,1.227-.6,1.821,1.821,0,0,0,.281,1.437.924.924,0,0,0,1.227.456.2.2,0,0,0,.14-.07,1.713,1.713,0,0,0,.7-.456l1.227-1.367a5.272,5.272,0,0,1,2.068-1.718l.736-.351c.234-.047.444-.093.631-.14v-.07q.631-.281,1.052-.421a6.253,6.253,0,0,0,1.577-1.034L1454.41,877h.018a17.779,17.779,0,0,0-1.35,2.3q-.35.736.315,1.017a3.619,3.619,0,0,0,1.262.28,2.6,2.6,0,0,0-.771,1.087,1.82,1.82,0,0,0,.21,1.157q.491,1.331,2,.421a2.307,2.307,0,0,0-.631,1.262,1.4,1.4,0,0,0,.281,1.087,1.2,1.2,0,0,0,.911.491,2.189,2.189,0,0,0,1.227-.561,1.577,1.577,0,0,0,.28,1.3.993.993,0,0,0,1.227.631,7.345,7.345,0,0,0,2.068-1.928,6.105,6.105,0,0,1,2.138-1.858q.855-.291,1.455-.508h.017l15.476,8.939,4.785,2.769,6.275,3.628Zm-60.117,2.384-9.675,5.574a13.818,13.818,0,0,0,2.314-2.874,23.082,23.082,0,0,1,1.823-2.524.8.8,0,0,1,.21-.245,3.588,3.588,0,0,1,1.017-.421A5.319,5.319,0,0,1,1439.757,905.656Zm5.223,27.237a11.348,11.348,0,0,1-4.277,5.258l-.315.175a2.308,2.308,0,0,0-.351.21,10.176,10.176,0,0,1-5.223.841q-3.331-.245-4.452-2.173-.036-.07-.631-1.157l-1.262-2.524a16.335,16.335,0,0,0-2.033-3.12q-2.314-2.594-5.924-.771l9.254-5.363q.526-.351,1.192-.736,4.137-2.384,6.66.421a16.408,16.408,0,0,1,1.963,3.155q1.893,3.54,1.963,3.646a4.368,4.368,0,0,0,2.7,1.963A4.915,4.915,0,0,0,1444.98,932.892Z" transform="translate(-110.549 -22.913)" fill="#367dd1" fill-rule="evenodd"/>
    <path id="Trazado_2043" data-name="Trazado 2043" d="M1418.55,871.95l82.13,47.392-.035,94.855-.981-.6V919.938l-81.114-46.8Zm50.547,141.581a8.593,8.593,0,0,1-1.122.806l-.491.28a3.928,3.928,0,0,1,.6-.491,4.877,4.877,0,0,0,1.928-3.505,6.271,6.271,0,0,0,0-1.332,24.623,24.623,0,0,0-.911-3.611,13.133,13.133,0,0,1-.911-4.908,4.624,4.624,0,0,1,1.612-3.26l.351.175a4.09,4.09,0,0,0-.982,2.489,14.1,14.1,0,0,0,.946,4.943,20.389,20.389,0,0,1,.876,3.576,5.2,5.2,0,0,1,.035,1.332A4.8,4.8,0,0,1,1469.1,1013.531Zm-49.6-80.588,1.017-.561q3.61-1.824,5.924.771a16.335,16.335,0,0,1,2.033,3.12l1.262,2.524q.6,1.087.631,1.157,1.122,1.928,4.452,2.173a10.176,10.176,0,0,0,5.223-.841,2.5,2.5,0,0,1-.35.175l-.28.175a9.528,9.528,0,0,1-5.574,1.087q-3.365-.281-4.487-2.208-.034-.07-.631-1.122-.421-.912-1.262-2.524a16.072,16.072,0,0,0-2.033-3.155Q1423.107,931.121,1419.5,932.943Z" transform="translate(-110.549 -25.663)" fill="#e9f3ff" fill-rule="evenodd"/>
    <path id="Trazado_2044" data-name="Trazado 2044" d="M1467.485,1015.126q-5.5,2.7-13.18-1.928a32.08,32.08,0,0,1-3.4-2.366q-1.253-1-2.454-2.156-.47-.47-.894-.929a20.46,20.46,0,0,1-2.717-3.488q-1.711-2.942-.894-5.17a4,4,0,0,1,.333-.718,16.374,16.374,0,0,1,4.172-3.576,12.911,12.911,0,0,0,4.066-3.716,4.962,4.962,0,0,0,.175-4.066l-34.142-19.735.07-33.3.876-.526q3.61-1.823,5.924.771a16.076,16.076,0,0,1,2.033,3.155q.841,1.613,1.262,2.524.6,1.052.631,1.122,1.122,1.929,4.487,2.208a9.528,9.528,0,0,0,5.574-1.087l.28-.175a2.5,2.5,0,0,0,.35-.175,2.3,2.3,0,0,1,.351-.21l.315-.175a11.348,11.348,0,0,0,4.277-5.258,28.558,28.558,0,0,0,1.823-7.852,37.4,37.4,0,0,0,0-7.922,15.542,15.542,0,0,0-1.507-5.573,15.1,15.1,0,0,0-5.433-5.889h-.1a5.319,5.319,0,0,0-4.312-.491,3.59,3.59,0,0,0-1.017.421.8.8,0,0,0-.21.245,23.08,23.08,0,0,0-1.823,2.524,13.818,13.818,0,0,1-2.314,2.874c-.233.163-.444.3-.631.421q-.386.21-.666.386-.312.142-.526.263a1.045,1.045,0,0,0-.105.053,3.7,3.7,0,0,1-2.348.386q-1.227-.281-2.629-2.734-.877-1.507-3.12-10.2-.911-3.646-1.472-6.064v-1.63l-.035-21.716,81.114,46.8v93.663l-5.906-3.435-6.573-3.821-4.469-2.594-.473-.28-11.428-6.555a4.142,4.142,0,0,0-.666.771l-.351-.175a4.623,4.623,0,0,0-1.612,3.26,13.133,13.133,0,0,0,.911,4.907,24.623,24.623,0,0,1,.911,3.611,6.271,6.271,0,0,1,0,1.332,4.877,4.877,0,0,1-1.928,3.505A3.928,3.928,0,0,0,1467.485,1015.126Z" transform="translate(-110.549 -26.171)" fill="#8ec2ff" fill-rule="evenodd"/>
    <path id="Trazado_2045" data-name="Trazado 2045" d="M1396.237,1119.316a22.826,22.826,0,0,1-6.134,1.139,1.236,1.236,0,0,1-.491-.14c-.147-.083-.286-.164-.421-.245a3.456,3.456,0,0,0,.841-1.087c.084-.01.166-.022.245-.035a27.432,27.432,0,0,0,5.959-1.7,1.31,1.31,0,0,0,.491-.4q.051-.078.035-2.944-.016-1.016-.035-2.384a48.2,48.2,0,0,1,.175-5.065v-.018a1.454,1.454,0,0,1,.456,0c.137,0,.271,0,.4,0q2.462.051,2.611,1.981c0,.1,0,.2,0,.3l-.035.035v.07a.585.585,0,0,1-.035.175,27.29,27.29,0,0,0-.28,4.767,5.026,5.026,0,0,1-.035,2,4.9,4.9,0,0,1-3.05,3.26Q1396.606,1119.171,1396.237,1119.316Zm-159-46.481q-.247,2.531-.456,4.014c-.046.374-.094.748-.14,1.122a.667.667,0,0,1-.035-.21q-.26-3.192-.526-5.591a44.317,44.317,0,0,0-.946-6.117,30.7,30.7,0,0,0-3.786-8.921,11.772,11.772,0,0,0-2.769-2.962q-.591-.427-1.034-.789a.436.436,0,0,0-.052-.053q.069-.736.175-1.367v-.894a29.681,29.681,0,0,0,5.188,1.42,33.759,33.759,0,0,0,8.693.245q-.27.668-.491,1.227c-.077.178-.146.347-.21.508q-.5,1.247-.666,1.77-.08.284-.228.754-.29.952-.859,2.682a21.1,21.1,0,0,0-.841,3.435q-.35,2.314-.736,6.87Q1237.372,1071.547,1237.234,1072.835Zm-131.574,26.325a10.926,10.926,0,0,1-1.647,1.262,12.568,12.568,0,0,1-1.455.789.1.1,0,0,0-.07.035c-.14.046-.292.105-.456.175a.144.144,0,0,1-.105.035.264.264,0,0,0-.105.035.1.1,0,0,1-.07.035c-.047.047-.082.07-.105.07a.274.274,0,0,1-.105.035,1.826,1.826,0,0,1-.175.105.1.1,0,0,0-.07.035.151.151,0,0,0-.14,0h-.07a.1.1,0,0,1-.07.035,9.664,9.664,0,0,1-2.068.456.1.1,0,0,0-.07.035l-1.718.07a.765.765,0,0,0-.245-.035,4.29,4.29,0,0,1-.771-.07,10.262,10.262,0,0,1-1.472-1.227,19.5,19.5,0,0,1-2.1-2.454,1.373,1.373,0,0,0-.07-.175l-.385-.491q-2.915-4.371-3.383-4.925l-.017.018q-1.091-1.534-2.471-3.172a.734.734,0,0,1-.088-.088q-4-4.627-6.555-7.887-1.227-1.542-2.138-2.734a69.457,69.457,0,0,1-7.186-11.638,30.009,30.009,0,0,0-2.208-4.031q-.257-.386-.526-.771l-.14-.21q2.013-.5,4.522-1.3c.1-.043.2-.085.3-.123.055.071.107.148.158.228q1.717,2.594,8.273,14.442,4.681,8.5,7.834,13.548.677,1.081,1.279,2.016a.118.118,0,0,0,.035.035,11.007,11.007,0,0,0,1.963,2.314q2.535,2.523,4.119,4.066,2.49,2.453,2.576,2.454,1.542.03,4.715-2.436Zm-7.642-4.417,3.751,2.173c-.049.026-.1.055-.158.088a4.489,4.489,0,0,1-1.157.631q-.421.175-1.4-1.332Q1098.323,1095.143,1098.019,1094.744ZM1087.38,993.106a10.326,10.326,0,0,1-4.031,4.978q-.145-.5-.315-.982-.176-.385-.351-.771l-.28-.561q.7-.736.911-1.017.281-.315.561-.666a11.94,11.94,0,0,0,1.507-2.1,5.506,5.506,0,0,0,.4-.754l.859.648a.145.145,0,0,1,.035.105.965.965,0,0,1,.245.28.536.536,0,0,0,.105.14.521.521,0,0,0,.14.245v.035c0,.023.023.047.07.07C1087.287,992.872,1087.333,992.989,1087.38,993.106Zm148.084,115.221.473,1.928a.984.984,0,0,1-.7.105,3.024,3.024,0,0,0-.491.035,6.75,6.75,0,0,1-2.489-.561,15.364,15.364,0,0,1-1.648-.7,8.205,8.205,0,0,1-2.524-2.033q-1.438-1.717-2.8-3.4a13.049,13.049,0,0,1-.946-1.542,3.264,3.264,0,0,0-.6-.736,1.593,1.593,0,0,0-.4-.3,3.467,3.467,0,0,0,1.314-2.051v-.035q-1.01-1.049-2.313-2.173-.321-.272-.631-.508a14.1,14.1,0,0,0-2.559-1.7,80.652,80.652,0,0,0-1.577-8.448q-1.577-6.275-2.279-9.429a32.436,32.436,0,0,1-.105-16.668q.293-1.253.666-2.542.946-3.12,1.332-4.767a29.9,29.9,0,0,0,.666-3.891q3.47,2.594,5.644,9.64a44.442,44.442,0,0,1,.526,6.66q.055,1.447.105,3.19.03.92.088,1.718-.126.461-.263.946a22.7,22.7,0,0,0-.421,9.745q.351,3.05,1.157,9.079.105,1.367.175,2.559a34.376,34.376,0,0,1-.175,6.52q.281.326.578.736a27.285,27.285,0,0,1,1.77,2.769,11.657,11.657,0,0,0,.894,1.437,10.2,10.2,0,0,0,1.525,1.682,11.347,11.347,0,0,0,1.1.876A10.809,10.809,0,0,0,1235.464,1108.327Zm108.508-36.526q-.316.21-.666.456a11.668,11.668,0,0,1-2.8,1.788v-.21a5.331,5.331,0,0,0-.631-2.384l-.07-.14-.21-.35,4.171-2.7q.105,1.262.14,2.173Q1343.937,1071.275,1343.973,1071.8Zm-5.223,14.337a3.991,3.991,0,0,1-.526-.315,2.032,2.032,0,0,1-1.016-2.279,12.436,12.436,0,0,0,3.54,1.087q.771.105,1.542.245a2.785,2.785,0,0,1-2.909,1.332C1339.147,1086.185,1338.937,1086.161,1338.75,1086.138Zm47.252,25.4c.04-.206.087-.41.14-.614q1.262-4.872,7.747-7.992a2.678,2.678,0,0,1,.316,2.489q-.061.183-.824,1.682c-.163.042-.334.089-.508.14a29.285,29.285,0,0,0-6.73,3.716C1386.091,1111.149,1386.044,1111.341,1386,1111.534ZM1230.679,939.229a28.843,28.843,0,0,0,1.4-2.594,30.227,30.227,0,0,0,3.085-9.535,37.945,37.945,0,0,1,1.577,5.468q.174.6.386,1.157-2.384,4.382-5.293,5.539A1.185,1.185,0,0,1,1230.679,939.229Zm47.848,34.58a97.931,97.931,0,0,1-11.287,4.574,5.456,5.456,0,0,0,1.4-4.347,49.543,49.543,0,0,0,6.327-2.278,66.71,66.71,0,0,0,7.484-3.873q.75-.449,1.507-.929,1.65-1.032,3.33-2.191a5.8,5.8,0,0,0,1.017.789,8.292,8.292,0,0,0,1.087.438q-1.949,1.786-5.433,4.452-.259.2-.526.4-.455.35-.981.7A34.787,34.787,0,0,1,1278.528,973.809Zm56.313,115.519a23,23,0,0,0-10.884-4.154l-.07-.333a21.1,21.1,0,0,1,4.031.21q1.928.421,2.594.561a8.573,8.573,0,0,1,2.033.7,4.841,4.841,0,0,1,2.208,2.769C1334.782,1089.154,1334.812,1089.236,1334.841,1089.328Z" transform="translate(-5.58 -42.149)" fill="#ed9870" fill-rule="evenodd"/>
    <path id="Trazado_2046" data-name="Trazado 2046" d="M1235.328,1098.743q.02.592.07,1.157a11.581,11.581,0,0,0,.316,2.068q.069.491.806,4.452a28.521,28.521,0,0,0,.982,4.189l-.105.018.123.526a10.81,10.81,0,0,1-4.907-1.858,11.35,11.35,0,0,1-1.1-.876,10.205,10.205,0,0,1-1.525-1.682,11.64,11.64,0,0,1-.894-1.437,27.3,27.3,0,0,0-1.77-2.769q-.3-.409-.578-.736a34.376,34.376,0,0,0,.175-6.52q-.069-1.192-.175-2.559-.806-6.03-1.157-9.079a22.7,22.7,0,0,1,.421-9.745q.137-.486.263-.946,1.582-5.646,2.261-8.623a25.9,25.9,0,0,0,.631-4.382q.14-2.138.386-3.786a.4.4,0,0,1,.052.053q.443.362,1.034.789a11.777,11.777,0,0,1,2.769,2.962,30.7,30.7,0,0,1,3.786,8.921,44.311,44.311,0,0,1,.946,6.117q.266,2.4.526,5.591a.669.669,0,0,0,.035.21q-.281,1.682-.736,3.751-.385,1.613-1.122,4.837-.386,1.507-.666,2.734-.491,2.138-.666,3.505A22.848,22.848,0,0,0,1235.328,1098.743ZM1085.58,1001.89c-.047-.327-.105-.642-.175-.946v-.035a10.325,10.325,0,0,0,4.031-4.978,11.988,11.988,0,0,1,1.613,5.959q.281.315,1.262,1.227a12.766,12.766,0,0,1,1.3,1.332q1.262,1.613-.841,2.524a5.241,5.241,0,0,1-.105,2.98,10.285,10.285,0,0,0-.315,2.7,2.164,2.164,0,0,0,.035.315,3.063,3.063,0,0,1-.438,1.087,2.326,2.326,0,0,1-.613.631,5.551,5.551,0,0,1-1.928.7c-.263.05-.578.121-.946.21q-.466.118-1.052.28c-.068.015-.133.026-.193.035q-1.217.259-2.156.421a5.064,5.064,0,0,1-2.7-.526q-1.718-.772-1.788-1.648a3.348,3.348,0,0,1-3.313-.683,2.259,2.259,0,0,0-.088-1.28,3.338,3.338,0,0,1,.7-3.61,2.682,2.682,0,0,1,1.437.245,4.557,4.557,0,0,1,2.349,2.138,1.324,1.324,0,0,0,1.227-.035,4.956,4.956,0,0,1,1.192-4,7.088,7.088,0,0,0,1.577-4.382C1085.627,1002.346,1085.6,1002.123,1085.58,1001.89Zm46.323,33.178a19.829,19.829,0,0,1-2.261,1.174,9.083,9.083,0,0,1-2,.736q-1.052,0-2.068-2.839-1.052-2.8-.526-4.242a4.174,4.174,0,0,1-1.4-.561q-.807-.455-.911-.771,1.429-3.057,3.067-3.26,1.529-.2,3.242,2.1a40.145,40.145,0,0,1,3.856,6.976A11.241,11.241,0,0,1,1131.9,1035.068Zm212.442,52.633q-.771-.14-1.542-.245a12.444,12.444,0,0,1-3.54-1.087l.21-.841a6.522,6.522,0,0,1-1.157-1.367,6.829,6.829,0,0,1-.911-3.751q.351-1.017,1.367-.315,1.437,2.629,2.033,1.367l1.753-4.592a11.668,11.668,0,0,0,2.8-1.788q.35-.245.666-.456a27.739,27.739,0,0,1-.28,3.856q-.245,1.928-.491,3.961a31.587,31.587,0,0,1-.631,3.856Q1344.486,1087,1344.345,1087.7ZM1235.364,950.2q-3.236.533-6.45-2.156.962-1.368,1.805-2.664,1.114-1.728,2.016-3.33a1.184,1.184,0,0,0,1.157.035q2.91-1.157,5.293-5.538a5.59,5.59,0,0,0,3.015,3.05,22.17,22.17,0,0,0-.421,3.961q.035.421-.035,4a4.315,4.315,0,0,1-2.629,1.718q-1.963.56-2.874.736A6.326,6.326,0,0,1,1235.364,950.2Zm32.425,22.1q1.545-.619,3.12-1.244,6.479-2.6,13.6-5.451.75-.309,1.507-.613,1.4-.552,2.822-1.122c.13-.139.252-.273.368-.4l.421-.6q.421-.456.806-.911c.047-.023.059-.047.035-.07a2.631,2.631,0,0,0,.771-.666,4.176,4.176,0,0,1,1.052-.806,1.379,1.379,0,0,0,.315-.175q.982-.386,1.472-.561.455-.141,1.612-.456a4.493,4.493,0,0,1,1.507.052c.194.044.393.1.6.158a4.922,4.922,0,0,1,1.858.456,1.015,1.015,0,0,1,.35.982,1.038,1.038,0,0,0,.175,1.017,1.239,1.239,0,0,1,.245.911.7.7,0,0,0,.035.666,1.006,1.006,0,0,1,.315.491,1.666,1.666,0,0,1,.105.736,1.614,1.614,0,0,1-.631,1.4,1.723,1.723,0,0,1-.491,2.033,4,4,0,0,1-2.559,1.367,5.485,5.485,0,0,1-.806.07,17.124,17.124,0,0,1-4.943-.754,8.292,8.292,0,0,1-1.087-.438,5.8,5.8,0,0,1-1.017-.789q-1.679,1.16-3.33,2.191-.757.479-1.507.929a66.677,66.677,0,0,1-7.484,3.873,49.523,49.523,0,0,1-6.327,2.278A6.078,6.078,0,0,0,1267.788,972.3Zm-193.513,91.577q.24-.087.473-.158c.069-.026.14-.05.21-.07q3.82-1.262,5.714-1.858c.045-.017.092-.036.14-.053q.4,1.261,1.122,3.663a9.358,9.358,0,0,0,2.068,3.505,37.735,37.735,0,0,1,6.31,10.131q1.6,3.627,4.487,11.007.241.084.491.193.205.09.421.193a13.921,13.921,0,0,1,5.784,4.522q-.14.21-.456.736a1.792,1.792,0,0,1-1.3.385,13.259,13.259,0,0,1-2.822-.315l3.155,1.805q.3.4,1.034,1.56.981,1.508,1.4,1.332a4.485,4.485,0,0,0,1.157-.631c.057-.032.109-.062.158-.088l1.4.806q-3.173,2.467-4.715,2.436-.086,0-2.576-2.454-1.582-1.545-4.119-4.066a11.01,11.01,0,0,1-1.963-2.314.118.118,0,0,1-.035-.035q-.6-.935-1.28-2.016-3.154-5.049-7.834-13.548-6.555-11.848-8.273-14.442C1074.382,1064.03,1074.33,1063.954,1074.275,1063.882Z" transform="translate(-7.636 -44.974)" fill="#ffaa83" fill-rule="evenodd"/>
    <path id="Trazado_2047" data-name="Trazado 2047" d="M1123.641,1274.427a2.74,2.74,0,0,1-1.718,3.33,3.149,3.149,0,0,1-2.384.245,11.442,11.442,0,0,1-4.943-.666q-4.382-1.507-8.658-3.295a15.135,15.135,0,0,0-2.033-.771q-.456-.14-.911-.245l-1.577,1.578a31.394,31.394,0,0,1-7.046-1.683,3.549,3.549,0,0,1-2.541-3.47,13.515,13.515,0,0,0,3.453,1.192q.33-.188.7-.368,2.089.391,4.171.754a27.594,27.594,0,0,1,7.326,1.963q1.472.631,2.91,1.367a21.439,21.439,0,0,0,9.464,2.138,13.311,13.311,0,0,0,2.208-.526A3.076,3.076,0,0,0,1123.641,1274.427Zm-51.722,5.17c.041.031.082.061.123.088l.631.14c.1.019.2.037.3.053q.578,1.283,1.069,2.612.912,2.558,2,5.118.35.841.736,1.647a5.771,5.771,0,0,0,3.365,3.085q1.612.49,3.225.876a12.52,12.52,0,0,0,8.167-.281,1.7,1.7,0,0,1-1.087,2.1q-.491.14-1.017.281a22.725,22.725,0,0,1-9.359-1.332,6.939,6.939,0,0,1-3.891-3.821q-.456-1.087-.771-2.033a6.235,6.235,0,0,0-1.192-2.068,12.454,12.454,0,0,1-1.122-1.613,9.223,9.223,0,0,1-1.192-2.8A4.389,4.389,0,0,1,1071.919,1279.6Z" transform="translate(-6.892 -144.487)" fill="#545454" fill-rule="evenodd"/>
    <path id="Trazado_2048" data-name="Trazado 2048" d="M1110.638,1139.381l5.644,3.26q-.027.743-.088,1.56-1.157,10.762-2.7,21.418-1.648,11.814-2.8,23.661a18.59,18.59,0,0,0,.526,6.783,18.779,18.779,0,0,0,2.349,5.276c.034.06.069.118.105.175a1.384,1.384,0,0,1-.175.315,6.971,6.971,0,0,1-2.8,2.839,11.2,11.2,0,0,1-2.243,1.017c-.042-.127-.083-.256-.123-.386q-.671-2.013-1.28-4.031-.983-3.321-1.577-6.117a36.433,36.433,0,0,1-.911-7.379q0-7.082,2.244-24.012,2.243-16.9,2.243-20.787,0-1.158-.052-2.331A10.92,10.92,0,0,0,1110.638,1139.381Zm127.192-46.674a29.664,29.664,0,0,1-5.188-1.42,33.044,33.044,0,0,1-9.5-5.626l-.245-.21a27.838,27.838,0,0,0-.421-4.312q-.051-.309-.105-.614-.153-.758-.35-1.525-2.665-10.656-2.769-10.656a21.388,21.388,0,0,1-.806-3.3q-.526-2.1-.771-3.4l.508.3q2.665,1.543,5.486,2.857a28.772,28.772,0,0,1,8.238,5.451q7.37,7.143,6.38,18.981Q1238.141,1090.925,1237.83,1092.707Zm-146.612,37.349q1.381,1.639,2.471,3.172l.017-.018q.468.553,3.383,4.925l.386.491a1.37,1.37,0,0,1,.07.175,19.509,19.509,0,0,0,2.1,2.454q-.579,1.4-1.262,2.8-.245,3.365-.771,6.8-1.472,9.359-2.909,18.894-.386,1.788-1.157,5.258-1.472,6.59-1.788,7.817l-.14.561q-.14.841-1.437,8.378-.312,1.853-.508,3.628a47.244,47.244,0,0,0-.088,10.113,70.041,70.041,0,0,0,1.052,7.607q.734,2.569-1.139,3.453c-.061.032-.125.06-.193.088a22.228,22.228,0,0,1-3.646,1.016c-.029-.156-.058-.313-.088-.473q-.677-3.692-1.139-8.01-.386-3.645-.385-4.732,0-3.76.3-8.027a219.221,219.221,0,0,1,3.663-26.08q4-20.436,4-27.9a63.315,63.315,0,0,0-1.507-10.832q-.153-.731-.3-1.385Q1090.708,1130.16,1091.219,1130.057Z" transform="translate(-10.558 -82.37)" fill="#00558c" fill-rule="evenodd"/>
    <path id="Trazado_2049" data-name="Trazado 2049" d="M1071.568,1214.622q-.153-.024-.3-.053l-.631-.14c-.041-.027-.081-.056-.123-.088a4.236,4.236,0,0,1-1.455-1.98q-.246-.981-.491-2.033-.07-.351-.1-.631-.787-5.7-1.122-11.445-.218-3.712-.245-7.449a39.745,39.745,0,0,1,2.875-15.319,39.62,39.62,0,0,0,2.559-19.455q-.175-1.858-.421-3.681-.21-.982-.386-2a175.582,175.582,0,0,1-3.26-21.312q-.211-2.314-.351-4.662.052-1.046.14-2.051a6.025,6.025,0,0,0,1.823,2.156,12.175,12.175,0,0,0,4.171,1.963,45.357,45.357,0,0,0,5.679.771,22.166,22.166,0,0,0,5.205-.123q.145.654.3,1.385a63.3,63.3,0,0,1,1.507,10.832q0,7.466-4,27.9a219.253,219.253,0,0,0-3.663,26.08q-.3,4.267-.3,8.027,0,1.087.385,4.732.462,4.317,1.139,8.01c.03.16.058.318.088.473a24.593,24.593,0,0,1-9.026.088Zm154.779-153.167q1.543.14,3.155.14h.351a45.872,45.872,0,0,0,11.042-1.753,76.567,76.567,0,0,0,7.344-2.506,46.508,46.508,0,0,1,.438,5.977q0,6.977-3.435,17.351-.428,1.293-.859,2.506-1.305,3.661-2.647,6.608c-.093.01-.186.021-.28.035a33.758,33.758,0,0,1-8.693-.245q.311-1.781.456-3.47.99-11.84-6.38-18.981a28.773,28.773,0,0,0-8.238-5.451q-2.82-1.315-5.486-2.857l-.508-.3q-.316-1.191-.456-1.647a26.793,26.793,0,0,0-1.753-3.786,34.168,34.168,0,0,0,3.085,2.664,10.611,10.611,0,0,1,1.385-4.066,1.083,1.083,0,0,1,.894-.526c-.007.231-.013.477-.018.736q-.037,2.141.052,5.468a12.753,12.753,0,0,0,1.542,1.052A20.058,20.058,0,0,0,1226.347,1061.455Zm-131.766,76.662a10.253,10.253,0,0,0,1.472,1.227,4.29,4.29,0,0,0,.771.07.765.765,0,0,1,.245.035l1.718-.07a.1.1,0,0,1,.07-.035,9.657,9.657,0,0,0,2.068-.456.1.1,0,0,0,.07-.035h.07a.151.151,0,0,1,.14,0,.1.1,0,0,1,.07-.035,1.847,1.847,0,0,0,.175-.105.275.275,0,0,0,.105-.035c.023,0,.058-.023.105-.07a.1.1,0,0,0,.07-.035.265.265,0,0,1,.105-.035.144.144,0,0,0,.105-.035c.163-.07.315-.129.456-.175a.1.1,0,0,1,.07-.035,12.55,12.55,0,0,0,1.455-.789q.053,1.173.052,2.331,0,3.891-2.243,20.787-2.243,16.931-2.243,24.012a36.433,36.433,0,0,0,.911,7.379q.594,2.8,1.577,6.117.609,2.018,1.279,4.031c.039.13.081.259.123.386q-.7.245-1.542.456-1.332.35-4.1.947a17.7,17.7,0,0,0-3.155,1.069q-.371.18-.7.368a13.512,13.512,0,0,1-3.453-1.192l-.4-.21a4.84,4.84,0,0,1-2.594-2.77,11.728,11.728,0,0,1-.491-1.963q.035-.351.14-3.716.043-1.393.193-3.593.2-3.183.613-8.045a121.16,121.16,0,0,1,1.542-12.233q2.243-11.323,2.524-13.6a62.675,62.675,0,0,0,.6-10.341q.526-3.435.771-6.8Q1094,1139.52,1094.581,1138.117Z" transform="translate(-5.49 -79.231)" fill="#003151" fill-rule="evenodd"/>
    <path id="Trazado_2050" data-name="Trazado 2050" d="M1067.113,1078.417q-.234.07-.473.158c-.1.038-.2.079-.3.123q-2.509.792-4.522,1.3c-.082.026-.164.05-.245.07a1.319,1.319,0,0,1-1.648-.6.37.37,0,0,1-.07-.14q-.176-.35-.526-1.122-1.717-3.331-3.225-6.765-1.612-3.681-3.26-7.256a48.338,48.338,0,0,0-2.734-5.048,14.38,14.38,0,0,1-.736-1.472,13.375,13.375,0,0,1-.386-6.73,9.786,9.786,0,0,1,4.7-6.73,4.146,4.146,0,0,0,.491-.175c.047-.047.082-.07.105-.07a13.151,13.151,0,0,1,1.858-.6l.175-.035a5.1,5.1,0,0,1,.526-.105q-.105.526-.28,1.262a24.657,24.657,0,0,0-.911,5.083q-.105,5.538,7.326,20.717,1.026,1.95,4,7.834C1067.016,1078.219,1067.063,1078.319,1067.113,1078.417ZM1331.5,1131.33a12.223,12.223,0,0,1-2.752-2.191q-.405-.435-.771-.911-4.487-5.925-2.138-12.058a104.548,104.548,0,0,0,9.675,7.239q3.348,2.223,6.906,4.224a45.494,45.494,0,0,0,20.787,5.854q7.5.024,15.283-.088l.981-.017.859-.018q2.294-.037,4.61-.088a5.878,5.878,0,0,1-.491,3.225,3.455,3.455,0,0,1-.841,1.087,4.3,4.3,0,0,1-1.052.631q-1.3.265-3.085.491l-.981.105q-3.624.4-8.974.631a99.265,99.265,0,0,1-17.211-.771,72.125,72.125,0,0,1-13.355-3.856c-.072-.031-.143-.06-.21-.088q-3.152-1.278-6.2-2.857-.249-.118-.491-.245Q1331.773,1131.485,1331.5,1131.33ZM1227.483,985.7a53.756,53.756,0,0,0,16.563,5.661q2.276.376,4.627.578,2.941.253,5.994.228a71.739,71.739,0,0,0,8.4-.614,5.457,5.457,0,0,1-1.4,4.347c-.135.019-.269.036-.4.053a107.22,107.22,0,0,1-12.286,1.069,44.875,44.875,0,0,1-5.083-.175q-1.791-.177-3.4-.438l-.228-.035a30.556,30.556,0,0,1-6.748-1.84,18.119,18.119,0,0,1-5.153-2.839,6.372,6.372,0,0,1-1.507-2.594A4.8,4.8,0,0,1,1227.483,985.7Zm-139.794,45.219a21.736,21.736,0,0,0-3.383-2.173,3.063,3.063,0,0,0,.438-1.087,2.18,2.18,0,0,1-.035-.315c.092-.025.185-.049.28-.07q.35.21.806.491,1.027.669,1.893,1.315Z" transform="translate(0 -59.666)" fill="#dbdfff" fill-rule="evenodd"/>
    <path id="Trazado_2051" data-name="Trazado 2051" d="M1085.932,1020.814l.263.911a.1.1,0,0,1,.035.07,1.4,1.4,0,0,0,.07.175l.21.7c.023.07.047.151.07.245.047.187.093.362.14.526a.267.267,0,0,1,.035.105.4.4,0,0,1,.035.175.1.1,0,0,1,.035.07q.105.421.21.806a4.82,4.82,0,0,1,.105.561v.035a.143.143,0,0,1,.035.105c.093.515.163.993.21,1.437.023.257.035.5.035.736a4.793,4.793,0,0,1-1.577,3.926,5.071,5.071,0,0,1-1.157.736q-3.646,1.367-7.852-1.262-1.122-.7-3.435-2.524a3.579,3.579,0,0,1-.315-.21q-.807-.631-1.472-1.087a1.909,1.909,0,0,0-.28-.175l-.07-.07a1.354,1.354,0,0,0-.21-.175l-.14-.07a.031.031,0,0,0-.035-.035l-.21-.14a.555.555,0,0,1-.14-.1c-.187-.116-.362-.222-.526-.316l.631-1.052.017-.018q1.018-1.3,1.4-4.925a4.784,4.784,0,0,0,1.875-.14q1.769-.372,2.051-1.455a3.348,3.348,0,0,0,3.313.683q.07.876,1.788,1.648a5.064,5.064,0,0,0,2.7.526Q1084.715,1021.072,1085.932,1020.814Zm252.053,70.458a2.032,2.032,0,0,0,1.016,2.279,3.992,3.992,0,0,0,.526.315q-1.262.35-1.472.981a2.515,2.515,0,0,0-.245,1.227q0,.6.14,2.208c.02.234.031.438.035.614-.048-.043-.095-.083-.14-.123q-1.1-.935-2.226-1.718c-.03-.092-.059-.174-.088-.245a4.842,4.842,0,0,0-2.208-2.769,8.589,8.589,0,0,0-2.033-.7q-.667-.141-2.594-.561a21.1,21.1,0,0,0-4.031-.21l-.035-.105a.306.306,0,0,0-.035-.14.592.592,0,0,0-.035-.245q-.246-.877-.526-1.647a8.662,8.662,0,0,0,8.8.035,2.891,2.891,0,0,0,1.3-1.3,33.692,33.692,0,0,1,2-3.856,6.829,6.829,0,0,0,.911,3.751,6.526,6.526,0,0,0,1.157,1.367ZM1233.893,959.154a.2.2,0,0,0-.053-.035q.035.771.07,1.192l.035.456-1.542.526a19.183,19.183,0,0,1-2.7.736,7.91,7.91,0,0,1-3.646-.07,10.3,10.3,0,0,1-3.19-1.437,4.471,4.471,0,0,1-1.858-2.839q.421.035.876.035a1.3,1.3,0,0,1,.841.316.291.291,0,0,1,.017-.052l.018.017.017-.21a6.308,6.308,0,0,0,.158-1.595l.491-.333q.7-.526,2.1-1.472,1.438-.946,2.1-1.437,3.214,2.689,6.45,2.156-.077,1.53-.175,3.278C1233.9,958.634,1233.891,958.891,1233.893,959.154Z" transform="translate(-6.358 -49.876)" fill="#dc8156" fill-rule="evenodd"/>
    <path id="Trazado_2052" data-name="Trazado 2052" d="M1080.4,994.725v.035c.07.3.128.619.175.946q-.246.491-.491.946-.176.315-.385.631-.246.315-.526.631l-.561.631-.561.491a10.089,10.089,0,0,1-1.087.631q-.526.315-1.052.6-.351.069-.7.175-.421.105-.806.21t-.771.245a6.177,6.177,0,0,0-.631.193,1.6,1.6,0,0,0-.175.053l-.771.28a8.011,8.011,0,0,0-.806.245l-.981.491a8.184,8.184,0,0,0-.911.456q-.411.228-.789.456c-.138.082-.273.163-.4.245a8.653,8.653,0,0,0-1.122.631,5.8,5.8,0,0,0-.6.456q-.526.421-1.016.876l-.175-.175q-.491-.455-.946-.911c-.21-.164-.409-.327-.6-.491q-.386-.28-.736-.526l.771-.911q.491-.49.981-.946a8.9,8.9,0,0,1,.666-.666q.386-.281.771-.6l.841-.561q.421-.315.876-.6l.981-.491q.49-.281,1.017-.526t1.087-.456q.474-.207.947-.385c.059-.025.117-.048.175-.07q.56-.21,1.157-.421.526-.245,1.087-.491.45-.225.929-.456a.8.8,0,0,0,.088-.035q.456-.281.911-.6a5.915,5.915,0,0,0,.911-.561q.421-.281.841-.6.386-.35.736-.7l.7-.7.28.561.351.771Q1080.256,994.222,1080.4,994.725Zm.631-14.2a6.748,6.748,0,0,1-.245,3.786,7.939,7.939,0,0,1-.719,1.472,8.535,8.535,0,0,1-1.455,1.753q-.713.677-1.472,1.35-.731.642-1.507,1.279a24.844,24.844,0,0,1-3.365,2.349q-.607.328-1.227.631-1.181.571-2.419,1.052-1.717.7-3.435,1.367a9.941,9.941,0,0,0-3.435,2.243,11.231,11.231,0,0,0-2.278,3.26,20.142,20.142,0,0,1-1.472-3.681,12.152,12.152,0,0,1-.456-3.821,10.706,10.706,0,0,1,.736-3.751,12.46,12.46,0,0,1,2.033-3.365,10.563,10.563,0,0,1,3.05-2.489,29.022,29.022,0,0,1,3.61-1.612,30.794,30.794,0,0,1,3.716-.982q2-.386,4.066-.6,1.963-.21,4-.245Zm120.093-21.768.07.7a3.118,3.118,0,0,0-.6.666,3.925,3.925,0,0,1-1.718,1.122,8.464,8.464,0,0,1-2.1.631h-.245a2.124,2.124,0,0,1-.21-.386.272.272,0,0,0-.035-.105,3.621,3.621,0,0,1,.035-2.664,3.051,3.051,0,0,1,1.577-1.858q1.752-.7,2.489.315a3.736,3.736,0,0,1,.491,1.542l.21.105C1201.1,958.807,1201.113,958.784,1201.126,958.76Zm2-29.936a9.163,9.163,0,0,1,1.052,2.033,5.876,5.876,0,0,1,.491,4.031,7.126,7.126,0,0,1-2,2.664,20.255,20.255,0,0,0-5.784,8.623q.035,1.3.07,2.454a11.848,11.848,0,0,1-2.524-3.61,10.775,10.775,0,0,1,.245-8.623,13.636,13.636,0,0,1,5.573-6.345A14.992,14.992,0,0,1,1203.124,928.824Zm136.218,130.294a21.2,21.2,0,0,1-3.085,2.243,50.039,50.039,0,0,1-6.24,3.05,28.468,28.468,0,0,1-4.89,1.332,36.7,36.7,0,0,1-4.189.491q-1.286.07-2.629.07a10.967,10.967,0,0,1-3.155-.421,10.044,10.044,0,0,1,.561-2.98c.01-.028.022-.057.035-.088q.981-2.576,5.258-4.68.591-.308,1.192-.578a21.958,21.958,0,0,1,12.619-1.665,5.708,5.708,0,0,1,2.909,1.367A9.314,9.314,0,0,1,1339.342,1059.118ZM1228.923,918.1a23.714,23.714,0,0,0-1.3,2.454q-4.732,9.289-5.573,10.867a22.438,22.438,0,0,1-4.189,5.7,3.938,3.938,0,0,1-1.034.648q-.718.287-1.613.578-1.161.373-2.629.754l-.28.07q-.982-.805-1.542-1.262a10.278,10.278,0,0,1-2.839-5.048,6.019,6.019,0,0,1-.175-1.016.889.889,0,0,0,0-.105.1.1,0,0,1,.035-.07q.89-.89,2.033-1.91,2.035-1.856,4.872-4.154,4.591-3.891,6.24-5.433l-.6-.526a14.3,14.3,0,0,0-2.944.666,26.14,26.14,0,0,0-2.945.946,29.8,29.8,0,0,0-5.223,2.7,17.48,17.48,0,0,1,1.262-1.963,11.506,11.506,0,0,1,4.452-3.716,8.965,8.965,0,0,1,4.837-2.243,12.384,12.384,0,0,1,5.538.351A10.978,10.978,0,0,1,1228.923,918.1Zm87.564,154.551q-.455-1.086-.736-1.963a44.428,44.428,0,0,0,6.625.421q.635,0,1.262-.018.788-.021,1.56-.07a32.361,32.361,0,0,0,11.725-2.927,5.332,5.332,0,0,1,.631,2.384q-1.017.421-2.349,1.052a76.6,76.6,0,0,1-11.007,2.909,7.314,7.314,0,0,1-.911.07,12.206,12.206,0,0,1-4.662-1.052Q1317.294,1072.894,1316.487,1072.649Z" transform="translate(-2.632 -38.791)" fill="#7a3a1e" fill-rule="evenodd"/>
    <path id="Trazado_2053" data-name="Trazado 2053" d="M1203.992,1123.848a10.309,10.309,0,0,1,4.8,4.767,21.193,21.193,0,0,1,2.945,10.551,13.024,13.024,0,0,1-.491,4.171,10.748,10.748,0,0,1-3.085,4.943,18.237,18.237,0,0,1-1.507,1.227,3.816,3.816,0,0,0-.526.316l-.35.175a3.962,3.962,0,0,1-.421.245,7.554,7.554,0,0,0,1.227-1.052,10.846,10.846,0,0,0,3.19-4.978,12.512,12.512,0,0,0,.386-4.172,20.713,20.713,0,0,0-2.874-10.586q-2.208-3.891-5.118-4.837a12.568,12.568,0,0,0-5.118.07,12.19,12.19,0,0,1-5.048.175q-2.629-.631-4.662-4.136a45.023,45.023,0,0,1-2.419-6.59l-.035-38.8L1147,1053.5a8.167,8.167,0,0,1,1.367-.946l38.033,21.909.035,38.839a44.927,44.927,0,0,0,2.419,6.59q2.032,3.505,4.662,4.136a12.6,12.6,0,0,0,5.013-.21,11.3,11.3,0,0,1,5.118-.035A1.474,1.474,0,0,1,1203.992,1123.848Zm-19.069,44.623-.035-24.993a7.4,7.4,0,0,1,1.858-1.612q.245-.174.666-.421a.873.873,0,0,1,.386-.105,7.4,7.4,0,0,0-1.367,1.262v26.711ZM1104.3,1027.1l25.554,14.687a11.774,11.774,0,0,1,1.192,6.485,9.126,9.126,0,0,1-3.155,4.662q-1.683,1.472-2.7,2.384a8.614,8.614,0,0,0-1.052,1.262q-1.3,2.278.736,5.819a33.181,33.181,0,0,0,8.553,9.394q6.765,4.943,11.077,3.015a6.2,6.2,0,0,1-.841.6q-4.522,2.594-11.708-2.734a33.006,33.006,0,0,1-8.588-9.394q-2.033-3.541-.736-5.854a15.185,15.185,0,0,1,1.087-1.227q.946-.912,2.629-2.349a8.513,8.513,0,0,0,3.12-4.7,10.626,10.626,0,0,0-1.157-6.45l-24.012-13.881Z" transform="translate(-16.611 -72.042)" fill="#ff9fc8" fill-rule="evenodd"/>
    <path id="Trazado_2054" data-name="Trazado 2054" d="M1291.927,1143.205a26.858,26.858,0,0,1-6.8-6.1q-.267-.382-.491-.754,1.157-3.575,2.559-7.046a97.03,97.03,0,0,1,4.347-9.359,101.243,101.243,0,0,1,8.238-13.215c.117-.16.234-.318.351-.473a45.54,45.54,0,0,1,10.236-10.078,37.552,37.552,0,0,1,3.646-2.331q.967-.548,1.963-1.034a43.841,43.841,0,0,1,12.479-4,24.272,24.272,0,0,1,3.4-.315,16.139,16.139,0,0,0,3.19,2.1q1.865,1.038,4.7,2.384,2.144,1.015,4.049,1.788a36.745,36.745,0,0,0,6.748,2.1,14.936,14.936,0,0,1,1.262,1.507q-.21-.245-.385-.491a9.358,9.358,0,0,0-2.98-.175q-6.484.491-15.354,7.081-1.4.981-2.8,2.138-1.087.876-2.138,1.788-1.664,1.435-3.242,2.945-2.872,2.742-5.451,5.731a83.088,83.088,0,0,0-7.361,9.833q-.877,1.438-1.718,2.874a52.817,52.817,0,0,0-4.276,9.114,37.4,37.4,0,0,0-2.016,8.255c-.034.253-.063.5-.088.754a19.658,19.658,0,0,1-8.062-2.524Q1293.727,1144.437,1291.927,1143.205ZM1109.035,1098.2l-3.155-1.805a13.259,13.259,0,0,0,2.822.315,1.792,1.792,0,0,0,1.3-.385q.315-.526.456-.736a13.921,13.921,0,0,0-5.784-4.522q-.216-.1-.421-.193v-8.711l.035-65.3v-14.477l24.012,13.881a10.626,10.626,0,0,1,1.157,6.45,8.512,8.512,0,0,1-3.12,4.7q-1.682,1.436-2.629,2.349a15.209,15.209,0,0,0-1.087,1.227q-1.3,2.314.736,5.854a33,33,0,0,0,8.588,9.394q7.186,5.329,11.708,2.734a6.19,6.19,0,0,0,.841-.6,2.474,2.474,0,0,0,.666-.281q3.926-2.279,3.961-5.468a7.95,7.95,0,0,0-.105-1.122,18.152,18.152,0,0,0-1.823-4.732,20.445,20.445,0,0,1-2.138-5.679,4.834,4.834,0,0,1,1.928-4.031l37.893,21.839.035,38.8a45.023,45.023,0,0,0,2.419,6.59q2.033,3.505,4.662,4.136a12.188,12.188,0,0,0,5.048-.175,12.568,12.568,0,0,1,5.118-.07q2.909.946,5.118,4.837a20.713,20.713,0,0,1,2.875,10.586,12.508,12.508,0,0,1-.386,4.171,10.845,10.845,0,0,1-3.19,4.978,7.567,7.567,0,0,1-1.227,1.052,9.7,9.7,0,0,1-.946.35,4.012,4.012,0,0,1-3.961-.491,12.542,12.542,0,0,1-2.874-4.136q-.14-.245-.35-.6a23.974,23.974,0,0,0-2.349-3.891,5.772,5.772,0,0,0-.876-.841q-2.069-1.508-5.048-.07-.455.281-.666.385a1.56,1.56,0,0,0-.491.386.873.873,0,0,0-.386.105q-.421.246-.666.421a7.4,7.4,0,0,0-1.858,1.613l.035,24.993-62.588-36.158-5.644-3.26-2.489-1.437-1.4-.806Zm117.237-152.22.017.018a4.47,4.47,0,0,1-3.313-.368,4.251,4.251,0,0,1-2.208-2.664,4.333,4.333,0,0,1,.351-3.4,4.942,4.942,0,0,1,.6-.911,6.031,6.031,0,0,0,.175,1.016,10.279,10.279,0,0,0,2.839,5.048Q1225.291,945.17,1226.271,945.976Z" transform="translate(-16.596 -45.602)" fill="#ff65a7" fill-rule="evenodd"/>
    <path id="Trazado_2055" data-name="Trazado 2055" d="M1358.66,1253.967a1.893,1.893,0,0,0-.824-1.1,3.275,3.275,0,0,0-1.332-.421,1.9,1.9,0,0,1-.245.017c-.046-.028-.093-.057-.14-.088l-.841-.421a.507.507,0,0,1-.053-.035,53.425,53.425,0,0,0,4.014-4q2.91-3.085,4.1-4.206,1.718-1.543,2.1-1.893a15.456,15.456,0,0,1,2.313-1.507,3.648,3.648,0,0,0-.736-1.122,11.009,11.009,0,0,1-.806-1.087,9.613,9.613,0,0,1-.456-.876l.052-.053.018-.017a.992.992,0,0,0,.053.088l.1.123c.072.093.147.187.228.281q.2.227.4.438a.438.438,0,0,0,.053.088,19.251,19.251,0,0,0,2.349,2.068,16.353,16.353,0,0,0,3.19,1.612,11.061,11.061,0,0,0,1.1.386q-2.529,2.178-7.8,6.415-.27.216-.543.421Q1361.164,1252.111,1358.66,1253.967Zm6.853-17.229a11.289,11.289,0,0,1-3.646-2.313,7.916,7.916,0,0,1-2.244-3.681,12.154,12.154,0,0,1-.35-5.573,23.461,23.461,0,0,1,.876-3.558,26.861,26.861,0,0,0,6.8,6.1q-.587,1.3-1.122,2.576a9.266,9.266,0,0,0-.7,3.225,9.728,9.728,0,0,0,.421,3.225Zm34.317,13.934a10.7,10.7,0,0,1-1.367-.473q-.233-.1-.456-.21-.109-.057-.21-.105l-.123-.07a6.714,6.714,0,0,1-2.244-2.1.126.126,0,0,1-.017-.035,8.981,8.981,0,0,1,.421-3.926,24.522,24.522,0,0,1,1.577-3.681,60.237,60.237,0,0,0,3.628-6.555c.044-.083.084-.165.123-.245l13.11-11.918q-.946,1.929-2.559,5.013-2.663,5.242-4.014,7.992-.858,1.782-1.174,2.524-3.119,7.011-5.083,10.8Q1400.551,1249.356,1399.831,1250.672Z" transform="translate(-91.62 -130.109)" fill="#0070a8" fill-rule="evenodd"/>
    <path id="Trazado_2056" data-name="Trazado 2056" d="M1429.6,1204.464q-1.28,2.973-3.295,6.818c-.02.036-.037.071-.053.105q-2.662,4.829-3.979,7.256-.56,1.052-1.753,3.4-1.192,2.278-2.068,3.786-.546.978-1.525,2.577-.522.866-1.174,1.91a31.475,31.475,0,0,0-2.559,4.837l-.017.035h-.053q-.1.276-.193.543-.2.51-.491,1.367-.224.568-.438,1.1a6.256,6.256,0,0,1-.771,1.472,4.152,4.152,0,0,1-3.225,1.647,16.625,16.625,0,0,0-3.26.421q-1.226.245-1.718.351a9.071,9.071,0,0,1-3.155-.263q.72-1.317,1.612-3,1.963-3.786,5.083-10.8.315-.743,1.174-2.524,1.349-2.749,4.014-7.992,1.612-3.086,2.559-5.013a18.6,18.6,0,0,0,2.1-1.928q1.052-1.157,2.208-2.349.373-.407.754-.806.822-.864,1.665-1.682,1.052-1.086,2.138-2.279.866-.817,1.7-1.718.344-.38.684-.771,1.193-1.331,2.419-2.489,1.166-1.065,2.419-2.156c.067.027.138.056.21.088q.1.348.316.982a4.688,4.688,0,0,1,.21,1.542q-.069.7-.07.771a.763.763,0,0,0-.035.245,10.057,10.057,0,0,1-1.122,3.751Q1429.763,1204.083,1429.6,1204.464Zm-56.243,28.937a11.055,11.055,0,0,0,2.366.456q1.824.035,3.54.035a26.32,26.32,0,0,0,3.646-.245q1.683-.176,3.4-.421a11.635,11.635,0,0,0,2.051-.368,16.06,16.06,0,0,1-1.42,4.82,10.387,10.387,0,0,1-2.384,3.365q-1.262,1.017-1.613,1.262a6.8,6.8,0,0,1-1.788.911l-3.891,1.3a39.072,39.072,0,0,0-3.821,1.472q-1.4.6-3.26,1.542-1.052.491-3.19,1.612a4.661,4.661,0,0,0-.684.473c-.06.046-.124.1-.193.158l-.876.771q-.877.771-2.664,2.314-1.577,1.367-2.734,2.278a14.407,14.407,0,0,0-1.613,1.4,13.323,13.323,0,0,1-1.648,1.367,4.609,4.609,0,0,0-.736.631c-.187.175-.344.32-.473.438a32.479,32.479,0,0,0,2.611-3.7,10.108,10.108,0,0,0,1.367-6.7,14.435,14.435,0,0,0-.648-3.453q2.5-1.856,6.31-4.89.272-.2.543-.421Q1370.829,1235.58,1373.357,1233.4Zm-7.5-5.065-.052.052a2,2,0,0,1-.158-.333l.07.07a.164.164,0,0,1,.018.035Zm39.348-29.094q1.44-.9,2.892-1.788l2.927-1.77,1.4-.841q1.753-1.016,3.54-2.033a.113.113,0,0,1,.105-.07q.385-.245.806-.491.659-.216,1.3-.473,1.669.354,2.559.613,1.052.246,1.753.421.409.062.684.123.269.155.543.3.242.127.491.245a9.137,9.137,0,0,1-.771.6q-1.3.981-2.629,1.858-1.483.915-2.769,1.858l-.28.21q-1.542,1.122-2.945,2.138-1.191.946-2.524,1.963-.472.339-.929.7-.85.668-1.63,1.4-1.331,1.262-2.7,2.594-.982.982-1.928,2.068-1.122,1.226-2.208,2.454-1.122,1.226-2.244,2.349-1.331,1.3-2.489,2.594a22.378,22.378,0,0,1-2.349,2.349l-.035.035a18.266,18.266,0,0,1-2.8,2.594q-.083.053-.158.105l4.031-13.39a.325.325,0,0,1,.017-.035.68.68,0,0,0,.035-.105,13.414,13.414,0,0,1,.946-1.753,17.049,17.049,0,0,1,3.12-3.733,21.465,21.465,0,0,1,2.471-1.963q.473-.312.964-.614C1404.666,1199.581,1404.934,1199.412,1405.2,1199.241Z" transform="translate(-91.665 -121.268)" fill="#002a3f" fill-rule="evenodd"/>
    <path id="Trazado_2057" data-name="Trazado 2057" d="M1370.047,1229.043c-.036-.046-.072-.093-.105-.14a.167.167,0,0,0-.035-.017.169.169,0,0,0-.018-.035l-.07-.07-.018-.018-.07-.14h.035a9.723,9.723,0,0,1-.421-3.225,9.265,9.265,0,0,1,.7-3.225q.533-1.273,1.122-2.576,1.8,1.232,4,2.506a19.66,19.66,0,0,0,8.062,2.524.26.26,0,0,1,.105.035h.315a24.188,24.188,0,0,0,5.328-.175,36.891,36.891,0,0,0,7.852-1.928l.157-.491q.075-.051.158-.105a18.26,18.26,0,0,0,2.8-2.594l.035-.035a22.425,22.425,0,0,0,2.349-2.349q1.156-1.3,2.489-2.594,1.122-1.121,2.243-2.349,1.087-1.227,2.208-2.454.946-1.087,1.928-2.068,1.367-1.331,2.7-2.594.78-.734,1.63-1.4.456-.363.929-.7,1.331-1.017,2.524-1.963,1.4-1.017,2.944-2.138l.281-.21q1.287-.943,2.769-1.858,1.332-.877,2.629-1.858a9.1,9.1,0,0,0,.771-.6q3.053,1.579,6.2,2.857-1.254,1.089-2.419,2.156-1.227,1.157-2.419,2.489-.339.391-.684.771-.834.9-1.7,1.718-1.087,1.192-2.138,2.279-.842.818-1.665,1.682-.381.4-.754.806-1.157,1.192-2.208,2.349a18.59,18.59,0,0,1-2.1,1.928l-13.11,11.918-.3.228q-.454.332-.929.649a27.511,27.511,0,0,0-2.559,2.138q-1.122.981-2.384,1.893-1.367.877-2.664,1.647-1.331.772-2.839,1.472-.589.231-1.174.4a11.634,11.634,0,0,1-2.051.368q-1.718.246-3.4.421a26.34,26.34,0,0,1-3.646.245q-1.718,0-3.541-.035a12.293,12.293,0,0,1-3.47-.841,16.347,16.347,0,0,1-3.19-1.613,19.214,19.214,0,0,1-2.349-2.068.441.441,0,0,1-.053-.088,1.548,1.548,0,0,1-.123-.158c-.11-.111-.216-.222-.315-.333l-.193-.228-.1-.123A1.014,1.014,0,0,1,1370.047,1229.043Z" transform="translate(-95.838 -121.993)" fill="#004b71" fill-rule="evenodd"/>
    <path id="Trazado_2058" data-name="Trazado 2058" d="M1532.744,1182.925a48.113,48.113,0,0,0-.175,5.065q.018,1.368.035,2.384.017,2.867-.035,2.945a1.311,1.311,0,0,1-.491.4,27.448,27.448,0,0,1-5.959,1.7c-.079.013-.161.025-.245.035a5.879,5.879,0,0,0,.491-3.225q-.842-3.576-3.085-4.136-.717.006-1.455,0c0-.028.01-.057.017-.088.042-.193.089-.386.14-.578a29.294,29.294,0,0,1,6.73-3.716c.175-.051.345-.1.508-.14a19.335,19.335,0,0,1,2.857-.6C1532.31,1182.954,1532.532,1182.935,1532.744,1182.925Z" transform="translate(-141.421 -118.622)" fill="#ffb087" fill-rule="evenodd"/>
    <path id="Trazado_2059" data-name="Trazado 2059" d="M1331.417,1255.711c-.051.139-.1.268-.14.386q-.143.41-.263.806a11.684,11.684,0,0,0-.438,2.349,3.684,3.684,0,0,1-.351,1.262c-.063.173-.156.406-.28.7q-.1.227-.21.491-.421.877-1.087,2-.315.666-1.087,1.963a10.406,10.406,0,0,1-1.4,1.893,3.13,3.13,0,0,1-.946.771,25.411,25.411,0,0,0,1.823-4.312q.946-3.015,1.788-6.765a20.159,20.159,0,0,1,3.856-7.782q2.979-4,2.208-6.24t-1.683-2.594a3.228,3.228,0,0,0-1.507-.21,2.7,2.7,0,0,1,2.4-.035.485.485,0,0,0,.053.035l.841.421c.048.031.095.06.14.088a3.228,3.228,0,0,1,1.192,1.63,9.27,9.27,0,0,1,.456,2.664,4.725,4.725,0,0,1-.386,2.419,9.34,9.34,0,0,1-1.087,1.612,15.752,15.752,0,0,0-1.3,1.718q-.6.877-1.3,1.858l-.175.35Q1331.792,1254.767,1331.417,1255.711Zm-46.236-71.825-.631-1.087c.093.034.186.068.28.105a12.256,12.256,0,0,1,2.629,1.437q1.4.982,2.8,1.893.6.405,1.192.824.888.653,1.753,1.35.565.474,1.139,1,.723.668,1.455,1.42.7.736,1.262,1.4a12.765,12.765,0,0,0,4.522.035,10.142,10.142,0,0,0,2.051-.6,9.257,9.257,0,0,0,1.034-.526c.068-.041.131-.082.193-.123a7.764,7.764,0,0,0,2.822-3.277l.35-.631q-.281.772-.561,1.507a7,7,0,0,1-1.823,2.524q-.562.456-1.192.876a6.931,6.931,0,0,1-3.015,1.157,12.782,12.782,0,0,1-4.522-.035q-.841-.982-1.823-2.033a20.712,20.712,0,0,0-2.051-1.858c-.12-.094-.243-.188-.368-.281a2.216,2.216,0,0,0-.193-.123q-1.44-1.03-2.857-2.051a8.641,8.641,0,0,0-.316,6.064l-1.577.035a18.085,18.085,0,0,0-.473-7.519.45.45,0,0,1-.017-.053Zm88.545,53.176q.316.315.7.631a18.578,18.578,0,0,0,2.559,2.138,14.978,14.978,0,0,0,2.909,1.542,11.7,11.7,0,0,0,3.26.806q1.612.21,3.19.421a1.123,1.123,0,0,1,.281.035q1.577.105,3.19.245a12.511,12.511,0,0,0,3.365.035,9.124,9.124,0,0,0,5.959-3.12,10.354,10.354,0,0,0,1.542-2.734,3.555,3.555,0,0,0,.28-1.087,2.493,2.493,0,0,0-1.052-2.138,3.57,3.57,0,0,1,1.542,2.173,5.014,5.014,0,0,1-.386,3.716,9.013,9.013,0,0,1-3.26,3.61,11.9,11.9,0,0,1-4.136,1.683,7.959,7.959,0,0,1-3.155.21q-1.753-.21-3.47-.561a25.143,25.143,0,0,0-3.26-.21,13.945,13.945,0,0,1-3.821-.245,17.608,17.608,0,0,1-5.083-2,13.345,13.345,0,0,1-2.629-2.173l1.4-3.05A.655.655,0,0,1,1373.726,1237.063Z" transform="translate(-70.493 -118.585)" fill-rule="evenodd"/>
    <path id="Trazado_2060" data-name="Trazado 2060" d="M1345.754,1264.989a3.228,3.228,0,0,1,1.507.21q.911.351,1.683,2.594t-2.208,6.24a20.159,20.159,0,0,0-3.856,7.782q-.841,3.75-1.788,6.765a25.406,25.406,0,0,1-1.823,4.312,2.554,2.554,0,0,1-1.016.315,4.6,4.6,0,0,1-3.646-1.087,9.554,9.554,0,0,1-2-3.015,11.3,11.3,0,0,1-.876-6.625,18.337,18.337,0,0,1,.876-3.47,8.489,8.489,0,0,1,2.874-4,25.04,25.04,0,0,0,5.258-5.4q1.3-1.507,2.629-2.98l.911-.841v-.035A11.49,11.49,0,0,1,1345.754,1264.989Z" transform="translate(-84.55 -143.146)" fill="#575555" fill-rule="evenodd"/>
    <path id="Trazado_2061" data-name="Trazado 2061" d="M1283.3,1145.115a14.109,14.109,0,0,1,2.559,1.7q.31.237.631.508,1.3,1.123,2.313,2.173v.035a3.468,3.468,0,0,1-1.314,2.051,1.587,1.587,0,0,0-.228-.088q-.34.121-.683.263-.631-.77-1.245-1.525a12.955,12.955,0,0,1-.947-1.542,3.266,3.266,0,0,0-.6-.736,1.605,1.605,0,0,0-.473-.333l.018-.245.105-1.139v-.035A8.069,8.069,0,0,0,1283.3,1145.115Zm5.065-24.537q-.059-.8-.088-1.718-.051-1.744-.105-3.19a44.442,44.442,0,0,0-.526-6.66q-2.174-7.046-5.644-9.64.162-1.526.315-3.47a33.046,33.046,0,0,0,9.5,5.626v.894q-.105.631-.175,1.367-.245,1.648-.386,3.786a25.9,25.9,0,0,1-.631,4.382Q1289.943,1114.933,1288.362,1120.578Z" transform="translate(-69.731 -92.608)" fill="#b17960" fill-rule="evenodd"/>
    <path id="Trazado_2062" data-name="Trazado 2062" d="M1301.878,1180.011a22.1,22.1,0,0,0-3.3.263,28.52,28.52,0,0,1-.981-4.189q.35-.006.7,0h.7a5.238,5.238,0,0,1,1.752.526,2.167,2.167,0,0,1,1.122,1.4,5.269,5.269,0,0,1,.281,1.122c-.023.023-.023.058,0,.105Zm-11.165,4.89a2.247,2.247,0,0,1,.193.123c.125.093.248.187.368.281-.074-.009-.149-.021-.228-.035C1290.94,1185.144,1290.83,1185.022,1290.714,1184.9Zm-7.94-6.047.631,1.086a8.463,8.463,0,0,0,.035,5.048l-1.577.035-1.367-1.683a14.107,14.107,0,0,0-1.192-7.326l-.631-1.087a4.119,4.119,0,0,1-.035-1.192,3.736,3.736,0,0,1,.245-1.192,6.167,6.167,0,0,1,.666-1.052,4.983,4.983,0,0,1,.736-.841,5.751,5.751,0,0,1,.876-.666q.491-.21.981-.386c.052.015.105.033.158.053a1.6,1.6,0,0,1,.473.333,3.257,3.257,0,0,1,.6.736,12.955,12.955,0,0,0,.947,1.542q.613.755,1.244,1.525c-.1.039-.2.081-.3.123a5.786,5.786,0,0,0-.876.666,4.983,4.983,0,0,0-.736.841,6.1,6.1,0,0,0-.666,1.052,3.707,3.707,0,0,0-.245,1.192A4.137,4.137,0,0,0,1282.774,1178.854Z" transform="translate(-68.717 -114.639)" fill="#27416c" fill-rule="evenodd"/>
    <path id="Trazado_2063" data-name="Trazado 2063" d="M1313.525,1111.3q.148-.469.228-.754.164-.523.666-1.77-.32.912-.666,1.945A3.336,3.336,0,0,1,1313.525,1111.3Z" transform="translate(-79.154 -96.457)" fill="#fba894" fill-rule="evenodd"/>
    <path id="Trazado_2064" data-name="Trazado 2064" d="M1277.707,988.366c-.066-.141-.13-.282-.193-.421.038.07.079.141.123.21C1277.66,988.226,1277.684,988.3,1277.707,988.366Zm-4.119-9.429q.693,1.52,1.805,3.891.526,1.262,1.087,2.559.412.983.771,1.963-.423-.964-.841-1.963-.526-1.3-1.052-2.559Q1274.254,980.475,1273.588,978.937Zm-1.963-5.24a.179.179,0,0,0,.035-.035q.555,1.887,1.4,4.049A40.719,40.719,0,0,1,1271.625,973.7Zm8.185-15.143a3.041,3.041,0,0,1,.386-.964,2.661,2.661,0,0,1,1.63-.964q.13.075.263.158a.423.423,0,0,1-.105.07l-.981.736-.07.07a1.023,1.023,0,0,0-.193.123l-.053.053a.1.1,0,0,0-.07.035h-.035l-.035.035A9.467,9.467,0,0,0,1279.81,958.553Zm25.028,32.407a6.147,6.147,0,0,1,2.051-3.277c.078.013.153.025.228.035q-.281.366-.6.719a14.86,14.86,0,0,0-1.682,2.524,5.827,5.827,0,0,1-.4,2.822A25.045,25.045,0,0,1,1304.838,990.96Zm-.193,9.1c.03.115.06.226.088.333a17.555,17.555,0,0,1,.6,2.734A25.731,25.731,0,0,1,1304.645,1000.056Z" transform="translate(-66.629 -50.975)" fill="#e8e8fd" fill-rule="evenodd"/>
    <path id="Trazado_2065" data-name="Trazado 2065" d="M1300.332,1181.948a22.08,22.08,0,0,1,3.3-.263q.262-.005.526,0h.7a5.235,5.235,0,0,1,1.753.526,2.166,2.166,0,0,1,1.122,1.4,5.275,5.275,0,0,1,.281,1.122c-.023.023-.023.059,0,.1l-.351.631a7.762,7.762,0,0,1-2.822,3.277c-.062.041-.125.081-.193.123a9.258,9.258,0,0,1-1.034.526,10.149,10.149,0,0,1-2.051.6,12.769,12.769,0,0,1-4.522-.035q-.562-.667-1.262-1.4-.732-.751-1.455-1.42-.574-.525-1.139-1-.865-.7-1.753-1.35-.591-.419-1.192-.824-1.4-.912-2.8-1.893a12.252,12.252,0,0,0-2.629-1.437c-.094-.037-.187-.072-.28-.105a4.142,4.142,0,0,1-.035-1.192,3.715,3.715,0,0,1,.245-1.192,6.108,6.108,0,0,1,.666-1.052,4.993,4.993,0,0,1,.736-.841,5.815,5.815,0,0,1,.876-.666c.1-.042.2-.083.3-.123q.343-.142.683-.263a1.391,1.391,0,0,1,.631.386,3.269,3.269,0,0,1,.6.736,13.04,13.04,0,0,0,.946,1.542q1.367,1.682,2.8,3.4a8.207,8.207,0,0,0,2.524,2.033,15.35,15.35,0,0,0,1.648.7,6.748,6.748,0,0,0,2.489.561,3.038,3.038,0,0,1,.491-.035.984.984,0,0,0,.7-.105l-.473-1.928-.123-.526Z" transform="translate(-70.466 -116.313)" fill="#426195" fill-rule="evenodd"/>
    <path id="Trazado_2066" data-name="Trazado 2066" d="M1285.45,1184.35l2.068,1.437a.454.454,0,0,0,.018.052,18.086,18.086,0,0,1,.473,7.519l-1.367-1.683A14.1,14.1,0,0,0,1285.45,1184.35Z" transform="translate(-70.762 -119.048)" fill="#2c2c2c" fill-rule="evenodd"/>
  </g>
</svg>
