<svg xmlns="http://www.w3.org/2000/svg" width="1120.5" height="208.5" viewBox="0 0 1120.5 208.5">
  <g id="Grupo_10106" data-name="Grupo 10106" transform="translate(-140.5 -2069)">
    <rect id="Rectángulo_2734" data-name="Rectángulo 2734" width="1120" height="144" transform="translate(141 2133)" fill="#dcedc8" opacity="0.5"/>
    <path id="Trazado_2791" data-name="Trazado 2791" d="M46.82,19V4.889h5.107a7.962,7.962,0,0,1,2.944.508,5.423,5.423,0,0,1,2.109,1.44,6.266,6.266,0,0,1,1.25,2.222,9.172,9.172,0,0,1,.425,2.881,9.206,9.206,0,0,1-.425,2.891,6.266,6.266,0,0,1-1.25,2.222,5.423,5.423,0,0,1-2.109,1.44A7.962,7.962,0,0,1,51.928,19Zm2.93-2.588h2.031a3.466,3.466,0,0,0,2.852-1.147,5.143,5.143,0,0,0,.938-3.325,5.143,5.143,0,0,0-.937-3.325,3.466,3.466,0,0,0-2.852-1.147H49.75ZM62.465,7.457a1.579,1.579,0,0,1-1.152-.474,1.555,1.555,0,0,1-.479-1.147A1.536,1.536,0,0,1,61.317,4.7a1.584,1.584,0,0,1,1.147-.474,1.626,1.626,0,0,1,1.611,1.611,1.626,1.626,0,0,1-1.611,1.621ZM61.029,19V8.961h2.832V19Zm8.438-8.447a3.259,3.259,0,0,1,1.318-1.206,4.023,4.023,0,0,1,1.963-.5v2.51a3.8,3.8,0,0,0-2.4.605,2.643,2.643,0,0,0-.742,2.148V19H66.771V8.961h2.7Zm14.316,3.281-.029.674H76.313a2.6,2.6,0,0,0,.8,1.836,2.561,2.561,0,0,0,1.768.635,2.468,2.468,0,0,0,1.323-.347,2.131,2.131,0,0,0,.845-1.011L83.627,16a4.383,4.383,0,0,1-1.758,2.354,5.226,5.226,0,0,1-2.969.84,5.435,5.435,0,0,1-3.911-1.382,5.042,5.042,0,0,1-1.45-3.833,5.072,5.072,0,0,1,1.455-3.833,5.273,5.273,0,0,1,3.818-1.4,5.04,5.04,0,0,1,3.6,1.279A5.019,5.019,0,0,1,83.783,13.834Zm-4.951-3.1a2.222,2.222,0,0,0-2.441,1.934H81a2.114,2.114,0,0,0-.693-1.436A2.2,2.2,0,0,0,78.832,10.738Zm11.631,8.447a5.364,5.364,0,0,1-3.877-1.445,4.992,4.992,0,0,1-1.5-3.77,4.981,4.981,0,0,1,1.5-3.77,5.96,5.96,0,0,1,7.134-.469,4.316,4.316,0,0,1,1.68,2.725l-2.6.283a2.226,2.226,0,0,0-.84-1.318,2.554,2.554,0,0,0-1.523-.439,2.3,2.3,0,0,0-1.836.82,3.216,3.216,0,0,0-.7,2.168,3.22,3.22,0,0,0,.7,2.163,2.3,2.3,0,0,0,1.836.825,2.532,2.532,0,0,0,1.519-.439A2.277,2.277,0,0,0,92.8,15.2l2.6.283A4.328,4.328,0,0,1,93.7,18.209,5.327,5.327,0,0,1,90.463,19.186ZM101.137,19a3.032,3.032,0,0,1-2.266-.815,3.172,3.172,0,0,1-.8-2.319V11.119H96.1V8.961h.635a1.656,1.656,0,0,0,1.25-.42,2.162,2.162,0,0,0,.4-1.494V5.719h2.539V8.961h2.07v2.158h-2.07v4.443q0,1.3,1.162,1.3h.908V19Zm5.469-11.543a1.579,1.579,0,0,1-1.152-.474,1.555,1.555,0,0,1-.479-1.147,1.536,1.536,0,0,1,.483-1.138,1.584,1.584,0,0,1,1.147-.474,1.626,1.626,0,0,1,1.611,1.611,1.626,1.626,0,0,1-1.611,1.621ZM105.17,19V8.961H108V19ZM117.445,8.961h2.979L116.146,19h-2.441L109.477,8.961h2.959l2.5,6.865Zm8.73,10.234a6.313,6.313,0,0,1-2.842-.615,4.6,4.6,0,0,1-1.948-1.807,5.384,5.384,0,0,1-.708-2.8,4.911,4.911,0,0,1,1.523-3.809,6.368,6.368,0,0,1,7.959,0,4.911,4.911,0,0,1,1.523,3.809,4.938,4.938,0,0,1-1.523,3.823A5.654,5.654,0,0,1,126.176,19.2Zm-.029-2.236a2.577,2.577,0,0,0,1.987-.82,3.071,3.071,0,0,0,.757-2.168,3.071,3.071,0,0,0-.757-2.168,2.577,2.577,0,0,0-1.987-.82,2.483,2.483,0,0,0-1.929.825,3.1,3.1,0,0,0-.747,2.163,3.1,3.1,0,0,0,.747,2.163A2.483,2.483,0,0,0,126.146,16.959ZM137.309,19.2a5.61,5.61,0,0,1-2.93-.7,2.972,2.972,0,0,1-1.436-2.09l2.354-.664a1.891,1.891,0,0,0,2.012,1.494A2.078,2.078,0,0,0,138.334,17a.8.8,0,0,0,.4-.776.821.821,0,0,0-.166-.518,1.315,1.315,0,0,0-.513-.371,6.388,6.388,0,0,0-.684-.264q-.337-.107-.894-.259t-.928-.288a6.215,6.215,0,0,1-.884-.376,3.769,3.769,0,0,1-.732-.518,2.086,2.086,0,0,1-.547-.786,2.836,2.836,0,0,1-.19-1.074,2.565,2.565,0,0,1,1.089-2.246,4.865,4.865,0,0,1,2.847-.762,4.988,4.988,0,0,1,2.627.645,2.917,2.917,0,0,1,1.348,2.012l-2.178.488a1.706,1.706,0,0,0-1.787-1.27,1.957,1.957,0,0,0-.986.225.722.722,0,0,0-.391.664.761.761,0,0,0,.059.3.6.6,0,0,0,.205.244,2.992,2.992,0,0,0,.283.186,2.136,2.136,0,0,0,.4.161q.264.083.439.127l.513.132.522.137q.537.146.942.293a5.519,5.519,0,0,1,.864.41,3.1,3.1,0,0,1,.757.591,2.635,2.635,0,0,1,.493.83,3.066,3.066,0,0,1,.2,1.118,3.02,3.02,0,0,1-.337,1.455,2.529,2.529,0,0,1-.923.981,4.492,4.492,0,0,1-1.3.527A6.763,6.763,0,0,1,137.309,19.2Z" transform="translate(141 2216)" fill="#00223d"/>
    <path id="Trazado_2792" data-name="Trazado 2792" d="M49,4.889V7.467h-3.35V19h-2.9V7.467H39.379V4.889Zm9.688,8.945-.029.674H51.215a2.6,2.6,0,0,0,.8,1.836,2.561,2.561,0,0,0,1.768.635,2.468,2.468,0,0,0,1.323-.347,2.131,2.131,0,0,0,.845-1.011L58.529,16a4.383,4.383,0,0,1-1.758,2.354,5.226,5.226,0,0,1-2.969.84,5.435,5.435,0,0,1-3.911-1.382,5.042,5.042,0,0,1-1.45-3.833A5.072,5.072,0,0,1,49.9,10.147a5.273,5.273,0,0,1,3.818-1.4,5.04,5.04,0,0,1,3.6,1.279A5.019,5.019,0,0,1,58.686,13.834Zm-4.951-3.1a2.222,2.222,0,0,0-2.441,1.934H55.9a2.114,2.114,0,0,0-.693-1.436A2.2,2.2,0,0,0,53.734,10.738Zm11.631,8.447a5.364,5.364,0,0,1-3.877-1.445,4.992,4.992,0,0,1-1.5-3.77,4.981,4.981,0,0,1,1.5-3.77,5.96,5.96,0,0,1,7.134-.469,4.316,4.316,0,0,1,1.68,2.725l-2.6.283a2.226,2.226,0,0,0-.84-1.318,2.554,2.554,0,0,0-1.523-.439,2.3,2.3,0,0,0-1.836.82,3.216,3.216,0,0,0-.7,2.168,3.22,3.22,0,0,0,.7,2.163,2.3,2.3,0,0,0,1.836.825,2.532,2.532,0,0,0,1.519-.439A2.277,2.277,0,0,0,67.7,15.2l2.6.283A4.328,4.328,0,0,1,68.6,18.209,5.327,5.327,0,0,1,65.365,19.186ZM78.227,8.766a3.914,3.914,0,0,1,2.773.9,3.349,3.349,0,0,1,.967,2.573V19H79.145V12.848a1.749,1.749,0,0,0-.5-1.387,1.9,1.9,0,0,0-1.294-.439,2.643,2.643,0,0,0-.84.127,2.158,2.158,0,0,0-.7.4,1.748,1.748,0,0,0-.5.757,3.5,3.5,0,0,0-.19,1.162V19H72.3V8.961h2.813v1.113A3.868,3.868,0,0,1,78.227,8.766ZM88.5,7.594,91.059,4l1.387.977L90.229,7.594Zm.869,11.6a6.313,6.313,0,0,1-2.842-.615,4.6,4.6,0,0,1-1.948-1.807,5.384,5.384,0,0,1-.708-2.8,4.911,4.911,0,0,1,1.523-3.809,6.368,6.368,0,0,1,7.959,0,4.911,4.911,0,0,1,1.523,3.809,4.938,4.938,0,0,1-1.523,3.823A5.654,5.654,0,0,1,89.369,19.2Zm-.029-2.236a2.577,2.577,0,0,0,1.987-.82,3.071,3.071,0,0,0,.757-2.168,3.071,3.071,0,0,0-.757-2.168,2.577,2.577,0,0,0-1.987-.82,2.483,2.483,0,0,0-1.929.825,3.1,3.1,0,0,0-.747,2.163,3.1,3.1,0,0,0,.747,2.163A2.483,2.483,0,0,0,89.34,16.959ZM96.967,19V4h2.842V19Zm10.43.2a6.313,6.313,0,0,1-2.842-.615,4.6,4.6,0,0,1-1.948-1.807,5.384,5.384,0,0,1-.708-2.8,4.911,4.911,0,0,1,1.523-3.809,6.368,6.368,0,0,1,7.959,0,4.911,4.911,0,0,1,1.523,3.809,4.938,4.938,0,0,1-1.523,3.823A5.654,5.654,0,0,1,107.4,19.2Zm-.029-2.236a2.577,2.577,0,0,0,1.987-.82,3.071,3.071,0,0,0,.757-2.168,3.071,3.071,0,0,0-.757-2.168,2.577,2.577,0,0,0-1.987-.82,2.483,2.483,0,0,0-1.929.825,3.1,3.1,0,0,0-.747,2.163,3.1,3.1,0,0,0,.747,2.163A2.483,2.483,0,0,0,107.367,16.959Zm14.541-8h2.676v9.287a7.51,7.51,0,0,1-.376,2.5,4.123,4.123,0,0,1-1.089,1.714,4.539,4.539,0,0,1-1.67.962,7.04,7.04,0,0,1-2.187.313q-3.975,0-5.176-3.115l2.334-1A3.406,3.406,0,0,0,117.5,21.08a2.763,2.763,0,0,0,1.65.469q2.607,0,2.607-3.1V17.281a3.163,3.163,0,0,1-1.265.991,4.2,4.2,0,0,1-1.782.376,4.5,4.5,0,0,1-3.223-1.353,4.638,4.638,0,0,1-.991-1.577,5.83,5.83,0,0,1,0-4.067,4.451,4.451,0,0,1,1-1.558,4.584,4.584,0,0,1,1.465-.977,4.521,4.521,0,0,1,1.772-.352,4.083,4.083,0,0,1,1.86.415,2.967,2.967,0,0,1,1.245,1.108ZM117.592,15.6a2.582,2.582,0,0,0,3.691-.01,2.806,2.806,0,0,0,0-3.818,2.6,2.6,0,0,0-3.7-.015,2.671,2.671,0,0,0-.737,1.929A2.653,2.653,0,0,0,117.592,15.6Zm14.59,3.594a6.313,6.313,0,0,1-2.842-.615,4.6,4.6,0,0,1-1.948-1.807,5.384,5.384,0,0,1-.708-2.8,4.911,4.911,0,0,1,1.523-3.809,6.368,6.368,0,0,1,7.959,0,4.911,4.911,0,0,1,1.523,3.809,4.938,4.938,0,0,1-1.523,3.823A5.654,5.654,0,0,1,132.182,19.2Zm-.029-2.236a2.577,2.577,0,0,0,1.987-.82,3.071,3.071,0,0,0,.757-2.168,3.071,3.071,0,0,0-.757-2.168,2.577,2.577,0,0,0-1.987-.82,2.483,2.483,0,0,0-1.929.825,3.1,3.1,0,0,0-.747,2.163,3.1,3.1,0,0,0,.747,2.163A2.483,2.483,0,0,0,132.152,16.959ZM143.314,19.2a5.61,5.61,0,0,1-2.93-.7,2.972,2.972,0,0,1-1.436-2.09l2.354-.664a1.891,1.891,0,0,0,2.012,1.494A2.078,2.078,0,0,0,144.34,17a.8.8,0,0,0,.4-.776.821.821,0,0,0-.166-.518,1.315,1.315,0,0,0-.513-.371,6.388,6.388,0,0,0-.684-.264q-.337-.107-.894-.259t-.928-.288a6.215,6.215,0,0,1-.884-.376,3.769,3.769,0,0,1-.732-.518,2.086,2.086,0,0,1-.547-.786,2.836,2.836,0,0,1-.19-1.074,2.565,2.565,0,0,1,1.089-2.246,4.865,4.865,0,0,1,2.847-.762,4.988,4.988,0,0,1,2.627.645,2.917,2.917,0,0,1,1.348,2.012l-2.178.488a1.706,1.706,0,0,0-1.787-1.27,1.957,1.957,0,0,0-.986.225.722.722,0,0,0-.391.664.761.761,0,0,0,.059.3.6.6,0,0,0,.205.244,2.992,2.992,0,0,0,.283.186,2.136,2.136,0,0,0,.4.161q.264.083.439.127l.513.132.522.137q.537.146.942.293a5.519,5.519,0,0,1,.864.41,3.1,3.1,0,0,1,.757.591,2.635,2.635,0,0,1,.493.83,3.066,3.066,0,0,1,.2,1.118,3.02,3.02,0,0,1-.337,1.455,2.529,2.529,0,0,1-.923.981,4.492,4.492,0,0,1-1.3.527A6.763,6.763,0,0,1,143.314,19.2Z" transform="translate(703 2216)" fill="#00223d"/>
    <path id="Trazado_2789" data-name="Trazado 2789" d="M36.425,4.889A4.247,4.247,0,0,1,39.677,6.2a4.569,4.569,0,0,1,1.23,3.247,4.456,4.456,0,0,1-1.221,3.228,4.324,4.324,0,0,1-3.262,1.265H33.485V19h-2.93V4.889Zm-.488,6.6a2.153,2.153,0,0,0,1.611-.552,2.1,2.1,0,0,0,.537-1.528A2.081,2.081,0,0,0,37.543,7.9a2.134,2.134,0,0,0-1.606-.562H33.485v4.15Zm9.756-.937a3.259,3.259,0,0,1,1.318-1.206,4.023,4.023,0,0,1,1.963-.5v2.51a3.8,3.8,0,0,0-2.4.605,2.643,2.643,0,0,0-.742,2.148V19H43V8.961h2.7ZM55.243,19.2A6.313,6.313,0,0,1,52.4,18.58a4.6,4.6,0,0,1-1.948-1.807,5.384,5.384,0,0,1-.708-2.8,4.911,4.911,0,0,1,1.523-3.809,6.368,6.368,0,0,1,7.959,0,4.911,4.911,0,0,1,1.523,3.809,4.938,4.938,0,0,1-1.523,3.823A5.654,5.654,0,0,1,55.243,19.2Zm-.029-2.236a2.577,2.577,0,0,0,1.987-.82,3.071,3.071,0,0,0,.757-2.168A3.071,3.071,0,0,0,57.2,11.8a2.577,2.577,0,0,0-1.987-.82,2.483,2.483,0,0,0-1.929.825,3.1,3.1,0,0,0-.747,2.163,3.1,3.1,0,0,0,.747,2.163A2.483,2.483,0,0,0,55.214,16.959ZM68.5,6.246h-.059q-.273,0-.415,0t-.4.034a1.621,1.621,0,0,0-.405.088,2.065,2.065,0,0,0-.337.181.9.9,0,0,0-.293.293,1.77,1.77,0,0,0-.176.435,2.269,2.269,0,0,0-.073.605V8.961H68.5v2.158H66.347V19h-2.8V11.119H61.581V8.961h1.963V7.877A5.871,5.871,0,0,1,63.671,6.6a3.893,3.893,0,0,1,.342-.972,2.275,2.275,0,0,1,.571-.7,3.371,3.371,0,0,1,.742-.469,4.241,4.241,0,0,1,.923-.283,8.094,8.094,0,0,1,1.06-.142Q67.831,4,68.5,4Zm11,7.588-.029.674H72.03a2.6,2.6,0,0,0,.8,1.836,2.561,2.561,0,0,0,1.768.635,2.468,2.468,0,0,0,1.323-.347,2.131,2.131,0,0,0,.845-1.011L79.345,16a4.383,4.383,0,0,1-1.758,2.354,5.226,5.226,0,0,1-2.969.84,5.435,5.435,0,0,1-3.911-1.382,5.042,5.042,0,0,1-1.45-3.833,5.072,5.072,0,0,1,1.455-3.833,5.273,5.273,0,0,1,3.818-1.4,5.04,5.04,0,0,1,3.6,1.279A5.019,5.019,0,0,1,79.5,13.834Zm-4.951-3.1a2.222,2.222,0,0,0-2.441,1.934h4.609a2.114,2.114,0,0,0-.693-1.436A2.2,2.2,0,0,0,74.55,10.738ZM85.175,19.2a5.61,5.61,0,0,1-2.93-.7A2.972,2.972,0,0,1,80.81,16.4l2.354-.664a1.891,1.891,0,0,0,2.012,1.494A2.078,2.078,0,0,0,86.2,17a.8.8,0,0,0,.4-.776.821.821,0,0,0-.166-.518,1.315,1.315,0,0,0-.513-.371,6.387,6.387,0,0,0-.684-.264q-.337-.107-.894-.259t-.928-.288a6.215,6.215,0,0,1-.884-.376,3.77,3.77,0,0,1-.732-.518,2.086,2.086,0,0,1-.547-.786,2.836,2.836,0,0,1-.19-1.074,2.565,2.565,0,0,1,1.089-2.246A4.865,4.865,0,0,1,85,8.766a4.988,4.988,0,0,1,2.627.645,2.917,2.917,0,0,1,1.348,2.012L86.8,11.91a1.706,1.706,0,0,0-1.787-1.27,1.957,1.957,0,0,0-.986.225.722.722,0,0,0-.391.664.761.761,0,0,0,.059.3.6.6,0,0,0,.205.244,2.991,2.991,0,0,0,.283.186,2.137,2.137,0,0,0,.4.161q.264.083.439.127l.513.132.522.137q.537.146.942.293a5.519,5.519,0,0,1,.864.41,3.1,3.1,0,0,1,.757.591,2.635,2.635,0,0,1,.493.83,3.066,3.066,0,0,1,.2,1.118,3.02,3.02,0,0,1-.337,1.455,2.529,2.529,0,0,1-.923.981,4.492,4.492,0,0,1-1.3.527A6.763,6.763,0,0,1,85.175,19.2ZM92.763,7.457a1.579,1.579,0,0,1-1.152-.474,1.555,1.555,0,0,1-.479-1.147A1.536,1.536,0,0,1,91.615,4.7a1.584,1.584,0,0,1,1.147-.474,1.626,1.626,0,0,1,1.611,1.611,1.626,1.626,0,0,1-1.611,1.621ZM91.327,19V8.961h2.832V19Zm10.42.2a6.313,6.313,0,0,1-2.842-.615,4.6,4.6,0,0,1-1.948-1.807,5.384,5.384,0,0,1-.708-2.8,4.911,4.911,0,0,1,1.523-3.809,6.368,6.368,0,0,1,7.959,0,4.911,4.911,0,0,1,1.523,3.809,4.938,4.938,0,0,1-1.523,3.823A5.654,5.654,0,0,1,101.747,19.2Zm-.029-2.236a2.577,2.577,0,0,0,1.987-.82,3.071,3.071,0,0,0,.757-2.168,3.071,3.071,0,0,0-.757-2.168,2.577,2.577,0,0,0-1.987-.82,2.483,2.483,0,0,0-1.929.825,3.1,3.1,0,0,0-.747,2.163,3.1,3.1,0,0,0,.747,2.163A2.483,2.483,0,0,0,101.718,16.959Zm13.555-8.193a3.914,3.914,0,0,1,2.773.9,3.349,3.349,0,0,1,.967,2.573V19H116.19V12.848a1.749,1.749,0,0,0-.5-1.387,1.9,1.9,0,0,0-1.294-.439,2.643,2.643,0,0,0-.84.127,2.158,2.158,0,0,0-.7.4,1.748,1.748,0,0,0-.5.757,3.5,3.5,0,0,0-.19,1.162V19h-2.812V8.961h2.813v1.113A3.868,3.868,0,0,1,115.272,8.766Zm14.7,7.51a9.391,9.391,0,0,0,.244,2.451V19h-2.627l-.225-1.094a3.264,3.264,0,0,1-1.406.967,5.183,5.183,0,0,1-1.816.322,4.776,4.776,0,0,1-.937-.088,3.187,3.187,0,0,1-.845-.3,2.564,2.564,0,0,1-.7-.522,2.291,2.291,0,0,1-.469-.8,3.17,3.17,0,0,1-.176-1.089,3.02,3.02,0,0,1,.186-1.089,2.552,2.552,0,0,1,.488-.815,2.962,2.962,0,0,1,.791-.6,6.053,6.053,0,0,1,1-.43,11.9,11.9,0,0,1,1.191-.312l1.65-.371a1.82,1.82,0,0,0,.747-.317.633.633,0,0,0,.22-.5,1.036,1.036,0,0,0-.493-.967,2.3,2.3,0,0,0-1.2-.293,1.721,1.721,0,0,0-1.963,1.533l-2.49-.449A3.371,3.371,0,0,1,122.6,9.5a5.783,5.783,0,0,1,3.154-.737q4.219,0,4.219,3.623Zm-4.951,1.016a2.262,2.262,0,0,0,1.738-.728,3.066,3.066,0,0,0,.674-2.153l-2.383.674a2.816,2.816,0,0,0-1,.41.842.842,0,0,0-.347.723.935.935,0,0,0,.371.8A1.536,1.536,0,0,0,125.019,17.291ZM132.7,19V4h2.842V19Zm15.2-5.166-.029.674h-7.441a2.6,2.6,0,0,0,.8,1.836,2.561,2.561,0,0,0,1.768.635,2.468,2.468,0,0,0,1.323-.347,2.131,2.131,0,0,0,.845-1.011l2.578.381a4.383,4.383,0,0,1-1.758,2.354,5.226,5.226,0,0,1-2.969.84,5.435,5.435,0,0,1-3.911-1.382,5.042,5.042,0,0,1-1.45-3.833,5.072,5.072,0,0,1,1.455-3.833,5.273,5.273,0,0,1,3.818-1.4,5.04,5.04,0,0,1,3.6,1.279A5.019,5.019,0,0,1,147.9,13.834Zm-4.951-3.1a2.222,2.222,0,0,0-2.441,1.934h4.609a2.114,2.114,0,0,0-.693-1.436A2.2,2.2,0,0,0,142.948,10.738ZM153.573,19.2a5.61,5.61,0,0,1-2.93-.7,2.972,2.972,0,0,1-1.436-2.09l2.354-.664a1.891,1.891,0,0,0,2.012,1.494A2.078,2.078,0,0,0,154.6,17a.8.8,0,0,0,.4-.776.821.821,0,0,0-.166-.518,1.315,1.315,0,0,0-.513-.371,6.388,6.388,0,0,0-.684-.264q-.337-.107-.894-.259t-.928-.288a6.215,6.215,0,0,1-.884-.376,3.769,3.769,0,0,1-.732-.518,2.086,2.086,0,0,1-.547-.786,2.836,2.836,0,0,1-.19-1.074,2.565,2.565,0,0,1,1.089-2.246,4.865,4.865,0,0,1,2.847-.762,4.988,4.988,0,0,1,2.627.645,2.917,2.917,0,0,1,1.348,2.012l-2.178.488a1.706,1.706,0,0,0-1.787-1.27,1.957,1.957,0,0,0-.986.225.722.722,0,0,0-.391.664.761.761,0,0,0,.059.3.6.6,0,0,0,.205.244,2.992,2.992,0,0,0,.283.186,2.136,2.136,0,0,0,.4.161q.264.083.439.127l.513.132.522.137q.537.146.942.293a5.519,5.519,0,0,1,.864.41,3.1,3.1,0,0,1,.757.591,2.635,2.635,0,0,1,.493.83,3.066,3.066,0,0,1,.2,1.118,3.02,3.02,0,0,1-.337,1.455,2.529,2.529,0,0,1-.923.981,4.492,4.492,0,0,1-1.3.527A6.763,6.763,0,0,1,153.573,19.2Z" transform="translate(328 2216)" fill="#00223d"/>
    <path id="Trazado_2793" data-name="Trazado 2793" d="M61.8,4.889V7.467h-3.35V19h-2.9V7.467H52.177V4.889Zm7.881.049L67.46,7.555H65.731L68.29,3.961Zm1.807,8.9-.029.674H64.013a2.6,2.6,0,0,0,.8,1.836,2.561,2.561,0,0,0,1.768.635,2.468,2.468,0,0,0,1.323-.347,2.131,2.131,0,0,0,.845-1.011L71.327,16a4.383,4.383,0,0,1-1.758,2.354,5.226,5.226,0,0,1-2.969.84,5.435,5.435,0,0,1-3.911-1.382,5.042,5.042,0,0,1-1.45-3.833,5.072,5.072,0,0,1,1.455-3.833,5.273,5.273,0,0,1,3.818-1.4,5.04,5.04,0,0,1,3.6,1.279A5.019,5.019,0,0,1,71.483,13.834Zm-4.951-3.1a2.222,2.222,0,0,0-2.441,1.934H68.7a2.114,2.114,0,0,0-.693-1.436A2.2,2.2,0,0,0,66.532,10.738Zm11.631,8.447a5.364,5.364,0,0,1-3.877-1.445,4.992,4.992,0,0,1-1.5-3.77,4.981,4.981,0,0,1,1.5-3.77,5.96,5.96,0,0,1,7.134-.469,4.316,4.316,0,0,1,1.68,2.725l-2.6.283a2.226,2.226,0,0,0-.84-1.318,2.554,2.554,0,0,0-1.523-.439,2.3,2.3,0,0,0-1.836.82,3.216,3.216,0,0,0-.7,2.168,3.22,3.22,0,0,0,.7,2.163,2.3,2.3,0,0,0,1.836.825,2.532,2.532,0,0,0,1.519-.439A2.277,2.277,0,0,0,80.5,15.2l2.6.283A4.328,4.328,0,0,1,81.4,18.209,5.327,5.327,0,0,1,78.163,19.186ZM91.024,8.766a3.914,3.914,0,0,1,2.773.9,3.349,3.349,0,0,1,.967,2.573V19H91.942V12.848a1.749,1.749,0,0,0-.5-1.387,1.9,1.9,0,0,0-1.294-.439,2.643,2.643,0,0,0-.84.127,2.158,2.158,0,0,0-.7.4,1.748,1.748,0,0,0-.5.757,3.5,3.5,0,0,0-.19,1.162V19H85.1V8.961h2.813v1.113A3.868,3.868,0,0,1,91.024,8.766Zm7.9-1.309a1.579,1.579,0,0,1-1.152-.474,1.555,1.555,0,0,1-.479-1.147A1.536,1.536,0,0,1,97.777,4.7a1.584,1.584,0,0,1,1.147-.474,1.626,1.626,0,0,1,1.611,1.611,1.626,1.626,0,0,1-1.611,1.621ZM97.489,19V8.961h2.832V19Zm10.283.186A5.364,5.364,0,0,1,103.9,17.74a4.992,4.992,0,0,1-1.5-3.77,4.981,4.981,0,0,1,1.5-3.77,5.96,5.96,0,0,1,7.134-.469,4.316,4.316,0,0,1,1.68,2.725l-2.6.283a2.226,2.226,0,0,0-.84-1.318,2.554,2.554,0,0,0-1.523-.439,2.3,2.3,0,0,0-1.836.82,3.216,3.216,0,0,0-.7,2.168,3.22,3.22,0,0,0,.7,2.163,2.3,2.3,0,0,0,1.836.825,2.532,2.532,0,0,0,1.519-.439,2.277,2.277,0,0,0,.845-1.318l2.6.283a4.328,4.328,0,0,1-1.694,2.725A5.327,5.327,0,0,1,107.772,19.186Zm11.611.01a6.313,6.313,0,0,1-2.842-.615,4.6,4.6,0,0,1-1.948-1.807,5.384,5.384,0,0,1-.708-2.8,4.911,4.911,0,0,1,1.523-3.809,6.368,6.368,0,0,1,7.959,0,4.911,4.911,0,0,1,1.523,3.809,4.938,4.938,0,0,1-1.523,3.823A5.654,5.654,0,0,1,119.384,19.2Zm-.029-2.236a2.577,2.577,0,0,0,1.987-.82,3.071,3.071,0,0,0,.757-2.168,3.071,3.071,0,0,0-.757-2.168,2.577,2.577,0,0,0-1.987-.82,2.483,2.483,0,0,0-1.929.825,3.1,3.1,0,0,0-.747,2.163,3.1,3.1,0,0,0,.747,2.163A2.483,2.483,0,0,0,119.354,16.959ZM130.517,19.2a5.61,5.61,0,0,1-2.93-.7,2.972,2.972,0,0,1-1.436-2.09l2.354-.664a1.891,1.891,0,0,0,2.012,1.494A2.078,2.078,0,0,0,131.542,17a.8.8,0,0,0,.4-.776.821.821,0,0,0-.166-.518,1.315,1.315,0,0,0-.513-.371,6.388,6.388,0,0,0-.684-.264q-.337-.107-.894-.259t-.928-.288a6.215,6.215,0,0,1-.884-.376,3.77,3.77,0,0,1-.732-.518,2.086,2.086,0,0,1-.547-.786,2.836,2.836,0,0,1-.19-1.074,2.565,2.565,0,0,1,1.089-2.246,4.865,4.865,0,0,1,2.847-.762,4.988,4.988,0,0,1,2.627.645,2.917,2.917,0,0,1,1.348,2.012l-2.178.488a1.706,1.706,0,0,0-1.787-1.27,1.957,1.957,0,0,0-.986.225.722.722,0,0,0-.391.664.761.761,0,0,0,.059.3.6.6,0,0,0,.205.244,2.992,2.992,0,0,0,.283.186,2.136,2.136,0,0,0,.4.161q.264.083.439.127l.513.132.522.137q.537.146.942.293a5.519,5.519,0,0,1,.864.41,3.1,3.1,0,0,1,.757.591,2.635,2.635,0,0,1,.493.83,3.066,3.066,0,0,1,.2,1.118,3.02,3.02,0,0,1-.337,1.455,2.529,2.529,0,0,1-.923.981,4.492,4.492,0,0,1-1.3.527A6.763,6.763,0,0,1,130.517,19.2Z" transform="translate(890 2216)" fill="#00223d"/>
    <path id="Trazado_2790" data-name="Trazado 2790" d="M54.276,7.467H49.042v3.2h4.639v2.549H49.042v3.193h5.234V19H46.093V4.889h8.184Zm4.092-.01a1.579,1.579,0,0,1-1.152-.474,1.555,1.555,0,0,1-.479-1.147A1.536,1.536,0,0,1,57.221,4.7a1.584,1.584,0,0,1,1.147-.474,1.626,1.626,0,0,1,1.611,1.611,1.626,1.626,0,0,1-1.611,1.621Zm-3.5,16.25v-2.2a3.235,3.235,0,0,0,1.055-.142,1.179,1.179,0,0,0,.625-.5,2.227,2.227,0,0,0,.3-.864,9.745,9.745,0,0,0,.073-1.343v-9.7h2.852v9.7A5.453,5.453,0,0,1,58.632,22.5,4.986,4.986,0,0,1,54.872,23.707Zm17.266-9.873-.029.674H64.667a2.6,2.6,0,0,0,.8,1.836,2.561,2.561,0,0,0,1.768.635,2.468,2.468,0,0,0,1.323-.347,2.131,2.131,0,0,0,.845-1.011L71.981,16a4.383,4.383,0,0,1-1.758,2.354,5.226,5.226,0,0,1-2.969.84,5.435,5.435,0,0,1-3.911-1.382,5.042,5.042,0,0,1-1.45-3.833,5.072,5.072,0,0,1,1.455-3.833,5.273,5.273,0,0,1,3.818-1.4,5.04,5.04,0,0,1,3.6,1.279A5.019,5.019,0,0,1,72.138,13.834Zm-4.951-3.1a2.222,2.222,0,0,0-2.441,1.934h4.609a2.114,2.114,0,0,0-.693-1.436A2.2,2.2,0,0,0,67.187,10.738Zm11.631,8.447A5.364,5.364,0,0,1,74.94,17.74a4.992,4.992,0,0,1-1.5-3.77,4.981,4.981,0,0,1,1.5-3.77,5.96,5.96,0,0,1,7.134-.469,4.316,4.316,0,0,1,1.68,2.725l-2.6.283a2.226,2.226,0,0,0-.84-1.318,2.554,2.554,0,0,0-1.523-.439,2.3,2.3,0,0,0-1.836.82,3.216,3.216,0,0,0-.7,2.168,3.22,3.22,0,0,0,.7,2.163,2.3,2.3,0,0,0,1.836.825,2.532,2.532,0,0,0,1.519-.439,2.277,2.277,0,0,0,.845-1.318l2.6.283a4.328,4.328,0,0,1-1.694,2.725A5.327,5.327,0,0,1,78.817,19.186ZM92.4,8.961h2.813V19H92.548l-.068-1.211A3.834,3.834,0,0,1,89.286,19.2a3.914,3.914,0,0,1-2.773-.9,3.349,3.349,0,0,1-.967-2.573V8.961h2.822v6.152a1.735,1.735,0,0,0,.5,1.377,1.909,1.909,0,0,0,1.3.439,2.264,2.264,0,0,0,1.6-.571,2.454,2.454,0,0,0,.63-1.86ZM101.864,19a3.032,3.032,0,0,1-2.266-.815,3.172,3.172,0,0,1-.8-2.319V11.119H96.825V8.961h.635a1.656,1.656,0,0,0,1.25-.42,2.162,2.162,0,0,0,.4-1.494V5.719h2.539V8.961h2.07v2.158h-2.07v4.443q0,1.3,1.162,1.3h.908V19Zm5.469-11.543a1.579,1.579,0,0,1-1.152-.474,1.555,1.555,0,0,1-.479-1.147,1.536,1.536,0,0,1,.483-1.138,1.584,1.584,0,0,1,1.147-.474,1.626,1.626,0,0,1,1.611,1.611,1.626,1.626,0,0,1-1.611,1.621ZM105.9,19V8.961h2.832V19ZM118.173,8.961h2.979L116.874,19h-2.441L110.2,8.961h2.959l2.5,6.865ZM126.9,19.2a6.313,6.313,0,0,1-2.842-.615,4.6,4.6,0,0,1-1.948-1.807,5.384,5.384,0,0,1-.708-2.8,4.911,4.911,0,0,1,1.523-3.809,6.368,6.368,0,0,1,7.959,0,4.911,4.911,0,0,1,1.523,3.809,4.938,4.938,0,0,1-1.523,3.823A5.654,5.654,0,0,1,126.9,19.2Zm-.029-2.236a2.577,2.577,0,0,0,1.987-.82,3.071,3.071,0,0,0,.757-2.168,3.071,3.071,0,0,0-.757-2.168,2.577,2.577,0,0,0-1.987-.82,2.483,2.483,0,0,0-1.929.825,3.1,3.1,0,0,0-.747,2.163,3.1,3.1,0,0,0,.747,2.163A2.483,2.483,0,0,0,126.874,16.959ZM138.036,19.2a5.61,5.61,0,0,1-2.93-.7,2.972,2.972,0,0,1-1.436-2.09l2.354-.664a1.891,1.891,0,0,0,2.012,1.494A2.078,2.078,0,0,0,139.062,17a.8.8,0,0,0,.4-.776.821.821,0,0,0-.166-.518,1.315,1.315,0,0,0-.513-.371,6.388,6.388,0,0,0-.684-.264q-.337-.107-.894-.259t-.928-.288a6.215,6.215,0,0,1-.884-.376,3.769,3.769,0,0,1-.732-.518,2.086,2.086,0,0,1-.547-.786,2.836,2.836,0,0,1-.19-1.074,2.565,2.565,0,0,1,1.089-2.246,4.865,4.865,0,0,1,2.847-.762,4.988,4.988,0,0,1,2.627.645,2.917,2.917,0,0,1,1.348,2.012l-2.178.488a1.706,1.706,0,0,0-1.787-1.27,1.957,1.957,0,0,0-.986.225.722.722,0,0,0-.391.664.761.761,0,0,0,.059.3.6.6,0,0,0,.205.244,2.992,2.992,0,0,0,.283.186,2.136,2.136,0,0,0,.4.161q.264.083.439.127l.513.132.522.137q.537.146.942.293a5.519,5.519,0,0,1,.864.41,3.1,3.1,0,0,1,.757.591,2.635,2.635,0,0,1,.493.83,3.066,3.066,0,0,1,.2,1.118,3.02,3.02,0,0,1-.337,1.455,2.529,2.529,0,0,1-.923.981,4.492,4.492,0,0,1-1.3.527A6.763,6.763,0,0,1,138.036,19.2Z" transform="translate(516 2216)" fill="#00223d"/>
    <path id="Trazado_2794" data-name="Trazado 2794" d="M49.057,19.2a7.671,7.671,0,0,1-3.706-.884,6.407,6.407,0,0,1-2.573-2.544,7.651,7.651,0,0,1-.937-3.828,7.644,7.644,0,0,1,.938-3.833,6.382,6.382,0,0,1,2.573-2.534,8.243,8.243,0,0,1,7.407,0,6.391,6.391,0,0,1,2.568,2.534,7.644,7.644,0,0,1,.938,3.833,7.651,7.651,0,0,1-.937,3.828,6.407,6.407,0,0,1-2.573,2.544A7.65,7.65,0,0,1,49.057,19.2Zm-3.086-3.916a4.478,4.478,0,0,0,6.172,0,4.558,4.558,0,0,0,1.211-3.335,4.528,4.528,0,0,0-1.211-3.32,4.485,4.485,0,0,0-6.172,0,4.528,4.528,0,0,0-1.211,3.32A4.575,4.575,0,0,0,45.971,15.279ZM64.477,8.766a4.883,4.883,0,0,1,1.875.361,4.692,4.692,0,0,1,1.538,1.016A4.6,4.6,0,0,1,68.93,11.8a6.146,6.146,0,0,1,.381,2.2,6.146,6.146,0,0,1-.381,2.2,4.6,4.6,0,0,1-1.04,1.655,4.692,4.692,0,0,1-1.538,1.016,4.883,4.883,0,0,1-1.875.361,4.356,4.356,0,0,1-1.816-.371,2.846,2.846,0,0,1-1.26-1.055v6.074H58.588V8.961h2.666l.078,1.348a2.75,2.75,0,0,1,1.255-1.138A4.313,4.313,0,0,1,64.477,8.766ZM63.842,16.9a2.527,2.527,0,0,0,1.9-.786A2.92,2.92,0,0,0,66.5,14a2.92,2.92,0,0,0-.757-2.114,2.688,2.688,0,0,0-3.813.015,2.921,2.921,0,0,0-.762,2.1,2.921,2.921,0,0,0,.762,2.1A2.531,2.531,0,0,0,63.842,16.9Zm17.031-3.066-.029.674H73.4a2.6,2.6,0,0,0,.8,1.836,2.561,2.561,0,0,0,1.768.635,2.468,2.468,0,0,0,1.323-.347,2.131,2.131,0,0,0,.845-1.011L80.717,16a4.383,4.383,0,0,1-1.758,2.354,5.226,5.226,0,0,1-2.969.84,5.435,5.435,0,0,1-3.911-1.382,5.042,5.042,0,0,1-1.45-3.833,5.072,5.072,0,0,1,1.455-3.833,5.273,5.273,0,0,1,3.818-1.4,5.04,5.04,0,0,1,3.6,1.279A5.019,5.019,0,0,1,80.873,13.834Zm-4.951-3.1a2.222,2.222,0,0,0-2.441,1.934H78.09a2.114,2.114,0,0,0-.693-1.436A2.2,2.2,0,0,0,75.922,10.738Zm9.785-.186a3.259,3.259,0,0,1,1.318-1.206,4.023,4.023,0,0,1,1.963-.5v2.51a3.8,3.8,0,0,0-2.4.605,2.643,2.643,0,0,0-.742,2.148V19H83.012V8.961h2.7Zm13.105,5.723a9.392,9.392,0,0,0,.244,2.451V19H96.43l-.225-1.094a3.264,3.264,0,0,1-1.406.967,5.183,5.183,0,0,1-1.816.322,4.776,4.776,0,0,1-.937-.088,3.187,3.187,0,0,1-.845-.3,2.564,2.564,0,0,1-.7-.522,2.291,2.291,0,0,1-.469-.8,3.17,3.17,0,0,1-.176-1.089,3.02,3.02,0,0,1,.186-1.089,2.552,2.552,0,0,1,.488-.815,2.962,2.962,0,0,1,.791-.6,6.053,6.053,0,0,1,1-.43,11.9,11.9,0,0,1,1.191-.312l1.65-.371a1.82,1.82,0,0,0,.747-.317.633.633,0,0,0,.22-.5A1.036,1.036,0,0,0,95.634,11a2.3,2.3,0,0,0-1.2-.293,1.721,1.721,0,0,0-1.963,1.533l-2.49-.449A3.371,3.371,0,0,1,91.439,9.5a5.783,5.783,0,0,1,3.154-.737q4.219,0,4.219,3.623Zm-4.951,1.016a2.262,2.262,0,0,0,1.738-.728,3.066,3.066,0,0,0,.674-2.153l-2.383.674a2.816,2.816,0,0,0-1,.41.842.842,0,0,0-.347.723.935.935,0,0,0,.371.8A1.536,1.536,0,0,0,93.861,17.291ZM105.15,19a3.032,3.032,0,0,1-2.266-.815,3.172,3.172,0,0,1-.8-2.319V11.119h-1.973V8.961h.635a1.656,1.656,0,0,0,1.25-.42,2.162,2.162,0,0,0,.4-1.494V5.719h2.539V8.961h2.07v2.158h-2.07v4.443q0,1.3,1.162,1.3h.908V19Zm5.469-11.543a1.579,1.579,0,0,1-1.152-.474,1.555,1.555,0,0,1-.479-1.147,1.536,1.536,0,0,1,.483-1.138,1.584,1.584,0,0,1,1.147-.474,1.626,1.626,0,0,1,1.611,1.611,1.626,1.626,0,0,1-1.611,1.621ZM109.184,19V8.961h2.832V19ZM121.459,8.961h2.979L120.16,19h-2.441L113.49,8.961h2.959l2.5,6.865Zm8.73,10.234a6.313,6.313,0,0,1-2.842-.615,4.6,4.6,0,0,1-1.948-1.807,5.384,5.384,0,0,1-.708-2.8,4.911,4.911,0,0,1,1.523-3.809,6.368,6.368,0,0,1,7.959,0,4.911,4.911,0,0,1,1.523,3.809,4.938,4.938,0,0,1-1.523,3.823A5.654,5.654,0,0,1,130.189,19.2Zm-.029-2.236a2.577,2.577,0,0,0,1.987-.82,3.071,3.071,0,0,0,.757-2.168,3.071,3.071,0,0,0-.757-2.168,2.577,2.577,0,0,0-1.987-.82,2.483,2.483,0,0,0-1.929.825,3.1,3.1,0,0,0-.747,2.163,3.1,3.1,0,0,0,.747,2.163A2.483,2.483,0,0,0,130.16,16.959ZM141.322,19.2a5.61,5.61,0,0,1-2.93-.7,2.972,2.972,0,0,1-1.436-2.09l2.354-.664a1.891,1.891,0,0,0,2.012,1.494A2.078,2.078,0,0,0,142.348,17a.8.8,0,0,0,.4-.776.821.821,0,0,0-.166-.518,1.315,1.315,0,0,0-.513-.371,6.388,6.388,0,0,0-.684-.264q-.337-.107-.894-.259t-.928-.288a6.215,6.215,0,0,1-.884-.376,3.769,3.769,0,0,1-.732-.518,2.086,2.086,0,0,1-.547-.786,2.836,2.836,0,0,1-.19-1.074A2.565,2.565,0,0,1,138.3,9.527a4.865,4.865,0,0,1,2.847-.762,4.988,4.988,0,0,1,2.627.645,2.917,2.917,0,0,1,1.348,2.012l-2.178.488a1.706,1.706,0,0,0-1.787-1.27,1.957,1.957,0,0,0-.986.225.722.722,0,0,0-.391.664.761.761,0,0,0,.059.3.6.6,0,0,0,.205.244,2.992,2.992,0,0,0,.283.186,2.136,2.136,0,0,0,.4.161q.264.083.439.127l.513.132.522.137q.537.146.942.293a5.519,5.519,0,0,1,.864.41,3.1,3.1,0,0,1,.757.591,2.635,2.635,0,0,1,.493.83,3.066,3.066,0,0,1,.2,1.118,3.02,3.02,0,0,1-.337,1.455,2.529,2.529,0,0,1-.923.981,4.492,4.492,0,0,1-1.3.527A6.763,6.763,0,0,1,141.322,19.2Z" transform="translate(1074 2216)" fill="#00223d"/>
    <line id="Línea_80" data-name="Línea 80" x2="1120" transform="translate(140.5 2132.5)" fill="none" stroke="#7cb342" stroke-width="2"/>
    <line id="Línea_83" data-name="Línea 83" x2="1120" transform="translate(140.5 2276.5)" fill="none" stroke="#7cb342" stroke-width="2"/>
    <g id="Grupo_10008" data-name="Grupo 10008" transform="translate(2435 5976)">
      <circle id="Elipse_497" data-name="Elipse 497" cx="60.5" cy="60.5" r="60.5" transform="translate(-2261 -3907)" fill="#7cb342"/>
      <path id="Trazado_1178" data-name="Trazado 1178" d="M53.993,0A53.993,53.993,0,1,1,0,53.993,53.993,53.993,0,0,1,53.993,0Z" transform="translate(-2254 -3900)" fill="#fff"/>
    </g>
    <g id="Grupo_10034" data-name="Grupo 10034" transform="translate(2622 5976)">
      <circle id="Elipse_497-2" data-name="Elipse 497" cx="60.5" cy="60.5" r="60.5" transform="translate(-2261 -3907)" fill="#7cb342"/>
      <path id="Trazado_1178-2" data-name="Trazado 1178" d="M53.993,0A53.993,53.993,0,1,1,0,53.993,53.993,53.993,0,0,1,53.993,0Z" transform="translate(-2254 -3900)" fill="#fff"/>
    </g>
    <g id="Grupo_10035" data-name="Grupo 10035" transform="translate(2808 5976)">
      <circle id="Elipse_497-3" data-name="Elipse 497" cx="60.5" cy="60.5" r="60.5" transform="translate(-2261 -3907)" fill="#7cb342"/>
      <path id="Trazado_1178-3" data-name="Trazado 1178" d="M53.993,0A53.993,53.993,0,1,1,0,53.993,53.993,53.993,0,0,1,53.993,0Z" transform="translate(-2254 -3900)" fill="#fff"/>
    </g>
    <g id="Grupo_10036" data-name="Grupo 10036" transform="translate(2995 5976)">
      <circle id="Elipse_497-4" data-name="Elipse 497" cx="60.5" cy="60.5" r="60.5" transform="translate(-2261 -3907)" fill="#7cb342"/>
      <path id="Trazado_1178-4" data-name="Trazado 1178" d="M53.993,0A53.993,53.993,0,1,1,0,53.993,53.993,53.993,0,0,1,53.993,0Z" transform="translate(-2254 -3900)" fill="#fff"/>
    </g>
    <g id="Grupo_10037" data-name="Grupo 10037" transform="translate(3181 5976)">
      <circle id="Elipse_497-5" data-name="Elipse 497" cx="60.5" cy="60.5" r="60.5" transform="translate(-2261 -3907)" fill="#7cb342"/>
      <path id="Trazado_1178-5" data-name="Trazado 1178" d="M53.993,0A53.993,53.993,0,1,1,0,53.993,53.993,53.993,0,0,1,53.993,0Z" transform="translate(-2254 -3900)" fill="#fff"/>
    </g>
    <g id="Grupo_10038" data-name="Grupo 10038" transform="translate(3368 5976)">
      <circle id="Elipse_497-6" data-name="Elipse 497" cx="60.5" cy="60.5" r="60.5" transform="translate(-2261 -3907)" fill="#7cb342"/>
      <path id="Trazado_1178-6" data-name="Trazado 1178" d="M53.993,0A53.993,53.993,0,1,1,0,53.993,53.993,53.993,0,0,1,53.993,0Z" transform="translate(-2254 -3900)" fill="#fff"/>
    </g>
    <g id="Grupo_10059" data-name="Grupo 10059" transform="translate(2.423 -2.663)">
      <path id="Trazado_1878" data-name="Trazado 1878" d="M-1330.88,598.564c-5.76,0-11,5.287-11,11.141a11.143,11.143,0,0,0,11,11.191,10.813,10.813,0,0,0,10.953-11.191A11.121,11.121,0,0,0-1330.88,598.564Z" transform="translate(1766.324 1518.808)" fill="#7cb342" fill-rule="evenodd"/>
      <path id="Trazado_1879" data-name="Trazado 1879" d="M-1326.85,609.084h-4.674V613.9h-3.682v-4.815h-4.674V605.4h4.674v-4.816h3.682V605.4h4.674Z" transform="translate(1769.045 1521.556)" fill="#fff" fill-rule="evenodd"/>
      <path id="Trazado_1880" data-name="Trazado 1880" d="M-1314.119,631.893l2.644,13.832-16.712-9.064-16.759,9.064,3.163-19.167-13.6-13.268,18.789-2.691,8.4-17,5.713,11.708a12.531,12.531,0,0,0-3.116,4.768l-2.6-5.287-5.24,10.622-11,1.605,7.837,7.981-1.558,11.661,9.961-5.807,9.914,5.807-1.038-6.373C-1317.754,630.855-1315.677,631.374-1314.119,631.893Z" transform="translate(1747.958 1512.06)" fill="#002b45" fill-rule="evenodd"/>
    </g>
    <g id="Grupo_10058" data-name="Grupo 10058" transform="translate(1.325 -1.814)">
      <path id="Trazado_1874" data-name="Trazado 1874" d="M-1407.51,593.244c-14.588,0-26.626,12.558-26.626,27.2a26.778,26.778,0,0,0,26.626,26.626,26.9,26.9,0,0,0,27.2-26.626A27.353,27.353,0,0,0-1407.51,593.244Z" transform="translate(1640.811 1511.57)" fill="#002b45" fill-rule="evenodd"/>
      <path id="Trazado_1875" data-name="Trazado 1875" d="M-1410.622,638.713a21.162,21.162,0,0,1-21.386-21.388c0-12.039,9.4-21.953,21.386-21.953a22.065,22.065,0,0,1,21.955,21.953C-1388.667,629.316-1398.583,638.713-1410.622,638.713Z" transform="translate(1643.706 1514.465)" fill="#fff" fill-rule="evenodd"/>
      <path id="Trazado_1876" data-name="Trazado 1876" d="M-1413.914,598.611h-1.558c-.519-.519-1.038-1.039-1.558-1.039-.519.519-1.039,1.039-1.039,1.605a15.816,15.816,0,0,0-11.519,15.154,15.726,15.726,0,0,0,15.674,15.676,15.416,15.416,0,0,0,15.723-15.676A15.746,15.746,0,0,0-1413.914,598.611Z" transform="translate(1646.999 1517.458)" fill="#7cb342" fill-rule="evenodd"/>
      <path id="Trazado_1877" data-name="Trazado 1877" d="M-1412.549,623.926l-1.038-1.558v2.077a12.406,12.406,0,0,1-14.116-9.914l1.038-.519-1.558-.519a12.608,12.608,0,0,1,9.914-13.6l.519,1.039.519-1.558a13.068,13.068,0,0,1,13.6,9.395l-1.038,1.039h1.557A12.34,12.34,0,0,1-1412.549,623.926Z" transform="translate(1648.796 1519.854)" fill="#fff" fill-rule="evenodd"/>
      <path id="Trazado_1881" data-name="Trazado 1881" d="M-1421.341,608.3l-4.154,10.481,8.359-7.318,4.155-10.483Z" transform="translate(1652.565 1522.1)" fill="#7cb342" fill-rule="evenodd"/>
      <path id="Trazado_1882" data-name="Trazado 1882" d="M-1421.391,606.729c-1.083.519-1.6,0-2.125-1.039a1.666,1.666,0,0,1,1.558-1.605c.567,0,1.607.519,1.607,1.039C-1420.351,606.209-1420.872,606.729-1421.391,606.729Z" transform="translate(1655.26 1526.319)" fill="#fff" fill-rule="evenodd"/>
      <path id="Trazado_1883" data-name="Trazado 1883" d="M-1425.276,598.861a2.376,2.376,0,0,1,2.6-2.077,2.236,2.236,0,0,1,2.079,2.077,1.811,1.811,0,0,0-.522,1.039c0-.519,0-.519-.519-1.039h.519c0-.519-1.039-1.039-1.558-1.039-1.039,0-1.558.519-1.558,1.039a.509.509,0,0,0,.52.519v1.086C-1424.757,599.9-1425.276,599.381-1425.276,598.861Z" transform="translate(1652.865 1516.386)" fill="#002b45" fill-rule="evenodd"/>
      <path id="Trazado_1884" data-name="Trazado 1884" d="M-1421.6,612.585h-5.24l4.721-2.644c0-.519.52-1.039.52-1.56l-2.077-2.6,3.116,1.558a1.117,1.117,0,0,1,1.039-1.039l.519-5.76,2.125,5.24-1.083.519a4.349,4.349,0,0,0-3.119,5.243Z" transform="translate(1650.743 1521.501)" fill="#002b45" fill-rule="evenodd"/>
      <path id="Trazado_1885" data-name="Trazado 1885" d="M-1413.114,603.864l-4.721,2.646c0,.519-.519.519-.519,1.039l2.6,2.6-3.116-1.558c-.519.519-1.038,1.039-1.557,1.039v5.76l-2.644-4.721,1.083-1.039a4.066,4.066,0,0,0,3.118-4.721l.52-1.041Z" transform="translate(1655.859 1526.018)" fill="#002b45" fill-rule="evenodd"/>
    </g>
    <g id="Grupo_10061" data-name="Grupo 10061" transform="translate(-4.621 -1.964)">
      <path id="Trazado_1886" data-name="Trazado 1886" d="M-1181.447,611.579h-7.128v-18.7h7.128Z" transform="translate(1974.893 1511.08)" fill="#7cb342" fill-rule="evenodd"/>
      <path id="Trazado_1887" data-name="Trazado 1887" d="M-1179.064,603.706a14.757,14.757,0,0,1,.566,14.26l1.086,1.652a10.181,10.181,0,0,1,3.3-.519,20.447,20.447,0,0,0-1.086-17.045,17.715,17.715,0,0,0-6.043-6.609l-2.219,3.3A34.523,34.523,0,0,1-1179.064,603.706Z" transform="translate(1981.858 1514.563)" fill="#002b45" fill-rule="evenodd"/>
      <path id="Trazado_1888" data-name="Trazado 1888" d="M-1171.833,625.661a10.383,10.383,0,0,1-4.391,1.133,15.983,15.983,0,0,1-13.219-7.7,15.449,15.449,0,0,1,0-15.393,34.524,34.524,0,0,1,4.391-4.957l-2.219-3.3a16.348,16.348,0,0,0-5.477,6.609c-3.3,5.476-3.3,13.174,0,19.217a19.876,19.876,0,0,0,16.524,9.347,27.22,27.22,0,0,0,7.128-1.086Z" transform="translate(1965.845 1514.563)" fill="#002b45" fill-rule="evenodd"/>
      <path id="Trazado_1889" data-name="Trazado 1889" d="M-1183.179,605.731a3.379,3.379,0,0,1,2.171-.519c1.133,0,2.219,0,2.786.519a4.842,4.842,0,0,0-4.438-3.307,4.051,4.051,0,0,0-2.172,1.133,4.122,4.122,0,0,0,0,7.131A4.433,4.433,0,0,1-1183.179,605.731Z" transform="translate(1977.192 1524.06)" fill="#7cb342" fill-rule="evenodd"/>
      <path id="Trazado_1890" data-name="Trazado 1890" d="M-1182.682,622.136c.567-1.652,1.652-1.652,3.3-1.652a10.093,10.093,0,0,1,3.871.519L-1184.9,608.4c-.519-1.133-.519-2.785.567-3.3a1.981,1.981,0,0,1,1.652-.569,4.436,4.436,0,0,1,2.219,1.088l6.043,8.262c0,.567.519.567,1.086.567a1.016,1.016,0,0,0,0-1.652l-1.086-2.219a9.833,9.833,0,0,1,2.738-.519,1.83,1.83,0,0,1,1.086.519l1.133,2.219h1.652c0-.567.519-1.086,0-1.086l-1.652-2.219,2.738-.567a1.988,1.988,0,0,1,1.652.567l1.086,1.652c0,.566.566.566,1.133,0,.52,0,.52-.567,0-1.086l-1.133-1.652h1.652c1.653,0,2.738,1.086,4.39,2.738,3.3,4.39,2.219,7.7,5.524,12.652-3.871,2.738-8.261,6.043-12.652,8.781-7.176-4.957-12.652-6.61-14.871-7.129C-1181.6,624.874-1182.682,623.788-1182.682,622.136Z" transform="translate(1979.433 1526.916)" fill="#002b45" fill-rule="evenodd"/>
    </g>
    <g id="Grupo_10060" data-name="Grupo 10060" transform="translate(-2.837 -1.979)">
      <path id="Trazado_1891" data-name="Trazado 1891" d="M-1264.218,602.169h-3.67v-3.623a2.915,2.915,0,0,1,2.648-3.113h16.774a2.917,2.917,0,0,1,2.649,3.113v3.623h-3.671V600.08a1.107,1.107,0,0,0-1.07-1.022h-12.591a1.143,1.143,0,0,0-1.069,1.022Z" transform="translate(1866.989 1514.547)" fill="#7cb342" fill-rule="evenodd"/>
      <path id="Trazado_1892" data-name="Trazado 1892" d="M-1226.048,607.5v10.872h-44.1V607.5h-4.18v15.008h51.947V607.5Z" transform="translate(1858.231 1530.964)" fill="#002b45" fill-rule="evenodd"/>
      <path id="Trazado_1893" data-name="Trazado 1893" d="M-1274.778,599.389v16.54h19.934v-3.623H-1270.6v-8.781h46.232v8.781h-16.264v3.623h19.935v-16.54Z" transform="translate(1857.615 1519.93)" fill="#002b45" fill-rule="evenodd"/>
      <path id="Trazado_1894" data-name="Trazado 1894" d="M-1257.417,604.211h-7.342v6.739h7.342Z" transform="translate(1871.247 1526.49)" fill="#7cb342" fill-rule="evenodd"/>
    </g>
    <g id="Grupo_10062" data-name="Grupo 10062" transform="translate(-4.455 -2)">
      <path id="Trazado_1895" data-name="Trazado 1895" d="M-1101.753,606.554l3.257-5c.567-1.086,2.172-1.086,3.824-.519,1.086,1.086,1.605,2.738.52,3.871l-3.258,5c-.52,1.086-2.172,1.652-3.777.567C-1102.319,609.906-1102.319,608.254-1101.753,606.554Z" transform="translate(2092.507 1521.652)" fill="#002b45" fill-rule="evenodd"/>
      <path id="Trazado_1896" data-name="Trazado 1896" d="M-1103.144,608.093c1.086,1.086,2.691.567,3.777-.567l3.3-5a3,3,0,0,0-1.086-3.871,2.2,2.2,0,0,0-3.3,1.086l-3.258,5A2.14,2.14,0,0,0-1103.144,608.093Z" transform="translate(2089.555 1518.461)" fill="#002b45" fill-rule="evenodd"/>
      <path id="Trazado_1897" data-name="Trazado 1897" d="M-1094.963,606.975l-2.739,4.438a2.134,2.134,0,0,0,.52,3.352,2.073,2.073,0,0,0,3.3-.567l3.258-4.438a2.751,2.751,0,0,0-1.086-3.352C-1092.792,605.89-1094.444,605.89-1094.963,606.975Z" transform="translate(2097.709 1529.021)" fill="#002b45" fill-rule="evenodd"/>
      <path id="Trazado_1898" data-name="Trazado 1898" d="M-1099.541,609.321a2.086,2.086,0,0,0,.52,3.3,2.611,2.611,0,0,0,3.824-.519l3.258-4.485c.566-1.652.566-3.3-1.086-3.871a2,2,0,0,0-3.258.567Z" transform="translate(2095.206 1525.022)" fill="#002b45" fill-rule="evenodd"/>
      <path id="Trazado_1899" data-name="Trazado 1899" d="M-1063.758,645.489a5.171,5.171,0,0,1-7.6,0l-14.163-14.446a5.02,5.02,0,0,0-2.738-8.356l-7.081-1.652-2.691-2.219a6.809,6.809,0,0,0-5.429-2.219,12.234,12.234,0,0,1-8.734-3.352,12.253,12.253,0,0,1-2.691-12.794l7.034,7.79c3.3,0,7.648-4.438,7.648-7.223l-7.648-7.79a10.888,10.888,0,0,1,11.991,2.785,13.152,13.152,0,0,1,3.824,9.442c0,1.7.519,3.918,1.6,5h.567c-3.258,5,.519,8.356,3.777,8.356-.52,2.785,2.738,6.09,4.91,6.09-.519,2.219,1.652,5,4.343,5.571-1.086,4.438,5.477,8.875,9.253,2.785l3.824,4.438A5.471,5.471,0,0,1-1063.758,645.489Z" transform="translate(2074.105 1510.524)" fill="#7cb342" fill-rule="evenodd"/>
      <path id="Trazado_1900" data-name="Trazado 1900" d="M-1092.084,614.333a2.014,2.014,0,0,0-2.171-2.219,2.342,2.342,0,0,0-2.172,2.219,2.543,2.543,0,0,0,2.172,2.785C-1092.65,617.118-1092.084,615.985-1092.084,614.333Z" transform="translate(2100.259 1537.242)" fill="#fff" fill-rule="evenodd"/>
      <path id="Trazado_1901" data-name="Trazado 1901" d="M-1096.6,611.493c-1.652-1.652-4.344-1.652-8.687-2.219a1.218,1.218,0,0,0-1.133,1.133c0,.567-1.086,10.008-1.086,10.008s6.562,4.438,9.253,6.657c2.738-5,6.562-5,9.253-7.223Z" transform="translate(2085.185 1533.378)" fill="#002b45" fill-rule="evenodd"/>
      <path id="Trazado_1902" data-name="Trazado 1902" d="M-1095.617,613.064c3.258,0,3.824-5,.566-5.571-11.991-2.219-11.425-2.219-11.991-2.219a2.94,2.94,0,0,0-2.691,2.785l-1.086,9.442a2.7,2.7,0,0,0,1.086,3.352c1.605,1.086,4.863,3.3,4.863,3.3s1.086-6.657,1.086-8.309c0-2.219,1.086-3.352,3.3-3.352C-1100.479,612.5-1096.136,613.064-1095.617,613.064Z" transform="translate(2080.376 1527.937)" fill="#002b45" fill-rule="evenodd"/>
    </g>
    <g id="Grupo_10063" data-name="Grupo 10063" transform="translate(-5.94 -2.631)">
      <path id="Trazado_1903" data-name="Trazado 1903" d="M-999.071,616.577v-5.193l-3.116-1.039a4.053,4.053,0,0,1-2.077-2.077,3.311,3.311,0,0,1,0-3.116l1.558-2.6-3.635-3.635-2.6,1.558a3.216,3.216,0,0,1-3.068,0,3.45,3.45,0,0,1-2.077-2.6l-1.039-2.6h-5.146l-1.039,2.6a3.45,3.45,0,0,1-2.077,2.6,3.31,3.31,0,0,1-3.115,0l-2.6-1.558-3.069,3.635,1.039,2.6a3.312,3.312,0,0,1,0,3.116,4.055,4.055,0,0,1-2.078,2.077l-2.6,1.039v5.193l2.6.519a5.514,5.514,0,0,1,2.078,2.644c.519.519.519,2.077,0,3.116l-1.039,2.6,3.069,3.116,2.6-1.039a3.31,3.31,0,0,1,3.115,0c1.039.519,2.077,1.039,2.077,2.077l1.039,2.6h5.146l1.039-2.6c0-1.039,1.038-1.558,2.077-2.077a3.216,3.216,0,0,1,3.068,0l2.6,1.039,3.635-3.116-1.558-2.6a3.311,3.311,0,0,1,0-3.116,5.512,5.512,0,0,1,2.077-2.644Z" transform="translate(2182.74 1514.347)" fill="#002b45" fill-rule="evenodd"/>
      <path id="Trazado_1904" data-name="Trazado 1904" d="M-1024.276,613.894a6.875,6.875,0,0,1-6.7-6.8,6.865,6.865,0,0,1,6.7-6.751,6.874,6.874,0,0,1,6.751,6.751A6.884,6.884,0,0,1-1024.276,613.894Z" transform="translate(2189.298 1521.23)" fill="#fff" fill-rule="evenodd"/>
      <path id="Trazado_1905" data-name="Trazado 1905" d="M-1001.921,617.07v-2.6l-1.558-.519c-.519-.519-1.039-1.039-1.039-1.558a.974.974,0,0,1,0-1.558l.519-1.039-2.077-2.077-1.039.519a1.517,1.517,0,0,1-2.03,0c-.519,0-.519-.519-1.039-1.039l-.52-1.558h-2.6l-.52,1.558a1.117,1.117,0,0,1-1.038,1.039.974.974,0,0,1-1.558,0l-1.511-.519-1.558,2.077.519,1.039V612.4c-.519.519-.519,1.039-1.039,1.558l-1.558.519v2.6l1.558.519c.52,0,.52.519,1.039,1.039v1.558l-.519,1.558,1.558,1.558,1.511-.519h1.558a1.117,1.117,0,0,1,1.038,1.038l.52,1.558h2.6l.52-1.558c.519-.519.519-1.038,1.039-1.038h2.03l1.039.519,2.077-1.558-.519-1.558a.974.974,0,0,1,0-1.558,1.117,1.117,0,0,1,1.039-1.039Z" transform="translate(2202.114 1528.441)" fill="#7cb342" fill-rule="evenodd"/>
      <path id="Trazado_1906" data-name="Trazado 1906" d="M-1015.3,615.555a3.55,3.55,0,0,1-3.635-3.635,3.55,3.55,0,0,1,3.635-3.635,3.55,3.55,0,0,1,3.635,3.635A3.55,3.55,0,0,1-1015.3,615.555Z" transform="translate(2205.679 1532.033)" fill="#fff" fill-rule="evenodd"/>
    </g>
  </g>
</svg>
