<svg xmlns="http://www.w3.org/2000/svg" width="1120.5" height="208" viewBox="0 0 1120.5 208">
  <g id="Grupo_10107" data-name="Grupo 10107" transform="translate(-140.5 -2599)">
    <rect id="Rectángulo_2801" data-name="Rectángulo 2801" width="1120" height="144" transform="translate(141 2663)" fill="#dcedc8" opacity="0.5"/>
    <path id="Trazado_2795" data-name="Trazado 2795" d="M48.671,19V4.889h5.107a7.962,7.962,0,0,1,2.944.508,5.423,5.423,0,0,1,2.109,1.44,6.266,6.266,0,0,1,1.25,2.222,9.172,9.172,0,0,1,.425,2.881,9.206,9.206,0,0,1-.425,2.891,6.266,6.266,0,0,1-1.25,2.222,5.423,5.423,0,0,1-2.109,1.44A7.962,7.962,0,0,1,53.778,19Zm2.93-2.588h2.031a3.466,3.466,0,0,0,2.852-1.147,5.143,5.143,0,0,0,.938-3.325,5.143,5.143,0,0,0-.937-3.325,3.466,3.466,0,0,0-2.852-1.147H51.6ZM64.315,7.457a1.579,1.579,0,0,1-1.152-.474,1.555,1.555,0,0,1-.479-1.147A1.536,1.536,0,0,1,63.168,4.7a1.584,1.584,0,0,1,1.147-.474,1.626,1.626,0,0,1,1.611,1.611,1.626,1.626,0,0,1-1.611,1.621ZM62.88,19V8.961h2.832V19ZM74.55,8.766a3.914,3.914,0,0,1,2.773.9,3.349,3.349,0,0,1,.967,2.573V19H75.468V12.848a1.749,1.749,0,0,0-.5-1.387,1.9,1.9,0,0,0-1.294-.439,2.643,2.643,0,0,0-.84.127,2.158,2.158,0,0,0-.7.4,1.748,1.748,0,0,0-.5.757,3.5,3.5,0,0,0-.19,1.162V19H68.622V8.961h2.813v1.113A3.868,3.868,0,0,1,74.55,8.766Zm15.908,5.068-.029.674H82.987a2.6,2.6,0,0,0,.8,1.836,2.561,2.561,0,0,0,1.768.635,2.468,2.468,0,0,0,1.323-.347,2.131,2.131,0,0,0,.845-1.011L90.3,16a4.383,4.383,0,0,1-1.758,2.354,5.226,5.226,0,0,1-2.969.84,5.435,5.435,0,0,1-3.911-1.382,5.042,5.042,0,0,1-1.45-3.833,5.072,5.072,0,0,1,1.455-3.833,5.273,5.273,0,0,1,3.818-1.4,5.04,5.04,0,0,1,3.6,1.279A5.019,5.019,0,0,1,90.458,13.834Zm-4.951-3.1a2.222,2.222,0,0,0-2.441,1.934h4.609a2.114,2.114,0,0,0-.693-1.436A2.2,2.2,0,0,0,85.507,10.738Zm9.785-.186A3.259,3.259,0,0,1,96.61,9.347a4.023,4.023,0,0,1,1.963-.5v2.51a3.8,3.8,0,0,0-2.4.605,2.643,2.643,0,0,0-.742,2.148V19H92.6V8.961h2.7Zm9.551,8.643A6.313,6.313,0,0,1,102,18.58a4.6,4.6,0,0,1-1.948-1.807,5.384,5.384,0,0,1-.708-2.8,4.911,4.911,0,0,1,1.523-3.809,6.368,6.368,0,0,1,7.959,0,4.911,4.911,0,0,1,1.523,3.809,4.938,4.938,0,0,1-1.523,3.823A5.654,5.654,0,0,1,104.843,19.2Zm-.029-2.236a2.577,2.577,0,0,0,1.987-.82,3.071,3.071,0,0,0,.757-2.168A3.071,3.071,0,0,0,106.8,11.8a2.577,2.577,0,0,0-1.987-.82,2.483,2.483,0,0,0-1.929.825,3.1,3.1,0,0,0-.747,2.163,3.1,3.1,0,0,0,.747,2.163A2.483,2.483,0,0,0,104.813,16.959Zm22.266-3.125-.029.674h-7.441a2.6,2.6,0,0,0,.8,1.836,2.561,2.561,0,0,0,1.768.635,2.468,2.468,0,0,0,1.323-.347,2.131,2.131,0,0,0,.845-1.011l2.578.381a4.383,4.383,0,0,1-1.758,2.354,5.226,5.226,0,0,1-2.969.84,5.435,5.435,0,0,1-3.911-1.382,5.042,5.042,0,0,1-1.45-3.833,5.072,5.072,0,0,1,1.455-3.833,5.273,5.273,0,0,1,3.818-1.4,5.04,5.04,0,0,1,3.6,1.279A5.019,5.019,0,0,1,127.079,13.834Zm-4.951-3.1a2.222,2.222,0,0,0-2.441,1.934H124.3a2.114,2.114,0,0,0-.693-1.436A2.2,2.2,0,0,0,122.128,10.738Zm13.018-1.973a3.914,3.914,0,0,1,2.773.9,3.349,3.349,0,0,1,.967,2.573V19h-2.822V12.848a1.749,1.749,0,0,0-.5-1.387,1.9,1.9,0,0,0-1.294-.439,2.643,2.643,0,0,0-.84.127,2.158,2.158,0,0,0-.7.4,1.748,1.748,0,0,0-.5.757,3.5,3.5,0,0,0-.19,1.162V19h-2.812V8.961h2.813v1.113A3.868,3.868,0,0,1,135.146,8.766ZM65.282,38.834l-.029.674H57.812a2.6,2.6,0,0,0,.8,1.836,2.561,2.561,0,0,0,1.768.635,2.468,2.468,0,0,0,1.323-.347,2.131,2.131,0,0,0,.845-1.011L65.126,41a4.383,4.383,0,0,1-1.758,2.354,5.226,5.226,0,0,1-2.969.84,5.435,5.435,0,0,1-3.911-1.382,5.042,5.042,0,0,1-1.45-3.833,5.072,5.072,0,0,1,1.455-3.833,5.273,5.273,0,0,1,3.818-1.4,4.6,4.6,0,0,1,4.971,5.088Zm-4.951-3.1a2.222,2.222,0,0,0-2.441,1.934H62.5a2.114,2.114,0,0,0-.693-1.436A2.2,2.2,0,0,0,60.331,35.738Zm12.754-4.492h-.059q-.273,0-.415,0t-.4.034a1.621,1.621,0,0,0-.405.088,2.065,2.065,0,0,0-.337.181.9.9,0,0,0-.293.293,1.77,1.77,0,0,0-.176.435,2.269,2.269,0,0,0-.073.605v1.074h2.158v2.158H70.927V44h-2.8V36.119H66.161V33.961h1.963V32.877a5.871,5.871,0,0,1,.127-1.279,3.893,3.893,0,0,1,.342-.972,2.275,2.275,0,0,1,.571-.7,3.371,3.371,0,0,1,.742-.469,4.241,4.241,0,0,1,.923-.283,8.094,8.094,0,0,1,1.06-.142q.522-.034,1.2-.034Zm11,7.588-.029.674H76.61a2.6,2.6,0,0,0,.8,1.836,2.561,2.561,0,0,0,1.768.635,2.468,2.468,0,0,0,1.323-.347,2.131,2.131,0,0,0,.845-1.011L83.925,41a4.383,4.383,0,0,1-1.758,2.354,5.226,5.226,0,0,1-2.969.84,5.435,5.435,0,0,1-3.911-1.382,5.042,5.042,0,0,1-1.45-3.833,5.072,5.072,0,0,1,1.455-3.833,5.273,5.273,0,0,1,3.818-1.4,4.6,4.6,0,0,1,4.971,5.088Zm-4.951-3.1a2.222,2.222,0,0,0-2.441,1.934H81.3a2.114,2.114,0,0,0-.693-1.436A2.2,2.2,0,0,0,79.13,35.738Zm11.631,8.447a5.364,5.364,0,0,1-3.877-1.445,4.992,4.992,0,0,1-1.5-3.77,4.981,4.981,0,0,1,1.5-3.77,5.96,5.96,0,0,1,7.134-.469,4.316,4.316,0,0,1,1.68,2.725l-2.6.283a2.226,2.226,0,0,0-.84-1.318,2.554,2.554,0,0,0-1.523-.439,2.3,2.3,0,0,0-1.836.82,3.686,3.686,0,0,0,0,4.331,2.3,2.3,0,0,0,1.836.825,2.532,2.532,0,0,0,1.519-.439,2.277,2.277,0,0,0,.845-1.318l2.6.283A4.328,4.328,0,0,1,94,43.209,5.327,5.327,0,0,1,90.761,44.186ZM101.435,44a3.032,3.032,0,0,1-2.266-.815,3.172,3.172,0,0,1-.8-2.319V36.119H96.4V33.961h.635a1.656,1.656,0,0,0,1.25-.42,2.162,2.162,0,0,0,.4-1.494V30.719h2.539v3.242h2.07v2.158h-2.07v4.443q0,1.3,1.162,1.3h.908V44ZM106.9,32.457a1.579,1.579,0,0,1-1.152-.474,1.555,1.555,0,0,1-.479-1.147,1.536,1.536,0,0,1,.483-1.138,1.584,1.584,0,0,1,1.147-.474,1.616,1.616,0,0,1,0,3.232ZM105.468,44V33.961H108.3V44Zm12.275-10.039h2.979L116.444,44H114l-4.229-10.039h2.959l2.5,6.865Zm8.73,10.234a6.313,6.313,0,0,1-2.842-.615,4.6,4.6,0,0,1-1.948-1.807,5.384,5.384,0,0,1-.708-2.8,4.911,4.911,0,0,1,1.523-3.809,6.368,6.368,0,0,1,7.959,0,4.911,4.911,0,0,1,1.523,3.809,4.938,4.938,0,0,1-1.523,3.823A5.654,5.654,0,0,1,126.474,44.2Zm-.029-2.236a2.577,2.577,0,0,0,1.987-.82,3.484,3.484,0,0,0,0-4.336,2.577,2.577,0,0,0-1.987-.82,2.483,2.483,0,0,0-1.929.825,3.505,3.505,0,0,0,0,4.326A2.483,2.483,0,0,0,126.444,41.959Z" transform="translate(160 2741)" fill="#00223d"/>
    <path id="Trazado_2798" data-name="Trazado 2798" d="M73.168,11.549a3.3,3.3,0,0,1,2.656,3.5,3.789,3.789,0,0,1-1.123,2.9A4.64,4.64,0,0,1,71.4,19H65.59V4.889h4.57a5.177,5.177,0,0,1,3.452,1.021,3.54,3.54,0,0,1,1.2,2.847,3.32,3.32,0,0,1-.415,1.675A2.733,2.733,0,0,1,73.168,11.549ZM70.189,7.32H68.412v3.32h1.9a1.784,1.784,0,0,0,1.348-.469,1.7,1.7,0,0,0,.449-1.23,1.515,1.515,0,0,0-.488-1.177A2.066,2.066,0,0,0,70.189,7.32Zm.664,9.17a2.25,2.25,0,0,0,1.616-.5,1.694,1.694,0,0,0,.513-1.27,1.774,1.774,0,0,0-.518-1.309,2.29,2.29,0,0,0-1.67-.518H68.412V16.49ZM82.738,19.2A6.313,6.313,0,0,1,79.9,18.58a4.6,4.6,0,0,1-1.948-1.807,5.384,5.384,0,0,1-.708-2.8,4.911,4.911,0,0,1,1.523-3.809,6.368,6.368,0,0,1,7.959,0,4.911,4.911,0,0,1,1.523,3.809,4.938,4.938,0,0,1-1.523,3.823A5.654,5.654,0,0,1,82.738,19.2Zm-.029-2.236a2.577,2.577,0,0,0,1.987-.82,3.071,3.071,0,0,0,.757-2.168A3.071,3.071,0,0,0,84.7,11.8a2.577,2.577,0,0,0-1.987-.82,2.483,2.483,0,0,0-1.929.825,3.1,3.1,0,0,0-.747,2.163,3.1,3.1,0,0,0,.747,2.163A2.483,2.483,0,0,0,82.709,16.959ZM96.264,8.766a3.914,3.914,0,0,1,2.773.9A3.349,3.349,0,0,1,100,12.242V19H97.182V12.848a1.749,1.749,0,0,0-.5-1.387,1.9,1.9,0,0,0-1.294-.439,2.643,2.643,0,0,0-.84.127,2.158,2.158,0,0,0-.7.4,1.748,1.748,0,0,0-.5.757,3.5,3.5,0,0,0-.19,1.162V19H90.336V8.961h2.813v1.113A3.868,3.868,0,0,1,96.264,8.766ZM107.406,19.2a6.313,6.313,0,0,1-2.842-.615,4.6,4.6,0,0,1-1.948-1.807,5.384,5.384,0,0,1-.708-2.8,4.911,4.911,0,0,1,1.523-3.809,6.368,6.368,0,0,1,7.959,0,4.911,4.911,0,0,1,1.523,3.809,4.938,4.938,0,0,1-1.523,3.823A5.654,5.654,0,0,1,107.406,19.2Zm-.029-2.236a2.577,2.577,0,0,0,1.987-.82,3.071,3.071,0,0,0,.757-2.168,3.071,3.071,0,0,0-.757-2.168,2.577,2.577,0,0,0-1.987-.82,2.483,2.483,0,0,0-1.929.825,3.1,3.1,0,0,0-.747,2.163,3.1,3.1,0,0,0,.747,2.163A2.483,2.483,0,0,0,107.377,16.959ZM118.539,19.2a5.61,5.61,0,0,1-2.93-.7,2.972,2.972,0,0,1-1.436-2.09l2.354-.664a1.891,1.891,0,0,0,2.012,1.494A2.078,2.078,0,0,0,119.564,17a.8.8,0,0,0,.4-.776.821.821,0,0,0-.166-.518,1.315,1.315,0,0,0-.513-.371,6.387,6.387,0,0,0-.684-.264q-.337-.107-.894-.259t-.928-.288a6.215,6.215,0,0,1-.884-.376,3.77,3.77,0,0,1-.732-.518,2.086,2.086,0,0,1-.547-.786,2.836,2.836,0,0,1-.19-1.074,2.565,2.565,0,0,1,1.089-2.246,4.865,4.865,0,0,1,2.847-.762,4.988,4.988,0,0,1,2.627.645,2.917,2.917,0,0,1,1.348,2.012l-2.178.488a1.706,1.706,0,0,0-1.787-1.27,1.957,1.957,0,0,0-.986.225.722.722,0,0,0-.391.664.761.761,0,0,0,.059.3.6.6,0,0,0,.205.244,2.991,2.991,0,0,0,.283.186,2.137,2.137,0,0,0,.4.161q.264.083.439.127l.513.132.522.137q.537.146.942.293a5.519,5.519,0,0,1,.864.41,3.1,3.1,0,0,1,.757.591,2.635,2.635,0,0,1,.493.83,3.066,3.066,0,0,1,.2,1.118,3.02,3.02,0,0,1-.337,1.455,2.529,2.529,0,0,1-.923.981,4.492,4.492,0,0,1-1.3.527A6.763,6.763,0,0,1,118.539,19.2Z" transform="translate(832 2741)" fill="#00223d"/>
    <path id="Trazado_2796" data-name="Trazado 2796" d="M61.547,19.2a7.877,7.877,0,0,1-2.876-.518,6.763,6.763,0,0,1-2.29-1.445,6.515,6.515,0,0,1-1.5-2.295,8,8,0,0,1-.547-3,7.644,7.644,0,0,1,.938-3.833,6.382,6.382,0,0,1,2.573-2.534,7.705,7.705,0,0,1,3.706-.879,7.488,7.488,0,0,1,4.141,1.143A6.255,6.255,0,0,1,68.217,8.98l-2.734,1a3.865,3.865,0,0,0-1.514-1.9,4.323,4.323,0,0,0-2.422-.684,4.145,4.145,0,0,0-3.086,1.23,4.528,4.528,0,0,0-1.211,3.32,4.534,4.534,0,0,0,1.216,3.325A4.14,4.14,0,0,0,61.547,16.5a4.307,4.307,0,0,0,2.417-.688A3.883,3.883,0,0,0,65.482,13.9l2.734,1a6.28,6.28,0,0,1-2.529,3.149A7.464,7.464,0,0,1,61.547,19.2ZM76.9,8.961h2.813V19H77.045l-.068-1.211A3.834,3.834,0,0,1,73.783,19.2a3.914,3.914,0,0,1-2.773-.9,3.349,3.349,0,0,1-.967-2.573V8.961h2.822v6.152a1.735,1.735,0,0,0,.5,1.377,1.909,1.909,0,0,0,1.3.439,2.264,2.264,0,0,0,1.6-.571,2.454,2.454,0,0,0,.63-1.86Zm15.166,4.873-.029.674H84.594a2.6,2.6,0,0,0,.8,1.836,2.561,2.561,0,0,0,1.768.635,2.468,2.468,0,0,0,1.323-.347,2.131,2.131,0,0,0,.845-1.011L91.908,16a4.383,4.383,0,0,1-1.758,2.354,5.226,5.226,0,0,1-2.969.84,5.435,5.435,0,0,1-3.911-1.382,5.042,5.042,0,0,1-1.45-3.833,5.072,5.072,0,0,1,1.455-3.833,5.273,5.273,0,0,1,3.818-1.4,5.04,5.04,0,0,1,3.6,1.279A5.019,5.019,0,0,1,92.064,13.834Zm-4.951-3.1a2.222,2.222,0,0,0-2.441,1.934h4.609a2.114,2.114,0,0,0-.693-1.436A2.2,2.2,0,0,0,87.113,10.738Zm13.018-1.973a3.914,3.914,0,0,1,2.773.9,3.349,3.349,0,0,1,.967,2.573V19h-2.822V12.848a1.749,1.749,0,0,0-.5-1.387,1.9,1.9,0,0,0-1.294-.439,2.643,2.643,0,0,0-.84.127,2.158,2.158,0,0,0-.7.4,1.748,1.748,0,0,0-.5.757,3.5,3.5,0,0,0-.19,1.162V19H94.2V8.961h2.813v1.113A3.868,3.868,0,0,1,100.131,8.766ZM110.336,19a3.032,3.032,0,0,1-2.266-.815,3.172,3.172,0,0,1-.8-2.319V11.119H105.3V8.961h.635a1.656,1.656,0,0,0,1.25-.42,2.162,2.162,0,0,0,.4-1.494V5.719h2.539V8.961h2.07v2.158h-2.07v4.443q0,1.3,1.162,1.3h.908V19Zm12.227-2.725a9.392,9.392,0,0,0,.244,2.451V19H120.18l-.225-1.094a3.264,3.264,0,0,1-1.406.967,5.183,5.183,0,0,1-1.816.322,4.776,4.776,0,0,1-.937-.088,3.187,3.187,0,0,1-.845-.3,2.564,2.564,0,0,1-.7-.522,2.291,2.291,0,0,1-.469-.8,3.17,3.17,0,0,1-.176-1.089,3.02,3.02,0,0,1,.186-1.089,2.552,2.552,0,0,1,.488-.815,2.962,2.962,0,0,1,.791-.6,6.053,6.053,0,0,1,1-.43,11.9,11.9,0,0,1,1.191-.312l1.65-.371a1.82,1.82,0,0,0,.747-.317.633.633,0,0,0,.22-.5,1.036,1.036,0,0,0-.493-.967,2.3,2.3,0,0,0-1.2-.293,1.721,1.721,0,0,0-1.963,1.533l-2.49-.449a3.371,3.371,0,0,1,1.455-2.29,5.783,5.783,0,0,1,3.154-.737q4.219,0,4.219,3.623Zm-4.951,1.016a2.262,2.262,0,0,0,1.738-.728,3.066,3.066,0,0,0,.674-2.153l-2.383.674a2.816,2.816,0,0,0-1,.41.842.842,0,0,0-.347.723.935.935,0,0,0,.371.8A1.536,1.536,0,0,0,117.611,17.291Zm11.221,1.9a5.61,5.61,0,0,1-2.93-.7,2.972,2.972,0,0,1-1.436-2.09l2.354-.664a1.891,1.891,0,0,0,2.012,1.494A2.078,2.078,0,0,0,129.857,17a.8.8,0,0,0,.4-.776.821.821,0,0,0-.166-.518,1.315,1.315,0,0,0-.513-.371,6.388,6.388,0,0,0-.684-.264q-.337-.107-.894-.259t-.928-.288a6.215,6.215,0,0,1-.884-.376,3.77,3.77,0,0,1-.732-.518,2.086,2.086,0,0,1-.547-.786,2.836,2.836,0,0,1-.19-1.074,2.565,2.565,0,0,1,1.089-2.246,4.865,4.865,0,0,1,2.847-.762,4.988,4.988,0,0,1,2.627.645,2.917,2.917,0,0,1,1.348,2.012l-2.178.488a1.706,1.706,0,0,0-1.787-1.27,1.957,1.957,0,0,0-.986.225.722.722,0,0,0-.391.664.761.761,0,0,0,.059.3.6.6,0,0,0,.205.244,2.991,2.991,0,0,0,.283.186,2.137,2.137,0,0,0,.4.161q.264.083.439.127l.513.132.522.137q.537.146.942.293a5.519,5.519,0,0,1,.864.41,3.1,3.1,0,0,1,.757.591,2.635,2.635,0,0,1,.493.83,3.066,3.066,0,0,1,.2,1.118,3.02,3.02,0,0,1-.337,1.455,2.529,2.529,0,0,1-.923.981,4.492,4.492,0,0,1-1.3.527A6.763,6.763,0,0,1,128.832,19.2ZM54.521,33.766a4.857,4.857,0,0,1,1.865.361A4.516,4.516,0,0,1,58.964,36.8a6.529,6.529,0,0,1,0,4.395,4.516,4.516,0,0,1-2.578,2.676,4.857,4.857,0,0,1-1.865.361,4.336,4.336,0,0,1-1.9-.405,2.808,2.808,0,0,1-1.265-1.138L51.288,44H48.622V29h2.813v6.182a2.8,2.8,0,0,1,1.255-1.045A4.414,4.414,0,0,1,54.521,33.766ZM53.866,41.9a2.53,2.53,0,0,0,1.909-.791,3.332,3.332,0,0,0,0-4.229,2.53,2.53,0,0,0-1.909-.791,2.5,2.5,0,0,0-1.895.806,3.289,3.289,0,0,0,0,4.2A2.5,2.5,0,0,0,53.866,41.9Zm15.83-.625a9.392,9.392,0,0,0,.244,2.451V44H67.313l-.225-1.094a3.264,3.264,0,0,1-1.406.967,5.183,5.183,0,0,1-1.816.322,4.776,4.776,0,0,1-.937-.088,3.187,3.187,0,0,1-.845-.3,2.563,2.563,0,0,1-.7-.522,2.291,2.291,0,0,1-.469-.8,3.17,3.17,0,0,1-.176-1.089,3.02,3.02,0,0,1,.186-1.089,2.552,2.552,0,0,1,.488-.815,2.962,2.962,0,0,1,.791-.6,6.052,6.052,0,0,1,1-.43,11.9,11.9,0,0,1,1.191-.312l1.65-.371a1.82,1.82,0,0,0,.747-.317.633.633,0,0,0,.22-.5A1.036,1.036,0,0,0,66.518,36a2.3,2.3,0,0,0-1.2-.293,1.721,1.721,0,0,0-1.963,1.533l-2.49-.449a3.371,3.371,0,0,1,1.455-2.29,5.783,5.783,0,0,1,3.154-.737q4.219,0,4.219,3.623Zm-4.951,1.016a2.262,2.262,0,0,0,1.738-.728,3.066,3.066,0,0,0,.674-2.153l-2.383.674a2.816,2.816,0,0,0-1,.41.842.842,0,0,0-.347.723.935.935,0,0,0,.371.8A1.536,1.536,0,0,0,64.745,42.291Zm13.613-8.525a3.914,3.914,0,0,1,2.773.9,3.349,3.349,0,0,1,.967,2.573V44H79.276V37.848a1.749,1.749,0,0,0-.5-1.387,1.9,1.9,0,0,0-1.294-.439,2.643,2.643,0,0,0-.84.127,2.158,2.158,0,0,0-.7.4,1.748,1.748,0,0,0-.5.757,3.5,3.5,0,0,0-.19,1.162V44H72.431V33.961h2.813v1.113A3.868,3.868,0,0,1,78.358,33.766Zm11.006,10.42a5.364,5.364,0,0,1-3.877-1.445,4.992,4.992,0,0,1-1.5-3.77,4.981,4.981,0,0,1,1.5-3.77,5.96,5.96,0,0,1,7.134-.469,4.316,4.316,0,0,1,1.68,2.725l-2.6.283a2.226,2.226,0,0,0-.84-1.318,2.554,2.554,0,0,0-1.523-.439,2.3,2.3,0,0,0-1.836.82,3.686,3.686,0,0,0,0,4.331,2.3,2.3,0,0,0,1.836.825,2.532,2.532,0,0,0,1.519-.439A2.277,2.277,0,0,0,91.7,40.2l2.6.283A4.328,4.328,0,0,1,92.6,43.209,5.327,5.327,0,0,1,89.364,44.186Zm15.166-2.91a9.392,9.392,0,0,0,.244,2.451V44h-2.627l-.225-1.094a3.264,3.264,0,0,1-1.406.967A5.183,5.183,0,0,1,98.7,44.2a4.776,4.776,0,0,1-.937-.088,3.187,3.187,0,0,1-.845-.3,2.564,2.564,0,0,1-.7-.522,2.291,2.291,0,0,1-.469-.8,3.17,3.17,0,0,1-.176-1.089,3.02,3.02,0,0,1,.186-1.089,2.552,2.552,0,0,1,.488-.815,2.962,2.962,0,0,1,.791-.6,6.053,6.053,0,0,1,1-.43,11.9,11.9,0,0,1,1.191-.312l1.65-.371a1.82,1.82,0,0,0,.747-.317.633.633,0,0,0,.22-.5,1.036,1.036,0,0,0-.493-.967,2.3,2.3,0,0,0-1.2-.293,1.721,1.721,0,0,0-1.963,1.533l-2.49-.449a3.371,3.371,0,0,1,1.455-2.29,5.783,5.783,0,0,1,3.154-.737q4.219,0,4.219,3.623Zm-4.951,1.016a2.262,2.262,0,0,0,1.738-.728,3.066,3.066,0,0,0,.674-2.153l-2.383.674a2.816,2.816,0,0,0-1,.41.842.842,0,0,0-.347.723.935.935,0,0,0,.371.8A1.536,1.536,0,0,0,99.579,42.291Zm10.381-6.738a3.259,3.259,0,0,1,1.318-1.206,4.023,4.023,0,0,1,1.963-.5v2.51a3.8,3.8,0,0,0-2.4.605,2.643,2.643,0,0,0-.742,2.148V44h-2.832V33.961h2.7Zm6.367-3.1a1.579,1.579,0,0,1-1.152-.474,1.555,1.555,0,0,1-.479-1.147,1.536,1.536,0,0,1,.483-1.138,1.584,1.584,0,0,1,1.147-.474,1.616,1.616,0,0,1,0,3.232ZM114.892,44V33.961h2.832V44Zm13.975-2.725a9.391,9.391,0,0,0,.244,2.451V44h-2.627l-.225-1.094a3.264,3.264,0,0,1-1.406.967,5.183,5.183,0,0,1-1.816.322,4.776,4.776,0,0,1-.937-.088,3.187,3.187,0,0,1-.845-.3,2.564,2.564,0,0,1-.7-.522,2.291,2.291,0,0,1-.469-.8,3.17,3.17,0,0,1-.176-1.089,3.02,3.02,0,0,1,.186-1.089,2.552,2.552,0,0,1,.488-.815,2.962,2.962,0,0,1,.791-.6,6.053,6.053,0,0,1,1-.43,11.9,11.9,0,0,1,1.191-.312l1.65-.371a1.82,1.82,0,0,0,.747-.317.633.633,0,0,0,.22-.5,1.036,1.036,0,0,0-.493-.967,2.3,2.3,0,0,0-1.2-.293,1.721,1.721,0,0,0-1.963,1.533l-2.49-.449a3.371,3.371,0,0,1,1.455-2.29,5.783,5.783,0,0,1,3.154-.737q4.219,0,4.219,3.623Zm-4.951,1.016a2.262,2.262,0,0,0,1.738-.728,3.066,3.066,0,0,0,.674-2.153l-2.383.674a2.816,2.816,0,0,0-1,.41.842.842,0,0,0-.347.723.935.935,0,0,0,.371.8A1.536,1.536,0,0,0,123.915,42.291Zm11.221,1.9a5.61,5.61,0,0,1-2.93-.7,2.972,2.972,0,0,1-1.436-2.09l2.354-.664a1.891,1.891,0,0,0,2.012,1.494A2.078,2.078,0,0,0,136.161,42a.8.8,0,0,0,.4-.776.821.821,0,0,0-.166-.518,1.315,1.315,0,0,0-.513-.371,6.387,6.387,0,0,0-.684-.264q-.337-.107-.894-.259t-.928-.288a6.215,6.215,0,0,1-.884-.376,3.769,3.769,0,0,1-.732-.518,2.086,2.086,0,0,1-.547-.786,2.836,2.836,0,0,1-.19-1.074,2.565,2.565,0,0,1,1.089-2.246,4.865,4.865,0,0,1,2.847-.762,4.988,4.988,0,0,1,2.627.645,2.917,2.917,0,0,1,1.348,2.012l-2.178.488a1.706,1.706,0,0,0-1.787-1.27,1.957,1.957,0,0,0-.986.225.722.722,0,0,0-.391.664.761.761,0,0,0,.059.3.6.6,0,0,0,.205.244,2.992,2.992,0,0,0,.283.186,2.137,2.137,0,0,0,.4.161q.264.083.439.127l.513.132.522.137q.537.146.942.293a5.519,5.519,0,0,1,.864.41,3.1,3.1,0,0,1,.757.591,2.635,2.635,0,0,1,.493.83,3.066,3.066,0,0,1,.2,1.118,3.02,3.02,0,0,1-.337,1.455,2.529,2.529,0,0,1-.923.981,4.492,4.492,0,0,1-1.3.527A6.763,6.763,0,0,1,135.136,44.2Z" transform="translate(383 2741)" fill="#00223d"/>
    <path id="Trazado_2799" data-name="Trazado 2799" d="M18.886,19,17.86,16.09H11.933L10.907,19h-3L13.1,4.889h3.584L21.884,19Zm-6.094-5.361H17L14.9,7.652Zm15.322,5.547a5.364,5.364,0,0,1-3.877-1.445,4.992,4.992,0,0,1-1.5-3.77,4.981,4.981,0,0,1,1.5-3.77,5.38,5.38,0,0,1,3.882-1.436,5.349,5.349,0,0,1,3.252.967,4.316,4.316,0,0,1,1.68,2.725l-2.6.283a2.226,2.226,0,0,0-.84-1.318,2.554,2.554,0,0,0-1.523-.439,2.3,2.3,0,0,0-1.836.82,3.216,3.216,0,0,0-.7,2.168,3.22,3.22,0,0,0,.7,2.163,2.3,2.3,0,0,0,1.836.825A2.532,2.532,0,0,0,29.6,16.52a2.277,2.277,0,0,0,.845-1.318l2.6.283a4.328,4.328,0,0,1-1.694,2.725A5.327,5.327,0,0,1,28.114,19.186Zm11.475,0a5.364,5.364,0,0,1-3.877-1.445,4.992,4.992,0,0,1-1.5-3.77,4.981,4.981,0,0,1,1.5-3.77,5.38,5.38,0,0,1,3.882-1.436,5.349,5.349,0,0,1,3.252.967,4.316,4.316,0,0,1,1.68,2.725l-2.6.283a2.225,2.225,0,0,0-.84-1.318,2.554,2.554,0,0,0-1.523-.439,2.3,2.3,0,0,0-1.836.82,3.216,3.216,0,0,0-.7,2.168,3.22,3.22,0,0,0,.7,2.163,2.3,2.3,0,0,0,1.836.825,2.532,2.532,0,0,0,1.519-.439,2.277,2.277,0,0,0,.845-1.318l2.6.283a4.328,4.328,0,0,1-1.694,2.725A5.327,5.327,0,0,1,39.589,19.186ZM47.958,7.457a1.579,1.579,0,0,1-1.152-.474,1.555,1.555,0,0,1-.479-1.147A1.536,1.536,0,0,1,46.811,4.7a1.584,1.584,0,0,1,1.147-.474,1.626,1.626,0,0,1,1.611,1.611,1.626,1.626,0,0,1-1.611,1.621ZM46.522,19V8.961h2.832V19Zm10.42.2A6.313,6.313,0,0,1,54.1,18.58a4.6,4.6,0,0,1-1.948-1.807,5.384,5.384,0,0,1-.708-2.8,4.911,4.911,0,0,1,1.523-3.809,6.368,6.368,0,0,1,7.959,0,4.911,4.911,0,0,1,1.523,3.809,4.938,4.938,0,0,1-1.523,3.823A5.654,5.654,0,0,1,56.942,19.2Zm-.029-2.236a2.577,2.577,0,0,0,1.987-.82,3.071,3.071,0,0,0,.757-2.168A3.071,3.071,0,0,0,58.9,11.8a2.577,2.577,0,0,0-1.987-.82,2.483,2.483,0,0,0-1.929.825,3.1,3.1,0,0,0-.747,2.163,3.1,3.1,0,0,0,.747,2.163A2.483,2.483,0,0,0,56.913,16.959ZM70.468,8.766a3.914,3.914,0,0,1,2.773.9,3.349,3.349,0,0,1,.967,2.573V19H71.386V12.848a1.749,1.749,0,0,0-.5-1.387,1.9,1.9,0,0,0-1.294-.439,2.643,2.643,0,0,0-.84.127,2.158,2.158,0,0,0-.7.4,1.748,1.748,0,0,0-.5.757,3.5,3.5,0,0,0-.19,1.162V19H64.54V8.961h2.813v1.113A3.868,3.868,0,0,1,70.468,8.766Zm15.908,5.068-.029.674H78.905a2.6,2.6,0,0,0,.8,1.836,2.561,2.561,0,0,0,1.768.635,2.468,2.468,0,0,0,1.323-.347,2.131,2.131,0,0,0,.845-1.011L86.22,16a4.383,4.383,0,0,1-1.758,2.354,5.226,5.226,0,0,1-2.969.84,5.435,5.435,0,0,1-3.911-1.382,5.042,5.042,0,0,1-1.45-3.833,5.072,5.072,0,0,1,1.455-3.833,5.273,5.273,0,0,1,3.818-1.4,5.04,5.04,0,0,1,3.6,1.279A5.019,5.019,0,0,1,86.376,13.834Zm-4.951-3.1a2.222,2.222,0,0,0-2.441,1.934h4.609a2.114,2.114,0,0,0-.693-1.436A2.2,2.2,0,0,0,81.425,10.738ZM92.05,19.2a5.61,5.61,0,0,1-2.93-.7,2.972,2.972,0,0,1-1.436-2.09l2.354-.664a1.891,1.891,0,0,0,2.012,1.494A2.078,2.078,0,0,0,93.075,17a.8.8,0,0,0,.4-.776.821.821,0,0,0-.166-.518,1.315,1.315,0,0,0-.513-.371,6.387,6.387,0,0,0-.684-.264q-.337-.107-.894-.259t-.928-.288a6.215,6.215,0,0,1-.884-.376,3.77,3.77,0,0,1-.732-.518,2.086,2.086,0,0,1-.547-.786,2.836,2.836,0,0,1-.19-1.074,2.565,2.565,0,0,1,1.089-2.246,4.865,4.865,0,0,1,2.847-.762A4.988,4.988,0,0,1,94.5,9.41a2.917,2.917,0,0,1,1.348,2.012l-2.178.488a1.706,1.706,0,0,0-1.787-1.27,1.957,1.957,0,0,0-.986.225.722.722,0,0,0-.391.664.761.761,0,0,0,.059.3.6.6,0,0,0,.205.244,2.991,2.991,0,0,0,.283.186,2.137,2.137,0,0,0,.4.161q.264.083.439.127l.513.132.522.137q.537.146.942.293a5.519,5.519,0,0,1,.864.41,3.1,3.1,0,0,1,.757.591,2.635,2.635,0,0,1,.493.83,3.066,3.066,0,0,1,.2,1.118,3.02,3.02,0,0,1-.337,1.455,2.529,2.529,0,0,1-.923.981,4.492,4.492,0,0,1-1.3.527A6.763,6.763,0,0,1,92.05,19.2Zm20.791-5.361-.029.674H105.37a2.6,2.6,0,0,0,.8,1.836,2.561,2.561,0,0,0,1.768.635,2.468,2.468,0,0,0,1.323-.347,2.131,2.131,0,0,0,.845-1.011l2.578.381a4.383,4.383,0,0,1-1.758,2.354,5.226,5.226,0,0,1-2.969.84,5.435,5.435,0,0,1-3.911-1.382,5.042,5.042,0,0,1-1.45-3.833,5.072,5.072,0,0,1,1.455-3.833,5.273,5.273,0,0,1,3.818-1.4,5.04,5.04,0,0,1,3.6,1.279A5.019,5.019,0,0,1,112.841,13.834Zm-4.951-3.1a2.222,2.222,0,0,0-2.441,1.934h4.609a2.114,2.114,0,0,0-.693-1.436A2.2,2.2,0,0,0,107.89,10.738Zm13.018-1.973a3.914,3.914,0,0,1,2.773.9,3.349,3.349,0,0,1,.967,2.573V19h-2.822V12.848a1.749,1.749,0,0,0-.5-1.387,1.9,1.9,0,0,0-1.294-.439,2.643,2.643,0,0,0-.84.127,2.158,2.158,0,0,0-.7.4,1.748,1.748,0,0,0-.5.757,3.5,3.5,0,0,0-.19,1.162V19h-2.812V8.961h2.813v1.113A3.868,3.868,0,0,1,120.907,8.766ZM137.245,19.2a6.313,6.313,0,0,1-2.842-.615,4.6,4.6,0,0,1-1.948-1.807,5.384,5.384,0,0,1-.708-2.8,4.911,4.911,0,0,1,1.523-3.809,6.368,6.368,0,0,1,7.959,0,4.911,4.911,0,0,1,1.523,3.809,4.938,4.938,0,0,1-1.523,3.823A5.654,5.654,0,0,1,137.245,19.2Zm-.029-2.236a2.577,2.577,0,0,0,1.987-.82,3.071,3.071,0,0,0,.757-2.168A3.071,3.071,0,0,0,139.2,11.8a2.577,2.577,0,0,0-1.987-.82,2.483,2.483,0,0,0-1.929.825,3.1,3.1,0,0,0-.747,2.163,3.1,3.1,0,0,0,.747,2.163A2.483,2.483,0,0,0,137.216,16.959ZM148.583,19a3.032,3.032,0,0,1-2.266-.815,3.171,3.171,0,0,1-.8-2.319V11.119h-1.973V8.961h.635a1.656,1.656,0,0,0,1.25-.42,2.162,2.162,0,0,0,.4-1.494V5.719h2.539V8.961h2.07v2.158h-2.07v4.443q0,1.3,1.162,1.3h.908V19Zm6.729-8.447a3.259,3.259,0,0,1,1.318-1.206,4.023,4.023,0,0,1,1.963-.5v2.51a3.8,3.8,0,0,0-2.4.605,2.643,2.643,0,0,0-.742,2.148V19h-2.832V8.961h2.7Zm13.105,5.723a9.391,9.391,0,0,0,.244,2.451V19h-2.627l-.225-1.094a3.264,3.264,0,0,1-1.406.967,5.183,5.183,0,0,1-1.816.322,4.776,4.776,0,0,1-.937-.088,3.187,3.187,0,0,1-.845-.3,2.563,2.563,0,0,1-.7-.522,2.291,2.291,0,0,1-.469-.8,3.17,3.17,0,0,1-.176-1.089,3.019,3.019,0,0,1,.186-1.089,2.552,2.552,0,0,1,.488-.815,2.962,2.962,0,0,1,.791-.6,6.052,6.052,0,0,1,1-.43,11.9,11.9,0,0,1,1.191-.312l1.65-.371a1.82,1.82,0,0,0,.747-.317.633.633,0,0,0,.22-.5,1.036,1.036,0,0,0-.493-.967,2.3,2.3,0,0,0-1.2-.293,1.721,1.721,0,0,0-1.963,1.533l-2.49-.449a3.371,3.371,0,0,1,1.455-2.29,5.783,5.783,0,0,1,3.154-.737q4.219,0,4.219,3.623Zm-4.951,1.016a2.262,2.262,0,0,0,1.738-.728,3.066,3.066,0,0,0,.674-2.153l-2.383.674a2.816,2.816,0,0,0-1,.41.842.842,0,0,0-.347.723.935.935,0,0,0,.371.8A1.536,1.536,0,0,0,163.466,17.291Zm11.221,1.9a5.61,5.61,0,0,1-2.93-.7,2.972,2.972,0,0,1-1.436-2.09l2.354-.664a1.891,1.891,0,0,0,2.012,1.494A2.078,2.078,0,0,0,175.712,17a.8.8,0,0,0,.4-.776.821.821,0,0,0-.166-.518,1.315,1.315,0,0,0-.513-.371,6.388,6.388,0,0,0-.684-.264q-.337-.107-.894-.259t-.928-.288a6.215,6.215,0,0,1-.884-.376,3.769,3.769,0,0,1-.732-.518,2.086,2.086,0,0,1-.547-.786,2.836,2.836,0,0,1-.19-1.074,2.565,2.565,0,0,1,1.089-2.246,4.865,4.865,0,0,1,2.847-.762,4.988,4.988,0,0,1,2.627.645,2.917,2.917,0,0,1,1.348,2.012l-2.178.488a1.706,1.706,0,0,0-1.787-1.27,1.957,1.957,0,0,0-.986.225.722.722,0,0,0-.391.664.761.761,0,0,0,.059.3.6.6,0,0,0,.205.244,2.992,2.992,0,0,0,.283.186,2.136,2.136,0,0,0,.4.161q.264.083.439.127l.513.132.522.137q.537.146.942.293a5.519,5.519,0,0,1,.864.41,3.1,3.1,0,0,1,.757.591,2.635,2.635,0,0,1,.493.83,3.066,3.066,0,0,1,.2,1.118,3.02,3.02,0,0,1-.337,1.455,2.529,2.529,0,0,1-.923.981,4.492,4.492,0,0,1-1.3.527A6.763,6.763,0,0,1,174.687,19.2ZM58.358,38.834l-.029.674H50.888a2.6,2.6,0,0,0,.8,1.836,2.561,2.561,0,0,0,1.768.635,2.468,2.468,0,0,0,1.323-.347,2.131,2.131,0,0,0,.845-1.011L58.2,41a4.383,4.383,0,0,1-1.758,2.354,5.226,5.226,0,0,1-2.969.84,5.435,5.435,0,0,1-3.911-1.382,5.042,5.042,0,0,1-1.45-3.833,5.072,5.072,0,0,1,1.455-3.833,5.273,5.273,0,0,1,3.818-1.4,4.6,4.6,0,0,1,4.971,5.088Zm-4.951-3.1a2.222,2.222,0,0,0-2.441,1.934h4.609a2.114,2.114,0,0,0-.693-1.436A2.2,2.2,0,0,0,53.407,35.738Zm18.984-1.973a3.836,3.836,0,0,1,2.588.815,2.918,2.918,0,0,1,.947,2.339V44H73.114V37.721a1.677,1.677,0,0,0-.449-1.27,1.573,1.573,0,0,0-1.133-.43,1.814,1.814,0,0,0-1.367.547,2.484,2.484,0,0,0-.527,1.768V44H66.8V37.75a1.721,1.721,0,0,0-.449-1.294,1.6,1.6,0,0,0-1.162-.435,1.757,1.757,0,0,0-1.357.576,2.751,2.751,0,0,0-.527,1.885V44H60.5V33.961h2.8v1.182a3.414,3.414,0,0,1,2.91-1.377,4.293,4.293,0,0,1,1.89.386,2.572,2.572,0,0,1,1.187,1.118A3.55,3.55,0,0,1,72.392,33.766Zm12.158,0a4.882,4.882,0,0,1,1.875.361,4.692,4.692,0,0,1,1.538,1.016A4.6,4.6,0,0,1,89,36.8a6.557,6.557,0,0,1,0,4.4,4.6,4.6,0,0,1-1.04,1.655,4.692,4.692,0,0,1-1.538,1.016,4.882,4.882,0,0,1-1.875.361,4.356,4.356,0,0,1-1.816-.371,2.846,2.846,0,0,1-1.26-1.055v6.074H78.661V33.961h2.666l.078,1.348a2.75,2.75,0,0,1,1.255-1.138A4.313,4.313,0,0,1,84.55,33.766ZM83.915,41.9a2.527,2.527,0,0,0,1.9-.786,3.332,3.332,0,0,0,0-4.229A2.688,2.688,0,0,0,82,36.9a3.275,3.275,0,0,0,0,4.2A2.531,2.531,0,0,0,83.915,41.9ZM94.2,35.553a3.259,3.259,0,0,1,1.318-1.206,4.023,4.023,0,0,1,1.963-.5v2.51a3.8,3.8,0,0,0-2.4.605,2.643,2.643,0,0,0-.742,2.148V44H91.5V33.961h2.7Zm14.316,3.281-.029.674h-7.441a2.6,2.6,0,0,0,.8,1.836,2.561,2.561,0,0,0,1.768.635,2.468,2.468,0,0,0,1.323-.347,2.131,2.131,0,0,0,.845-1.011l2.578.381a4.383,4.383,0,0,1-1.758,2.354,5.226,5.226,0,0,1-2.969.84,5.435,5.435,0,0,1-3.911-1.382,5.042,5.042,0,0,1-1.45-3.833,5.072,5.072,0,0,1,1.455-3.833,5.273,5.273,0,0,1,3.818-1.4,4.6,4.6,0,0,1,4.971,5.088Zm-4.951-3.1a2.222,2.222,0,0,0-2.441,1.934h4.609a2.114,2.114,0,0,0-.693-1.436A2.2,2.2,0,0,0,103.563,35.738ZM114.188,44.2a5.61,5.61,0,0,1-2.93-.7,2.972,2.972,0,0,1-1.436-2.09l2.354-.664a1.891,1.891,0,0,0,2.012,1.494A2.078,2.078,0,0,0,115.214,42a.8.8,0,0,0,.4-.776.821.821,0,0,0-.166-.518,1.315,1.315,0,0,0-.513-.371,6.387,6.387,0,0,0-.684-.264q-.337-.107-.894-.259t-.928-.288a6.215,6.215,0,0,1-.884-.376,3.77,3.77,0,0,1-.732-.518,2.086,2.086,0,0,1-.547-.786,2.836,2.836,0,0,1-.19-1.074,2.565,2.565,0,0,1,1.089-2.246,4.865,4.865,0,0,1,2.847-.762,4.988,4.988,0,0,1,2.627.645,2.917,2.917,0,0,1,1.348,2.012l-2.178.488a1.706,1.706,0,0,0-1.787-1.27,1.957,1.957,0,0,0-.986.225.722.722,0,0,0-.391.664.761.761,0,0,0,.059.3.6.6,0,0,0,.205.244,2.991,2.991,0,0,0,.283.186,2.137,2.137,0,0,0,.4.161q.264.083.439.127l.513.132.522.137q.537.146.942.293a5.519,5.519,0,0,1,.864.41,3.1,3.1,0,0,1,.757.591,2.635,2.635,0,0,1,.493.83,3.066,3.066,0,0,1,.2,1.118,3.02,3.02,0,0,1-.337,1.455,2.529,2.529,0,0,1-.923.981,4.492,4.492,0,0,1-1.3.527A6.763,6.763,0,0,1,114.188,44.2Zm14.385-2.92a9.391,9.391,0,0,0,.244,2.451V44H126.19l-.225-1.094a3.264,3.264,0,0,1-1.406.967,5.183,5.183,0,0,1-1.816.322,4.776,4.776,0,0,1-.937-.088,3.187,3.187,0,0,1-.845-.3,2.564,2.564,0,0,1-.7-.522,2.291,2.291,0,0,1-.469-.8,3.17,3.17,0,0,1-.176-1.089,3.02,3.02,0,0,1,.186-1.089,2.552,2.552,0,0,1,.488-.815,2.962,2.962,0,0,1,.791-.6,6.053,6.053,0,0,1,1-.43,11.9,11.9,0,0,1,1.191-.312l1.65-.371a1.82,1.82,0,0,0,.747-.317.633.633,0,0,0,.22-.5,1.036,1.036,0,0,0-.493-.967,2.3,2.3,0,0,0-1.2-.293,1.721,1.721,0,0,0-1.963,1.533l-2.49-.449A3.371,3.371,0,0,1,121.2,34.5a5.783,5.783,0,0,1,3.154-.737q4.219,0,4.219,3.623Zm-4.951,1.016a2.262,2.262,0,0,0,1.738-.728,3.066,3.066,0,0,0,.674-2.153l-2.383.674a2.816,2.816,0,0,0-1,.41.842.842,0,0,0-.347.723.935.935,0,0,0,.371.8A1.536,1.536,0,0,0,123.622,42.291Zm11.221,1.9a5.61,5.61,0,0,1-2.93-.7,2.972,2.972,0,0,1-1.436-2.09l2.354-.664a1.891,1.891,0,0,0,2.012,1.494A2.078,2.078,0,0,0,135.868,42a.8.8,0,0,0,.4-.776.821.821,0,0,0-.166-.518,1.315,1.315,0,0,0-.513-.371,6.387,6.387,0,0,0-.684-.264q-.337-.107-.894-.259t-.928-.288a6.215,6.215,0,0,1-.884-.376,3.769,3.769,0,0,1-.732-.518,2.086,2.086,0,0,1-.547-.786,2.836,2.836,0,0,1-.19-1.074,2.565,2.565,0,0,1,1.089-2.246,4.865,4.865,0,0,1,2.847-.762,4.988,4.988,0,0,1,2.627.645,2.917,2.917,0,0,1,1.348,2.012l-2.178.488a1.706,1.706,0,0,0-1.787-1.27,1.957,1.957,0,0,0-.986.225.722.722,0,0,0-.391.664.761.761,0,0,0,.059.3.6.6,0,0,0,.205.244,2.992,2.992,0,0,0,.283.186,2.137,2.137,0,0,0,.4.161q.264.083.439.127l.513.132.522.137q.537.146.942.293a5.519,5.519,0,0,1,.864.41,3.1,3.1,0,0,1,.757.591,2.635,2.635,0,0,1,.493.83,3.066,3.066,0,0,1,.2,1.118,3.02,3.02,0,0,1-.337,1.455,2.529,2.529,0,0,1-.923.981,4.492,4.492,0,0,1-1.3.527A6.763,6.763,0,0,1,134.843,44.2Z" transform="translate(1056 2741)" fill="#00223d"/>
    <path id="Trazado_2797" data-name="Trazado 2797" d="M10.614,19.2a7.877,7.877,0,0,1-2.876-.518,6.763,6.763,0,0,1-2.29-1.445,6.515,6.515,0,0,1-1.5-2.295,8,8,0,0,1-.547-3,7.644,7.644,0,0,1,.938-3.833A6.382,6.382,0,0,1,6.908,5.572a7.705,7.705,0,0,1,3.706-.879,7.488,7.488,0,0,1,4.141,1.143A6.255,6.255,0,0,1,17.284,8.98l-2.734,1a3.866,3.866,0,0,0-1.514-1.9,4.323,4.323,0,0,0-2.422-.684,4.145,4.145,0,0,0-3.086,1.23,4.528,4.528,0,0,0-1.211,3.32,4.534,4.534,0,0,0,1.216,3.325A4.14,4.14,0,0,0,10.614,16.5a4.307,4.307,0,0,0,2.417-.688A3.883,3.883,0,0,0,14.55,13.9l2.734,1a6.28,6.28,0,0,1-2.529,3.149A7.464,7.464,0,0,1,10.614,19.2Zm11.4-8.643a3.259,3.259,0,0,1,1.318-1.206,4.023,4.023,0,0,1,1.963-.5v2.51a3.8,3.8,0,0,0-2.4.605,2.643,2.643,0,0,0-.742,2.148V19H19.315V8.961h2.7Zm12.51-5.615L32.3,7.555H30.575l2.559-3.594Zm1.807,8.9-.029.674H28.856a2.6,2.6,0,0,0,.8,1.836,2.561,2.561,0,0,0,1.768.635,2.468,2.468,0,0,0,1.323-.347,2.131,2.131,0,0,0,.845-1.011L36.171,16a4.383,4.383,0,0,1-1.758,2.354,5.226,5.226,0,0,1-2.969.84,5.435,5.435,0,0,1-3.911-1.382,5.042,5.042,0,0,1-1.45-3.833,5.072,5.072,0,0,1,1.455-3.833,5.273,5.273,0,0,1,3.818-1.4,5.04,5.04,0,0,1,3.6,1.279A5.019,5.019,0,0,1,36.327,13.834Zm-4.951-3.1a2.222,2.222,0,0,0-2.441,1.934h4.609a2.114,2.114,0,0,0-.693-1.436A2.2,2.2,0,0,0,31.376,10.738ZM45.585,4H48.4V19H45.731l-.068-1.309a2.867,2.867,0,0,1-1.274,1.138,4.29,4.29,0,0,1-1.88.405,4.883,4.883,0,0,1-1.875-.361A4.516,4.516,0,0,1,38.056,16.2a6.106,6.106,0,0,1-.381-2.2,5.707,5.707,0,0,1,.664-2.8,4.55,4.55,0,0,1,1.753-1.821,4.827,4.827,0,0,1,2.417-.615,4.4,4.4,0,0,1,1.821.366,2.843,2.843,0,0,1,1.255,1.04ZM43.153,16.9a2.5,2.5,0,0,0,1.9-.8A2.932,2.932,0,0,0,45.81,14a2.938,2.938,0,0,0-.762-2.1,2.5,2.5,0,0,0-1.895-.806,2.53,2.53,0,0,0-1.909.791A2.937,2.937,0,0,0,40.487,14a2.924,2.924,0,0,0,.757,2.109A2.53,2.53,0,0,0,43.153,16.9Zm9.59-9.443a1.579,1.579,0,0,1-1.152-.474,1.555,1.555,0,0,1-.479-1.147A1.536,1.536,0,0,1,51.6,4.7a1.584,1.584,0,0,1,1.147-.474,1.626,1.626,0,0,1,1.611,1.611,1.626,1.626,0,0,1-1.611,1.621ZM51.308,19V8.961H54.14V19Zm9.482,0a3.032,3.032,0,0,1-2.266-.815,3.172,3.172,0,0,1-.8-2.319V11.119H55.751V8.961h.635a1.656,1.656,0,0,0,1.25-.42,2.162,2.162,0,0,0,.4-1.494V5.719h2.539V8.961h2.07v2.158h-2.07v4.443q0,1.3,1.162,1.3h.908V19Zm8.672.2a6.313,6.313,0,0,1-2.842-.615,4.6,4.6,0,0,1-1.948-1.807,5.384,5.384,0,0,1-.708-2.8,4.911,4.911,0,0,1,1.523-3.809,6.368,6.368,0,0,1,7.959,0,4.911,4.911,0,0,1,1.523,3.809,4.938,4.938,0,0,1-1.523,3.823A5.654,5.654,0,0,1,69.462,19.2Zm-.029-2.236a2.577,2.577,0,0,0,1.987-.82,3.071,3.071,0,0,0,.757-2.168A3.071,3.071,0,0,0,71.42,11.8a2.577,2.577,0,0,0-1.987-.82,2.483,2.483,0,0,0-1.929.825,3.1,3.1,0,0,0-.747,2.163,3.1,3.1,0,0,0,.747,2.163A2.483,2.483,0,0,0,69.433,16.959ZM80.595,19.2a5.61,5.61,0,0,1-2.93-.7,2.972,2.972,0,0,1-1.436-2.09l2.354-.664a1.891,1.891,0,0,0,2.012,1.494A2.078,2.078,0,0,0,81.62,17a.8.8,0,0,0,.4-.776.821.821,0,0,0-.166-.518,1.315,1.315,0,0,0-.513-.371,6.387,6.387,0,0,0-.684-.264q-.337-.107-.894-.259t-.928-.288a6.215,6.215,0,0,1-.884-.376,3.77,3.77,0,0,1-.732-.518,2.086,2.086,0,0,1-.547-.786,2.836,2.836,0,0,1-.19-1.074,2.565,2.565,0,0,1,1.089-2.246,4.865,4.865,0,0,1,2.847-.762,4.988,4.988,0,0,1,2.627.645,2.917,2.917,0,0,1,1.348,2.012l-2.178.488a1.706,1.706,0,0,0-1.787-1.27,1.957,1.957,0,0,0-.986.225.722.722,0,0,0-.391.664.761.761,0,0,0,.059.3.6.6,0,0,0,.205.244,2.991,2.991,0,0,0,.283.186,2.137,2.137,0,0,0,.4.161q.264.083.439.127l.513.132.522.137q.537.146.942.293a5.519,5.519,0,0,1,.864.41,3.1,3.1,0,0,1,.757.591,2.635,2.635,0,0,1,.493.83,3.066,3.066,0,0,1,.2,1.118,3.02,3.02,0,0,1-.337,1.455,2.529,2.529,0,0,1-.923.981,4.492,4.492,0,0,1-1.3.527A6.763,6.763,0,0,1,80.595,19.2ZM97.841,8.766a4.857,4.857,0,0,1,1.865.361,4.516,4.516,0,0,1,2.578,2.676,6.106,6.106,0,0,1,.381,2.2,6.106,6.106,0,0,1-.381,2.2,4.516,4.516,0,0,1-2.578,2.676,4.857,4.857,0,0,1-1.865.361,4.336,4.336,0,0,1-1.9-.405,2.808,2.808,0,0,1-1.265-1.138L94.608,19H91.942V4h2.813v6.182A2.8,2.8,0,0,1,96.01,9.137,4.414,4.414,0,0,1,97.841,8.766ZM97.187,16.9a2.53,2.53,0,0,0,1.909-.791A2.924,2.924,0,0,0,99.853,14a2.937,2.937,0,0,0-.757-2.119,2.53,2.53,0,0,0-1.909-.791,2.5,2.5,0,0,0-1.895.806A2.938,2.938,0,0,0,94.53,14a2.932,2.932,0,0,0,.757,2.1A2.5,2.5,0,0,0,97.187,16.9Zm15.83-.625a9.392,9.392,0,0,0,.244,2.451V19h-2.627l-.225-1.094a3.264,3.264,0,0,1-1.406.967,5.183,5.183,0,0,1-1.816.322,4.776,4.776,0,0,1-.937-.088,3.187,3.187,0,0,1-.845-.3,2.564,2.564,0,0,1-.7-.522,2.291,2.291,0,0,1-.469-.8,3.17,3.17,0,0,1-.176-1.089,3.02,3.02,0,0,1,.186-1.089,2.552,2.552,0,0,1,.488-.815,2.962,2.962,0,0,1,.791-.6,6.053,6.053,0,0,1,1-.43,11.9,11.9,0,0,1,1.191-.312l1.65-.371a1.82,1.82,0,0,0,.747-.317.633.633,0,0,0,.22-.5,1.036,1.036,0,0,0-.493-.967,2.3,2.3,0,0,0-1.2-.293,1.721,1.721,0,0,0-1.963,1.533l-2.49-.449a3.371,3.371,0,0,1,1.455-2.29,5.783,5.783,0,0,1,3.154-.737q4.219,0,4.219,3.623Zm-4.951,1.016a2.262,2.262,0,0,0,1.738-.728,3.066,3.066,0,0,0,.674-2.153l-2.383.674a2.816,2.816,0,0,0-1,.41.842.842,0,0,0-.347.723.935.935,0,0,0,.371.8A1.536,1.536,0,0,0,108.065,17.291Zm13.613-8.525a3.914,3.914,0,0,1,2.773.9,3.349,3.349,0,0,1,.967,2.573V19H122.6V12.848a1.749,1.749,0,0,0-.5-1.387,1.9,1.9,0,0,0-1.294-.439,2.643,2.643,0,0,0-.84.127,2.158,2.158,0,0,0-.7.4,1.748,1.748,0,0,0-.5.757,3.5,3.5,0,0,0-.19,1.162V19h-2.812V8.961h2.813v1.113A3.868,3.868,0,0,1,121.679,8.766Zm11.006,10.42a5.364,5.364,0,0,1-3.877-1.445,4.992,4.992,0,0,1-1.5-3.77,4.981,4.981,0,0,1,1.5-3.77,5.96,5.96,0,0,1,7.134-.469,4.316,4.316,0,0,1,1.68,2.725l-2.6.283a2.225,2.225,0,0,0-.84-1.318,2.554,2.554,0,0,0-1.523-.439,2.3,2.3,0,0,0-1.836.82,3.216,3.216,0,0,0-.7,2.168,3.22,3.22,0,0,0,.7,2.163,2.3,2.3,0,0,0,1.836.825,2.532,2.532,0,0,0,1.519-.439,2.277,2.277,0,0,0,.845-1.318l2.6.283a4.328,4.328,0,0,1-1.694,2.725A5.327,5.327,0,0,1,132.685,19.186Zm15.166-2.91a9.391,9.391,0,0,0,.244,2.451V19h-2.627l-.225-1.094a3.264,3.264,0,0,1-1.406.967,5.183,5.183,0,0,1-1.816.322,4.776,4.776,0,0,1-.937-.088,3.187,3.187,0,0,1-.845-.3,2.563,2.563,0,0,1-.7-.522,2.291,2.291,0,0,1-.469-.8A3.17,3.17,0,0,1,138.9,16.4a3.019,3.019,0,0,1,.186-1.089,2.552,2.552,0,0,1,.488-.815,2.962,2.962,0,0,1,.791-.6,6.052,6.052,0,0,1,1-.43,11.9,11.9,0,0,1,1.191-.312l1.65-.371a1.82,1.82,0,0,0,.747-.317.633.633,0,0,0,.22-.5,1.036,1.036,0,0,0-.493-.967,2.3,2.3,0,0,0-1.2-.293,1.721,1.721,0,0,0-1.963,1.533l-2.49-.449a3.371,3.371,0,0,1,1.455-2.29,5.783,5.783,0,0,1,3.154-.737q4.219,0,4.219,3.623ZM142.9,17.291a2.262,2.262,0,0,0,1.738-.728,3.066,3.066,0,0,0,.674-2.153l-2.383.674a2.816,2.816,0,0,0-1,.41.842.842,0,0,0-.347.723.935.935,0,0,0,.371.8A1.536,1.536,0,0,0,142.9,17.291Zm10.381-6.738A3.259,3.259,0,0,1,154.6,9.347a4.023,4.023,0,0,1,1.963-.5v2.51a3.8,3.8,0,0,0-2.4.605,2.643,2.643,0,0,0-.742,2.148V19h-2.832V8.961h2.7Zm6.367-3.1a1.579,1.579,0,0,1-1.152-.474,1.555,1.555,0,0,1-.479-1.147A1.536,1.536,0,0,1,158.5,4.7a1.584,1.584,0,0,1,1.147-.474,1.626,1.626,0,0,1,1.611,1.611,1.626,1.626,0,0,1-1.611,1.621ZM158.212,19V8.961h2.832V19Zm10.42.2a6.313,6.313,0,0,1-2.842-.615,4.6,4.6,0,0,1-1.948-1.807,5.384,5.384,0,0,1-.708-2.8,4.911,4.911,0,0,1,1.523-3.809,6.368,6.368,0,0,1,7.959,0,4.911,4.911,0,0,1,1.523,3.809,4.938,4.938,0,0,1-1.523,3.823A5.654,5.654,0,0,1,168.632,19.2Zm-.029-2.236a2.577,2.577,0,0,0,1.987-.82,3.071,3.071,0,0,0,.757-2.168,3.071,3.071,0,0,0-.757-2.168,2.577,2.577,0,0,0-1.987-.82,2.483,2.483,0,0,0-1.929.825,3.1,3.1,0,0,0-.747,2.163,3.1,3.1,0,0,0,.747,2.163A2.483,2.483,0,0,0,168.6,16.959ZM179.765,19.2a5.61,5.61,0,0,1-2.93-.7A2.972,2.972,0,0,1,175.4,16.4l2.354-.664a1.891,1.891,0,0,0,2.012,1.494A2.078,2.078,0,0,0,180.79,17a.8.8,0,0,0,.4-.776.821.821,0,0,0-.166-.518,1.315,1.315,0,0,0-.513-.371,6.388,6.388,0,0,0-.684-.264q-.337-.107-.894-.259t-.928-.288a6.215,6.215,0,0,1-.884-.376,3.769,3.769,0,0,1-.732-.518,2.086,2.086,0,0,1-.547-.786,2.836,2.836,0,0,1-.19-1.074,2.565,2.565,0,0,1,1.089-2.246,4.865,4.865,0,0,1,2.847-.762,4.988,4.988,0,0,1,2.627.645,2.917,2.917,0,0,1,1.348,2.012l-2.178.488a1.706,1.706,0,0,0-1.787-1.27,1.957,1.957,0,0,0-.986.225.722.722,0,0,0-.391.664.761.761,0,0,0,.059.3.6.6,0,0,0,.205.244,2.992,2.992,0,0,0,.283.186,2.136,2.136,0,0,0,.4.161q.264.083.439.127l.513.132.522.137q.537.146.942.293a5.519,5.519,0,0,1,.864.41,3.1,3.1,0,0,1,.757.591,2.635,2.635,0,0,1,.493.83,3.066,3.066,0,0,1,.2,1.118,3.02,3.02,0,0,1-.337,1.455,2.529,2.529,0,0,1-.923.981,4.492,4.492,0,0,1-1.3.527A6.763,6.763,0,0,1,179.765,19.2Z" transform="translate(607 2741)" fill="#00223d"/>
    <line id="Línea_109" data-name="Línea 109" x2="1120" transform="translate(140.5 2662.5)" fill="none" stroke="#7cb342" stroke-width="2"/>
    <g id="Grupo_10040" data-name="Grupo 10040" transform="translate(2454 6506)">
      <circle id="Elipse_497" data-name="Elipse 497" cx="60.5" cy="60.5" r="60.5" transform="translate(-2261 -3907)" fill="#7cb342"/>
      <path id="Trazado_1178" data-name="Trazado 1178" d="M53.993,0A53.993,53.993,0,1,1,0,53.993,53.993,53.993,0,0,1,53.993,0Z" transform="translate(-2254 -3900)" fill="#fff"/>
    </g>
    <g id="Grupo_10041" data-name="Grupo 10041" transform="translate(2677 6506)">
      <circle id="Elipse_497-2" data-name="Elipse 497" cx="60.5" cy="60.5" r="60.5" transform="translate(-2261 -3907)" fill="#7cb342"/>
      <path id="Trazado_1178-2" data-name="Trazado 1178" d="M53.993,0A53.993,53.993,0,1,1,0,53.993,53.993,53.993,0,0,1,53.993,0Z" transform="translate(-2254 -3900)" fill="#fff"/>
    </g>
    <g id="Grupo_10042" data-name="Grupo 10042" transform="translate(2901 6506)">
      <circle id="Elipse_497-3" data-name="Elipse 497" cx="60.5" cy="60.5" r="60.5" transform="translate(-2261 -3907)" fill="#7cb342"/>
      <path id="Trazado_1178-3" data-name="Trazado 1178" d="M53.993,0A53.993,53.993,0,1,1,0,53.993,53.993,53.993,0,0,1,53.993,0Z" transform="translate(-2254 -3900)" fill="#fff"/>
    </g>
    <g id="Grupo_10043" data-name="Grupo 10043" transform="translate(3126 6506)">
      <circle id="Elipse_497-4" data-name="Elipse 497" cx="60.5" cy="60.5" r="60.5" transform="translate(-2261 -3907)" fill="#7cb342"/>
      <path id="Trazado_1178-4" data-name="Trazado 1178" d="M53.993,0A53.993,53.993,0,1,1,0,53.993,53.993,53.993,0,0,1,53.993,0Z" transform="translate(-2254 -3900)" fill="#fff"/>
    </g>
    <g id="Grupo_10044" data-name="Grupo 10044" transform="translate(3350 6506)">
      <circle id="Elipse_497-5" data-name="Elipse 497" cx="60.5" cy="60.5" r="60.5" transform="translate(-2261 -3907)" fill="#7cb342"/>
      <path id="Trazado_1178-5" data-name="Trazado 1178" d="M53.993,0A53.993,53.993,0,1,1,0,53.993,53.993,53.993,0,0,1,53.993,0Z" transform="translate(-2254 -3900)" fill="#fff"/>
    </g>
    <g id="Grupo_10068" data-name="Grupo 10068" transform="translate(-0.717 -0.391)">
      <path id="Trazado_1909" data-name="Trazado 1909" d="M-1025.921,822.165l4.721,4.768-3.163,1.558-3.163-4.721Z" transform="translate(2190.712 1817.551)" fill="#7cb342" fill-rule="evenodd"/>
      <path id="Trazado_1910" data-name="Trazado 1910" d="M-1027.968,823.505l-1.558,3.163,4.721,4.768,1.605-3.163Z" transform="translate(2187.991 1819.375)" fill="#7cb342" fill-rule="evenodd"/>
      <rect id="Rectángulo_2803" data-name="Rectángulo 2803" width="14.211" height="12.653" transform="translate(1123.717 2674.559)" fill="#002b45"/>
      <path id="Trazado_1911" data-name="Trazado 1911" d="M-1026.846,821.091l7.885,9.49,3.163-11.095Z" transform="translate(2191.637 1813.905)" fill="#7cb342" fill-rule="evenodd"/>
      <rect id="Rectángulo_2804" data-name="Rectángulo 2804" width="14.21" height="28.516" transform="translate(1161.628 2658.696)" fill="#002b45"/>
      <path id="Trazado_1912" data-name="Trazado 1912" d="M-1008.839,830.247l-3.116-4.721-7.931,6.326-6.326-4.768-17.374,17.421,3.163,3.163,14.211-12.653,6.326,6.326Z" transform="translate(2168.862 1822.123)" fill="#7cb342" fill-rule="evenodd"/>
      <rect id="Rectángulo_2805" data-name="Rectángulo 2805" width="14.258" height="20.584" transform="translate(1142.648 2666.627)" fill="#002b45"/>
    </g>
    <g id="Grupo_10067" data-name="Grupo 10067" transform="translate(-1.753 -0.956)">
      <path id="Trazado_1913" data-name="Trazado 1913" d="M-1129.893,835.642l11.755-6.893,2.171,2.124-12.322,7.412Z" transform="translate(2051.443 1826.509)" fill="#7cb342" fill-rule="evenodd"/>
      <path id="Trazado_1914" data-name="Trazado 1914" d="M-1115.991,830.769l-12.322,6.893,1.6,2.644,12.322-6.893Z" transform="translate(2053.593 1829.256)" fill="#7cb342" fill-rule="evenodd"/>
      <path id="Trazado_1915" data-name="Trazado 1915" d="M-1095.615,859.118h0l-21.905,13.738c-3.21,2.124-6.989,1.086-9.633-1.605a7.443,7.443,0,0,1,1.6-12.133l2.127,3.163a3.948,3.948,0,0,0,2.122,7.412c3.212,0,5.384-3.73,3.212-6.373,0,0-13.362-16.948-17.092-21.15a8.4,8.4,0,0,1,2.691-12.7l19.217-9.536c3.211-1.605,7.506,0,9.631,3.163s1.086,7.412-2.124,10.056l-18.745,10.577-2.644-3.165c3.732-2.124,2.644-7.931-1.605-7.931a4.129,4.129,0,0,0-3.21,6.893c3.21,4.2,16.573,21.152,16.573,21.152a6.419,6.419,0,0,1,2.125,4.768s13.36-7.931,15.532-9.536c2.125-1.558,2.125-3.682.52-5.807l-10.15-12.7,3.21-2.125s8.026,9.539,10.669,12.7C-1090.8,851.14-1091.885,856.427-1095.615,859.118Z" transform="translate(2041.763 1813.654)" fill="#002b45" fill-rule="evenodd"/>
      <path id="Trazado_1916" data-name="Trazado 1916" d="M-1114.055,822.845a4.323,4.323,0,0,0-4.815-1.605l-12.844,6.373a8.862,8.862,0,0,1,3.779,6.893l12.275-6.893C-1113.489,826.527-1113.489,824.4-1114.055,822.845Z" transform="translate(2048.966 1816.028)" fill="#fff" fill-rule="evenodd"/>
    </g>
    <g id="Grupo_10065" data-name="Grupo 10065" transform="translate(-1.558 -1.229)">
      <path id="Trazado_1917" data-name="Trazado 1917" d="M-1304.634,830.551c-6.017,0-10.391,4.275-10.391,10.176a10.4,10.4,0,0,0,10.391,10.688,10.862,10.862,0,0,0,10.934-10.688C-1293.7,834.826-1298.622,830.551-1304.634,830.551Z" transform="translate(1799.574 1828.96)" fill="#7cb342" fill-rule="evenodd"/>
      <path id="Trazado_1918" data-name="Trazado 1918" d="M-1307.326,843.05v1.624h-1.638v-1.067c-1.093-.557-2.19-.557-3.281-1.069l.548-2.138a10.016,10.016,0,0,0,2.733,1.069c.547,0,.547,0,1.091-.557.547,0,1.1-.512,0-1.069-1.091-.51-3.824-1.069-3.824-3.206a3.225,3.225,0,0,1,2.733-3.205v-1.069h1.638v1.069a3.484,3.484,0,0,1,2.191.51,12.045,12.045,0,0,1-.55,2.183c-.548-.557-1.091-.557-2.188-.557-1.641,0-1.641,1.069-.543,1.069,1.641,1.069,3.824,1.626,3.824,3.763A2.548,2.548,0,0,1-1307.326,843.05Z" transform="translate(1803.357 1831.424)" fill="#fff" fill-rule="evenodd"/>
      <path id="Trazado_1919" data-name="Trazado 1919" d="M-1310.345,836.342h-10.934v-3.763h12.574A25.682,25.682,0,0,0-1310.345,836.342Z" transform="translate(1791.066 1831.719)" fill="#002b45" fill-rule="evenodd"/>
      <path id="Trazado_1920" data-name="Trazado 1920" d="M-1307.607,834.137h-13.672v-4.275h18.044A11.193,11.193,0,0,0-1307.607,834.137Z" transform="translate(1791.066 1828.022)" fill="#002b45" fill-rule="evenodd"/>
      <path id="Trazado_1921" data-name="Trazado 1921" d="M-1303.235,828.6h-18.044v-3.715h18.044Z" transform="translate(1791.066 1821.248)" fill="#002b45" fill-rule="evenodd"/>
      <path id="Trazado_1922" data-name="Trazado 1922" d="M-1303.235,831.684h-18.044v-4.322h18.044Z" transform="translate(1791.066 1824.621)" fill="#002b45" fill-rule="evenodd"/>
      <path id="Trazado_1923" data-name="Trazado 1923" d="M-1309.247,838.843h-12.031v-3.765h10.934A9.844,9.844,0,0,0-1309.247,838.843Z" transform="translate(1791.066 1835.119)" fill="#002b45" fill-rule="evenodd"/>
      <path id="Trazado_1924" data-name="Trazado 1924" d="M-1303.235,826.145h-18.044v-3.763h18.044Z" transform="translate(1791.066 1817.846)" fill="#002b45" fill-rule="evenodd"/>
      <path id="Trazado_1925" data-name="Trazado 1925" d="M-1305.423,841.855h-15.855v-4.277h12.574C-1307.607,839.159-1306.516,840.229-1305.423,841.855Z" transform="translate(1791.066 1838.52)" fill="#002b45" fill-rule="evenodd"/>
      <path id="Trazado_1926" data-name="Trazado 1926" d="M-1329.849,837.578h17.494v4.277h-17.494Z" transform="translate(1779.407 1838.52)" fill="#002b45" fill-rule="evenodd"/>
      <path id="Trazado_1927" data-name="Trazado 1927" d="M-1329.849,829.862h17.494v4.275h-17.494Z" transform="translate(1779.407 1828.022)" fill="#002b45" fill-rule="evenodd"/>
      <path id="Trazado_1928" data-name="Trazado 1928" d="M-1329.849,835.078h17.494v3.765h-17.494Z" transform="translate(1779.407 1835.119)" fill="#002b45" fill-rule="evenodd"/>
      <path id="Trazado_1929" data-name="Trazado 1929" d="M-1329.849,832.579h17.494v3.763h-17.494Z" transform="translate(1779.407 1831.719)" fill="#002b45" fill-rule="evenodd"/>
    </g>
    <g id="Grupo_10064" data-name="Grupo 10064" transform="translate(4.521 -0.324)">
      <path id="Trazado_1907" data-name="Trazado 1907" d="M-1419.623,829.646v21.9h39.347v-21.9Z" transform="translate(1657.271 1827.729)" fill="#002b45" fill-rule="evenodd"/>
      <path id="Trazado_1908" data-name="Trazado 1908" d="M-1389.993,846.189h-24.257a9.645,9.645,0,0,0-3.776-4.3v-6.94a6.419,6.419,0,0,0,3.776-3.727h24.257a9.422,9.422,0,0,0,4.31,3.727v6.94A16.58,16.58,0,0,0-1389.993,846.189Z" transform="translate(1659.443 1829.878)" fill="#fff" fill-rule="evenodd"/>
      <path id="Trazado_1934" data-name="Trazado 1934" d="M-1407.756,831.905a5.974,5.974,0,0,0-5.93,5.9,5.965,5.965,0,0,0,5.93,5.854,5.965,5.965,0,0,0,5.929-5.854A5.974,5.974,0,0,0-1407.756,831.905Z" transform="translate(1665.348 1830.802)" fill="#7cb342" fill-rule="evenodd"/>
      <path id="Trazado_1935" data-name="Trazado 1935" d="M-1409.392,839.226v1.086h-1.076v-.567a2.039,2.039,0,0,0-1.619-.519V837.62a3.34,3.34,0,0,0,2.157.519c.538,0,.538-.519,0-1.039a2.243,2.243,0,0,1-2.157-2.124c0-.567.538-1.086,1.619-1.605v-.566h1.076v.566a2.024,2.024,0,0,1,1.615.519l-.538,1.086c-.538,0-1.076-.567-1.615-.567s-.538.567,0,1.086,2.153.519,2.153,2.124A1.417,1.417,0,0,1-1409.392,839.226Z" transform="translate(1667.522 1832.026)" fill="#fff" fill-rule="evenodd"/>
      <path id="Trazado_1936" data-name="Trazado 1936" d="M-1379.582,822.846v4.3h-42.581v24.547h-4.31V822.846Z" transform="translate(1647.952 1818.478)" fill="#002b45" fill-rule="evenodd"/>
      <path id="Trazado_1937" data-name="Trazado 1937" d="M-1379.928,826.353V830.6h-38.809v20.867h-4.31V826.353Z" transform="translate(1652.612 1823.249)" fill="#7cb342" fill-rule="evenodd"/>
    </g>
    <g id="Grupo_10066" data-name="Grupo 10066" transform="translate(-0.404 -1.023)">
      <path id="Trazado_1930" data-name="Trazado 1930" d="M-1231.9,833.865h9.959v2.691h-9.959Z" transform="translate(1912.662 1833.469)" fill="#7cb342" fill-rule="evenodd"/>
      <path id="Trazado_1931" data-name="Trazado 1931" d="M-1213.587,831.805H-1231.9V834.5h18.315Z" transform="translate(1912.662 1830.666)" fill="#7cb342" fill-rule="evenodd"/>
      <path id="Trazado_1932" data-name="Trazado 1932" d="M-1183.8,851.087v3.258a3.723,3.723,0,0,1-3.871,3.777h-43.9a3.723,3.723,0,0,1-3.871-3.777V827.862c0-2.124,1.652-4.3,3.871-4.3h43.9c2.219,0,3.871,2.172,3.871,4.3v4.343a8.651,8.651,0,0,0-3.871-.52v-2.738c0-.52-.567-1.086-1.652-1.086h-40.551c-1.133,0-1.7.566-1.7,1.086v3.257h40.031c-3.352,1.086-6.7,3.777-7.789,7.034h-32.242v13.5c0,1.039.566,1.605,1.7,1.605h40.551a1.459,1.459,0,0,0,1.652-1.605v-.567c-5.571,0-9.442-3.777-9.442-9.159,0-4.86,3.871-8.637,9.442-8.637,5,0,9.44,3.777,9.44,8.637A8.281,8.281,0,0,1-1183.8,851.087Z" transform="translate(1907.846 1819.457)" fill="#002b45" fill-rule="evenodd"/>
      <path id="Trazado_1933" data-name="Trazado 1933" d="M-1204.712,835.232c0-3.255-3.3-5.946-6.654-5.946-3.871,0-6.656,2.691-6.656,5.946a6.324,6.324,0,0,0,6.656,6.468A6.634,6.634,0,0,0-1204.712,835.232Z" transform="translate(1931.544 1827.239)" fill="#fff" fill-rule="evenodd"/>
      <path id="Trazado_1938" data-name="Trazado 1938" d="M-1212.7,837.932v1.232h-1.244v-.81c-.826-.423-1.66-.423-2.486-.812l.416-1.619a7.6,7.6,0,0,0,2.07.81c.416,0,.416,0,.828-.423.415,0,.831-.387,0-.81-.828-.387-2.9-.81-2.9-2.432a2.446,2.446,0,0,1,2.07-2.431v-.81h1.244v.81a2.634,2.634,0,0,1,1.66.387,9.13,9.13,0,0,1-.415,1.657c-.415-.423-.829-.423-1.66-.423-1.244,0-1.244.81-.413.81,1.244.81,2.9,1.232,2.9,2.854A1.933,1.933,0,0,1-1212.7,837.932Z" transform="translate(1933.708 1827.977)" fill="#7cb342" fill-rule="evenodd"/>
    </g>
  </g>
</svg>
