<svg xmlns="http://www.w3.org/2000/svg" width="1120.5" height="218" viewBox="0 0 1120.5 218">
  <g id="Grupo_10108" data-name="Grupo 10108" transform="translate(-140.5 -3127)">
    <rect id="Rectángulo_2802" data-name="Rectángulo 2802" width="1120" height="144" transform="translate(141 3201)" fill="#dcedc8" opacity="0.5"/>
    <path id="Trazado_2800" data-name="Trazado 2800" d="M57.064,4.889H60.18L54.965,19H51.742L46.557,4.889h3.105l3.7,10.693Zm13.311,8.945-.029.674H62.9a2.6,2.6,0,0,0,.8,1.836,2.561,2.561,0,0,0,1.768.635,2.468,2.468,0,0,0,1.323-.347,2.131,2.131,0,0,0,.845-1.011L70.219,16a4.383,4.383,0,0,1-1.758,2.354,5.226,5.226,0,0,1-2.969.84,5.435,5.435,0,0,1-3.911-1.382,5.042,5.042,0,0,1-1.45-3.833,5.072,5.072,0,0,1,1.455-3.833,5.273,5.273,0,0,1,3.818-1.4,5.04,5.04,0,0,1,3.6,1.279A5.019,5.019,0,0,1,70.375,13.834Zm-4.951-3.1a2.222,2.222,0,0,0-2.441,1.934h4.609a2.114,2.114,0,0,0-.693-1.436A2.2,2.2,0,0,0,65.424,10.738ZM78.588,8.766a3.564,3.564,0,0,1,2.651.952,3.831,3.831,0,0,1,.942,2.808V19H79.359V12.984a1.967,1.967,0,0,0-.5-1.5,1.871,1.871,0,0,0-1.328-.464,2.565,2.565,0,0,0-.786.117,2.248,2.248,0,0,0-.7.376,1.7,1.7,0,0,0-.522.757,3.477,3.477,0,0,0-.2,1.191V19H72.514V4h2.813v6.162A3.974,3.974,0,0,1,78.588,8.766Zm6.855-1.182L88,3.99l1.387.977L87.172,7.584ZM84.887,19V8.961h2.832V19Zm10.283.186a5.364,5.364,0,0,1-3.877-1.445,4.992,4.992,0,0,1-1.5-3.77,4.981,4.981,0,0,1,1.5-3.77,5.96,5.96,0,0,1,7.134-.469,4.316,4.316,0,0,1,1.68,2.725l-2.6.283a2.226,2.226,0,0,0-.84-1.318,2.554,2.554,0,0,0-1.523-.439,2.3,2.3,0,0,0-1.836.82,3.216,3.216,0,0,0-.7,2.168,3.22,3.22,0,0,0,.7,2.163,2.3,2.3,0,0,0,1.836.825,2.532,2.532,0,0,0,1.519-.439A2.277,2.277,0,0,0,97.5,15.2l2.6.283a4.328,4.328,0,0,1-1.694,2.725A5.327,5.327,0,0,1,95.17,19.186ZM108.754,8.961h2.813V19H108.9l-.068-1.211a3.834,3.834,0,0,1-3.193,1.406,3.914,3.914,0,0,1-2.773-.9,3.349,3.349,0,0,1-.967-2.573V8.961h2.822v6.152a1.735,1.735,0,0,0,.5,1.377,1.909,1.909,0,0,0,1.3.439,2.264,2.264,0,0,0,1.6-.571,2.454,2.454,0,0,0,.63-1.86ZM114.477,19V4h2.842V19Zm10.43.2a6.313,6.313,0,0,1-2.842-.615,4.6,4.6,0,0,1-1.948-1.807,5.384,5.384,0,0,1-.708-2.8,4.911,4.911,0,0,1,1.523-3.809,6.368,6.368,0,0,1,7.959,0,4.911,4.911,0,0,1,1.523,3.809,4.938,4.938,0,0,1-1.523,3.823A5.654,5.654,0,0,1,124.906,19.2Zm-.029-2.236a2.577,2.577,0,0,0,1.987-.82,3.071,3.071,0,0,0,.757-2.168,3.071,3.071,0,0,0-.757-2.168,2.577,2.577,0,0,0-1.987-.82,2.483,2.483,0,0,0-1.929.825,3.1,3.1,0,0,0-.747,2.163,3.1,3.1,0,0,0,.747,2.163A2.483,2.483,0,0,0,124.877,16.959ZM136.039,19.2a5.61,5.61,0,0,1-2.93-.7,2.972,2.972,0,0,1-1.436-2.09l2.354-.664a1.891,1.891,0,0,0,2.012,1.494A2.078,2.078,0,0,0,137.064,17a.8.8,0,0,0,.4-.776.821.821,0,0,0-.166-.518,1.315,1.315,0,0,0-.513-.371,6.388,6.388,0,0,0-.684-.264q-.337-.107-.894-.259t-.928-.288a6.215,6.215,0,0,1-.884-.376,3.769,3.769,0,0,1-.732-.518,2.086,2.086,0,0,1-.547-.786,2.836,2.836,0,0,1-.19-1.074,2.565,2.565,0,0,1,1.089-2.246,4.865,4.865,0,0,1,2.847-.762,4.988,4.988,0,0,1,2.627.645,2.917,2.917,0,0,1,1.348,2.012l-2.178.488a1.706,1.706,0,0,0-1.787-1.27,1.957,1.957,0,0,0-.986.225.722.722,0,0,0-.391.664.761.761,0,0,0,.059.3.6.6,0,0,0,.205.244,2.992,2.992,0,0,0,.283.186,2.136,2.136,0,0,0,.4.161q.264.083.439.127l.513.132.522.137q.537.146.942.293a5.519,5.519,0,0,1,.864.41,3.1,3.1,0,0,1,.757.591,2.635,2.635,0,0,1,.493.83,3.066,3.066,0,0,1,.2,1.118,3.02,3.02,0,0,1-.337,1.455,2.529,2.529,0,0,1-.923.981,4.492,4.492,0,0,1-1.3.527A6.763,6.763,0,0,1,136.039,19.2Z" transform="translate(160 3279)" fill="#00223d"/>
    <path id="Trazado_2803" data-name="Trazado 2803" d="M44.4,19h-2.92L40.551,8.365,36.977,19H35.082L31.508,8.365,30.57,19h-2.93L28.822,4.889H33l3.008,8.857,3.047-8.857h4.18Zm10.869-2.725a9.392,9.392,0,0,0,.244,2.451V19H52.885l-.225-1.094a3.264,3.264,0,0,1-1.406.967,5.183,5.183,0,0,1-1.816.322,4.776,4.776,0,0,1-.937-.088,3.187,3.187,0,0,1-.845-.3,2.563,2.563,0,0,1-.7-.522,2.291,2.291,0,0,1-.469-.8,3.17,3.17,0,0,1-.176-1.089,3.02,3.02,0,0,1,.186-1.089,2.552,2.552,0,0,1,.488-.815,2.962,2.962,0,0,1,.791-.6,6.052,6.052,0,0,1,1-.43,11.9,11.9,0,0,1,1.191-.312l1.65-.371a1.82,1.82,0,0,0,.747-.317.633.633,0,0,0,.22-.5A1.036,1.036,0,0,0,52.089,11a2.3,2.3,0,0,0-1.2-.293,1.721,1.721,0,0,0-1.963,1.533l-2.49-.449A3.371,3.371,0,0,1,47.895,9.5a5.783,5.783,0,0,1,3.154-.737q4.219,0,4.219,3.623Zm-4.951,1.016a2.262,2.262,0,0,0,1.738-.728,3.066,3.066,0,0,0,.674-2.153l-2.383.674a2.816,2.816,0,0,0-1,.41.842.842,0,0,0-.347.723.935.935,0,0,0,.371.8A1.536,1.536,0,0,0,50.316,17.291ZM61.605,19a3.032,3.032,0,0,1-2.266-.815,3.172,3.172,0,0,1-.8-2.319V11.119H56.566V8.961H57.2a1.656,1.656,0,0,0,1.25-.42,2.162,2.162,0,0,0,.4-1.494V5.719h2.539V8.961h2.07v2.158h-2.07v4.443q0,1.3,1.162,1.3h.908V19Zm13.438-5.166-.029.674H67.572a2.6,2.6,0,0,0,.8,1.836,2.561,2.561,0,0,0,1.768.635,2.468,2.468,0,0,0,1.323-.347,2.131,2.131,0,0,0,.845-1.011L74.887,16a4.383,4.383,0,0,1-1.758,2.354,5.226,5.226,0,0,1-2.969.84,5.435,5.435,0,0,1-3.911-1.382A5.042,5.042,0,0,1,64.8,13.98a5.072,5.072,0,0,1,1.455-3.833,5.273,5.273,0,0,1,3.818-1.4,5.04,5.04,0,0,1,3.6,1.279A5.019,5.019,0,0,1,75.043,13.834Zm-4.951-3.1a2.222,2.222,0,0,0-2.441,1.934H72.26a2.114,2.114,0,0,0-.693-1.436A2.2,2.2,0,0,0,70.092,10.738Zm9.785-.186A3.259,3.259,0,0,1,81.2,9.347a4.023,4.023,0,0,1,1.963-.5v2.51a3.8,3.8,0,0,0-2.4.605,2.643,2.643,0,0,0-.742,2.148V19H77.182V8.961h2.7Zm6.367-3.1a1.579,1.579,0,0,1-1.152-.474,1.555,1.555,0,0,1-.479-1.147A1.536,1.536,0,0,1,85.1,4.7a1.584,1.584,0,0,1,1.147-.474,1.626,1.626,0,0,1,1.611,1.611,1.626,1.626,0,0,1-1.611,1.621ZM84.809,19V8.961h2.832V19Zm13.975-2.725a9.392,9.392,0,0,0,.244,2.451V19H96.4l-.225-1.094a3.264,3.264,0,0,1-1.406.967,5.183,5.183,0,0,1-1.816.322,4.776,4.776,0,0,1-.937-.088,3.187,3.187,0,0,1-.845-.3,2.564,2.564,0,0,1-.7-.522,2.291,2.291,0,0,1-.469-.8,3.17,3.17,0,0,1-.176-1.089,3.02,3.02,0,0,1,.186-1.089A2.552,2.552,0,0,1,90.5,14.5a2.962,2.962,0,0,1,.791-.6,6.053,6.053,0,0,1,1-.43,11.9,11.9,0,0,1,1.191-.312l1.65-.371a1.82,1.82,0,0,0,.747-.317.633.633,0,0,0,.22-.5A1.036,1.036,0,0,0,95.6,11a2.3,2.3,0,0,0-1.2-.293,1.721,1.721,0,0,0-1.963,1.533l-2.49-.449A3.371,3.371,0,0,1,91.41,9.5a5.783,5.783,0,0,1,3.154-.737q4.219,0,4.219,3.623Zm-4.951,1.016a2.262,2.262,0,0,0,1.738-.728,3.066,3.066,0,0,0,.674-2.153l-2.383.674a2.816,2.816,0,0,0-1,.41.842.842,0,0,0-.347.723.935.935,0,0,0,.371.8A1.536,1.536,0,0,0,93.832,17.291ZM112.6,8.766a4.883,4.883,0,0,1,1.875.361,4.692,4.692,0,0,1,1.538,1.016,4.6,4.6,0,0,1,1.04,1.655,6.146,6.146,0,0,1,.381,2.2,6.146,6.146,0,0,1-.381,2.2,4.6,4.6,0,0,1-1.04,1.655,4.692,4.692,0,0,1-1.538,1.016,4.883,4.883,0,0,1-1.875.361,4.356,4.356,0,0,1-1.816-.371,2.846,2.846,0,0,1-1.26-1.055v6.074h-2.812V8.961h2.666l.078,1.348a2.75,2.75,0,0,1,1.255-1.138A4.313,4.313,0,0,1,112.6,8.766Zm-.635,8.135a2.527,2.527,0,0,0,1.9-.786A2.92,2.92,0,0,0,114.623,14a2.92,2.92,0,0,0-.757-2.114,2.688,2.688,0,0,0-3.813.015,2.921,2.921,0,0,0-.762,2.1,2.921,2.921,0,0,0,.762,2.1A2.531,2.531,0,0,0,111.967,16.9Zm10.283-6.348a3.259,3.259,0,0,1,1.318-1.206,4.023,4.023,0,0,1,1.963-.5v2.51a3.8,3.8,0,0,0-2.4.605,2.643,2.643,0,0,0-.742,2.148V19h-2.832V8.961h2.7Zm6.367-3.1a1.579,1.579,0,0,1-1.152-.474,1.555,1.555,0,0,1-.479-1.147A1.536,1.536,0,0,1,127.47,4.7a1.584,1.584,0,0,1,1.147-.474,1.626,1.626,0,0,1,1.611,1.611,1.626,1.626,0,0,1-1.611,1.621ZM127.182,19V8.961h2.832V19ZM144.818,8.766a3.836,3.836,0,0,1,2.588.815,2.918,2.918,0,0,1,.947,2.339V19h-2.812V12.721a1.677,1.677,0,0,0-.449-1.27,1.573,1.573,0,0,0-1.133-.43,1.814,1.814,0,0,0-1.367.547,2.484,2.484,0,0,0-.527,1.768V19h-2.842V12.75a1.721,1.721,0,0,0-.449-1.294,1.6,1.6,0,0,0-1.162-.435,1.757,1.757,0,0,0-1.357.576,2.751,2.751,0,0,0-.527,1.885V19h-2.8V8.961h2.8v1.182a3.414,3.414,0,0,1,2.91-1.377,4.293,4.293,0,0,1,1.89.386,2.572,2.572,0,0,1,1.187,1.118A3.55,3.55,0,0,1,144.818,8.766Zm14.5,7.51a9.391,9.391,0,0,0,.244,2.451V19h-2.627l-.225-1.094a3.264,3.264,0,0,1-1.406.967,5.183,5.183,0,0,1-1.816.322,4.776,4.776,0,0,1-.937-.088,3.187,3.187,0,0,1-.845-.3,2.563,2.563,0,0,1-.7-.522,2.291,2.291,0,0,1-.469-.8,3.17,3.17,0,0,1-.176-1.089,3.019,3.019,0,0,1,.186-1.089,2.552,2.552,0,0,1,.488-.815,2.962,2.962,0,0,1,.791-.6,6.052,6.052,0,0,1,1-.43,11.9,11.9,0,0,1,1.191-.312l1.65-.371a1.82,1.82,0,0,0,.747-.317.633.633,0,0,0,.22-.5,1.036,1.036,0,0,0-.493-.967,2.3,2.3,0,0,0-1.2-.293,1.721,1.721,0,0,0-1.963,1.533l-2.49-.449a3.371,3.371,0,0,1,1.455-2.29,5.783,5.783,0,0,1,3.154-.737q4.219,0,4.219,3.623Zm-4.951,1.016a2.262,2.262,0,0,0,1.738-.728,3.066,3.066,0,0,0,.674-2.153l-2.383.674a2.816,2.816,0,0,0-1,.41.842.842,0,0,0-.347.723.935.935,0,0,0,.371.8A1.536,1.536,0,0,0,154.369,17.291ZM55.849,38.834l-.029.674H48.378a2.6,2.6,0,0,0,.8,1.836,2.561,2.561,0,0,0,1.768.635,2.468,2.468,0,0,0,1.323-.347,2.131,2.131,0,0,0,.845-1.011L55.692,41a4.383,4.383,0,0,1-1.758,2.354,5.226,5.226,0,0,1-2.969.84,5.435,5.435,0,0,1-3.911-1.382A5.042,5.042,0,0,1,45.6,38.98a5.072,5.072,0,0,1,1.455-3.833,5.273,5.273,0,0,1,3.818-1.4,4.6,4.6,0,0,1,4.971,5.088Zm-4.951-3.1a2.222,2.222,0,0,0-2.441,1.934h4.609a2.114,2.114,0,0,0-.693-1.436A2.2,2.2,0,0,0,50.9,35.738Zm13.721-3.281a1.579,1.579,0,0,1-1.152-.474,1.555,1.555,0,0,1-.479-1.147,1.536,1.536,0,0,1,.483-1.138,1.584,1.584,0,0,1,1.147-.474,1.616,1.616,0,0,1,0,3.232ZM63.183,44V33.961h2.832V44Zm11.67-10.234a3.914,3.914,0,0,1,2.773.9,3.349,3.349,0,0,1,.967,2.573V44H75.771V37.848a1.749,1.749,0,0,0-.5-1.387,1.9,1.9,0,0,0-1.294-.439,2.643,2.643,0,0,0-.84.127,2.158,2.158,0,0,0-.7.4,1.748,1.748,0,0,0-.5.757,3.5,3.5,0,0,0-.19,1.162V44H68.925V33.961h2.813v1.113A3.868,3.868,0,0,1,74.853,33.766Zm10,10.43a5.61,5.61,0,0,1-2.93-.7,2.972,2.972,0,0,1-1.436-2.09l2.354-.664a1.891,1.891,0,0,0,2.012,1.494A2.078,2.078,0,0,0,85.878,42a.8.8,0,0,0,.4-.776.821.821,0,0,0-.166-.518,1.315,1.315,0,0,0-.513-.371,6.387,6.387,0,0,0-.684-.264q-.337-.107-.894-.259t-.928-.288a6.215,6.215,0,0,1-.884-.376,3.77,3.77,0,0,1-.732-.518,2.086,2.086,0,0,1-.547-.786,2.836,2.836,0,0,1-.19-1.074,2.565,2.565,0,0,1,1.089-2.246,4.865,4.865,0,0,1,2.847-.762,4.988,4.988,0,0,1,2.627.645,2.917,2.917,0,0,1,1.348,2.012l-2.178.488a1.706,1.706,0,0,0-1.787-1.27,1.957,1.957,0,0,0-.986.225.722.722,0,0,0-.391.664.761.761,0,0,0,.059.3.6.6,0,0,0,.205.244,2.991,2.991,0,0,0,.283.186,2.137,2.137,0,0,0,.4.161q.264.083.439.127l.513.132.522.137q.537.146.942.293a5.519,5.519,0,0,1,.864.41,3.1,3.1,0,0,1,.757.591,2.635,2.635,0,0,1,.493.83,3.066,3.066,0,0,1,.2,1.118,3.02,3.02,0,0,1-.337,1.455,2.529,2.529,0,0,1-.923.981,4.492,4.492,0,0,1-1.3.527A6.763,6.763,0,0,1,84.853,44.2Zm12.8-10.234h2.813V44H97.8l-.068-1.211A3.834,3.834,0,0,1,94.54,44.2a3.914,3.914,0,0,1-2.773-.9,3.349,3.349,0,0,1-.967-2.573V33.961h2.822v6.152a1.735,1.735,0,0,0,.5,1.377,1.909,1.909,0,0,0,1.3.439,2.264,2.264,0,0,0,1.6-.571,2.454,2.454,0,0,0,.63-1.86Zm17.617-.2a3.836,3.836,0,0,1,2.588.815,2.918,2.918,0,0,1,.947,2.339V44H116V37.721a1.677,1.677,0,0,0-.449-1.27,1.573,1.573,0,0,0-1.133-.43,1.814,1.814,0,0,0-1.367.547,2.484,2.484,0,0,0-.527,1.768V44h-2.842V37.75a1.721,1.721,0,0,0-.449-1.294,1.6,1.6,0,0,0-1.162-.435,1.757,1.757,0,0,0-1.357.576,2.751,2.751,0,0,0-.527,1.885V44h-2.8V33.961h2.8v1.182a3.414,3.414,0,0,1,2.91-1.377,4.293,4.293,0,0,1,1.89.386,2.572,2.572,0,0,1,1.187,1.118A3.55,3.55,0,0,1,115.272,33.766ZM126.22,44.2a6.313,6.313,0,0,1-2.842-.615,4.6,4.6,0,0,1-1.948-1.807,5.384,5.384,0,0,1-.708-2.8,4.911,4.911,0,0,1,1.523-3.809,6.368,6.368,0,0,1,7.959,0,4.911,4.911,0,0,1,1.523,3.809,4.938,4.938,0,0,1-1.523,3.823A5.654,5.654,0,0,1,126.22,44.2Zm-.029-2.236a2.577,2.577,0,0,0,1.987-.82,3.484,3.484,0,0,0,0-4.336,2.577,2.577,0,0,0-1.987-.82,2.483,2.483,0,0,0-1.929.825,3.505,3.505,0,0,0,0,4.326A2.483,2.483,0,0,0,126.19,41.959ZM137.353,44.2a5.61,5.61,0,0,1-2.93-.7,2.972,2.972,0,0,1-1.436-2.09l2.354-.664a1.891,1.891,0,0,0,2.012,1.494A2.078,2.078,0,0,0,138.378,42a.8.8,0,0,0,.4-.776.821.821,0,0,0-.166-.518,1.315,1.315,0,0,0-.513-.371,6.387,6.387,0,0,0-.684-.264q-.337-.107-.894-.259t-.928-.288a6.215,6.215,0,0,1-.884-.376,3.769,3.769,0,0,1-.732-.518,2.086,2.086,0,0,1-.547-.786,2.836,2.836,0,0,1-.19-1.074,2.565,2.565,0,0,1,1.089-2.246,4.865,4.865,0,0,1,2.847-.762,4.988,4.988,0,0,1,2.627.645,2.917,2.917,0,0,1,1.348,2.012l-2.178.488a1.706,1.706,0,0,0-1.787-1.27,1.957,1.957,0,0,0-.986.225.722.722,0,0,0-.391.664.761.761,0,0,0,.059.3.6.6,0,0,0,.205.244,2.992,2.992,0,0,0,.283.186,2.137,2.137,0,0,0,.4.161q.264.083.439.127l.513.132.522.137q.537.146.942.293a5.519,5.519,0,0,1,.864.41,3.1,3.1,0,0,1,.757.591,2.635,2.635,0,0,1,.493.83,3.066,3.066,0,0,1,.2,1.118,3.02,3.02,0,0,1-.337,1.455,2.529,2.529,0,0,1-.923.981,4.492,4.492,0,0,1-1.3.527A6.763,6.763,0,0,1,137.353,44.2Z" transform="translate(832 3279)" fill="#00223d"/>
    <path id="Trazado_2801" data-name="Trazado 2801" d="M39.506,4.889h2.93V19h-2.93V13.2H33.539V19h-2.93V4.889h2.93V10.65h5.967Zm15.6,8.945-.029.674H47.631a2.6,2.6,0,0,0,.8,1.836,2.561,2.561,0,0,0,1.768.635,2.468,2.468,0,0,0,1.323-.347,2.131,2.131,0,0,0,.845-1.011L54.945,16a4.383,4.383,0,0,1-1.758,2.354,5.226,5.226,0,0,1-2.969.84,5.435,5.435,0,0,1-3.911-1.382,5.042,5.042,0,0,1-1.45-3.833,5.072,5.072,0,0,1,1.455-3.833,5.273,5.273,0,0,1,3.818-1.4,5.04,5.04,0,0,1,3.6,1.279A5.019,5.019,0,0,1,55.1,13.834Zm-4.951-3.1a2.222,2.222,0,0,0-2.441,1.934h4.609a2.114,2.114,0,0,0-.693-1.436A2.2,2.2,0,0,0,50.15,10.738Zm9.785-.186a3.259,3.259,0,0,1,1.318-1.206,4.023,4.023,0,0,1,1.963-.5v2.51a3.8,3.8,0,0,0-2.4.605,2.643,2.643,0,0,0-.742,2.148V19H57.24V8.961h2.7Zm7.627,0a3.259,3.259,0,0,1,1.318-1.206,4.023,4.023,0,0,1,1.963-.5v2.51a3.8,3.8,0,0,0-2.4.605,2.643,2.643,0,0,0-.742,2.148V19H64.867V8.961h2.7Zm13.105,5.723a9.392,9.392,0,0,0,.244,2.451V19H78.285l-.225-1.094a3.264,3.264,0,0,1-1.406.967,5.183,5.183,0,0,1-1.816.322,4.776,4.776,0,0,1-.937-.088,3.187,3.187,0,0,1-.845-.3,2.564,2.564,0,0,1-.7-.522,2.291,2.291,0,0,1-.469-.8,3.17,3.17,0,0,1-.176-1.089,3.02,3.02,0,0,1,.186-1.089,2.552,2.552,0,0,1,.488-.815,2.962,2.962,0,0,1,.791-.6,6.053,6.053,0,0,1,1-.43,11.9,11.9,0,0,1,1.191-.312l1.65-.371a1.82,1.82,0,0,0,.747-.317.633.633,0,0,0,.22-.5A1.036,1.036,0,0,0,77.489,11a2.3,2.3,0,0,0-1.2-.293,1.721,1.721,0,0,0-1.963,1.533l-2.49-.449A3.371,3.371,0,0,1,73.295,9.5a5.783,5.783,0,0,1,3.154-.737q4.219,0,4.219,3.623Zm-4.951,1.016a2.262,2.262,0,0,0,1.738-.728,3.066,3.066,0,0,0,.674-2.153l-2.383.674a2.816,2.816,0,0,0-1,.41.842.842,0,0,0-.347.723.935.935,0,0,0,.371.8A1.536,1.536,0,0,0,75.717,17.291ZM95.3,8.766a3.836,3.836,0,0,1,2.588.815,2.918,2.918,0,0,1,.947,2.339V19H96.02V12.721a1.677,1.677,0,0,0-.449-1.27,1.573,1.573,0,0,0-1.133-.43,1.814,1.814,0,0,0-1.367.547,2.484,2.484,0,0,0-.527,1.768V19H89.7V12.75a1.721,1.721,0,0,0-.449-1.294,1.6,1.6,0,0,0-1.162-.435,1.757,1.757,0,0,0-1.357.576,2.751,2.751,0,0,0-.527,1.885V19H83.4V8.961h2.8v1.182a3.414,3.414,0,0,1,2.91-1.377A4.293,4.293,0,0,1,91,9.151a2.572,2.572,0,0,1,1.187,1.118A3.55,3.55,0,0,1,95.3,8.766ZM103,7.457a1.579,1.579,0,0,1-1.152-.474,1.555,1.555,0,0,1-.479-1.147,1.536,1.536,0,0,1,.483-1.138A1.584,1.584,0,0,1,103,4.225a1.626,1.626,0,0,1,1.611,1.611A1.626,1.626,0,0,1,103,7.457ZM101.566,19V8.961H104.4V19Zm15.186-5.166-.029.674h-7.441a2.6,2.6,0,0,0,.8,1.836,2.561,2.561,0,0,0,1.768.635,2.468,2.468,0,0,0,1.323-.347,2.131,2.131,0,0,0,.845-1.011L116.6,16a4.383,4.383,0,0,1-1.758,2.354,5.226,5.226,0,0,1-2.969.84,5.435,5.435,0,0,1-3.911-1.382,5.042,5.042,0,0,1-1.45-3.833,5.072,5.072,0,0,1,1.455-3.833,5.273,5.273,0,0,1,3.818-1.4,5.04,5.04,0,0,1,3.6,1.279A5.019,5.019,0,0,1,116.752,13.834Zm-4.951-3.1a2.222,2.222,0,0,0-2.441,1.934h4.609a2.114,2.114,0,0,0-.693-1.436A2.2,2.2,0,0,0,111.8,10.738Zm13.018-1.973a3.914,3.914,0,0,1,2.773.9,3.349,3.349,0,0,1,.967,2.573V19h-2.822V12.848a1.749,1.749,0,0,0-.5-1.387,1.9,1.9,0,0,0-1.294-.439,2.643,2.643,0,0,0-.84.127,2.158,2.158,0,0,0-.7.4,1.748,1.748,0,0,0-.5.757,3.5,3.5,0,0,0-.19,1.162V19h-2.812V8.961H121.7v1.113A3.868,3.868,0,0,1,124.818,8.766ZM135.023,19a3.032,3.032,0,0,1-2.266-.815,3.171,3.171,0,0,1-.8-2.319V11.119h-1.973V8.961h.635a1.656,1.656,0,0,0,1.25-.42,2.162,2.162,0,0,0,.4-1.494V5.719h2.539V8.961h2.07v2.158h-2.07v4.443q0,1.3,1.162,1.3h.908V19Zm12.227-2.725a9.391,9.391,0,0,0,.244,2.451V19h-2.627l-.225-1.094a3.264,3.264,0,0,1-1.406.967,5.183,5.183,0,0,1-1.816.322,4.776,4.776,0,0,1-.937-.088,3.187,3.187,0,0,1-.845-.3,2.563,2.563,0,0,1-.7-.522,2.291,2.291,0,0,1-.469-.8,3.17,3.17,0,0,1-.176-1.089,3.019,3.019,0,0,1,.186-1.089,2.552,2.552,0,0,1,.488-.815,2.962,2.962,0,0,1,.791-.6,6.052,6.052,0,0,1,1-.43,11.9,11.9,0,0,1,1.191-.312l1.65-.371a1.82,1.82,0,0,0,.747-.317.633.633,0,0,0,.22-.5,1.036,1.036,0,0,0-.493-.967,2.3,2.3,0,0,0-1.2-.293,1.721,1.721,0,0,0-1.963,1.533l-2.49-.449a3.371,3.371,0,0,1,1.455-2.29,5.783,5.783,0,0,1,3.154-.737q4.219,0,4.219,3.623ZM142.3,17.291a2.262,2.262,0,0,0,1.738-.728,3.066,3.066,0,0,0,.674-2.153l-2.383.674a2.816,2.816,0,0,0-1,.41.842.842,0,0,0-.347.723.935.935,0,0,0,.371.8A1.536,1.536,0,0,0,142.3,17.291Zm11.221,1.9a5.61,5.61,0,0,1-2.93-.7,2.972,2.972,0,0,1-1.436-2.09l2.354-.664a1.891,1.891,0,0,0,2.012,1.494A2.078,2.078,0,0,0,154.545,17a.8.8,0,0,0,.4-.776.821.821,0,0,0-.166-.518,1.315,1.315,0,0,0-.513-.371,6.388,6.388,0,0,0-.684-.264q-.337-.107-.894-.259t-.928-.288a6.215,6.215,0,0,1-.884-.376,3.769,3.769,0,0,1-.732-.518,2.086,2.086,0,0,1-.547-.786,2.836,2.836,0,0,1-.19-1.074A2.565,2.565,0,0,1,150.5,9.527a4.865,4.865,0,0,1,2.847-.762,4.988,4.988,0,0,1,2.627.645,2.917,2.917,0,0,1,1.348,2.012l-2.178.488a1.706,1.706,0,0,0-1.787-1.27,1.957,1.957,0,0,0-.986.225.722.722,0,0,0-.391.664.761.761,0,0,0,.059.3.6.6,0,0,0,.205.244,2.992,2.992,0,0,0,.283.186,2.136,2.136,0,0,0,.4.161q.264.083.439.127l.513.132.522.137q.537.146.942.293a5.519,5.519,0,0,1,.864.41,3.1,3.1,0,0,1,.757.591,2.635,2.635,0,0,1,.493.83,3.066,3.066,0,0,1,.2,1.118,3.02,3.02,0,0,1-.337,1.455,2.529,2.529,0,0,1-.923.981,4.492,4.492,0,0,1-1.3.527A6.763,6.763,0,0,1,153.52,19.2Z" transform="translate(383 3279)" fill="#00223d"/>
    <path id="Trazado_2804" data-name="Trazado 2804" d="M31.825,19V4.889h2.93V19ZM43.954,8.766a3.914,3.914,0,0,1,2.773.9,3.349,3.349,0,0,1,.967,2.573V19H44.872V12.848a1.749,1.749,0,0,0-.5-1.387,1.9,1.9,0,0,0-1.294-.439,2.643,2.643,0,0,0-.84.127,2.158,2.158,0,0,0-.7.4,1.748,1.748,0,0,0-.5.757,3.5,3.5,0,0,0-.19,1.162V19H38.026V8.961h2.813v1.113A3.868,3.868,0,0,1,43.954,8.766Zm10,10.43a5.61,5.61,0,0,1-2.93-.7,2.972,2.972,0,0,1-1.436-2.09l2.354-.664a1.891,1.891,0,0,0,2.012,1.494A2.078,2.078,0,0,0,54.979,17a.8.8,0,0,0,.4-.776.821.821,0,0,0-.166-.518,1.315,1.315,0,0,0-.513-.371,6.387,6.387,0,0,0-.684-.264q-.337-.107-.894-.259t-.928-.288a6.215,6.215,0,0,1-.884-.376,3.77,3.77,0,0,1-.732-.518,2.086,2.086,0,0,1-.547-.786,2.836,2.836,0,0,1-.19-1.074,2.565,2.565,0,0,1,1.089-2.246,4.865,4.865,0,0,1,2.847-.762,4.988,4.988,0,0,1,2.627.645,2.917,2.917,0,0,1,1.348,2.012l-2.178.488a1.706,1.706,0,0,0-1.787-1.27,1.957,1.957,0,0,0-.986.225.722.722,0,0,0-.391.664.761.761,0,0,0,.059.3.6.6,0,0,0,.205.244,2.991,2.991,0,0,0,.283.186,2.137,2.137,0,0,0,.4.161q.264.083.439.127l.513.132.522.137q.537.146.942.293a5.519,5.519,0,0,1,.864.41,3.1,3.1,0,0,1,.757.591,2.635,2.635,0,0,1,.493.83,3.066,3.066,0,0,1,.2,1.118,3.02,3.02,0,0,1-.337,1.455,2.529,2.529,0,0,1-.923.981,4.492,4.492,0,0,1-1.3.527A6.763,6.763,0,0,1,53.954,19.2Zm9.893-.2a3.032,3.032,0,0,1-2.266-.815,3.172,3.172,0,0,1-.8-2.319V11.119H58.808V8.961h.635a1.656,1.656,0,0,0,1.25-.42,2.162,2.162,0,0,0,.4-1.494V5.719h2.539V8.961H65.7v2.158h-2.07v4.443q0,1.3,1.162,1.3H65.7V19Zm12.227-2.725a9.392,9.392,0,0,0,.244,2.451V19H73.69l-.225-1.094a3.264,3.264,0,0,1-1.406.967,5.183,5.183,0,0,1-1.816.322,4.776,4.776,0,0,1-.937-.088,3.187,3.187,0,0,1-.845-.3,2.564,2.564,0,0,1-.7-.522,2.291,2.291,0,0,1-.469-.8,3.17,3.17,0,0,1-.176-1.089,3.02,3.02,0,0,1,.186-1.089,2.552,2.552,0,0,1,.488-.815,2.962,2.962,0,0,1,.791-.6,6.053,6.053,0,0,1,1-.43,11.9,11.9,0,0,1,1.191-.312l1.65-.371a1.82,1.82,0,0,0,.747-.317.633.633,0,0,0,.22-.5A1.036,1.036,0,0,0,72.895,11a2.3,2.3,0,0,0-1.2-.293,1.721,1.721,0,0,0-1.963,1.533l-2.49-.449A3.371,3.371,0,0,1,68.7,9.5a5.783,5.783,0,0,1,3.154-.737q4.219,0,4.219,3.623Zm-4.951,1.016a2.262,2.262,0,0,0,1.738-.728,3.066,3.066,0,0,0,.674-2.153l-2.383.674a2.816,2.816,0,0,0-1,.41.842.842,0,0,0-.347.723.935.935,0,0,0,.371.8A1.536,1.536,0,0,0,71.122,17.291ZM78.808,19V4h2.842V19Zm13.984-2.725a9.392,9.392,0,0,0,.244,2.451V19H90.409l-.225-1.094a3.264,3.264,0,0,1-1.406.967,5.183,5.183,0,0,1-1.816.322,4.776,4.776,0,0,1-.937-.088,3.187,3.187,0,0,1-.845-.3,2.564,2.564,0,0,1-.7-.522,2.291,2.291,0,0,1-.469-.8,3.17,3.17,0,0,1-.176-1.089,3.02,3.02,0,0,1,.186-1.089,2.552,2.552,0,0,1,.488-.815,2.962,2.962,0,0,1,.791-.6,6.053,6.053,0,0,1,1-.43,11.9,11.9,0,0,1,1.191-.312l1.65-.371a1.82,1.82,0,0,0,.747-.317.633.633,0,0,0,.22-.5A1.036,1.036,0,0,0,89.613,11a2.3,2.3,0,0,0-1.2-.293,1.721,1.721,0,0,0-1.963,1.533l-2.49-.449A3.371,3.371,0,0,1,85.419,9.5a5.783,5.783,0,0,1,3.154-.737q4.219,0,4.219,3.623Zm-4.951,1.016a2.262,2.262,0,0,0,1.738-.728,3.066,3.066,0,0,0,.674-2.153l-2.383.674a2.816,2.816,0,0,0-1,.41.842.842,0,0,0-.347.723.935.935,0,0,0,.371.8A1.536,1.536,0,0,0,87.841,17.291Zm12,1.895a5.364,5.364,0,0,1-3.877-1.445,4.992,4.992,0,0,1-1.5-3.77,4.981,4.981,0,0,1,1.5-3.77,5.96,5.96,0,0,1,7.134-.469,4.316,4.316,0,0,1,1.68,2.725l-2.6.283a2.226,2.226,0,0,0-.84-1.318,2.554,2.554,0,0,0-1.523-.439,2.3,2.3,0,0,0-1.836.82,3.216,3.216,0,0,0-.7,2.168,3.22,3.22,0,0,0,.7,2.163,2.3,2.3,0,0,0,1.836.825,2.532,2.532,0,0,0,1.519-.439,2.277,2.277,0,0,0,.845-1.318l2.6.283a4.328,4.328,0,0,1-1.694,2.725A5.327,5.327,0,0,1,99.843,19.186Zm8.369-11.729a1.579,1.579,0,0,1-1.152-.474,1.555,1.555,0,0,1-.479-1.147,1.536,1.536,0,0,1,.483-1.138,1.584,1.584,0,0,1,1.147-.474,1.626,1.626,0,0,1,1.611,1.611,1.626,1.626,0,0,1-1.611,1.621ZM106.776,19V8.961h2.832V19Zm10.42.2a6.313,6.313,0,0,1-2.842-.615,4.6,4.6,0,0,1-1.948-1.807,5.384,5.384,0,0,1-.708-2.8,4.911,4.911,0,0,1,1.523-3.809,6.368,6.368,0,0,1,7.959,0,4.911,4.911,0,0,1,1.523,3.809,4.938,4.938,0,0,1-1.523,3.823A5.654,5.654,0,0,1,117.2,19.2Zm-.029-2.236a2.577,2.577,0,0,0,1.987-.82,3.071,3.071,0,0,0,.757-2.168,3.071,3.071,0,0,0-.757-2.168,2.577,2.577,0,0,0-1.987-.82,2.483,2.483,0,0,0-1.929.825,3.1,3.1,0,0,0-.747,2.163,3.1,3.1,0,0,0,.747,2.163A2.483,2.483,0,0,0,117.167,16.959Zm13.555-8.193a3.914,3.914,0,0,1,2.773.9,3.349,3.349,0,0,1,.967,2.573V19H131.64V12.848a1.749,1.749,0,0,0-.5-1.387,1.9,1.9,0,0,0-1.294-.439,2.643,2.643,0,0,0-.84.127,2.158,2.158,0,0,0-.7.4,1.748,1.748,0,0,0-.5.757,3.5,3.5,0,0,0-.19,1.162V19h-2.812V8.961h2.813v1.113A3.868,3.868,0,0,1,130.722,8.766Zm15.908,5.068-.029.674h-7.441a2.6,2.6,0,0,0,.8,1.836,2.561,2.561,0,0,0,1.768.635,2.468,2.468,0,0,0,1.323-.347,2.131,2.131,0,0,0,.845-1.011l2.578.381a4.383,4.383,0,0,1-1.758,2.354,5.226,5.226,0,0,1-2.969.84,5.435,5.435,0,0,1-3.911-1.382,5.042,5.042,0,0,1-1.45-3.833,5.072,5.072,0,0,1,1.455-3.833,5.273,5.273,0,0,1,3.818-1.4,5.04,5.04,0,0,1,3.6,1.279A5.019,5.019,0,0,1,146.63,13.834Zm-4.951-3.1a2.222,2.222,0,0,0-2.441,1.934h4.609a2.114,2.114,0,0,0-.693-1.436A2.2,2.2,0,0,0,141.679,10.738ZM152.3,19.2a5.61,5.61,0,0,1-2.93-.7,2.972,2.972,0,0,1-1.436-2.09l2.354-.664a1.891,1.891,0,0,0,2.012,1.494A2.078,2.078,0,0,0,153.329,17a.8.8,0,0,0,.4-.776.821.821,0,0,0-.166-.518,1.315,1.315,0,0,0-.513-.371,6.388,6.388,0,0,0-.684-.264q-.337-.107-.894-.259t-.928-.288a6.215,6.215,0,0,1-.884-.376,3.769,3.769,0,0,1-.732-.518,2.086,2.086,0,0,1-.547-.786,2.836,2.836,0,0,1-.19-1.074,2.565,2.565,0,0,1,1.089-2.246,4.865,4.865,0,0,1,2.847-.762,4.988,4.988,0,0,1,2.627.645,2.917,2.917,0,0,1,1.348,2.012l-2.178.488a1.706,1.706,0,0,0-1.787-1.27,1.957,1.957,0,0,0-.986.225.722.722,0,0,0-.391.664.761.761,0,0,0,.059.3.6.6,0,0,0,.205.244,2.992,2.992,0,0,0,.283.186,2.136,2.136,0,0,0,.4.161q.264.083.439.127l.513.132.522.137q.537.146.942.293a5.519,5.519,0,0,1,.864.41,3.1,3.1,0,0,1,.757.591,2.635,2.635,0,0,1,.493.83,3.066,3.066,0,0,1,.2,1.118,3.02,3.02,0,0,1-.337,1.455,2.529,2.529,0,0,1-.923.981,4.492,4.492,0,0,1-1.3.527A6.763,6.763,0,0,1,152.3,19.2Z" transform="translate(1056 3279)" fill="#00223d"/>
    <path id="Trazado_2802" data-name="Trazado 2802" d="M21.459,19h-2.92L17.611,8.365,14.037,19H12.143L8.568,8.365,7.631,19H4.7L5.883,4.889h4.18l3.008,8.857,3.047-8.857H20.3Zm10.869-2.725a9.392,9.392,0,0,0,.244,2.451V19H29.945l-.225-1.094a3.264,3.264,0,0,1-1.406.967A5.183,5.183,0,0,1,26.5,19.2a4.776,4.776,0,0,1-.937-.088,3.187,3.187,0,0,1-.845-.3,2.564,2.564,0,0,1-.7-.522,2.291,2.291,0,0,1-.469-.8,3.17,3.17,0,0,1-.176-1.089,3.02,3.02,0,0,1,.186-1.089,2.552,2.552,0,0,1,.488-.815,2.962,2.962,0,0,1,.791-.6,6.053,6.053,0,0,1,1-.43,11.9,11.9,0,0,1,1.191-.312l1.65-.371a1.82,1.82,0,0,0,.747-.317.633.633,0,0,0,.22-.5A1.036,1.036,0,0,0,29.149,11a2.3,2.3,0,0,0-1.2-.293,1.721,1.721,0,0,0-1.963,1.533l-2.49-.449A3.371,3.371,0,0,1,24.955,9.5a5.783,5.783,0,0,1,3.154-.737q4.219,0,4.219,3.623Zm-4.951,1.016a2.262,2.262,0,0,0,1.738-.728,3.066,3.066,0,0,0,.674-2.153l-2.383.674a2.816,2.816,0,0,0-1,.41.842.842,0,0,0-.347.723.935.935,0,0,0,.371.8A1.536,1.536,0,0,0,27.377,17.291ZM38.666,19a3.032,3.032,0,0,1-2.266-.815,3.172,3.172,0,0,1-.8-2.319V11.119H33.627V8.961h.635a1.656,1.656,0,0,0,1.25-.42,2.162,2.162,0,0,0,.4-1.494V5.719h2.539V8.961h2.07v2.158h-2.07v4.443q0,1.3,1.162,1.3h.908V19ZM52.1,13.834l-.029.674H44.633a2.6,2.6,0,0,0,.8,1.836,2.561,2.561,0,0,0,1.768.635,2.468,2.468,0,0,0,1.323-.347,2.131,2.131,0,0,0,.845-1.011L51.947,16a4.383,4.383,0,0,1-1.758,2.354,5.226,5.226,0,0,1-2.969.84,5.435,5.435,0,0,1-3.911-1.382,5.042,5.042,0,0,1-1.45-3.833,5.072,5.072,0,0,1,1.455-3.833,5.273,5.273,0,0,1,3.818-1.4,5.04,5.04,0,0,1,3.6,1.279A5.019,5.019,0,0,1,52.1,13.834Zm-4.951-3.1a2.222,2.222,0,0,0-2.441,1.934H49.32a2.114,2.114,0,0,0-.693-1.436A2.2,2.2,0,0,0,47.152,10.738Zm9.785-.186a3.259,3.259,0,0,1,1.318-1.206,4.023,4.023,0,0,1,1.963-.5v2.51a3.8,3.8,0,0,0-2.4.605,2.643,2.643,0,0,0-.742,2.148V19H54.242V8.961h2.7Zm6.367-3.1a1.579,1.579,0,0,1-1.152-.474,1.555,1.555,0,0,1-.479-1.147A1.536,1.536,0,0,1,62.157,4.7,1.584,1.584,0,0,1,63.3,4.225a1.626,1.626,0,0,1,1.611,1.611A1.626,1.626,0,0,1,63.3,7.457ZM61.869,19V8.961H64.7V19Zm13.975-2.725a9.392,9.392,0,0,0,.244,2.451V19H73.461l-.225-1.094a3.264,3.264,0,0,1-1.406.967,5.183,5.183,0,0,1-1.816.322,4.776,4.776,0,0,1-.937-.088,3.187,3.187,0,0,1-.845-.3,2.564,2.564,0,0,1-.7-.522,2.291,2.291,0,0,1-.469-.8,3.17,3.17,0,0,1-.176-1.089,3.02,3.02,0,0,1,.186-1.089,2.552,2.552,0,0,1,.488-.815,2.962,2.962,0,0,1,.791-.6,6.053,6.053,0,0,1,1-.43,11.9,11.9,0,0,1,1.191-.312l1.65-.371a1.82,1.82,0,0,0,.747-.317.633.633,0,0,0,.22-.5A1.036,1.036,0,0,0,72.665,11a2.3,2.3,0,0,0-1.2-.293,1.721,1.721,0,0,0-1.963,1.533l-2.49-.449A3.371,3.371,0,0,1,68.471,9.5a5.783,5.783,0,0,1,3.154-.737q4.219,0,4.219,3.623Zm-4.951,1.016a2.262,2.262,0,0,0,1.738-.728A3.066,3.066,0,0,0,73.3,14.41l-2.383.674a2.816,2.816,0,0,0-1,.41.842.842,0,0,0-.347.723.935.935,0,0,0,.371.8A1.536,1.536,0,0,0,70.893,17.291ZM78.578,19V4H81.42V19ZM96.645,4h2.813V19H96.791l-.068-1.309a2.867,2.867,0,0,1-1.274,1.138,4.29,4.29,0,0,1-1.88.405,4.883,4.883,0,0,1-1.875-.361A4.516,4.516,0,0,1,89.115,16.2a6.106,6.106,0,0,1-.381-2.2,5.707,5.707,0,0,1,.664-2.8,4.55,4.55,0,0,1,1.753-1.821,4.827,4.827,0,0,1,2.417-.615,4.4,4.4,0,0,1,1.821.366,2.843,2.843,0,0,1,1.255,1.04ZM94.213,16.9a2.5,2.5,0,0,0,1.9-.8,2.932,2.932,0,0,0,.757-2.1,2.938,2.938,0,0,0-.762-2.1,2.5,2.5,0,0,0-1.895-.806,2.53,2.53,0,0,0-1.909.791A2.937,2.937,0,0,0,91.547,14a2.924,2.924,0,0,0,.757,2.109A2.53,2.53,0,0,0,94.213,16.9Zm17.6-3.066-.029.674H104.34a2.6,2.6,0,0,0,.8,1.836,2.561,2.561,0,0,0,1.768.635,2.468,2.468,0,0,0,1.323-.347,2.131,2.131,0,0,0,.845-1.011l2.578.381a4.383,4.383,0,0,1-1.758,2.354,5.226,5.226,0,0,1-2.969.84,5.435,5.435,0,0,1-3.911-1.382,5.042,5.042,0,0,1-1.45-3.833,5.072,5.072,0,0,1,1.455-3.833,5.273,5.273,0,0,1,3.818-1.4,5.04,5.04,0,0,1,3.6,1.279A5.019,5.019,0,0,1,111.811,13.834Zm-4.951-3.1a2.222,2.222,0,0,0-2.441,1.934h4.609a2.114,2.114,0,0,0-.693-1.436A2.2,2.2,0,0,0,106.859,10.738ZM123.822,19.2a6.313,6.313,0,0,1-2.842-.615,4.6,4.6,0,0,1-1.948-1.807,5.384,5.384,0,0,1-.708-2.8,4.911,4.911,0,0,1,1.523-3.809,6.368,6.368,0,0,1,7.959,0,4.911,4.911,0,0,1,1.523,3.809,4.938,4.938,0,0,1-1.523,3.823A5.654,5.654,0,0,1,123.822,19.2Zm-.029-2.236a2.577,2.577,0,0,0,1.987-.82,3.071,3.071,0,0,0,.757-2.168,3.071,3.071,0,0,0-.757-2.168,2.577,2.577,0,0,0-1.987-.82,2.483,2.483,0,0,0-1.929.825,3.1,3.1,0,0,0-.747,2.163,3.1,3.1,0,0,0,.747,2.163A2.483,2.483,0,0,0,123.793,16.959Zm8.33-9.082A5.871,5.871,0,0,1,132.25,6.6a3.893,3.893,0,0,1,.342-.972,2.275,2.275,0,0,1,.571-.7,3.371,3.371,0,0,1,.742-.469,4.241,4.241,0,0,1,.923-.283,8.094,8.094,0,0,1,1.06-.142Q136.41,4,137.084,4V6.246h-.059q-.273,0-.415,0t-.4.034a1.621,1.621,0,0,0-.405.088,2.065,2.065,0,0,0-.337.181.9.9,0,0,0-.293.293,1.77,1.77,0,0,0-.176.435,2.269,2.269,0,0,0-.073.605V8.961h2.158v2.158h-2.158V19h-2.8V11.119H130.16V8.961h1.963Zm7.988-.42a1.579,1.579,0,0,1-1.152-.474,1.555,1.555,0,0,1-.479-1.147,1.536,1.536,0,0,1,.483-1.138,1.584,1.584,0,0,1,1.147-.474,1.626,1.626,0,0,1,1.611,1.611,1.626,1.626,0,0,1-1.611,1.621ZM138.676,19V8.961h2.832V19Zm10.283.186a5.364,5.364,0,0,1-3.877-1.445,4.992,4.992,0,0,1-1.5-3.77,4.981,4.981,0,0,1,1.5-3.77,5.96,5.96,0,0,1,7.134-.469,4.316,4.316,0,0,1,1.68,2.725l-2.6.283a2.225,2.225,0,0,0-.84-1.318,2.554,2.554,0,0,0-1.523-.439,2.3,2.3,0,0,0-1.836.82,3.216,3.216,0,0,0-.7,2.168,3.22,3.22,0,0,0,.7,2.163,2.3,2.3,0,0,0,1.836.825,2.532,2.532,0,0,0,1.519-.439,2.277,2.277,0,0,0,.845-1.318l2.6.283a4.328,4.328,0,0,1-1.694,2.725A5.327,5.327,0,0,1,148.959,19.186Zm8.369-11.729a1.579,1.579,0,0,1-1.152-.474,1.555,1.555,0,0,1-.479-1.147,1.536,1.536,0,0,1,.483-1.138,1.584,1.584,0,0,1,1.147-.474,1.626,1.626,0,0,1,1.611,1.611,1.626,1.626,0,0,1-1.611,1.621ZM155.893,19V8.961h2.832V19Zm11.67-10.234a3.914,3.914,0,0,1,2.773.9,3.349,3.349,0,0,1,.967,2.573V19H168.48V12.848a1.749,1.749,0,0,0-.5-1.387,1.9,1.9,0,0,0-1.294-.439,2.643,2.643,0,0,0-.84.127,2.158,2.158,0,0,0-.7.4,1.748,1.748,0,0,0-.5.757,3.5,3.5,0,0,0-.19,1.162V19h-2.812V8.961h2.813v1.113A3.868,3.868,0,0,1,167.563,8.766Zm14.7,7.51a9.391,9.391,0,0,0,.244,2.451V19h-2.627l-.225-1.094a3.264,3.264,0,0,1-1.406.967,5.183,5.183,0,0,1-1.816.322,4.776,4.776,0,0,1-.937-.088,3.187,3.187,0,0,1-.845-.3,2.563,2.563,0,0,1-.7-.522,2.291,2.291,0,0,1-.469-.8A3.17,3.17,0,0,1,173.3,16.4a3.019,3.019,0,0,1,.186-1.089,2.552,2.552,0,0,1,.488-.815,2.962,2.962,0,0,1,.791-.6,6.052,6.052,0,0,1,1-.43,11.9,11.9,0,0,1,1.191-.312l1.65-.371a1.82,1.82,0,0,0,.747-.317.633.633,0,0,0,.22-.5,1.036,1.036,0,0,0-.493-.967,2.3,2.3,0,0,0-1.2-.293,1.721,1.721,0,0,0-1.963,1.533l-2.49-.449a3.371,3.371,0,0,1,1.455-2.29,5.783,5.783,0,0,1,3.154-.737q4.219,0,4.219,3.623Zm-4.951,1.016a2.262,2.262,0,0,0,1.738-.728,3.066,3.066,0,0,0,.674-2.153l-2.383.674a2.816,2.816,0,0,0-1,.41.842.842,0,0,0-.347.723.935.935,0,0,0,.371.8A1.536,1.536,0,0,0,177.309,17.291Z" transform="translate(607 3279)" fill="#00223d"/>
    <line id="Línea_112" data-name="Línea 112" x2="1120" transform="translate(140.5 3200.5)" fill="none" stroke="#7cb342" stroke-width="2"/>
    <g id="Grupo_10049" data-name="Grupo 10049" transform="translate(2452 7034)">
      <circle id="Elipse_497" data-name="Elipse 497" cx="60.5" cy="60.5" r="60.5" transform="translate(-2261 -3907)" fill="#7cb342"/>
      <path id="Trazado_1178" data-name="Trazado 1178" d="M53.993,0A53.993,53.993,0,1,1,0,53.993,53.993,53.993,0,0,1,53.993,0Z" transform="translate(-2254 -3900)" fill="#fff"/>
    </g>
    <g id="Grupo_10048" data-name="Grupo 10048" transform="translate(2677 7044)">
      <circle id="Elipse_497-2" data-name="Elipse 497" cx="60.5" cy="60.5" r="60.5" transform="translate(-2261 -3907)" fill="#7cb342"/>
      <path id="Trazado_1178-2" data-name="Trazado 1178" d="M53.993,0A53.993,53.993,0,1,1,0,53.993,53.993,53.993,0,0,1,53.993,0Z" transform="translate(-2254 -3900)" fill="#fff"/>
    </g>
    <g id="Grupo_10045" data-name="Grupo 10045" transform="translate(2901 7044)">
      <circle id="Elipse_497-3" data-name="Elipse 497" cx="60.5" cy="60.5" r="60.5" transform="translate(-2261 -3907)" fill="#7cb342"/>
      <path id="Trazado_1178-3" data-name="Trazado 1178" d="M53.993,0A53.993,53.993,0,1,1,0,53.993,53.993,53.993,0,0,1,53.993,0Z" transform="translate(-2254 -3900)" fill="#fff"/>
    </g>
    <g id="Grupo_10046" data-name="Grupo 10046" transform="translate(3126 7044)">
      <circle id="Elipse_497-4" data-name="Elipse 497" cx="60.5" cy="60.5" r="60.5" transform="translate(-2261 -3907)" fill="#7cb342"/>
      <path id="Trazado_1178-4" data-name="Trazado 1178" d="M53.993,0A53.993,53.993,0,1,1,0,53.993,53.993,53.993,0,0,1,53.993,0Z" transform="translate(-2254 -3900)" fill="#fff"/>
    </g>
    <g id="Grupo_10047" data-name="Grupo 10047" transform="translate(3350 7044)">
      <circle id="Elipse_497-5" data-name="Elipse 497" cx="60.5" cy="60.5" r="60.5" transform="translate(-2261 -3907)" fill="#7cb342"/>
      <path id="Trazado_1178-5" data-name="Trazado 1178" d="M53.993,0A53.993,53.993,0,1,1,0,53.993,53.993,53.993,0,0,1,53.993,0Z" transform="translate(-2254 -3900)" fill="#fff"/>
    </g>
    <g id="Grupo_10070" data-name="Grupo 10070" transform="translate(0.571 -1.552)">
      <g id="Grupo_10052" data-name="Grupo 10052" transform="translate(450.428 3168.552)">
        <path id="Trazado_1939" data-name="Trazado 1939" d="M-1313.83,1062.238l-10.763-7.506,10.763-7.506v4.815a25.305,25.305,0,0,1,12.369,3.21c8.073,4.863,12.888,12.888,12.888,22a22.1,22.1,0,0,1-1.605,8.592l-3.777-3.776c0-1.605.567-3.21.567-4.815,0-6.985-4.3-13.924-10.244-17.7a24.158,24.158,0,0,0-10.2-2.691Z" transform="translate(1339.494 -1047.225)" fill="#002b45" fill-rule="evenodd"/>
        <path id="Trazado_1940" data-name="Trazado 1940" d="M-1309.019,1088.065a22.727,22.727,0,0,1-9.631-4.3,21.4,21.4,0,0,1-6.987-19.309c0-2.169,1.038-4.294,2.124-6.418l-3.777-3.777a29.985,29.985,0,0,0-3.21,9.676,25.026,25.026,0,0,0,8.592,23.558,23.522,23.522,0,0,0,12.369,5.382l-1.086,4.815,11.283-5.382-8.592-9.112Z" transform="translate(1330.906 -1037.647)" fill="#002b45" fill-rule="evenodd"/>
        <path id="Trazado_1941" data-name="Trazado 1941" d="M-1311.972,1080.048a6.878,6.878,0,0,1,5.382,2.124l3.777,3.21,3.21,3.777a26.208,26.208,0,0,0,8.592-8.592l-3.73-3.776-3.257-3.211a6.843,6.843,0,0,1-2.124-5.334,12.936,12.936,0,0,0-3.777-9.675c-3.729-3.73-8.592-4.816-12.888-3.211l8.073,8.071c0,3.21-4.863,8.026-8.073,8.026l-8.073-8.026c-1.6,4.249-.519,9.111,3.258,12.841A12.837,12.837,0,0,0-1311.972,1080.048Z" transform="translate(1338.155 -1037.137)" fill="#7cb342" fill-rule="evenodd"/>
      </g>
    </g>
    <g id="Grupo_10073" data-name="Grupo 10073" transform="translate(-3.521 -1.081)">
      <g id="Grupo_10053" data-name="Grupo 10053" transform="translate(1124.521 3173.081)">
        <path id="Trazado_1942" data-name="Trazado 1942" d="M-1042.647,1071.375a2.475,2.475,0,0,1,2.172-2.691h39.656a2.59,2.59,0,0,1,2.738,2.691,2.524,2.524,0,0,1-2.738,2.172h-39.656A2.335,2.335,0,0,1-1042.647,1071.375Z" transform="translate(1048.985 -1022.56)" fill="#002b45" fill-rule="evenodd"/>
        <path id="Trazado_1943" data-name="Trazado 1943" d="M-1016.994,1049.144l-27.523,24.407a2.6,2.6,0,0,0,0,3.777,2.084,2.084,0,0,0,3.3,0l24.219-20.583,23.652,20.583c1.086,1.086,2.738.566,3.871,0,1.088-1.086,1.088-3.21,0-3.777Z" transform="translate(1045.332 -1049.144)" fill="#002b45" fill-rule="evenodd"/>
        <path id="Trazado_1944" data-name="Trazado 1944" d="M-1040.475,1062a2.335,2.335,0,0,0-2.172,2.171,2.493,2.493,0,0,0,2.172,2.738h7.176v3.258h-7.176a2.335,2.335,0,0,0-2.172,2.172,2.475,2.475,0,0,0,2.172,2.691h14.871V1062Z" transform="translate(1048.985 -1031.649)" fill="#7cb342" fill-rule="evenodd"/>
        <path id="Trazado_1945" data-name="Trazado 1945" d="M-1016.356,1066.914a2.6,2.6,0,0,0,2.738-2.738,2.524,2.524,0,0,0-2.738-2.171h-14.871v13.03h14.871a2.59,2.59,0,0,0,2.738-2.691,2.524,2.524,0,0,0-2.738-2.172h-7.176v-3.258Z" transform="translate(1064.522 -1031.649)" fill="#7cb342" fill-rule="evenodd"/>
        <path id="Trazado_1946" data-name="Trazado 1946" d="M-1020.658,1061.9l-6.609-5.949v-5.429h6.609Z" transform="translate(1069.909 -1047.267)" fill="#7cb342" fill-rule="evenodd"/>
        <path id="Trazado_1947" data-name="Trazado 1947" d="M-1005,1069.358h-35.785l17.609-15.154Z" transform="translate(1051.515 -1042.26)" fill="#002b45" fill-rule="evenodd"/>
        <path id="Trazado_1948" data-name="Trazado 1948" d="M-1028.118,1059.982a3.548,3.548,0,0,0-3.3-3.258,3.548,3.548,0,0,0-3.3,3.258,3.51,3.51,0,0,0,3.3,3.257A3.509,3.509,0,0,0-1028.118,1059.982Z" transform="translate(1059.76 -1038.832)" fill="#fff" fill-rule="evenodd"/>
      </g>
    </g>
    <g id="Grupo_10071" data-name="Grupo 10071" transform="translate(-2.437 -1.309)">
      <g id="Grupo_10054" data-name="Grupo 10054" transform="translate(677.437 3174.309)">
        <path id="Trazado_1949" data-name="Trazado 1949" d="M-1184.222,1063.232h-50.514l3.921,16.507h43.168Z" transform="translate(1234.736 -1031.205)" fill="#002b45" fill-rule="evenodd"/>
        <path id="Trazado_1950" data-name="Trazado 1950" d="M-1208.4,1052.863l.949,2.806h-21.048l.951-2.806Z" transform="translate(1243.227 -1045.312)" fill="#7cb342" fill-rule="evenodd"/>
        <path id="Trazado_1951" data-name="Trazado 1951" d="M-1229.124,1058.158h24.02l-.992-3.3h-22.037Z" transform="translate(1242.371 -1042.6)" fill="#7cb342" fill-rule="evenodd"/>
        <path id="Trazado_1952" data-name="Trazado 1952" d="M-1227.744,1065.222l3.425-10.854h24.516l2.93,10.854h4.912l-4.416-15.558h-31.862l-4.416,15.558Z" transform="translate(1237.566 -1049.664)" fill="#002b45" fill-rule="evenodd"/>
        <path id="Trazado_1953" data-name="Trazado 1953" d="M-1217.1,1063.451h-7.346c-.991,0-1.98-.456-1.98-1.4s.989-1.4,1.98-1.4h7.346c.991,0,1.981.453,1.981,1.4S-1216.114,1063.451-1217.1,1063.451Z" transform="translate(1246.035 -1034.726)" fill="#7cb342" fill-rule="evenodd"/>
        <path id="Trazado_1954" data-name="Trazado 1954" d="M-1193.785,1065.242l-1.445,7.058h-35.327l-1.487-7.058Z" transform="translate(1238.399 -1028.471)" fill="#fff" fill-rule="evenodd"/>
        <path id="Trazado_1955" data-name="Trazado 1955" d="M-1217.1,1069.331h-7.346a2.207,2.207,0,0,1-1.98-1.4,2.086,2.086,0,0,1,1.98-1.9h7.346a2.086,2.086,0,0,1,1.981,1.9A2.207,2.207,0,0,1-1217.1,1069.331Z" transform="translate(1246.035 -1027.4)" fill="#7cb342" fill-rule="evenodd"/>
        <path id="Trazado_1956" data-name="Trazado 1956" d="M-1227.886,1067.519l-.949-5.16h38.712l-.949,5.16h4.87l1.98-9.865h-50.514l1.98,9.865Z" transform="translate(1234.736 -1038.793)" fill="#002b45" fill-rule="evenodd"/>
      </g>
    </g>
    <g id="Grupo_10072" data-name="Grupo 10072" transform="translate(1.684 -1.016)">
      <g id="Grupo_10055" data-name="Grupo 10055" transform="translate(895.316 3171.016)">
        <path id="Trazado_1957" data-name="Trazado 1957" d="M-1120.5,1067.58h-1.088v-3.871l1.088-.52v4.391Z" transform="translate(1170.789 -1027.971)" fill="#7cb342" fill-rule="evenodd"/>
        <path id="Trazado_1958" data-name="Trazado 1958" d="M-1085.217,1062.237v27.474l-22.564,12.652-28.042-16.523v-11.52l-6.609-4.388,6.609-11,15.957-9.348a15.121,15.121,0,0,1,3.3,2.738l-13.219,7.7,22,12.65,16.521-8.826-6.043-3.824,3.3-2.738Z" transform="translate(1142.433 -1046.479)" fill="#002b45" fill-rule="evenodd"/>
        <path id="Trazado_1959" data-name="Trazado 1959" d="M-1118.093,1073.858h0l3.824-5.476-22.566-13.216-3.258,6.043Z" transform="translate(1145.616 -1038.887)" fill="#fff" fill-rule="evenodd"/>
        <path id="Trazado_1960" data-name="Trazado 1960" d="M-1115.966,1065.941l-3.871,5.523-18.176-10.48v7.176l22.047,12.652Z" transform="translate(1148.446 -1030.971)" fill="#fff" fill-rule="evenodd"/>
        <path id="Trazado_1961" data-name="Trazado 1961" d="M-1110.531,1057.025l-16.523,9.345v20.348l16.523-9.867Z" transform="translate(1163.356 -1036.357)" fill="#fff" fill-rule="evenodd"/>
        <path id="Trazado_1962" data-name="Trazado 1962" d="M-1121.77,1063.649l-.519.567v3.822l.519-.567Z" transform="translate(1169.839 -1027.345)" fill="#7cb342" fill-rule="evenodd"/>
        <path id="Trazado_1963" data-name="Trazado 1963" d="M-1124.3,1069.437v-4.388l-.567.517V1070Z" transform="translate(1166.329 -1025.44)" fill="#7cb342" fill-rule="evenodd"/>
        <path id="Trazado_1964" data-name="Trazado 1964" d="M-1121.9,1064.109h-1.086v4.388l1.086-.517Z" transform="translate(1168.886 -1026.719)" fill="#7cb342" fill-rule="evenodd"/>
        <path id="Trazado_1965" data-name="Trazado 1965" d="M-1123.3,1064.809l-1.086.566v3.822l1.086-.519Z" transform="translate(1166.981 -1025.767)" fill="#7cb342" fill-rule="evenodd"/>
        <path id="Trazado_1966" data-name="Trazado 1966" d="M-1122.9,1064.349l-.566.567v3.822l.566-.567Z" transform="translate(1168.233 -1026.393)" fill="#7cb342" fill-rule="evenodd"/>
        <path id="Trazado_1967" data-name="Trazado 1967" d="M-1123.961,1058.7h-4.438l8.828,8.828,8.781-8.828h-4.39s-2.219-10.433-17.609-10.433C-1122.875,1052.141-1123.961,1058.7-1123.961,1058.7Z" transform="translate(1155.554 -1048.269)" fill="#7cb342" fill-rule="evenodd"/>
      </g>
    </g>
    <g id="Grupo_10069" data-name="Grupo 10069" transform="translate(-2 -0.273)">
      <g id="Grupo_10056" data-name="Grupo 10056" transform="translate(219 3166.274)">
        <path id="Trazado_1968" data-name="Trazado 1968" d="M-1360.927,1074.1a11.507,11.507,0,0,0-2.011-6.512,1.075,1.075,0,0,0-.309-.416,11.572,11.572,0,0,0-9.27-4.662h-1.464l-9.737-9.145a10.76,10.76,0,0,0-7.388-2.925H-1423.3a5.655,5.655,0,0,0-5.649,5.649v16.8c0,.158.012.314.024.47a.931.931,0,0,0-.024.118,1.081,1.081,0,0,0,.092.437,6.081,6.081,0,0,0,5.979,5.049h.033a7.349,7.349,0,0,0,7.1,5.486,7.35,7.35,0,0,0,7.1-5.486h29.537a7.35,7.35,0,0,0,7.1,5.486,7.351,7.351,0,0,0,7.119-5.578A4.841,4.841,0,0,0-1360.927,1074.1Zm-54.822,8.158a5.153,5.153,0,0,1-5.148-5.151,5.153,5.153,0,0,1,5.148-5.148,5.155,5.155,0,0,1,5.151,5.148A5.156,5.156,0,0,1-1415.749,1082.26Zm43.73,0a5.153,5.153,0,0,1-5.148-5.151,5.153,5.153,0,0,1,5.148-5.148,5.155,5.155,0,0,1,5.151,5.148A5.156,5.156,0,0,1-1372.019,1082.26Zm7.315-5.727a7.348,7.348,0,0,0-7.315-6.767,7.348,7.348,0,0,0-7.327,7.008h-29.074a7.349,7.349,0,0,0-7.329-7.008,7.346,7.346,0,0,0-7.324,6.989,3.872,3.872,0,0,1-3.281-2.174h.963a1.1,1.1,0,0,0,1.1-1.1,1.1,1.1,0,0,0-1.1-1.1h-1.364v-16.295a3.458,3.458,0,0,1,3.456-3.453h32.195a8.562,8.562,0,0,1,5.885,2.33l10.056,9.44a1.087,1.087,0,0,0,.751.3h1.9a9.34,9.34,0,0,1,6.038,2.207,1.089,1.089,0,0,0-1.031,1.083,1.1,1.1,0,0,0,1.1,1.1h1.832a9.332,9.332,0,0,1,1.459,5.006A2.65,2.65,0,0,1-1364.7,1076.534Z" transform="translate(1428.949 -1040.569)" fill="#002b45"/>
        <path id="Trazado_1969" data-name="Trazado 1969" d="M-1393.787,1058.345h-25.234a1.1,1.1,0,0,0-1.1,1.1,1.1,1.1,0,0,0,1.1,1.1h25.234a1.1,1.1,0,0,0,1.1-1.1A1.1,1.1,0,0,0-1393.787,1058.345Z" transform="translate(1440.963 -1029.819)" fill="#7cb342"/>
        <path id="Trazado_1970" data-name="Trazado 1970" d="M-1400.759,1062.8v-9.853a1.1,1.1,0,0,0-1.1-1.1h-24.136a1.1,1.1,0,0,0-1.1,1.1v9.853a1.1,1.1,0,0,0,1.1,1.1h24.136A1.1,1.1,0,0,0-1400.759,1062.8Zm-2.2-1.1h-21.941v-7.657h21.941Z" transform="translate(1431.478 -1038.659)" fill="#002b45"/>
        <path id="Trazado_1971" data-name="Trazado 1971" d="M-1405.4,1053.95a7.75,7.75,0,0,0-5.321-2.1h-3.187a1.1,1.1,0,0,0-1.1,1.1v9.853a1.1,1.1,0,0,0,1.1,1.1h16.351a1.1,1.1,0,0,0,1.02-.694,1.1,1.1,0,0,0-.272-1.2Zm-7.41,7.749v-7.657h2.089a5.57,5.57,0,0,1,3.819,1.508l6.567,6.149Z" transform="translate(1447.919 -1038.659)" fill="#002b45"/>
        <path id="Trazado_1972" data-name="Trazado 1972" d="M-1421.2,1060.153a3.75,3.75,0,0,0-3.746,3.746,3.751,3.751,0,0,0,3.746,3.748,3.751,3.751,0,0,0,3.748-3.748A3.751,3.751,0,0,0-1421.2,1060.153Zm0,5.3a1.555,1.555,0,0,1-1.553-1.556,1.554,1.554,0,0,1,1.553-1.553,1.556,1.556,0,0,1,1.556,1.553A1.557,1.557,0,0,1-1421.2,1065.455Z" transform="translate(1434.397 -1027.359)" fill="#7cb342"/>
        <path id="Trazado_1973" data-name="Trazado 1973" d="M-1402.672,1060.153a3.75,3.75,0,0,0-3.746,3.746,3.751,3.751,0,0,0,3.746,3.748,3.751,3.751,0,0,0,3.748-3.748A3.751,3.751,0,0,0-1402.672,1060.153Zm0,5.3a1.557,1.557,0,0,1-1.553-1.556,1.556,1.556,0,0,1,1.553-1.553,1.556,1.556,0,0,1,1.555,1.553A1.557,1.557,0,0,1-1402.672,1065.455Z" transform="translate(1459.602 -1027.359)" fill="#7cb342"/>
        <path id="Trazado_1974" data-name="Trazado 1974" d="M-1419.485,1048.455h9.874a1.1,1.1,0,0,0,1.1-1.1,1.1,1.1,0,0,0-1.1-1.1h-9.874a1.1,1.1,0,0,0-1.1,1.1A1.1,1.1,0,0,0-1419.485,1048.455Z" transform="translate(1440.331 -1046.26)" fill="#7cb342"/>
        <path id="Trazado_1975" data-name="Trazado 1975" d="M-1423.2,1049.849h15.36a1.1,1.1,0,0,0,1.1-1.1,1.1,1.1,0,0,0-1.1-1.1h-15.36a1.1,1.1,0,0,0-1.1,1.1A1.1,1.1,0,0,0-1423.2,1049.849Z" transform="translate(1435.272 -1044.364)" fill="#7cb342"/>
      </g>
    </g>
  </g>
</svg>
