<svg xmlns="http://www.w3.org/2000/svg" width="121" height="121" viewBox="0 0 121 121">
  <g id="Grupo_10110" data-name="Grupo 10110" transform="translate(-145 -3479)">
    <g id="Grupo_1010" data-name="Grupo 1010" transform="translate(2406 7386)">
      <circle id="Elipse_497" data-name="Elipse 497" cx="60.5" cy="60.5" r="60.5" transform="translate(-2261 -3907)" fill="#7cb342"/>
      <path id="Trazado_1178" data-name="Trazado 1178" d="M53.993,0A53.993,53.993,0,1,1,0,53.993,53.993,53.993,0,0,1,53.993,0Z" transform="translate(-2254 -3900)" fill="#fff"/>
    </g>
    <g id="Grupo_10098" data-name="Grupo 10098" transform="translate(174 3514)">
      <path id="Trazado_2711" data-name="Trazado 2711" d="M-605.864,666.523c-5.117,0-10.281-1.32-10.281-4.268v-3.426a4.192,4.192,0,0,1,4.182-4.192h12.2a4.191,4.191,0,0,1,4.182,4.192v3.426C-595.584,665.2-600.747,666.523-605.864,666.523Zm-6.1-9.32a1.623,1.623,0,0,0-1.616,1.626v3.426c.228.446,2.8,1.7,7.715,1.7s7.486-1.255,7.729-1.779l-.014-3.348a1.623,1.623,0,0,0-1.618-1.626Z" transform="translate(637.503 -614.489)" fill="#002b45"/>
      <path id="Trazado_2712" data-name="Trazado 2712" d="M-606.669,656.775a6.136,6.136,0,0,1-6.118-6.142A6.109,6.109,0,0,1-611,646.292a6.066,6.066,0,0,1,4.327-1.8,6.069,6.069,0,0,1,4.329,1.8,6.107,6.107,0,0,1,1.789,4.34A6.135,6.135,0,0,1-606.669,656.775Zm0-9.717a3.515,3.515,0,0,0-2.51,1.044,3.566,3.566,0,0,0-1.042,2.531,3.568,3.568,0,0,0,3.553,3.576,3.568,3.568,0,0,0,3.553-3.576,3.561,3.561,0,0,0-1.042-2.53A3.511,3.511,0,0,0-606.669,647.058Z" transform="translate(638.307 -616.919)" fill="#002b45"/>
      <path id="Trazado_2713" data-name="Trazado 2713" d="M-623.1,644.278c-5.116,0-10.28-1.319-10.28-4.265v-3.429a4.192,4.192,0,0,1,4.182-4.191H-617a4.191,4.191,0,0,1,4.182,4.191v3.429C-612.814,642.959-617.977,644.278-623.1,644.278Zm-6.1-9.319a1.624,1.624,0,0,0-1.618,1.625v3.429c.229.444,2.8,1.7,7.715,1.7s7.487-1.256,7.73-1.778l-.014-3.35A1.623,1.623,0,0,0-617,634.959Z" transform="translate(633.375 -619.818)" fill="#002b45"/>
      <path id="Trazado_2714" data-name="Trazado 2714" d="M-623.9,634.531a6.059,6.059,0,0,1-4.327-1.8,6.107,6.107,0,0,1-1.79-4.34,6.114,6.114,0,0,1,1.79-4.34,6.064,6.064,0,0,1,4.327-1.8,6.137,6.137,0,0,1,6.118,6.141A6.136,6.136,0,0,1-623.9,634.531Zm0-9.717a3.515,3.515,0,0,0-2.509,1.044,3.615,3.615,0,0,0-1.044,2.531,3.61,3.61,0,0,0,1.043,2.53,3.516,3.516,0,0,0,2.51,1.046,3.569,3.569,0,0,0,3.554-3.576A3.568,3.568,0,0,0-623.9,624.814Z" transform="translate(634.179 -622.248)" fill="#002b45"/>
      <path id="Trazado_2715" data-name="Trazado 2715" d="M-588.634,644.278c-5.117,0-10.28-1.319-10.281-4.265v-3.429a4.192,4.192,0,0,1,4.182-4.191h12.2a4.192,4.192,0,0,1,4.182,4.191v3.429C-578.353,642.959-583.517,644.278-588.634,644.278Zm-6.1-9.319a1.623,1.623,0,0,0-1.616,1.625v3.429c.229.444,2.8,1.7,7.715,1.7s7.486-1.256,7.729-1.778l-.012-3.35a1.624,1.624,0,0,0-1.618-1.625Z" transform="translate(641.63 -619.818)" fill="#002b45"/>
      <path id="Trazado_2716" data-name="Trazado 2716" d="M-589.438,634.531a6.137,6.137,0,0,1-6.119-6.142,6.138,6.138,0,0,1,6.119-6.141,6.137,6.137,0,0,1,6.118,6.141A6.136,6.136,0,0,1-589.438,634.531Zm0-9.717a3.568,3.568,0,0,0-3.553,3.575,3.569,3.569,0,0,0,3.553,3.576,3.569,3.569,0,0,0,3.554-3.576A3.568,3.568,0,0,0-589.438,624.814Z" transform="translate(642.435 -622.248)" fill="#002b45"/>
      <path id="Trazado_2717" data-name="Trazado 2717" d="M-594.25,656.306l-1.812-1.816a20.626,20.626,0,0,0,5.349-9.241l2.478.666A23.2,23.2,0,0,1-594.25,656.306Z" transform="translate(642.314 -616.738)" fill="#7cb342"/>
      <path id="Trazado_2718" data-name="Trazado 2718" d="M-595.272,627.573a20.774,20.774,0,0,0-20.668,0l-1.281-2.223a23.348,23.348,0,0,1,23.229,0Z" transform="translate(637.245 -622.246)" fill="#7cb342"/>
      <path id="Trazado_2719" data-name="Trazado 2719" d="M-619.941,656.306a23.209,23.209,0,0,1-6.013-10.391l2.478-.666a20.625,20.625,0,0,0,5.347,9.241Z" transform="translate(635.153 -616.738)" fill="#7cb342"/>
    </g>
  </g>
</svg>
