<svg xmlns="http://www.w3.org/2000/svg" width="121" height="121" viewBox="0 0 121 121">
  <g id="Grupo_10113" data-name="Grupo 10113" transform="translate(-145 -4019)">
    <g id="Grupo_10094" data-name="Grupo 10094" transform="translate(2406 7926)">
      <circle id="Elipse_497" data-name="Elipse 497" cx="60.5" cy="60.5" r="60.5" transform="translate(-2261 -3907)" fill="#7cb342"/>
      <path id="Trazado_1178" data-name="Trazado 1178" d="M53.993,0A53.993,53.993,0,1,1,0,53.993,53.993,53.993,0,0,1,53.993,0Z" transform="translate(-2254 -3900)" fill="#fff"/>
    </g>
    <g id="Grupo_10099" data-name="Grupo 10099" transform="translate(174 4049)">
      <path id="Trazado_2720" data-name="Trazado 2720" d="M-603.977,1078.078c-5.774,0-11.989-1.5-11.99-4.8v-4.045a4.73,4.73,0,0,1,4.734-4.715h14.512a4.729,4.729,0,0,1,4.733,4.715v4.045C-591.989,1076.574-598.2,1078.078-603.977,1078.078Zm-7.256-11a2.16,2.16,0,0,0-2.168,2.149v4.045c.161.6,3.307,2.236,9.424,2.236s9.261-1.633,9.426-2.252l0-4.028a2.161,2.161,0,0,0-2.168-2.149Z" transform="translate(635.615 -1049.677)" fill="#002b45"/>
      <path id="Trazado_2721" data-name="Trazado 2721" d="M-604.934,1066.577a7.012,7.012,0,0,1-4.976-2.053,7.061,7.061,0,0,1-2.061-4.963,7.034,7.034,0,0,1,7.037-7.016,7.034,7.034,0,0,1,7.036,7.016,6.96,6.96,0,0,1-2.063,4.963A7.007,7.007,0,0,1-604.934,1066.577Zm0-11.466a4.466,4.466,0,0,0-4.472,4.45,4.478,4.478,0,0,0,1.308,3.146,4.592,4.592,0,0,0,6.327,0,4.406,4.406,0,0,0,1.308-3.145A4.466,4.466,0,0,0-604.934,1055.111Z" transform="translate(636.573 -1052.545)" fill="#002b45"/>
      <path id="Trazado_2722" data-name="Trazado 2722" d="M-623.725,1103.3c-3.734,0-8.093-.927-8.093-3.54v-2.594a3.485,3.485,0,0,1,3.477-3.486h9.233a3.486,3.486,0,0,1,3.478,3.486v2.594C-615.629,1102.372-619.99,1103.3-623.725,1103.3Zm-5.528-3.7c.434.418,2.392,1.133,5.528,1.133s5.1-.715,5.53-1.133v-2.436a.906.906,0,0,0-.912-.92h-9.233a.906.906,0,0,0-.912.92Z" transform="translate(631.818 -1042.691)" fill="#002b45"/>
      <path id="Trazado_2723" data-name="Trazado 2723" d="M-624.334,1095.921a4.957,4.957,0,0,1-4.942-4.959,4.941,4.941,0,0,1,1.445-3.507,4.907,4.907,0,0,1,3.5-1.454,4.908,4.908,0,0,1,3.5,1.454,4.937,4.937,0,0,1,1.447,3.507A4.958,4.958,0,0,1-624.334,1095.921Zm0-7.354a2.356,2.356,0,0,0-1.68.7,2.387,2.387,0,0,0-.7,1.7,2.389,2.389,0,0,0,2.377,2.393,2.389,2.389,0,0,0,2.379-2.393,2.383,2.383,0,0,0-.7-1.7A2.35,2.35,0,0,0-624.334,1088.567Z" transform="translate(632.427 -1044.53)" fill="#002b45"/>
      <path id="Trazado_2724" data-name="Trazado 2724" d="M-604.729,1103.3c-3.734,0-8.094-.927-8.1-3.539v-2.6a3.486,3.486,0,0,1,3.478-3.486h9.233a3.485,3.485,0,0,1,3.477,3.486v2.594C-596.636,1102.372-601,1103.3-604.729,1103.3Zm-5.53-3.7c.434.418,2.392,1.133,5.53,1.133s5.095-.715,5.528-1.133v-2.436a.906.906,0,0,0-.912-.92h-9.233a.906.906,0,0,0-.912.92Z" transform="translate(636.368 -1042.691)" fill="#002b45"/>
      <path id="Trazado_2725" data-name="Trazado 2725" d="M-605.338,1095.921a4.958,4.958,0,0,1-4.945-4.959,4.938,4.938,0,0,1,1.447-3.507,4.909,4.909,0,0,1,3.5-1.454,4.9,4.9,0,0,1,3.5,1.454,4.938,4.938,0,0,1,1.447,3.507A4.957,4.957,0,0,1-605.338,1095.921Zm0-7.354a2.354,2.354,0,0,0-1.681.7,2.387,2.387,0,0,0-.7,1.7,2.389,2.389,0,0,0,2.379,2.393,2.389,2.389,0,0,0,2.378-2.393,2.383,2.383,0,0,0-.7-1.7A2.351,2.351,0,0,0-605.338,1088.567Z" transform="translate(636.977 -1044.53)" fill="#002b45"/>
      <path id="Trazado_2726" data-name="Trazado 2726" d="M-585.737,1103.3c-3.733,0-8.093-.927-8.094-3.539v-2.6a3.486,3.486,0,0,1,3.478-3.486h9.232a3.486,3.486,0,0,1,3.478,3.486v2.594C-577.642,1102.372-582,1103.3-585.737,1103.3Zm-5.53-3.7c.434.418,2.392,1.133,5.53,1.133s5.1-.715,5.53-1.133v-2.436a.907.907,0,0,0-.914-.92h-9.232a.907.907,0,0,0-.914.92Z" transform="translate(640.918 -1042.691)" fill="#002b45"/>
      <path id="Trazado_2727" data-name="Trazado 2727" d="M-586.346,1095.921a4.957,4.957,0,0,1-4.943-4.959,4.94,4.94,0,0,1,1.445-3.505,4.974,4.974,0,0,1,3.5-1.455,4.906,4.906,0,0,1,3.5,1.454,4.939,4.939,0,0,1,1.447,3.507A4.957,4.957,0,0,1-586.346,1095.921Zm0-7.354a2.385,2.385,0,0,0-1.68.7,2.419,2.419,0,0,0-.7,1.7,2.39,2.39,0,0,0,2.379,2.393,2.39,2.39,0,0,0,2.379-2.393,2.392,2.392,0,0,0-.7-1.7A2.358,2.358,0,0,0-586.346,1088.567Z" transform="translate(641.527 -1044.53)" fill="#002b45"/>
      <rect id="Rectángulo_2811" data-name="Rectángulo 2811" width="2.565" height="7.729" transform="translate(30.355 31.18)" fill="#7cb342"/>
      <path id="Trazado_2728" data-name="Trazado 2728" d="M-623.772,1084.93h-2.565v-3.865a1.283,1.283,0,0,1,1.282-1.283h23.563v2.567h-22.28Z" transform="translate(633.131 -1046.02)" fill="#7cb342"/>
      <path id="Trazado_2729" data-name="Trazado 2729" d="M-581.451,1084.93h-2.565v-2.581h-22.279v-2.567h23.56a1.283,1.283,0,0,1,1.283,1.283Z" transform="translate(637.932 -1046.02)" fill="#7cb342"/>
    </g>
  </g>
</svg>
