<svg xmlns="http://www.w3.org/2000/svg" width="121" height="121" viewBox="0 0 121 121">
  <g id="Grupo_10114" data-name="Grupo 10114" transform="translate(-145 -4199)">
    <g id="Grupo_10096" data-name="Grupo 10096" transform="translate(2406 8106)">
      <circle id="Elipse_497" data-name="Elipse 497" cx="60.5" cy="60.5" r="60.5" transform="translate(-2261 -3907)" fill="#7cb342"/>
      <path id="Trazado_1178" data-name="Trazado 1178" d="M53.993,0A53.993,53.993,0,1,1,0,53.993,53.993,53.993,0,0,1,53.993,0Z" transform="translate(-2254 -3900)" fill="#fff"/>
    </g>
    <g id="Grupo_10100" data-name="Grupo 10100" transform="translate(174 4227)">
      <path id="Trazado_2730" data-name="Trazado 2730" d="M-610.52,1242.766a1.283,1.283,0,0,1-1.282-1.283v-18.044h2.565v16.554a4.051,4.051,0,0,0,1.58-.983,4.116,4.116,0,0,0,1.189-2.882v-14.307a3.064,3.064,0,0,0-3.053-3.068h-18.236a3.064,3.064,0,0,0-3.053,3.068v14.307a4.056,4.056,0,0,0,1.189,2.881,4.053,4.053,0,0,0,1.58.984v-16.554h2.565v18.044a1.283,1.283,0,0,1-1.283,1.283,6.562,6.562,0,0,1-4.679-1.946,6.6,6.6,0,0,1-1.936-4.692v-14.307a5.632,5.632,0,0,1,5.618-5.634h18.236a5.632,5.632,0,0,1,5.618,5.634v14.307a6.6,6.6,0,0,1-1.936,4.692A6.564,6.564,0,0,1-610.52,1242.766Z" transform="translate(633.375 -1197.378)" fill="#002b45"/>
      <rect id="Rectángulo_2812" data-name="Rectángulo 2812" width="2.565" height="20.282" transform="translate(5.333 44.105)" fill="#002b45"/>
      <rect id="Rectángulo_2813" data-name="Rectángulo 2813" width="2.565" height="17.959" transform="translate(13.454 46.427)" fill="#002b45"/>
      <path id="Trazado_2731" data-name="Trazado 2731" d="M-619.842,1218.114a8.438,8.438,0,0,1-6.022-2.509,8.512,8.512,0,0,1-2.49-6.043,8.513,8.513,0,0,1,2.49-6.043,8.436,8.436,0,0,1,6.022-2.506,8.436,8.436,0,0,1,6.022,2.506,8.508,8.508,0,0,1,2.49,6.043,8.508,8.508,0,0,1-2.49,6.043A8.438,8.438,0,0,1-619.842,1218.114Zm0-14.535a5.892,5.892,0,0,0-4.2,1.749,5.97,5.97,0,0,0-1.744,4.234,5.97,5.97,0,0,0,1.744,4.234,5.89,5.89,0,0,0,4.2,1.75,5.89,5.89,0,0,0,4.2-1.75,5.966,5.966,0,0,0,1.744-4.234,5.965,5.965,0,0,0-1.744-4.234A5.892,5.892,0,0,0-619.842,1203.579Z" transform="translate(634.578 -1201.013)" fill="#002b45"/>
      <rect id="Rectángulo_2814" data-name="Rectángulo 2814" width="2.565" height="20.282" transform="translate(21.573 44.105)" fill="#002b45"/>
      <path id="Trazado_2732" data-name="Trazado 2732" d="M-595.737,1252.3H-601.7a1.283,1.283,0,0,1-1.283-1.284v-39a1.283,1.283,0,0,1,1.283-1.284h5.964v2.567h-4.682v36.436h4.682Z" transform="translate(640.655 -1198.684)" fill="#7cb342"/>
      <rect id="Rectángulo_2815" data-name="Rectángulo 2815" width="5.386" height="2.566" transform="translate(33.568 31.552)" fill="#7cb342"/>
      <rect id="Rectángulo_2816" data-name="Rectángulo 2816" width="4.656" height="2.566" transform="translate(40.262 31.552)" fill="#7cb342"/>
      <path id="Trazado_2733" data-name="Trazado 2733" d="M-580.822,1220.361h-11.859a1.283,1.283,0,0,1-1.282-1.283v-11.835a1.283,1.283,0,0,1,1.282-1.283h11.859a1.284,1.284,0,0,1,1.283,1.283v11.835A1.284,1.284,0,0,1-580.822,1220.361ZM-591.4,1217.8h9.294v-9.269H-591.4Z" transform="translate(642.816 -1199.828)" fill="#002b45"/>
      <path id="Trazado_2734" data-name="Trazado 2734" d="M-580.822,1236.094h-11.859a1.283,1.283,0,0,1-1.282-1.284v-11.833a1.283,1.283,0,0,1,1.282-1.284h11.859a1.284,1.284,0,0,1,1.283,1.284v11.833A1.284,1.284,0,0,1-580.822,1236.094Zm-10.576-2.567h9.294v-9.267H-591.4Z" transform="translate(642.816 -1196.059)" fill="#002b45"/>
      <path id="Trazado_2735" data-name="Trazado 2735" d="M-580.822,1251.826h-11.859a1.283,1.283,0,0,1-1.282-1.283v-11.834a1.283,1.283,0,0,1,1.282-1.283h11.859a1.284,1.284,0,0,1,1.283,1.283v11.834A1.284,1.284,0,0,1-580.822,1251.826Zm-10.576-2.566h9.294v-9.268H-591.4Z" transform="translate(642.816 -1192.29)" fill="#002b45"/>
      <path id="Trazado_2736" data-name="Trazado 2736" d="M-588.312,1215.3a1.285,1.285,0,0,1-.874-.343l-2.1-1.954,1.748-1.878,1.226,1.141,3.065-2.851,1.747,1.879-3.939,3.663A1.28,1.28,0,0,1-588.312,1215.3Z" transform="translate(643.458 -1198.999)" fill="#7cb342"/>
      <path id="Trazado_2737" data-name="Trazado 2737" d="M-588.312,1231a1.279,1.279,0,0,1-.874-.343l-2.1-1.952,1.748-1.879,1.226,1.14,3.065-2.851,1.747,1.879-3.939,3.663A1.274,1.274,0,0,1-588.312,1231Z" transform="translate(643.458 -1195.239)" fill="#7cb342"/>
      <path id="Trazado_2738" data-name="Trazado 2738" d="M-588.312,1246.732a1.28,1.28,0,0,1-.874-.345l-2.1-1.952,1.748-1.878,1.226,1.139,3.065-2.85,1.747,1.878-3.939,3.663A1.275,1.275,0,0,1-588.312,1246.732Z" transform="translate(643.458 -1191.47)" fill="#7cb342"/>
    </g>
  </g>
</svg>
